<?xml version="1.0" encoding="utf-8" standalone="yes"?>
<!DOCTYPE svg PUBLIC "-//W3C//DTD SVG 1.1//EN" "http://www.w3.org/Graphics/SVG/1.1/DTD/svg11.dtd">
<svg width="914" height="470" viewBox="0 0 914 470" style="fill:none;stroke:none;fill-rule:evenodd;clip-rule:evenodd;stroke-linecap:round;stroke-linejoin:round;stroke-miterlimit:1.5;" version="1.1" xmlns="http://www.w3.org/2000/svg" xmlns:xlink="http://www.w3.org/1999/xlink"><style id="fontImports">@import url("https://fonts.googleapis.com/css2?family=Roboto:wght@400;700&amp;display=block");</style><rect id="" x="0" y="0" width="914" height="470" style="fill: #ffffff;"></rect><g id="items" style="isolation: isolate"><g id="blend" style="mix-blend-mode: normal"><g id="g-root-tf_1cz9phg1tsnjt2-fill" data-item-order="-426816" transform="translate(-9, -9)"><g id="tf_1cz9phg1tsnjt2-fill" stroke="none" fill="#ffffff"><g><path d="M 10 10L 922 10L 922 478L 10 478Z"></path></g></g></g><g id="g-root-3.cu_sy_93dzk41tsumf7-fill" data-item-order="-71910" transform="translate(398.9998779296875, 75)"><g id="3.cu_sy_93dzk41tsumf7-fill" stroke="none" fill="#ffeceb"><g><path d="M 34 10L 34 178L 10 178L 58 225.746L 106 178L 82 178L 82 10L 34 10Z"></path></g></g></g><g id="g-root-2.cu_sy_8dgec1tsuk24-fill" data-item-order="-71906" transform="translate(482.999755859375, 75)"><g id="2.cu_sy_8dgec1tsuk24-fill" stroke="none" fill="#e3fff2"><g><path d="M 10 34L 10 10L 57.9998 10L 57.9998 34C 57.9998 53.8822 74.1184 70 94.0006 70L 94.0006 47.3309L 140.67 94L 94.0007 140.669L 94.0007 118C 47.6087 118 10 80.3919 10 34Z"></path></g></g></g><g id="g-root-1.cu_sy_8dgec1tsuk25-fill" data-item-order="-71902" transform="translate(280.3319091796875, 75)"><g id="1.cu_sy_8dgec1tsuk25-fill" stroke="none" fill="#edf4ff"><g><path d="M 140.67 34L 140.67 10L 92.6699 10L 92.6699 34C 92.6699 53.8822 76.5513 70 56.6691 70L 56.6691 47.3309L 10 94L 56.669 140.669L 56.669 118C 103.061 118 140.67 80.3919 140.67 34Z"></path></g></g></g><g id="g-root-tx_quanduti_1umssas1tsw0ee-fill" data-item-order="0" transform="translate(327, 39)"><g id="tx_quanduti_1umssas1tsw0ee-fill" stroke="none" fill="#484848"><g><text style="font: bold 20px Roboto, sans-serif; white-space: pre;" font-weight="bold" font-size="20px" font-family="Roboto, sans-serif"><tspan x="17.11" y="33.75" dominant-baseline="ideographic">Quand utiliser les types ?</tspan></text></g></g></g><g id="g-root-tx_projetsc_8x58p01tsvz0k-fill" data-item-order="0" transform="translate(87, 147)"><g id="tx_projetsc_8x58p01tsvz0k-fill" stroke="none" fill="#4e88e7"><g><text style="font: bold 20px Roboto, sans-serif; white-space: pre;" font-weight="bold" font-size="20px" font-family="Roboto, sans-serif"><tspan x="18.66" y="33.75" dominant-baseline="ideographic">Projets Complexes</tspan></text></g></g></g><g id="g-root-wind_mcz2o41tt1kp2-fill" data-item-order="0" transform="translate(309, 141)"></g><g id="g-root-2_dfgn5w1tt093e-fill" data-item-order="0" transform="translate(549, 141)"></g><g id="g-root-tx_travaile_13ymtdw1tsw1e0-fill" data-item-order="0" transform="translate(627, 147)"><g id="tx_travaile_13ymtdw1tsw1e0-fill" stroke="none" fill="#3cc583"><g><text style="font: bold 20px Roboto, sans-serif; white-space: pre;" font-weight="bold" font-size="20px" font-family="Roboto, sans-serif"><tspan x="12" y="33.75" dominant-baseline="ideographic">Travail en Équipe</tspan></text></g></g></g><g id="g-root-tx_utilisez_qnss3o1tsvzt6-fill" data-item-order="0" transform="translate(15, 183)"><g id="tx_utilisez_qnss3o1tsvzt6-fill" stroke="none" fill="#484848"><g><text style="font: 20px Roboto, sans-serif; white-space: pre;" font-size="20px" font-family="Roboto, sans-serif"><tspan x="21.72" y="33.75" dominant-baseline="ideographic">Utilisez des types pour une </tspan><tspan x="85.35" y="57.75" dominant-baseline="ideographic">meilleure gestion et </tspan><tspan x="139.2" y="81.75" dominant-baseline="ideographic">maintenance.</tspan></text></g></g></g><g id="g-root-tx_utilisez_1lpwtvo1tsvz0u-fill" data-item-order="0" transform="translate(627, 183)"><g id="tx_utilisez_1lpwtvo1tsvz0u-fill" stroke="none" fill="#484848"><g><text style="font: 20px Roboto, sans-serif; white-space: pre;" font-size="20px" font-family="Roboto, sans-serif"><tspan x="12" y="33.75" dominant-baseline="ideographic">Utilisez des types pour une </tspan><tspan x="12" y="57.75" dominant-baseline="ideographic">documentation et une </tspan><tspan x="12" y="81.75" dominant-baseline="ideographic">collaboration claires.</tspan></text></g></g></g><g id="g-root-malf_1hbyr0k1tsvytk-fill" data-item-order="0" transform="translate(429, 225)"></g><g id="g-root-tx_applicat_9mekk1tsum8c-fill" data-item-order="0" transform="translate(345, 303)"><g id="tx_applicat_9mekk1tsum8c-fill" stroke="none" fill="#e55753"><g><text style="font: bold 20px Roboto, sans-serif; white-space: pre;" font-weight="bold" font-size="20px" font-family="Roboto, sans-serif"><tspan x="12.77" y="33.75" dominant-baseline="ideographic">Applications Critiques</tspan></text></g></g></g><g id="g-root-tx_utilisez_qvwy841tsum8a-fill" data-item-order="0" transform="translate(339, 339)"><g id="tx_utilisez_qvwy841tsum8a-fill" stroke="none" fill="#484848"><g><text style="font: 20px Roboto, sans-serif; white-space: pre;" font-size="20px" font-family="Roboto, sans-serif"><tspan x="15.2" y="33.75" dominant-baseline="ideographic">Utilisez des types pour </tspan><tspan x="15.55" y="57.75" dominant-baseline="ideographic">assurer la fiabilité et la </tspan><tspan x="77.29" y="81.75" dominant-baseline="ideographic">sécurité.</tspan></text></g></g></g><g id="g-root-tf_1cz9phg1tsnjt2-stroke" data-item-order="-426816" transform="translate(-9, -9)"></g><g id="g-root-3.cu_sy_93dzk41tsumf7-stroke" data-item-order="-71910" transform="translate(398.9998779296875, 75)"><g id="3.cu_sy_93dzk41tsumf7-stroke" fill="none" stroke-linecap="round" stroke-linejoin="round" stroke-miterlimit="4" stroke="#e55753" stroke-width="2"><g><path d="M 34 10L 34 178L 10 178L 58 225.7461L 106 178L 82 178L 82 10L 34 10Z"></path></g></g></g><g id="g-root-2.cu_sy_8dgec1tsuk24-stroke" data-item-order="-71906" transform="translate(482.999755859375, 75)"><g id="2.cu_sy_8dgec1tsuk24-stroke" fill="none" stroke-linecap="round" stroke-linejoin="round" stroke-miterlimit="4" stroke="#3cc583" stroke-width="2"><g><path d="M 10 34L 10 10L 57.9998 10L 57.9998 34C 57.9998 53.8822 74.1184 70 94.0006 70L 94.0006 47.3309L 140.6697 94L 94.0007 140.669L 94.0007 117.9999C 47.6087 117.9999 10 80.3919 10 34Z"></path></g></g></g><g id="g-root-1.cu_sy_8dgec1tsuk25-stroke" data-item-order="-71902" transform="translate(280.3319091796875, 75)"><g id="1.cu_sy_8dgec1tsuk25-stroke" fill="none" stroke-linecap="round" stroke-linejoin="round" stroke-miterlimit="4" stroke="#4e88e7" stroke-width="2"><g><path d="M 140.6697 34L 140.6697 10L 92.6699 10L 92.6699 34C 92.6699 53.8822 76.5513 70 56.6691 70L 56.6691 47.3309L 10 94L 56.669 140.669L 56.669 117.9999C 103.061 117.9999 140.6697 80.3919 140.6697 34Z"></path></g></g></g><g id="g-root-tx_quanduti_1umssas1tsw0ee-stroke" data-item-order="0" transform="translate(327, 39)"></g><g id="g-root-tx_projetsc_8x58p01tsvz0k-stroke" data-item-order="0" transform="translate(87, 147)"></g><g id="g-root-wind_mcz2o41tt1kp2-stroke" data-item-order="0" transform="translate(309, 141)"><g id="wind_mcz2o41tt1kp2-stroke" fill="none" stroke-linecap="round" stroke-linejoin="round" stroke-miterlimit="4" stroke="#4e88e7" stroke-width="2"><g><path d="M 41.425003 44.875L 14.424925 44.875L 14.424925 17.125C 14.424925 16.225 15.024925 15.625 15.924925 15.625L 39.925003 15.625C 40.824997 15.625 41.425003 16.225 41.425003 17.125L 41.425003 44.875ZM 44.875 44.875L 11.125 44.875M 21.924925 15.625L 21.924925 44.875M 33.924999 15.625L 33.924999 44.875M 23.424925 36.625L 32.424999 36.625M 28 36.625L 28 44.875M 14.424925 23.125L 41.425003 23.125M 14.424925 29.875L 41.425003 29.875M 14.424925 36.625L 41.425003 36.625M 26.424999 15.625L 26.424999 11.125L 39.925003 11.125L 39.925003 15.625"></path></g></g></g><g id="g-root-2_dfgn5w1tt093e-stroke" data-item-order="0" transform="translate(549, 141)"><g id="2_dfgn5w1tt093e-stroke" fill="none" stroke-linecap="round" stroke-linejoin="round" stroke-miterlimit="4" stroke="#3cc583" stroke-width="2"><g><path d="M 10.75 35.677002C 10.75 37.899673 12.55183 39.7015 14.7745 39.7015C 16.997169 39.7015 18.799 37.899673 18.799 35.677002C 18.799 33.45433 16.997169 31.6525 14.7745 31.6525C 12.55183 31.6525 10.75 33.45433 10.75 35.677002M 21.122499 45.0415C 20.300184 43.115704 18.647827 41.66753 16.630823 41.10487C 14.613819 40.54221 12.450436 40.925949 10.75 42.147999M 37.201 35.677002C 37.201 37.899673 39.002831 39.7015 41.225502 39.7015C 43.44817 39.7015 45.250004 37.899673 45.250004 35.677002C 45.250004 33.45433 43.44817 31.6525 41.225502 31.6525C 39.002831 31.6525 37.201 33.45433 37.201 35.677002M 34.877499 45.0415C 35.699814 43.115704 37.352173 41.66753 39.369175 41.10487C 41.386181 40.54221 43.549561 40.925949 45.249996 42.147999M 22.825001 34.526501C 22.824268 37.38509 25.141409 39.702827 28 39.702827C 30.858591 39.702827 33.175732 37.38509 33.174999 34.526501C 33.175732 31.667908 30.858591 29.350174 28 29.350174C 25.141409 29.350174 22.824268 31.667908 22.825001 34.526501M 34.877499 45.0415C 33.115093 43.105305 30.618187 42.00169 27.999998 42.00169C 25.381811 42.00169 22.884903 43.105305 21.122499 45.041496M 25.7005 21.3085C 25.7005 22.57848 26.730022 23.608002 28 23.608002C 29.269979 23.608002 30.2995 22.57848 30.2995 21.3085C 30.2995 20.038521 29.269979 19.009001 28 19.009001C 26.730022 19.009001 25.7005 20.038521 25.7005 21.3085M 23.569 26.933498L 21.309999 27.456999C 20.432459 27.653269 19.529362 27.255322 19.082037 26.475256C 18.634712 25.69519 18.747383 24.714758 19.360001 24.056499L 20.936501 22.352499C 21.482489 21.763 21.482489 20.852499 20.936501 20.263L 19.357 18.560499C 18.745317 17.901806 18.633148 16.921835 19.080166 16.141958C 19.527185 15.362082 20.429478 14.963594 21.306999 15.1585L 23.566 15.682C 24.34894 15.860968 25.1364 15.401616 25.366001 14.632L 26.049999 12.4105C 26.309105 11.547974 27.103146 10.957408 28.00375 10.957408C 28.904354 10.957408 29.698397 11.547974 29.9575 12.4105L 30.6355 14.638C 30.865101 15.407616 31.652561 15.866968 32.435501 15.688L 34.685501 15.1645C 35.563019 14.969594 36.465313 15.368082 36.912331 16.147959C 37.359352 16.927835 37.247181 17.907804 36.635498 18.5665L 35.062 20.263C 34.51746 20.853065 34.51746 21.762432 35.061996 22.352499L 36.642998 24.056499C 37.255619 24.714758 37.36829 25.69519 36.920963 26.475256C 36.47364 27.255322 35.570545 27.653269 34.693001 27.457001L 32.443001 26.933498M 23.950001 31.299999C 26.489704 33.530552 29.797325 34.685989 33.1735 34.522003M 11.614 33.193001C 13.600362 34.91534 16.174538 35.805099 18.800501 35.677002M 38.063499 33.193001C 40.049862 34.91534 42.624039 35.805099 45.250004 35.677002"></path></g></g></g><g id="g-root-tx_travaile_13ymtdw1tsw1e0-stroke" data-item-order="0" transform="translate(627, 147)"></g><g id="g-root-tx_utilisez_qnss3o1tsvzt6-stroke" data-item-order="0" transform="translate(15, 183)"></g><g id="g-root-tx_utilisez_1lpwtvo1tsvz0u-stroke" data-item-order="0" transform="translate(627, 183)"></g><g id="g-root-malf_1hbyr0k1tsvytk-stroke" data-item-order="0" transform="translate(429, 225)"><g id="malf_1hbyr0k1tsvytk-stroke" fill="none" stroke-linecap="round" stroke-linejoin="round" stroke-miterlimit="4" stroke="#e55753" stroke-width="2"><g><path d="M 32.087502 33.474998C 33.137501 34.974998 33.737499 36.775002 33.737499 38.875L 33.737499 40.375M 26.087502 32.724998L 26.087502 40.375M 21.587469 40.375L 21.587469 28.375C 21.587469 27.474998 22.187469 26.875 23.087471 26.875M 36.587502 43.375C 36.587502 44.275002 35.987503 44.875 35.087502 44.875L 12.58747 44.875C 11.687469 44.875 11.087464 44.275002 11.087464 43.375L 11.087464 41.875C 11.087464 40.974998 11.687469 40.375 12.58747 40.375L 35.087502 40.375C 35.987503 40.375 36.587502 40.974998 36.587502 41.875L 36.587502 43.375ZM 21.587469 29.424999C 17.237469 30.474998 14.08747 34.375 14.08747 38.875L 14.08747 40.375M 35.912498 24.924969C 35.58115 24.924969 35.3125 24.656349 35.3125 24.324986C 35.3125 23.993605 35.58115 23.724985 35.912498 23.724985M 35.912498 24.924969C 36.243851 24.924969 36.512497 24.656349 36.512497 24.324986C 36.512497 23.993605 36.243851 23.724985 35.912498 23.724985M 35.912498 19.824986L 35.912498 17.574986M 37.112503 11.875C 36.8125 11.425 36.362503 11.125 35.912498 11.125C 35.3125 11.125 34.862503 11.425 34.712502 11.875L 27.0625 26.275002C 26.762501 26.724998 26.912498 27.174999 27.0625 27.625C 27.362499 28.075001 27.8125 28.224998 28.262501 28.224998L 43.412498 28.224998C 43.862503 28.224998 44.3125 27.924999 44.612503 27.625C 44.912498 27.174999 44.912498 26.724998 44.612503 26.275002L 37.112503 11.875Z"></path></g></g></g><g id="g-root-tx_applicat_9mekk1tsum8c-stroke" data-item-order="0" transform="translate(345, 303)"></g><g id="g-root-tx_utilisez_qvwy841tsum8a-stroke" data-item-order="0" transform="translate(339, 339)"></g></g></g></svg>