<?xml version="1.0" encoding="utf-8" standalone="yes"?>
<!DOCTYPE svg PUBLIC "-//W3C//DTD SVG 1.1//EN" "http://www.w3.org/Graphics/SVG/1.1/DTD/svg11.dtd">
<svg width="756" height="746" viewBox="0 0 756 746" style="fill:none;stroke:none;fill-rule:evenodd;clip-rule:evenodd;stroke-linecap:round;stroke-linejoin:round;stroke-miterlimit:1.5;" version="1.1" xmlns="http://www.w3.org/2000/svg" xmlns:xlink="http://www.w3.org/1999/xlink"><style id="fontImports">@import url("https://fonts.googleapis.com/css2?family=Roboto:wght@400;700&amp;display=block");</style><rect id="" x="0" y="0" width="755.355" height="745.989" style="fill: #ffffff;"></rect><g id="items" style="isolation: isolate"><g id="blend" style="mix-blend-mode: normal"><g id="g-root-tf_1um5sac1rl0miq-fill" data-item-order="-560488" transform="translate(-9, -9)"><g id="tf_1um5sac1rl0miq-fill" stroke="none" fill="#ffffff"><g><path d="M 9.997521 10L 763.357521 10L 763.357521 753.99L 9.997521 753.99Z"></path></g></g></g><g id="g-root-5.cu_sy_v4umb81rkqs5j-fill" data-item-order="-185097" transform="translate(399.0826110839844, 467.09722900390625)"><g id="5.cu_sy_v4umb81rkqs5j-fill" stroke="none" fill="#4e88e7"><g><path d="M 170.636001 229.891641C 259.353001 229.891641 331.272 188.262641 331.272 136.910641L 331.272 102.980841C 331.272 108.774841 330.357001 114.445141 328.605 119.945841C 314.829001 163.196641 249.343001 195.961641 170.636001 195.961641C 91.929301 195.961641 26.443301 163.196641 12.6676 119.945841C 10.9156 114.445141 10 108.774841 10 102.980841L 10 136.910641C 10 188.262641 81.919301 229.891641 170.636001 229.891641ZM 35.363801 102.981041C 35.363801 108.806541 36.4629 114.483441 38.5476 119.946041C 43.5832 106.750941 54.369701 94.806041 69.307501 85.037141C 61.5016 79.932341 54.829201 74.233241 49.518801 68.072141C 40.459801 78.582341 35.363801 90.437241 35.363801 102.981041ZM 170.636001 24.681641C 139.439001 24.681641 110.708 30.794541 87.8241 41.064041C 101.696301 50.257841 120.064 57.120641 140.943001 60.503941C 150.498001 59.265241 160.435001 58.611641 170.636001 58.611641C 180.837001 58.611641 190.775001 59.265241 200.331 60.504141C 221.21 57.120941 239.577001 50.258341 253.450001 41.064641C 230.565001 30.794841 201.834001 24.681641 170.636001 24.681641ZM 302.725 119.946041C 304.810001 114.483441 305.909001 108.806541 305.909001 102.981041C 305.909001 90.437241 300.813001 78.582341 291.754 68.072141C 286.443001 74.233241 279.771001 79.932341 271.965 85.037141C 286.903 94.806041 297.689001 106.750941 302.725 119.946041ZM 12.6676 119.946C 26.443301 163.196 91.929301 195.961 170.636001 195.961C 249.343001 195.961 314.829001 163.196 328.605 119.946C 330.357001 114.445 331.272 108.7747 331.272 102.9806C 331.272 83.3226 320.733001 65.0894 302.747001 50.071C 300.343001 56.3916 296.62 62.4258 291.754 68.072C 300.813001 78.5821 305.909001 90.437 305.909001 102.9809C 305.909001 108.8063 304.810001 114.483 302.725 119.946C 289.334001 155.033 235.281001 181.28 170.636001 181.28C 105.991601 181.28 51.937901 155.033 38.5476 119.946C 36.4629 114.483 35.363801 108.8063 35.363801 102.9809C 35.363801 90.437 40.459801 78.5821 49.518801 68.072C 44.6522 62.4258 40.929301 56.3916 38.525801 50.071C 20.539301 65.0894 10 83.3226 10 102.9806C 10 108.7747 10.9156 114.445 12.6676 119.946ZM 170.636001 10C 134.102001 10 100.417101 17.0595 73.429701 28.9503C 77.419301 33.3138 82.2601 37.3763 87.8241 41.0639C 110.708 30.7944 139.439001 24.6815 170.636001 24.6815C 201.834001 24.6815 230.565001 30.7947 253.450001 41.0644C 259.014 37.3769 263.855 33.3144 267.844001 28.951C 240.857001 17.0598 207.171001 10 170.636001 10Z"></path></g></g></g><g id="g-root-4.cu_sy_qp146s1rkqsxs-fill" data-item-order="-185093" transform="translate(424.4497985839844, 378.03082275390625)"><g id="4.cu_sy_qp146s1rkqsxs-fill" stroke="none" fill="#3cc583"><g><path d="M 145.272 200.52864C 219.981 200.52864 280.545 165.47264 280.545 122.22954L 280.545 88.29954C 280.545 94.12504 279.446 99.80194 277.361 105.26454C 263.971 140.35164 209.917 166.59864 145.272 166.59864C 80.6278 166.59864 26.5741 140.35164 13.1838 105.26454C 11.0991 99.80194 10 94.12504 10 88.29954L 10 122.22954C 10 165.47264 70.5635 200.52864 145.272 200.52864ZM 145.274 24.68164C 132.146 24.68164 119.556 26.01374 107.8852 28.45724C 119.158 31.67964 131.85 33.49034 145.274 33.49034C 158.697 33.49034 171.389 31.67964 182.662 28.45724C 170.991 26.01374 158.401 24.68164 145.274 24.68164ZM 251.232 105.26544C 253.807 99.86444 255.183 94.17544 255.183 88.30044C 255.183 75.40914 248.559 63.41344 237.174 53.39154C 229.653 60.01114 220.055 65.76974 208.917 70.35654C 229.233 78.72274 244.424 90.98754 251.232 105.26544ZM 35.3638 88.30044C 35.3638 94.17544 36.7396 99.86444 39.3149 105.26544C 46.123 90.98754 61.3138 78.72264 81.6299 70.35654C 70.4916 65.76974 60.8939 60.01114 53.3735 53.39144C 41.988 63.41344 35.3638 75.40914 35.3638 88.30044ZM 107.8852 28.4571C 119.556 26.0136 132.146 24.6815 145.274 24.6815C 158.401 24.6815 170.991 26.0136 182.662 28.4571C 191.542 25.9186 199.541 22.5041 206.322 18.4086C 187.981 13.0305 167.238 10 145.272 10C 123.307 10 102.5646 13.0303 84.2245 18.4081C 91.0056 22.5039 99.0049 25.9185 107.8852 28.4571ZM 13.1838 105.2644C 26.5741 140.352 80.6278 166.599 145.272 166.599C 209.917 166.599 263.971 140.352 277.361 105.2644C 279.446 99.8018 280.545 94.1249 280.545 88.2994C 280.545 69.3758 268.947 52.0201 249.641 38.4839C 246.603 43.798 242.388 48.8016 237.174 53.3913C 248.559 63.4133 255.183 75.409 255.183 88.3002C 255.183 94.1753 253.807 99.8643 251.232 105.2652C 238.406 132.165 195.825 151.919 145.274 151.919C 94.7219 151.919 52.1413 132.165 39.3149 105.2652C 36.7396 99.8643 35.3638 94.1753 35.3638 88.3002C 35.3638 75.409 41.988 63.4133 53.3735 53.3913C 48.159 48.8013 43.9432 43.7973 40.9051 38.4828C 21.5984 52.0192 10 69.3753 10 88.2994C 10 94.1249 11.0991 99.8018 13.1838 105.2644Z"></path></g></g></g><g id="g-root-3.cu_sy_hte3xw1rkqtqh-fill" data-item-order="-185089" transform="translate(449.8130798339844, 305.84722900390625)"><g id="3.cu_sy_hte3xw1rkqtqh-fill" stroke="none" fill="#e0cb15"><g><path d="M 119.91 154.285125C 180.611 154.285125 229.819 125.802125 229.819 90.666825L 229.819 56.736825C 229.819 62.611825 228.444 68.300825 225.868 73.701825C 213.042 100.601425 170.461 120.355525 119.91 120.355525C 69.3581 120.355525 26.7775 100.601425 13.9511 73.701825C 11.3758 68.300825 10 62.611825 10 56.736825L 10 90.666825C 10 125.802125 59.2083 154.285125 119.91 154.285125ZM 199.237 73.702025C 202.612 68.416525 204.456 62.701325 204.456 56.737025C 204.456 43.067525 194.773 30.707125 179.161 21.828125C 163.905 30.504825 142.987 35.856725 119.91 35.856725C 96.8321 35.856725 75.914 30.504825 60.658 21.828125C 45.0463 30.707125 35.3638 43.067525 35.3638 56.737025C 35.3638 62.701325 37.2072 68.416525 40.5821 73.702025C 52.5008 55.036425 83.5205 41.729525 119.91 41.729525C 156.299 41.729525 187.319 55.036425 199.237 73.702025ZM 225.868 73.7015C 228.444 68.3006 229.819 62.6115 229.819 56.7365C 229.819 38.2598 216.212 21.6227 194.48 10C 190.421 14.385 185.241 18.3704 179.161 21.8279C 194.773 30.7068 204.456 43.0673 204.456 56.7367C 204.456 62.7011 202.612 68.4162 199.237 73.7017C 187.319 92.3673 156.299 105.6742 119.91 105.6742C 83.5205 105.6742 52.5008 92.3673 40.5821 73.7017C 37.2072 68.4162 35.3638 62.7011 35.3638 56.7367C 35.3638 43.0673 45.0463 30.7068 60.658 21.8279C 54.5788 18.3704 49.3986 14.385 45.3392 10C 23.6079 21.6227 10 38.2598 10 56.7365C 10 62.6115 11.3758 68.3006 13.9511 73.7015C 26.7775 100.6011 69.3581 120.355 119.91 120.355C 170.461 120.355 213.042 100.6011 225.868 73.7015Z"></path></g></g></g><g id="g-root-2.cu_sy_ddkltg1rkquiq-fill" data-item-order="-185085" transform="translate(475.1724548339844, 205.17340087890625)"><g id="2.cu_sy_ddkltg1rkquiq-fill" stroke="none" fill="#de8431"><g><path d="M 94.546 136.53025C 141.239 136.53025 179.092 114.61975 179.092 87.59235L 179.092 53.66235C 179.092 59.62665 177.249 65.34185 173.874 70.62735C 161.955 89.29285 130.935 102.59985 94.546 102.59985C 58.1567 102.59985 27.137 89.29285 15.2183 70.62735C 11.8434 65.34185 10 59.62665 10 53.66235L 10 87.59235C 10 114.61975 47.8525 136.53025 94.546 136.53025ZM 94.546 19.40625C 61.8605 19.40625 35.3638 34.74325 35.3638 53.66255C 35.3638 59.83485 38.184 65.62595 43.1193 70.62755C 53.3115 60.29845 72.5241 53.33625 94.546 53.33625C 116.568 53.33625 135.78 60.29845 145.973 70.62755C 150.908 65.62595 153.728 59.83485 153.728 53.66255C 153.728 34.74325 127.231 19.40625 94.546 19.40625ZM 173.874 70.6278C 177.249 65.3423 179.092 59.6272 179.092 53.6628C 179.092 34.5972 160.256 18.078 132.768 10.000011C 122.456 15.054 109.116 18.1015 94.546 18.1015C 79.9759 18.1015 66.6356 15.0539 56.3239 10C 28.8359 18.078 10 34.5972 10 53.6628C 10 59.6272 11.8434 65.3423 15.2183 70.6278C 27.137 89.2934 58.1567 102.6003 94.546 102.6003C 130.935 102.6003 161.955 89.2934 173.874 70.6278ZM 35.3638 53.663C 35.3638 34.7438 61.8605 19.4067 94.546 19.4067C 127.231 19.4067 153.728 34.7438 153.728 53.663C 153.728 59.8353 150.908 65.6264 145.973 70.628C 135.78 80.9571 116.568 87.9193 94.546 87.9193C 72.5241 87.9193 53.3115 80.9571 43.1193 70.628C 38.184 65.6264 35.3638 59.8353 35.3638 53.663Z"></path></g></g></g><g id="g-root-1.cu_sy_4ik2no1rkqs5n-fill" data-item-order="-185081" transform="translate(500.5357360839844, 110.83154296875)"><g id="1.cu_sy_4ik2no1rkqs5n-fill" stroke="none" fill="#e55753"><g><path d="M 69.182201 112.442741C 101.8676 112.442741 128.364 97.105641 128.364 78.186441L 128.364 44.256441C 128.364 50.428741 125.544001 56.219841 120.609 61.221441C 110.417 71.550541 91.204001 78.512741 69.182201 78.512741C 47.1603 78.512741 27.9477 71.550541 17.755501 61.221441C 12.820201 56.219841 10 50.428741 10 44.256441L 10 78.186441C 10 97.105641 36.4968 112.442741 69.182201 112.442741ZM 35.3638 44.256641C 35.3638 33.445641 50.5048 24.681641 69.182201 24.681641C 87.8595 24.681641 103.000501 33.445641 103.000501 44.256641C 103.000501 51.508441 96.1879 57.839241 86.0651 61.221641C 81.0968 59.561541 75.331101 58.611641 69.182201 58.611641C 63.033201 58.611641 57.2675 59.561541 52.2992 61.221641C 42.176401 57.839241 35.3638 51.508441 35.3638 44.256641ZM 128.364 44.2563C 128.364 50.4286 125.544001 56.2197 120.609 61.2213C 110.417 71.5504 91.204001 78.5125 69.182201 78.5125C 47.1603 78.5125 27.9477 71.5504 17.755501 61.2213C 12.820201 56.2197 10 50.4286 10 44.2563C 10 25.3371 36.4968 10 69.182201 10C 101.8676 10 128.364 25.3371 128.364 44.2563ZM 69.182201 24.6815C 50.5048 24.6815 35.3638 33.4455 35.3638 44.2565C 35.3638 51.5083 42.176401 57.839 52.2992 61.2215C 57.2675 62.8816 63.033201 63.8315 69.182201 63.8315C 75.331101 63.8315 81.0968 62.8816 86.0651 61.2215C 96.1879 57.839 103.000501 51.5083 103.000501 44.2565C 103.000501 33.4455 87.8595 24.6815 69.182201 24.6815Z"></path></g></g></g><g id="g-root-2_1ut0x2s1rl7ojy-fill" data-item-order="-2304" transform="translate(326.9654235839844, 338.99029541015625)"><g id="2_1ut0x2s1rl7ojy-fill" stroke="none" fill="#ffe60a"><g><path d="M 30.247978 41.196884C 29.419634 41.196884 28.748129 41.868393 28.748129 42.696735C 28.748129 43.525078 29.419634 44.196587 30.247978 44.196587C 31.076324 44.196587 31.747829 43.525078 31.747829 42.696735C 31.747829 41.868393 31.076324 41.196884 30.247978 41.196884Z"></path></g></g></g><g id="g-root-tx_pratique_1lymy5w1rkz9qn-fill" data-item-order="0" transform="translate(170.96542358398438, 39)"><g id="tx_pratique_1lymy5w1rkz9qn-fill" stroke="none" fill="#484848"><g><text style="font: bold 20px Roboto, sans-serif; white-space: pre;" font-weight="bold" font-size="20px" font-family="Roboto, sans-serif"><tspan x="12.77" y="33.75" dominant-baseline="ideographic">Pratiques de Sécurité des Types TypeScript</tspan></text></g></g></g><g id="g-root-tx_structur_1cxdkz81rkqryl-fill" data-item-order="0" transform="translate(98.96542358398438, 111)"><g id="tx_structur_1cxdkz81rkqryl-fill" stroke="none" fill="#543a3a"><g><text style="font: bold 20px Roboto, sans-serif; white-space: pre;" font-weight="bold" font-size="20px" font-family="Roboto, sans-serif"><tspan x="11.55" y="33.75" dominant-baseline="ideographic">Structure Maintenable</tspan></text></g></g></g><g id="g-root-scri_1cvi8vo1rkwef6-fill" data-item-order="0" transform="translate(326.9654235839844, 99)"></g><g id="g-root-tx_garderle_2qkj81rkqsxw-fill" data-item-order="0" transform="translate(39, 147.23712158203125)"><g id="tx_garderle_2qkj81rkqsxw-fill" stroke="none" fill="#543a3a"><g><text style="font: 15px Roboto, sans-serif; white-space: pre;" font-size="15px" font-family="Roboto, sans-serif"><tspan x="22.57" y="27.5" dominant-baseline="ideographic">Garder les définitions de types DRY et </tspan><tspan x="198.58" y="45.5" dominant-baseline="ideographic">organisées</tspan></text></g></g></g><g id="g-root-malf_4hxoqc1rkquix-fill" data-item-order="0" transform="translate(326.9654235839844, 218.99517822265625)"></g><g id="g-root-tx_inspecti_zlx2lw1rkqtjj-fill" data-item-order="0" transform="translate(86.96542358398438, 231.00006103515625)"><g id="tx_inspecti_zlx2lw1rkqtjj-fill" stroke="none" fill="#4c4034"><g><text style="font: bold 20px Roboto, sans-serif; white-space: pre;" font-weight="bold" font-size="20px" font-family="Roboto, sans-serif"><tspan x="18.55" y="33.75" dominant-baseline="ideographic">Inspections Régulières</tspan></text></g></g></g><g id="g-root-tx_activerl_18hk2us1rkqsqu-fill" data-item-order="0" transform="translate(27, 267.23394775390625)"><g id="tx_activerl_18hk2us1rkqsqu-fill" stroke="none" fill="#4c4034"><g><text style="font: 15px Roboto, sans-serif; white-space: pre;" font-size="15px" font-family="Roboto, sans-serif"><tspan x="23.16" y="27.5" dominant-baseline="ideographic">Activer le mode strict pour une sécurité </tspan><tspan x="218.67" y="45.5" dominant-baseline="ideographic">maximale</tspan></text></g></g></g><g id="g-root-tx_matriaux_qqwjg41rkqry9-fill" data-item-order="0" transform="translate(110.96542358398438, 351.00006103515625)"><g id="tx_matriaux_qqwjg41rkqry9-fill" stroke="none" fill="#46432d"><g><text style="font: bold 20px Roboto, sans-serif; white-space: pre;" font-weight="bold" font-size="20px" font-family="Roboto, sans-serif"><tspan x="13.67" y="33.75" dominant-baseline="ideographic">Matériaux de Qualité</tspan></text></g></g></g><g id="g-root-tx_viterlet_v63khg1rkqubs-fill" data-item-order="0" transform="translate(27, 387.23394775390625)"><g id="tx_viterlet_v63khg1rkqubs-fill" stroke="none" fill="#46432d"><g><text style="font: 15px Roboto, sans-serif; white-space: pre;" font-size="15px" font-family="Roboto, sans-serif"><tspan x="11.73" y="30.5" dominant-baseline="ideographic">Éviter le type 'any' pour la qualité du code</tspan></text></g></g></g><g id="g-root-shar_qqwjg41rl3g8z-fill" data-item-order="0" transform="translate(326.9654235839844, 458.98541259765625)"></g><g id="g-root-tx_planific_dfg12s1rkqtj7-fill" data-item-order="0" transform="translate(74.96542358398438, 471.00006103515625)"><g id="tx_planific_dfg12s1rkqtj7-fill" stroke="none" fill="#374840"><g><text style="font: bold 20px Roboto, sans-serif; white-space: pre;" font-weight="bold" font-size="20px" font-family="Roboto, sans-serif"><tspan x="18.34" y="33.75" dominant-baseline="ideographic">Planification Appropriée</tspan></text></g></g></g><g id="g-root-tx_utiliser_hv9j781rkqsqy-fill" data-item-order="0" transform="translate(15, 507.23394775390625)"><g id="tx_utiliser_hv9j781rkqsqy-fill" stroke="none" fill="#374840"><g><text style="font: 15px Roboto, sans-serif; white-space: pre;" font-size="15px" font-family="Roboto, sans-serif"><tspan x="15.69" y="27.5" dominant-baseline="ideographic">Utiliser des interfaces pour des définitions </tspan><tspan x="215.32" y="45.5" dominant-baseline="ideographic">réutilisables</tspan></text></g></g></g><g id="g-root-foun_1qa31is1rkqsjy-fill" data-item-order="0" transform="translate(326.9654235839844, 578.9805297851562)"></g><g id="g-root-tx_fondatio_4lzsk1rkqryd-fill" data-item-order="0" transform="translate(122.96542358398438, 591.0000610351562)"><g id="tx_fondatio_4lzsk1rkqryd-fill" stroke="none" fill="#3a4455"><g><text style="font: bold 20px Roboto, sans-serif; white-space: pre;" font-weight="bold" font-size="20px" font-family="Roboto, sans-serif"><tspan x="16.44" y="33.75" dominant-baseline="ideographic">Fondations Solides</tspan></text></g></g></g><g id="g-root-tx_dfinirde_4jt0tw1rkqubw-fill" data-item-order="0" transform="translate(27, 627.2339477539062)"><g id="tx_dfinirde_4jt0tw1rkqubw-fill" stroke="none" fill="#3a4455"><g><text style="font: 15px Roboto, sans-serif; white-space: pre;" font-size="15px" font-family="Roboto, sans-serif"><tspan x="14.94" y="30.5" dominant-baseline="ideographic">Définir des types explicites pour la clarté</tspan></text></g></g></g><g id="g-root-tf_1um5sac1rl0miq-stroke" data-item-order="-560488" transform="translate(-9, -9)"></g><g id="g-root-5.cu_sy_v4umb81rkqs5j-stroke" data-item-order="-185097" transform="translate(399.0826110839844, 467.09722900390625)"><g id="5.cu_sy_v4umb81rkqs5j-stroke" fill="none" stroke-linecap="round" stroke-linejoin="round" stroke-miterlimit="4" stroke="#ffffff" stroke-width="2"><g><path d="M 170.6362 229.891441C 259.3531 229.891441 331.272401 188.262641 331.272401 136.910841L 331.272401 102.980841C 331.272401 108.774841 330.3568 114.445141 328.604801 119.945841C 314.8292 163.196641 249.343101 195.961441 170.6362 195.961441C 91.929301 195.961441 26.443301 163.196641 12.6676 119.945841C 10.9156 114.445141 10 108.774841 10 102.980841L 10 136.910841C 10 188.262641 81.919301 229.891441 170.6362 229.891441ZM 35.363801 102.981041C 35.363801 108.806541 36.4629 114.483441 38.5476 119.946041C 43.5832 106.750941 54.369701 94.806041 69.307501 85.037141C 61.5016 79.932341 54.829201 74.233241 49.518801 68.072141C 40.459801 78.582341 35.363801 90.437241 35.363801 102.981041ZM 170.6362 24.681641C 139.4388 24.681641 110.708101 30.794541 87.8241 41.064041C 101.696301 50.257841 120.064 57.120641 140.943101 60.503941C 150.498301 59.265241 160.435401 58.611641 170.6362 58.611641C 180.8374 58.611641 190.775001 59.265241 200.3306 60.504141C 221.2095 57.120941 239.577201 50.258341 253.4496 41.064641C 230.565401 30.794841 201.8342 24.681641 170.6362 24.681641ZM 302.724801 119.946041C 304.809501 114.483441 305.908601 108.806541 305.908601 102.981041C 305.908601 90.437241 300.812601 78.582341 291.7536 68.072141C 286.4432 74.233241 279.7708 79.932341 271.964901 85.037141C 286.902701 94.806041 297.6892 106.750941 302.724801 119.946041ZM 38.5476 119.946041C 51.937901 155.033341 105.991601 181.280441 170.6362 181.280441C 235.280801 181.280441 289.3345 155.033341 302.724801 119.946041M 12.6676 119.9456C 26.443301 163.1965 91.929301 195.9613 170.6362 195.9613C 249.343101 195.9613 314.8292 163.1965 328.604801 119.9456C 330.3568 114.445 331.272401 108.7747 331.272401 102.9806C 331.272401 83.3226 320.733001 65.0894 302.746601 50.071C 300.343101 56.3916 296.620201 62.4258 291.7536 68.072C 300.812601 78.5821 305.908601 90.437 305.908601 102.9809C 305.908601 108.8063 304.809501 114.4832 302.724801 119.9459C 289.3345 155.0332 235.280801 181.2802 170.6362 181.2802C 105.991601 181.2802 51.937901 155.0332 38.5476 119.9459C 36.4629 114.4832 35.363801 108.8063 35.363801 102.9809C 35.363801 90.437 40.459801 78.5821 49.518801 68.072C 44.6522 62.4258 40.929301 56.3916 38.525801 50.071C 20.539301 65.0894 10 83.3226 10 102.9806C 10 108.7747 10.9156 114.445 12.6676 119.9456ZM 170.6362 10C 134.1023 10 100.417101 17.0595 73.429701 28.9503C 77.419301 33.3138 82.2601 37.3763 87.8241 41.0639C 110.708101 30.7944 139.4388 24.6815 170.6362 24.6815C 201.8342 24.6815 230.565401 30.7947 253.4496 41.0644C 259.013701 37.3769 263.8546 33.3144 267.844201 28.951C 240.856601 17.0597 207.170801 10 170.6362 10ZM 291.7536 68.072C 286.4432 74.2331 279.7708 79.9322 271.964901 85.037"></path></g></g></g><g id="g-root-4.cu_sy_qp146s1rkqsxs-stroke" data-item-order="-185093" transform="translate(424.4497985839844, 378.03082275390625)"><g id="4.cu_sy_qp146s1rkqsxs-stroke" fill="none" stroke-linecap="round" stroke-linejoin="round" stroke-miterlimit="4" stroke="#ffffff" stroke-width="2"><g><path d="M 145.2724 200.52894C 219.9813 200.52894 280.5449 165.47314 280.5449 122.22954L 280.5449 88.29954C 280.5449 94.12504 279.4458 99.80194 277.3611 105.26454C 263.9707 140.35194 209.917 166.59894 145.2724 166.59894C 80.6278 166.59894 26.5741 140.35194 13.1838 105.26454C 11.0991 99.80194 10 94.12504 10 88.29954L 10 122.22954C 10 165.47314 70.5635 200.52894 145.2724 200.52894ZM 145.2735 24.68164C 132.1461 24.68164 119.5562 26.01374 107.8852 28.45724C 119.1579 31.67964 131.8504 33.49034 145.2735 33.49034C 158.6966 33.49034 171.3891 31.67964 182.6618 28.45724C 170.9909 26.01374 158.401 24.68164 145.2735 24.68164ZM 251.2321 105.26544C 253.8074 99.86444 255.1833 94.17544 255.1833 88.30044C 255.1833 75.40914 248.5591 63.41344 237.1735 53.39154C 229.6531 60.01114 220.0554 65.76974 208.9172 70.35654C 229.2333 78.72274 244.4241 90.98754 251.2321 105.26544ZM 35.3638 88.30044C 35.3638 94.17544 36.7396 99.86444 39.3149 105.26544C 46.123 90.98754 61.3138 78.72264 81.6299 70.35654C 70.4916 65.76974 60.8939 60.01114 53.3735 53.39144C 41.988 63.41344 35.3638 75.40914 35.3638 88.30044ZM 107.8852 28.4571C 119.5562 26.0136 132.1461 24.6815 145.2735 24.6815C 158.401 24.6815 170.9909 26.0136 182.6618 28.4571C 191.5419 25.9186 199.5408 22.5041 206.3218 18.4086C 187.9814 13.0305 167.2383 10 145.2724 10C 123.3071 10 102.5646 13.0303 84.2245 18.4081C 91.0056 22.5039 99.0049 25.9185 107.8852 28.4571ZM 13.1838 105.2644C 26.5741 140.3517 80.6278 166.5988 145.2724 166.5988C 209.917 166.5988 263.9707 140.3517 277.3611 105.2644C 279.4458 99.8018 280.5449 94.1249 280.5449 88.2994C 280.5449 69.3758 268.947 52.0201 249.6413 38.4839C 246.6033 43.798 242.3877 48.8016 237.1735 53.3913C 248.5591 63.4133 255.1833 75.409 255.1833 88.3002C 255.1833 94.1753 253.8074 99.8643 251.2321 105.2652C 238.4057 132.1648 195.8251 151.919 145.2735 151.919C 94.7219 151.919 52.1413 132.1648 39.3149 105.2652C 36.7396 99.8643 35.3638 94.1753 35.3638 88.3002C 35.3638 75.409 41.988 63.4133 53.3735 53.3913C 48.159 48.8013 43.9432 43.7973 40.9051 38.4828C 21.5984 52.0192 10 69.3753 10 88.2994C 10 94.1249 11.0991 99.8018 13.1838 105.2644Z"></path></g></g></g><g id="g-root-3.cu_sy_hte3xw1rkqtqh-stroke" data-item-order="-185089" transform="translate(449.8130798339844, 305.84722900390625)"><g id="3.cu_sy_hte3xw1rkqtqh-stroke" fill="none" stroke-linecap="round" stroke-linejoin="round" stroke-miterlimit="4" stroke="#ffffff" stroke-width="2"><g><path d="M 119.9097 154.285525C 180.6112 154.285525 229.8195 125.802425 229.8195 90.666825L 229.8195 56.736825C 229.8195 62.611825 228.4437 68.300825 225.8683 73.701825C 213.042 100.601425 170.4613 120.355525 119.9097 120.355525C 69.3581 120.355525 26.7775 100.601425 13.9511 73.701825C 11.3758 68.300825 10 62.611825 10 56.736825L 10 90.666825C 10 125.802425 59.2083 154.285525 119.9097 154.285525ZM 199.2373 73.702025C 202.6123 68.416525 204.4557 62.701325 204.4557 56.737025C 204.4557 43.067525 194.7732 30.707125 179.1615 21.828125C 163.9055 30.504725 142.9874 35.856725 119.9097 35.856725C 96.8321 35.856725 75.914 30.504725 60.658 21.828125C 45.0463 30.707125 35.3638 43.067525 35.3638 56.737025C 35.3638 62.701325 37.2072 68.416525 40.5821 73.702025C 52.5008 55.036425 83.5205 41.729525 119.9097 41.729525C 156.299 41.729525 187.3187 55.036425 199.2373 73.702025ZM 225.8683 73.7015C 228.4437 68.3006 229.8195 62.6115 229.8195 56.7365C 229.8195 38.2598 216.2116 21.6227 194.4803 10C 190.4208 14.385 185.2407 18.3704 179.1615 21.8279C 194.7732 30.7068 204.4557 43.0673 204.4557 56.7367C 204.4557 62.7011 202.6123 68.4162 199.2373 73.7017C 187.3187 92.3673 156.299 105.6742 119.9097 105.6742C 83.5205 105.6742 52.5008 92.3673 40.5821 73.7017C 37.2072 68.4162 35.3638 62.7011 35.3638 56.7367C 35.3638 43.0673 45.0463 30.7068 60.658 21.8279C 54.5788 18.3704 49.3986 14.385 45.3392 10C 23.6079 21.6227 10 38.2598 10 56.7365C 10 62.6115 11.3758 68.3006 13.9511 73.7015C 26.7775 100.6011 69.3581 120.3553 119.9097 120.3553C 170.4613 120.3553 213.042 100.6011 225.8683 73.7015Z"></path></g></g></g><g id="g-root-2.cu_sy_ddkltg1rkquiq-stroke" data-item-order="-185085" transform="translate(475.1724548339844, 205.17340087890625)"><g id="2.cu_sy_ddkltg1rkquiq-stroke" fill="none" stroke-linecap="round" stroke-linejoin="round" stroke-miterlimit="4" stroke="#ffffff" stroke-width="2"><g><path d="M 94.546 136.52985C 141.2394 136.52985 179.0919 114.61975 179.0919 87.59235L 179.0919 53.66235C 179.0919 59.62665 177.2485 65.34185 173.8736 70.62735C 161.9549 89.29285 130.9352 102.59985 94.546 102.59985C 58.1567 102.59985 27.137 89.29285 15.2183 70.62735C 11.8434 65.34185 10 59.62665 10 53.66235L 10 87.59235C 10 114.61975 47.8525 136.52985 94.546 136.52985ZM 94.546 19.40625C 61.8605 19.40625 35.3638 34.74325 35.3638 53.66255C 35.3638 59.83485 38.184 65.62595 43.1193 70.62755C 53.3115 60.29845 72.5241 53.33625 94.546 53.33625C 116.5678 53.33625 135.7804 60.29845 145.9726 70.62755C 150.9079 65.62595 153.7281 59.83485 153.7281 53.66255C 153.7281 34.74325 127.2314 19.40625 94.546 19.40625ZM 173.8736 70.6278C 177.2485 65.3423 179.0919 59.6272 179.0919 53.6628C 179.0919 34.5972 160.256 18.078 132.768 10C 122.4563 15.0539 109.116 18.1015 94.546 18.1015C 79.9759 18.1015 66.6356 15.0539 56.3239 10C 28.8359 18.078 10 34.5972 10 53.6628C 10 59.6272 11.8434 65.3423 15.2183 70.6278C 27.137 89.2934 58.1567 102.6003 94.546 102.6003C 130.9352 102.6003 161.9549 89.2934 173.8736 70.6278ZM 35.3638 53.663C 35.3638 34.7438 61.8605 19.4067 94.546 19.4067C 127.2314 19.4067 153.7281 34.7438 153.7281 53.663C 153.7281 59.8353 150.9079 65.6264 145.9726 70.628C 135.7804 80.9571 116.5678 87.9193 94.546 87.9193C 72.5241 87.9193 53.3115 80.9571 43.1193 70.628C 38.184 65.6264 35.3638 59.8353 35.3638 53.663Z"></path></g></g></g><g id="g-root-1.cu_sy_4ik2no1rkqs5n-stroke" data-item-order="-185081" transform="translate(500.5357360839844, 110.83154296875)"><g id="1.cu_sy_4ik2no1rkqs5n-stroke" fill="none" stroke-linecap="round" stroke-linejoin="round" stroke-miterlimit="4" stroke="#ffffff" stroke-width="2"><g><path d="M 69.182201 112.442741C 101.8676 112.442741 128.364301 97.105641 128.364301 78.186441L 128.364301 44.256441C 128.364301 50.428741 125.544101 56.219841 120.608801 61.221441C 110.4166 71.550541 91.204001 78.512741 69.182201 78.512741C 47.1603 78.512741 27.9477 71.550541 17.755501 61.221441C 12.820201 56.219841 10 50.428741 10 44.256441L 10 78.186441C 10 97.105641 36.4968 112.442741 69.182201 112.442741ZM 35.3638 44.256641C 35.3638 33.445641 50.5048 24.681641 69.182201 24.681641C 87.8595 24.681641 103.000501 33.445641 103.000501 44.256641C 103.000501 51.508441 96.1879 57.839241 86.0651 61.221641C 81.0968 59.561541 75.331101 58.611641 69.182201 58.611641C 63.033201 58.611641 57.2675 59.561541 52.2992 61.221641C 42.176401 57.839241 35.3638 51.508441 35.3638 44.256641ZM 128.364301 44.2563C 128.364301 50.4286 125.544101 56.2197 120.608801 61.2213C 110.4166 71.5504 91.204001 78.5125 69.182201 78.5125C 47.1603 78.5125 27.9477 71.5504 17.755501 61.2213C 12.820201 56.2197 10 50.4286 10 44.2563C 10 25.3371 36.4968 10 69.182201 10C 101.8676 10 128.364301 25.3371 128.364301 44.2563ZM 69.182201 24.6815C 50.5048 24.6815 35.3638 33.4455 35.3638 44.2565C 35.3638 51.5083 42.176401 57.839 52.2992 61.2215C 57.2675 62.8816 63.033201 63.8315 69.182201 63.8315C 75.331101 63.8315 81.0968 62.8816 86.0651 61.2215C 96.1879 57.839 103.000501 51.5083 103.000501 44.2565C 103.000501 33.4455 87.8595 24.6815 69.182201 24.6815Z"></path></g></g></g><g id="g-root-2_1ut0x2s1rl7ojy-stroke" data-item-order="-2304" transform="translate(326.9654235839844, 338.99029541015625)"><g id="2_1ut0x2s1rl7ojy-stroke" fill="none" stroke-linecap="round" stroke-linejoin="round" stroke-miterlimit="4" stroke="#e0cb15" stroke-width="2"><g><path d="M 15.999401 18.999102L 44.496555 18.999102C 44.496555 18.999102 46.496357 18.999102 46.496357 20.998901L 46.496357 54.995506C 46.496357 54.995506 46.496357 56.995308 44.496555 56.995308L 15.999401 56.995308C 15.999401 56.995308 13.9996 56.995308 13.9996 54.995506L 13.9996 20.998901C 13.9996 20.998901 13.9996 18.999102 15.999401 18.999102M 23.998602 10.9999L 51.995808 10.9999C 53.100266 10.9999 53.995605 11.895241 53.995605 12.999701L 53.995605 49.996006M 30.247978 38.705135L 30.247978 33.705635M 39.997005 44.746532L 31.997803 28.748129C 31.647438 28.105457 30.973951 27.705553 30.241978 27.705553C 29.510008 27.705553 28.836521 28.105457 28.486155 28.748129L 20.486954 44.746532C 20.148983 45.365891 20.162409 46.117519 20.52228 46.724419C 20.882151 47.331314 21.535206 47.703659 22.240778 47.704235L 38.239182 47.704235C 38.945465 47.70507 39.599815 47.33329 39.960659 46.726139C 40.321499 46.118988 40.335316 45.366516 39.997005 44.746532Z"></path></g></g></g><g id="g-root-tx_pratique_1lymy5w1rkz9qn-stroke" data-item-order="0" transform="translate(170.96542358398438, 39)"></g><g id="g-root-tx_structur_1cxdkz81rkqryl-stroke" data-item-order="0" transform="translate(98.96542358398438, 111)"></g><g id="g-root-scri_1cvi8vo1rkwef6-stroke" data-item-order="0" transform="translate(326.9654235839844, 99)"><g id="scri_1cvi8vo1rkwef6-stroke" fill="none" stroke-linecap="round" stroke-linejoin="round" stroke-miterlimit="4" stroke="#e55753" stroke-width="2"><g><path d="M 12.999701 10.9999L 54.995506 10.9999C 54.995506 10.9999 56.995308 10.9999 56.995308 12.999701L 56.995308 54.995506C 56.995308 54.995506 56.995308 56.995308 54.995506 56.995308L 12.999701 56.995308C 12.999701 56.995308 10.9999 56.995308 10.9999 54.995506L 10.9999 12.999701C 10.9999 12.999701 10.9999 10.9999 12.999701 10.9999M 40.996906 45.996407C 40.996906 48.757557 43.235256 50.995907 45.996407 50.995907C 48.757557 50.995907 50.995907 48.757557 50.995907 45.996407C 50.995907 43.236683 48.996105 41.996803 45.996407 40.996906C 42.996704 39.997005 40.996906 38.75713 40.996906 35.997406C 40.996906 33.236256 43.235256 30.997904 45.996407 30.997904C 48.757557 30.997904 50.995907 33.236256 50.995907 35.997406M 23.998602 30.997904L 35.997406 30.997904M 29.998003 30.997904L 29.998003 50.995907"></path></g></g></g><g id="g-root-tx_garderle_2qkj81rkqsxw-stroke" data-item-order="0" transform="translate(39, 147.23712158203125)"></g><g id="g-root-malf_4hxoqc1rkquix-stroke" data-item-order="0" transform="translate(326.9654235839844, 218.99517822265625)"><g id="malf_4hxoqc1rkquix-stroke" fill="none" stroke-linecap="round" stroke-linejoin="round" stroke-miterlimit="4" stroke="#de8431" stroke-width="2"><g><path d="M 44.546551 29.898033C 44.104794 29.898033 43.746632 29.539909 43.746632 29.098133C 43.746632 28.656336 44.104794 28.298212 44.546551 28.298212M 44.546352 29.898033C 44.988106 29.898033 45.346272 29.539909 45.346272 29.098133C 45.346272 28.656336 44.988106 28.298212 44.546352 28.298212M 44.546551 23.098673L 44.546551 20.098972M 46.146393 12.49975C 45.746429 11.89981 45.146492 11.49985 44.546551 11.49985C 43.746632 11.49985 43.14669 11.89981 42.946712 12.49975L 32.74773 31.697834C 32.347771 32.297771 32.547749 32.897713 32.74773 33.497654C 33.14769 34.097595 33.747627 34.297573 34.347569 34.297573L 54.545551 34.297573C 55.145493 34.297573 55.745434 33.897614 56.145393 33.497654C 56.545353 32.897713 56.545353 32.297771 56.145393 31.697834L 46.146393 12.49975ZM 48.54615 49.696037C 48.54615 53.495659 45.546452 56.495358 41.74683 56.495358L 21.148827 56.495358C 15.949347 56.495358 11.549771 52.295776 11.549771 46.896317C 11.549771 43.896618 12.949645 41.096897 15.349405 39.297073C 17.749166 37.497253 20.748846 36.897312 23.548567 37.697235L 43.54665 43.096695C 46.546349 43.896618 48.54615 46.496357 48.54615 49.696037ZM 21.548807 50.495956C 23.536829 50.495956 25.148447 48.884315 25.148447 46.896317C 25.148447 44.908314 23.536829 43.296673 21.548807 43.296673C 19.560785 43.296673 17.949167 44.908314 17.949167 46.896317C 17.949167 48.884315 19.560785 50.495956 21.548807 50.495956ZM 38.497154 49.54805C 38.497154 50.652512 39.392494 51.547852 40.496956 51.547852C 41.601414 51.547852 42.496754 50.652512 42.496754 49.54805C 42.496754 48.443592 41.601414 47.548248 40.496956 47.548248C 39.392494 47.548248 38.497154 48.443592 38.497154 49.54805"></path></g></g></g><g id="g-root-tx_inspecti_zlx2lw1rkqtjj-stroke" data-item-order="0" transform="translate(86.96542358398438, 231.00006103515625)"></g><g id="g-root-tx_activerl_18hk2us1rkqsqu-stroke" data-item-order="0" transform="translate(27, 267.23394775390625)"></g><g id="g-root-tx_matriaux_qqwjg41rkqry9-stroke" data-item-order="0" transform="translate(110.96542358398438, 351.00006103515625)"></g><g id="g-root-tx_viterlet_v63khg1rkqubs-stroke" data-item-order="0" transform="translate(27, 387.23394775390625)"></g><g id="g-root-shar_qqwjg41rl3g8z-stroke" data-item-order="0" transform="translate(326.9654235839844, 458.98541259765625)"><g id="shar_qqwjg41rl3g8z-stroke" fill="none" stroke-linecap="round" stroke-linejoin="round" stroke-miterlimit="4" stroke="#3cc583" stroke-width="2"><g><path d="M 37.575249 10.9999L 54.951511 10.9999C 54.951511 10.9999 56.995308 10.9999 56.995308 13.043696L 56.995308 29.398064C 56.995308 29.398064 56.995308 31.44186 54.951511 31.44186L 37.575249 31.44186C 37.575249 31.44186 35.531452 31.44186 35.531452 29.398064L 35.531452 13.043696C 35.531452 13.043696 35.531452 10.9999 37.575249 10.9999M 35.531452 17.961205L 56.995308 17.961205M 35.531452 24.702532L 56.995308 24.702532M 45.238483 17.961205L 45.238483 31.44186M 50.993908 17.961205L 50.993908 31.44186M 20.198982 23.598642L 15.599441 27.998203L 15.599441 23.598642C 15.665052 20.277246 18.411459 17.638296 21.732828 17.705231L 29.398064 17.705231M 10.9999 23.598642L 15.599441 28.008202M 24.798523 13.289672L 29.398064 17.705231L 24.798523 22.120789M 13.043696 33.485657L 24.288574 33.485657C 24.288574 33.485657 26.332369 33.485657 26.332369 35.529453L 26.332369 54.951511C 26.332369 54.951511 26.332369 56.995308 24.288574 56.995308L 13.043696 56.995308C 13.043696 56.995308 10.9999 56.995308 10.9999 54.951511L 10.9999 35.529453C 10.9999 35.529453 10.9999 33.485657 13.043696 33.485657M 10.9999 50.861919L 26.332369 50.861919"></path></g></g></g><g id="g-root-tx_planific_dfg12s1rkqtj7-stroke" data-item-order="0" transform="translate(74.96542358398438, 471.00006103515625)"></g><g id="g-root-tx_utiliser_hv9j781rkqsqy-stroke" data-item-order="0" transform="translate(15, 507.23394775390625)"></g><g id="g-root-foun_1qa31is1rkqsjy-stroke" data-item-order="0" transform="translate(326.9654235839844, 578.9805297851562)"><g id="foun_1qa31is1rkqsjy-stroke" fill="none" stroke-linecap="round" stroke-linejoin="round" stroke-miterlimit="4" stroke="#4e88e7" stroke-width="2"><g><path d="M 10.9999 10.9999L 10.9999 23.998594L 19.998995 23.998594L 19.998995 19.998995L 47.996185 19.998995L 47.996185 47.996185L 43.996586 47.996185L 43.996586 56.995281L 56.995281 56.995281L 56.995281 10.9999L 10.9999 10.9999ZM 37.997189 47.996185L 19.998995 47.996185L 19.998995 29.997992L 10.9999 29.997992L 10.9999 56.995281L 37.997189 56.995281L 37.997189 47.996185Z"></path></g></g></g><g id="g-root-tx_fondatio_4lzsk1rkqryd-stroke" data-item-order="0" transform="translate(122.96542358398438, 591.0000610351562)"></g><g id="g-root-tx_dfinirde_4jt0tw1rkqubw-stroke" data-item-order="0" transform="translate(27, 627.2339477539062)"></g></g></g></svg>