<?xml version="1.0" encoding="utf-8" standalone="yes"?>
<!DOCTYPE svg PUBLIC "-//W3C//DTD SVG 1.1//EN" "http://www.w3.org/Graphics/SVG/1.1/DTD/svg11.dtd">
<svg width="926" height="482" viewBox="0 0 926 482" style="fill:none;stroke:none;fill-rule:evenodd;clip-rule:evenodd;stroke-linecap:round;stroke-linejoin:round;stroke-miterlimit:1.5;" version="1.1" xmlns="http://www.w3.org/2000/svg" xmlns:xlink="http://www.w3.org/1999/xlink"><style id="fontImports">@import url("https://fonts.googleapis.com/css2?family=Roboto:wght@400;700&amp;display=block");</style><rect id="" x="0" y="0" width="926" height="482" style="fill: #ffffff;"></rect><g id="items" style="isolation: isolate"><g id="blend" style="mix-blend-mode: normal"><g id="g-root-tf_1qa46kk1qqp6o0-fill" data-item-order="-443520" transform="translate(-9, -9)"><g id="tf_1qa46kk1qqp6o0-fill" stroke="none" fill="#ffffff"><g><path d="M 10 10L 934 10L 934 490L 10 490Z"></path></g></g></g><g id="g-root-ro_v308xw1qr7ima-fill" data-item-order="-22680" transform="translate(339, 135)"><g id="ro_v308xw1qr7ima-fill" stroke="none" fill="#f5f5f5"><g><path d="M 34 10L 166 10C 166 10 190 10 190 34L 190 112C 190 112 190 136 166 136L 34 136C 34 136 10 136 10 112L 10 34C 10 34 10 10 34 10"></path></g></g></g><g id="g-root-ro_zly7no1qqp6va-fill" data-item-order="-14904" transform="translate(15, 123)"><g id="ro_zly7no1qqp6va-fill" stroke="none" fill="#edf4ff"><g><path d="M 22 10L 274 10C 274 10 286 10 286 22L 286 52C 286 52 286 64 274 64L 22 64C 22 64 10 64 10 52L 10 22C 10 22 10 10 22 10"></path></g></g></g><g id="g-root-ro_1d0j0as1qra9dx-fill" data-item-order="-12312" transform="translate(315, 297)"><g id="ro_1d0j0as1qra9dx-fill" stroke="none" fill="#fffbda"><g><path d="M 22 10L 226 10C 226 10 238 10 238 22L 238 52C 238 52 238 64 226 64L 22 64C 22 64 10 64 10 52L 10 22C 10 22 10 10 22 10"></path></g></g></g><g id="g-root-ro_qvawxw1qr8xdu-fill" data-item-order="-8424" transform="translate(567, 123)"><g id="ro_qvawxw1qr8xdu-fill" stroke="none" fill="#faf0ff"><g><path d="M 22 10L 154 10C 154 10 166 10 166 22L 166 52C 166 52 166 64 154 64L 22 64C 22 64 10 64 10 52L 10 22C 10 22 10 10 22 10"></path></g></g></g><g id="g-root-tx_inconvni_40nr81qqp8gf-fill" data-item-order="0" transform="translate(219, 39)"><g id="tx_inconvni_40nr81qqp8gf-fill" stroke="none" fill="#484848"><g><text style="font: 25px Roboto, sans-serif; white-space: pre;" font-size="25px" font-family="Roboto, sans-serif"><tspan x="13.31" y="41.89" dominant-baseline="ideographic">Inconvénients du Développement Logiciel</tspan></text></g></g></g><g id="g-root-tx_patterns_v98zt01qrabr6-fill" data-item-order="0" transform="translate(363, 363)"><g id="tx_patterns_v98zt01qrabr6-fill" stroke="none" fill="#484848"><g><text style="font: 20px Roboto, sans-serif; white-space: pre;" font-size="20px" font-family="Roboto, sans-serif"><tspan x="16.07" y="33.33" dominant-baseline="ideographic">Patterns JavaScript complexes</tspan></text></g></g></g><g id="g-root-cu_8zno041qqp7np-fill" data-item-order="0" transform="translate(339, 351)"></g><g id="g-root-cu_8zno041qqp7nm-fill" data-item-order="0" transform="translate(339, 351)"></g><g id="g-root-cu_qqb7es1qqp7nz-fill" data-item-order="0" transform="translate(291, 150)"></g><g id="g-root-cu_mahpac1qqp8gd-fill" data-item-order="0" transform="translate(429, 261)"></g><g id="g-root-cu_mahpac1qqp8ga-fill" data-item-order="0" transform="translate(519, 150)"></g><g id="g-root-tx_configur_v98zt01qrabr5-fill" data-item-order="0" transform="translate(615, 225)"><g id="tx_configur_v98zt01qrabr5-fill" stroke="none" fill="#484848"><g><text style="font: 20px Roboto, sans-serif; white-space: pre;" font-size="20px" font-family="Roboto, sans-serif"><tspan x="16.58" y="33.33" dominant-baseline="ideographic">Configuration supplémentaire</tspan></text></g></g></g><g id="g-root-tx_plusdeco_zp2hxg1qraayw-fill" data-item-order="0" transform="translate(615, 189)"><g id="tx_plusdeco_zp2hxg1qraayw-fill" stroke="none" fill="#484848"><g><text style="font: 20px Roboto, sans-serif; white-space: pre;" font-size="20px" font-family="Roboto, sans-serif"><tspan x="13.44" y="33.33" dominant-baseline="ideographic">Plus de code à écrire</tspan></text></g></g></g><g id="g-root-tx_tempsdap_144w01w1qraa6m-fill" data-item-order="0" transform="translate(27, 189)"><g id="tx_tempsdap_144w01w1qraa6m-fill" stroke="none" fill="#484848"><g><text style="font: 20px Roboto, sans-serif; white-space: pre;" font-size="20px" font-family="Roboto, sans-serif"><tspan x="14.87" y="33.33" dominant-baseline="ideographic">Temps d'apprentissage</tspan></text></g></g></g><g id="g-root-cu_huo75w1qqp98o-fill" data-item-order="0" transform="translate(249, 177)"></g><g id="g-root-cu_dfh64k1qqp6v7-fill" data-item-order="0" transform="translate(249, 177)"></g><g id="g-root-tx_contrain_me8gn81qra9e3-fill" data-item-order="0" transform="translate(363, 399)"><g id="tx_contrain_me8gn81qra9e3-fill" stroke="none" fill="#484848"><g><text style="font: 20px Roboto, sans-serif; white-space: pre;" font-size="20px" font-family="Roboto, sans-serif"><tspan x="15.74" y="33.33" dominant-baseline="ideographic">Contraintes réglementaires</tspan></text></g></g></g><g id="g-root-tx_complexi_144w01w1qraa6n-fill" data-item-order="0" transform="translate(63, 225)"><g id="tx_complexi_144w01w1qraa6n-fill" stroke="none" fill="#484848"><g><text style="font: 20px Roboto, sans-serif; white-space: pre;" font-size="20px" font-family="Roboto, sans-serif"><tspan x="17.11" y="33.33" dominant-baseline="ideographic">Complexité accrue</tspan></text></g></g></g><g id="g-root-cu_8zno041qqp7nk-fill" data-item-order="0" transform="translate(591, 177)"></g><g id="g-root-cu_dfh64k1qqp6v9-fill" data-item-order="0" transform="translate(591, 177)"></g><g id="g-root-tx_verbosit_146rfb81qr8vsw-fill" data-item-order="1000000000" transform="translate(615, 138)"><g id="tx_verbosit_146rfb81qr8vsw-fill" stroke="none" fill="#ba5de5"><g><text style="font: 20px Roboto, sans-serif; white-space: pre;" font-size="20px" font-family="Roboto, sans-serif"><tspan x="15.66" y="33.33" dominant-baseline="ideographic">Verbosité</tspan></text></g></g></g><g id="g-root-code_18egrb81qr7h1d-fill" data-item-order="1000000000" transform="translate(405, 159)"></g><g id="g-root-colu_1hfq1c41qrabrg-fill" data-item-order="1000000000" transform="translate(327, 309)"></g><g id="g-root-tx_flexibil_1qbd1l01qraayr-fill" data-item-order="1000000000" transform="translate(363, 312)"><g id="tx_flexibil_1qbd1l01qraayr-fill" stroke="none" fill="#e0cb15"><g><text style="font: 20px Roboto, sans-serif; white-space: pre;" font-size="20px" font-family="Roboto, sans-serif"><tspan x="15.75" y="33.33" dominant-baseline="ideographic">Flexibilité Réduite</tspan></text></g></g></g><g id="g-root-code_vb4f2c1qr8wll-fill" data-item-order="1000000000" transform="translate(579, 135)"></g><g id="g-root-infr_14158p01qqp98t-fill" data-item-order="1000000000" transform="translate(249, 135)"></g><g id="g-root-tx_courbeda_1cws8xw1qqp8g4-fill" data-item-order="1000000000" transform="translate(27, 138)"><g id="tx_courbeda_1cws8xw1qqp8g4-fill" stroke="none" fill="#4e88e7"><g><text style="font: 20px Roboto, sans-serif; white-space: pre;" font-size="20px" font-family="Roboto, sans-serif"><tspan x="12.43" y="33.33" dominant-baseline="ideographic">Courbe d'Apprentissage</tspan></text></g></g></g><g id="g-root-tx_inconvni_1cua9fo1qr7g94-fill" data-item-order="1000000000" transform="translate(363, 213)"><g id="tx_inconvni_1cua9fo1qr7g94-fill" stroke="none" fill="#484848"><g><text style="font: 20px Roboto, sans-serif; white-space: pre;" font-size="20px" font-family="Roboto, sans-serif"><tspan x="13.99" y="33.33" dominant-baseline="ideographic">Inconvénients</tspan></text></g></g></g><g id="g-root-tf_1qa46kk1qqp6o0-stroke" data-item-order="-443520" transform="translate(-9, -9)"></g><g id="g-root-ro_v308xw1qr7ima-stroke" data-item-order="-22680" transform="translate(339, 135)"><g id="ro_v308xw1qr7ima-stroke" fill="none" stroke-linecap="round" stroke-linejoin="round" stroke-miterlimit="4" stroke="#484848" stroke-width="2"><g><path d="M 34 10L 166 10C 166 10 190 10 190 34L 190 112C 190 112 190 136 166 136L 34 136C 34 136 10 136 10 112L 10 34C 10 34 10 10 34 10"></path></g></g></g><g id="g-root-ro_zly7no1qqp6va-stroke" data-item-order="-14904" transform="translate(15, 123)"><g id="ro_zly7no1qqp6va-stroke" fill="none" stroke-linecap="round" stroke-linejoin="round" stroke-miterlimit="4" stroke="#4e88e7" stroke-width="2"><g><path d="M 22 10L 274 10C 274 10 286 10 286 22L 286 52C 286 52 286 64 274 64L 22 64C 22 64 10 64 10 52L 10 22C 10 22 10 10 22 10"></path></g></g></g><g id="g-root-ro_1d0j0as1qra9dx-stroke" data-item-order="-12312" transform="translate(315, 297)"><g id="ro_1d0j0as1qra9dx-stroke" fill="none" stroke-linecap="round" stroke-linejoin="round" stroke-miterlimit="4" stroke="#e0cb15" stroke-width="2"><g><path d="M 22 10L 226 10C 226 10 238 10 238 22L 238 52C 238 52 238 64 226 64L 22 64C 22 64 10 64 10 52L 10 22C 10 22 10 10 22 10"></path></g></g></g><g id="g-root-ro_qvawxw1qr8xdu-stroke" data-item-order="-8424" transform="translate(567, 123)"><g id="ro_qvawxw1qr8xdu-stroke" fill="none" stroke-linecap="round" stroke-linejoin="round" stroke-miterlimit="4" stroke="#ba5de5" stroke-width="2"><g><path d="M 22 10L 154 10C 154 10 166 10 166 22L 166 52C 166 52 166 64 154 64L 22 64C 22 64 10 64 10 52L 10 22C 10 22 10 10 22 10"></path></g></g></g><g id="g-root-tx_inconvni_40nr81qqp8gf-stroke" data-item-order="0" transform="translate(219, 39)"></g><g id="g-root-tx_patterns_v98zt01qrabr6-stroke" data-item-order="0" transform="translate(363, 363)"></g><g id="g-root-cu_8zno041qqp7np-stroke" data-item-order="0" transform="translate(339, 351)"><g id="cu_8zno041qqp7np-stroke" fill="none" stroke-linecap="round" stroke-linejoin="round" stroke-miterlimit="4" stroke="#969696" stroke-width="2" stroke-dasharray="5.0, 7.0"><g><path d="M 10 10L 10 17.5L 10 58C 10.000002 64.627417 15.372585 70 22.000002 69.999999L 22.1 70L 28 70"></path></g></g></g><g id="g-root-cu_8zno041qqp7nm-stroke" data-item-order="0" transform="translate(339, 351)"><g id="cu_8zno041qqp7nm-stroke" fill="none" stroke-linecap="round" stroke-linejoin="round" stroke-miterlimit="4" stroke="#969696" stroke-width="2" stroke-dasharray="5.0, 7.0"><g><path d="M 10 10L 10 22L 10 34L 19 34L 28 34"></path></g></g></g><g id="g-root-cu_qqb7es1qqp7nz-stroke" data-item-order="0" transform="translate(291, 150)"><g id="cu_qqb7es1qqp7nz-stroke" fill="none" stroke-linecap="round" stroke-linejoin="round" stroke-miterlimit="4" stroke="#969696" stroke-width="2" stroke-dasharray="5.0, 7.0"><g><path d="M 58 37L 55 37L 54.9 37C 50.939934 36.982885 46.647411 35.702052 42.500002 33.3C 40.005522 31.898041 36.944719 28.369114 33.999999 23.499999C 31.05528 18.630885 27.994476 15.101958 25.499999 13.7C 21.352591 11.297948 17.060069 10.017115 13.1 10L 13 10L 10 10"></path></g></g></g><g id="g-root-cu_mahpac1qqp8gd-stroke" data-item-order="0" transform="translate(429, 261)"><g id="cu_mahpac1qqp8gd-stroke" fill="none" stroke-linecap="round" stroke-linejoin="round" stroke-miterlimit="4" stroke="#969696" stroke-width="2" stroke-dasharray="5.0, 7.0"><g><path d="M 10 10L 10 28L 10 46"></path></g></g></g><g id="g-root-cu_mahpac1qqp8ga-stroke" data-item-order="0" transform="translate(519, 150)"><g id="cu_mahpac1qqp8ga-stroke" fill="none" stroke-linecap="round" stroke-linejoin="round" stroke-miterlimit="4" stroke="#969696" stroke-width="2" stroke-dasharray="5.0, 7.0"><g><path d="M 10 37L 13 37L 13.1 37C 17.060069 36.982885 21.352592 35.702052 25.500001 33.3C 27.994475 31.898042 31.055279 28.369115 33.999998 23.5C 36.944718 18.630885 40.005521 15.101959 42.499998 13.700001C 46.647412 11.297949 50.939934 10.017115 54.900003 10L 55 10L 58 10"></path></g></g></g><g id="g-root-tx_configur_v98zt01qrabr5-stroke" data-item-order="0" transform="translate(615, 225)"></g><g id="g-root-tx_plusdeco_zp2hxg1qraayw-stroke" data-item-order="0" transform="translate(615, 189)"></g><g id="g-root-tx_tempsdap_144w01w1qraa6m-stroke" data-item-order="0" transform="translate(27, 189)"></g><g id="g-root-cu_huo75w1qqp98o-stroke" data-item-order="0" transform="translate(249, 177)"><g id="cu_huo75w1qqp98o-stroke" fill="none" stroke-linecap="round" stroke-linejoin="round" stroke-miterlimit="4" stroke="#969696" stroke-width="2" stroke-dasharray="5.0, 7.0"><g><path d="M 28 10L 28 22L 28 34L 19 34L 10 34"></path></g></g></g><g id="g-root-cu_dfh64k1qqp6v7-stroke" data-item-order="0" transform="translate(249, 177)"><g id="cu_dfh64k1qqp6v7-stroke" fill="none" stroke-linecap="round" stroke-linejoin="round" stroke-miterlimit="4" stroke="#969696" stroke-width="2" stroke-dasharray="5.0, 7.0"><g><path d="M 28 10L 28 17.5L 28 58C 27.999999 64.627415 22.627416 69.999998 16 69.999998L 15.9 70L 10 70"></path></g></g></g><g id="g-root-tx_contrain_me8gn81qra9e3-stroke" data-item-order="0" transform="translate(363, 399)"></g><g id="g-root-tx_complexi_144w01w1qraa6n-stroke" data-item-order="0" transform="translate(63, 225)"></g><g id="g-root-cu_8zno041qqp7nk-stroke" data-item-order="0" transform="translate(591, 177)"><g id="cu_8zno041qqp7nk-stroke" fill="none" stroke-linecap="round" stroke-linejoin="round" stroke-miterlimit="4" stroke="#969696" stroke-width="2" stroke-dasharray="5.0, 7.0"><g><path d="M 10 10L 10 17.5L 10 58C 10.000002 64.627417 15.372585 70 22.000002 69.999999L 22.1 70L 28 70"></path></g></g></g><g id="g-root-cu_dfh64k1qqp6v9-stroke" data-item-order="0" transform="translate(591, 177)"><g id="cu_dfh64k1qqp6v9-stroke" fill="none" stroke-linecap="round" stroke-linejoin="round" stroke-miterlimit="4" stroke="#969696" stroke-width="2" stroke-dasharray="5.0, 7.0"><g><path d="M 10 10L 10 22L 10 34L 19 34L 28 34"></path></g></g></g><g id="g-root-tx_verbosit_146rfb81qr8vsw-stroke" data-item-order="1000000000" transform="translate(615, 138)"></g><g id="g-root-code_18egrb81qr7h1d-stroke" data-item-order="1000000000" transform="translate(405, 159)"><g id="code_18egrb81qr7h1d-stroke" fill="none" stroke-linecap="round" stroke-linejoin="round" stroke-miterlimit="4" stroke="#484848" stroke-width="2"><g><path d="M 28.300039 18.17502L 28.300039 13.57502C 28.300039 12.37502 29.10004 11.575012 30.299999 11.575012L 49.5 11.575012C 49.900002 11.575012 50.5 11.775012 50.700001 11.975012L 55.5 15.975019C 55.900002 16.375019 56.299999 16.975019 56.299999 17.57502L 56.299999 42.575001C 56.299999 43.775002 55.5 44.575001 54.299999 44.575001L 39.299999 44.575001M 10 10M 36.299999 19.974979L 33.299999 22.974979L 36.299999 25.974979M 10 10M 48.299999 19.974979L 51.299999 22.974979L 48.299999 25.974979M 10 10M 40.299999 26.97504L 44.299999 17.97504M 37.099998 56.424999C 35.299999 51.224998 30.299999 47.424999 24.49996 47.424999C 18.699959 47.424999 13.49996 51.224998 11.699952 56.424999M 24.299999 29.42498L 24.299999 23.42498M 13.2998 35.224998L 35.299801 35.224998M 16.0998 37.424999C 16.299801 41.825001 19.899799 45.424999 24.299801 45.424999C 28.899799 45.424999 32.499802 41.825001 32.499802 37.224998L 32.499802 33.625C 32.499802 29.024981 28.899799 25.42498 24.299801 25.42498C 19.899799 25.42498 16.299801 29.024981 16.0998 33.424999L 16.0998 37.424999Z"></path></g></g></g><g id="g-root-colu_1hfq1c41qrabrg-stroke" data-item-order="1000000000" transform="translate(327, 309)"><g id="colu_1hfq1c41qrabrg-stroke" fill="none" stroke-linecap="round" stroke-linejoin="round" stroke-miterlimit="4" stroke="#e0cb15" stroke-width="2"><g><path d="M 17.1875 10.9375L 10.9375 10.9375L 10.9375 22.1875L 17.1875 22.1875L 17.1875 10.9375ZM 10 10M 10.9375 16.5625L 17.1875 16.5625M 21.312563 22.1875L 15.062562 22.1875L 15.062562 33.4375L 21.312563 33.4375L 21.312563 22.1875ZM 10 10M 15.062562 27.8125L 21.312563 27.8125M 24.6875 33.4375L 24.6875 39.0625L 18.4375 39.0625L 18.4375 33.4375L 24.6875 33.4375ZM 10 10M 27.0625 24.9375L 24.5625 27.4375M 24.5625 27.4375L 27.0625 29.9375M 24.5625 27.4375L 27.1875 27.4375C 29.3125 27.4375 30.9375 25.8125 30.9375 23.6875L 30.9375 18.687437C 30.9375 16.562437 29.3125 14.937437 27.1875 14.937437L 26.5625 14.937437M 10 10M 35.1875 34.0625L 32.6875 36.5625M 32.6875 36.5625L 35.1875 39.0625M 32.6875 36.5625L 35.3125 36.5625C 37.4375 36.5625 39.0625 34.9375 39.0625 32.8125L 39.0625 27.8125C 39.0625 25.6875 37.4375 24.0625 35.3125 24.0625L 34.6875 24.0625"></path></g></g></g><g id="g-root-tx_flexibil_1qbd1l01qraayr-stroke" data-item-order="1000000000" transform="translate(363, 312)"></g><g id="g-root-code_vb4f2c1qr8wll-stroke" data-item-order="1000000000" transform="translate(579, 135)"><g id="code_vb4f2c1qr8wll-stroke" fill="none" stroke-linecap="round" stroke-linejoin="round" stroke-miterlimit="4" stroke="#ba5de5" stroke-width="2"><g><path d="M 10.625 13.75C 10.625 15.47589 12.02411 16.875 13.75 16.875C 15.47589 16.875 16.875 15.47589 16.875 13.75C 16.875 12.02411 15.47589 10.625 13.75 10.625C 12.02411 10.625 10.625 12.02411 10.625 13.75M 39.375 13.75C 39.375 15.47589 37.975891 16.875 36.25 16.875L 23.75 16.875C 22.024111 16.875 20.625 15.47589 20.625 13.75C 20.625 12.02411 22.024111 10.625 23.75 10.625L 36.25 10.625C 37.975891 10.625 39.375 12.02411 39.375 13.75ZM 10.625 25C 10.625 26.725891 12.02411 28.125 13.75 28.125C 15.47589 28.125 16.875 26.725891 16.875 25C 16.875 23.274111 15.47589 21.875 13.75 21.875C 12.02411 21.875 10.625 23.274111 10.625 25M 10.625 36.25C 10.625 37.975891 12.02411 39.375 13.75 39.375C 15.47589 39.375 16.875 37.975891 16.875 36.25C 16.875 34.524109 15.47589 33.125 13.75 33.125C 12.02411 33.125 10.625 34.524109 10.625 36.25M 31.875 25C 31.875 26.725891 30.475891 28.125 28.75 28.125L 23.75 28.125C 22.024111 28.125 20.625 26.725891 20.625 25C 20.625 23.274111 22.024111 21.875 23.75 21.875L 28.75 21.875C 30.475891 21.875 31.875 23.274111 31.875 25Z"></path></g></g></g><g id="g-root-infr_14158p01qqp98t-stroke" data-item-order="1000000000" transform="translate(249, 135)"><g id="infr_14158p01qqp98t-stroke" fill="none" stroke-linecap="round" stroke-linejoin="round" stroke-miterlimit="4" stroke="#4e88e7" stroke-width="2"><g><path d="M 20.999987 24.3125C 23.761375 24.3125 26 23.193125 26 21.812437C 26 20.431725 23.761375 19.312437 20.999987 19.312437C 18.238562 19.312437 15.999988 20.431725 15.999988 21.812437C 15.999988 23.193125 18.238562 24.3125 20.999987 24.3125ZM 15.999988 21.812437L 15.999988 26.0625C 15.999988 27.4375 18.249987 28.562376 20.999987 28.562376M 15.999988 26.062376L 15.999988 30.312376C 15.999988 31.687374 18.249987 32.812378 20.999987 32.812378M 29.5 30.5625C 32.261501 30.5625 34.5 29.443125 34.5 28.0625C 34.5 26.681749 32.261501 25.5625 29.5 25.5625C 26.738625 25.5625 24.5 26.681749 24.5 28.0625C 24.5 29.443125 26.738625 30.5625 29.5 30.5625ZM 24.5 28.0625L 24.5 32.312374C 24.5 33.687374 26.75 34.812374 29.5 34.812374C 32.25 34.812374 34.5 33.687374 34.5 32.312374L 34.5 28.0625M 24.5 32.312374L 24.5 36.562378C 24.5 37.937374 26.75 39.062378 29.5 39.062378C 32.25 39.062378 34.5 37.937374 34.5 36.562378L 34.5 32.312374M 38.066875 26.9375C 38.689125 25.9375 39.0625 24.8125 39.0625 23.5625C 39.0625 20.187513 36.324623 17.4375 32.964626 17.4375C 31.720125 17.4375 30.475626 17.812513 29.480125 18.562511C 28.609001 14.187512 24.8755 10.9375 20.271013 10.9375C 15.1687 10.9375 10.9375 15.1875 10.9375 20.3125C 10.9375 22.0625 11.435287 23.6875 12.306413 25.0625"></path></g></g></g><g id="g-root-tx_courbeda_1cws8xw1qqp8g4-stroke" data-item-order="1000000000" transform="translate(27, 138)"></g><g id="g-root-tx_inconvni_1cua9fo1qr7g94-stroke" data-item-order="1000000000" transform="translate(363, 213)"></g></g></g></svg>