<?xml version="1.0" encoding="utf-8" standalone="yes"?>
<!DOCTYPE svg PUBLIC "-//W3C//DTD SVG 1.1//EN" "http://www.w3.org/Graphics/SVG/1.1/DTD/svg11.dtd">
<svg width="926" height="566" viewBox="0 0 926 566" style="fill:none;stroke:none;fill-rule:evenodd;clip-rule:evenodd;stroke-linecap:round;stroke-linejoin:round;stroke-miterlimit:1.5;" version="1.1" xmlns="http://www.w3.org/2000/svg" xmlns:xlink="http://www.w3.org/1999/xlink"><style id="fontImports">@import url("https://fonts.googleapis.com/css2?family=Roboto:wght@400;700&amp;display=block");</style><rect id="" x="0" y="0" width="926" height="566" style="fill: #ffffff;"></rect><g id="items" style="isolation: isolate"><g id="blend" style="mix-blend-mode: normal"><g id="g-root-tf_18lb6sk1rv8p3e-fill" data-item-order="-521136" transform="translate(-9, -9)"><g id="tf_18lb6sk1rv8p3e-fill" stroke="none" fill="#ffffff"><g><path d="M 10 10L 934 10L 934 574L 10 574Z"></path></g></g></g><g id="g-root-ro_mgpkis1ruxers-fill" data-item-order="-35496" transform="translate(339, 135)"><g id="ro_mgpkis1ruxers-fill" stroke="none" fill="#f5f5f5"><g><path d="M 34 10L 190 10C 190 10 214 10 214 34L 214 160C 214 160 214 184 190 184L 34 184C 34 184 10 184 10 160L 10 34C 10 34 10 10 34 10"></path></g></g></g><g id="g-root-ro_18f2fxg1rv5tl6-fill" data-item-order="-14904" transform="translate(591, 123)"><g id="ro_18f2fxg1rv5tl6-fill" stroke="none" fill="#faf0ff"><g><path d="M 22 10L 274 10C 274 10 286 10 286 22L 286 52C 286 52 286 64 274 64L 22 64C 22 64 10 64 10 52L 10 22C 10 22 10 10 22 10"></path></g></g></g><g id="g-root-ro_1hf2rs41rv8ohu-fill" data-item-order="-12960" transform="translate(51, 123)"><g id="ro_1hf2rs41rv8ohu-fill" stroke="none" fill="#edf4ff"><g><path d="M 22 10L 238 10C 238 10 250 10 250 22L 250 52C 250 52 250 64 238 64L 22 64C 22 64 10 64 10 52L 10 22C 10 22 10 10 22 10"></path></g></g></g><g id="g-root-ro_1lwrp5w1rv78jv-fill" data-item-order="-10368" transform="translate(345, 345)"><g id="ro_1lwrp5w1rv78jv-fill" stroke="none" fill="#fffbda"><g><path d="M 22 10L 190 10C 190 10 202 10 202 22L 202 52C 202 52 202 64 190 64L 22 64C 22 64 10 64 10 52L 10 22C 10 22 10 10 22 10"></path></g></g></g><g id="g-root-tx_autocomp_145hoo41rv7ax3-fill" data-item-order="0" transform="translate(639, 189)"><g id="tx_autocomp_145hoo41rv7ax3-fill" stroke="none" fill="#484848"><g><text style="font: 20px Roboto, sans-serif; white-space: pre;" font-size="20px" font-family="Roboto, sans-serif"><tspan x="13.84" y="34" dominant-baseline="ideographic">Autocomplétion intelligente</tspan></text></g></g></g><g id="g-root-tx_prventio_18lb6sk1rv7a4t-fill" data-item-order="0" transform="translate(51, 225)"><g id="tx_prventio_18lb6sk1rv7a4t-fill" stroke="none" fill="#484848"><g><text style="font: 20px Roboto, sans-serif; white-space: pre;" font-size="20px" font-family="Roboto, sans-serif"><tspan x="15.65" y="34" dominant-baseline="ideographic">Prévention des bugs</tspan></text></g></g></g><g id="g-root-cu_18jfrj81rv8paj-fill" data-item-order="0" transform="translate(291, 150)"></g><g id="g-root-tx_codelisi_qunndw1rv79ca-fill" data-item-order="0" transform="translate(393, 411)"><g id="tx_codelisi_qunndw1rv79ca-fill" stroke="none" fill="#484848"><g><text style="font: 20px Roboto, sans-serif; white-space: pre;" font-size="20px" font-family="Roboto, sans-serif"><tspan x="12.55" y="34" dominant-baseline="ideographic">Code lisible</tspan></text></g></g></g><g id="g-root-tx_avantage_1usepes1rv8mpt-fill" data-item-order="0" transform="translate(237, 39)"><g id="tx_avantage_1usepes1rv8mpt-fill" stroke="none" fill="#484848"><g><text style="font: 25px Roboto, sans-serif; white-space: pre;" font-size="25px" font-family="Roboto, sans-serif"><tspan x="14.3" y="42" dominant-baseline="ideographic">Avantages du Développement Logiciel</tspan></text></g></g></g><g id="g-root-cu_v8lq901rv8npq-fill" data-item-order="0" transform="translate(543, 150)"></g><g id="g-root-tx_refactor_zqanms1rv78jk-fill" data-item-order="0" transform="translate(639, 225)"><g id="tx_refactor_zqanms1rv78jk-fill" stroke="none" fill="#484848"><g><text style="font: 20px Roboto, sans-serif; white-space: pre;" font-size="20px" font-family="Roboto, sans-serif"><tspan x="16.8" y="34" dominant-baseline="ideographic">Refactoring plus sûr</tspan></text></g></g></g><g id="g-root-tx_document_145hoo41rv7ax2-fill" data-item-order="0" transform="translate(15, 261)"><g id="tx_document_145hoo41rv7ax2-fill" stroke="none" fill="#484848"><g><text style="font: 20px Roboto, sans-serif; white-space: pre;" font-size="20px" font-family="Roboto, sans-serif"><tspan x="17.23" y="34" dominant-baseline="ideographic">Documentation intégrée</tspan></text></g></g></g><g id="g-root-tx_dtection_1hgy71g1rv79c4-fill" data-item-order="0" transform="translate(39, 189)"><g id="tx_dtection_1hgy71g1rv79c4-fill" stroke="none" fill="#484848"><g><text style="font: 20px Roboto, sans-serif; white-space: pre;" font-size="20px" font-family="Roboto, sans-serif"><tspan x="16.98" y="34" dominant-baseline="ideographic">Détection des erreurs</tspan></text></g></g></g><g id="g-root-cu_qss84k1rv8oi4-fill" data-item-order="0" transform="translate(249, 177)"></g><g id="g-root-cu_dhy6uc1rv8mxb-fill" data-item-order="0" transform="translate(249, 177)"></g><g id="g-root-cu_hxroys1rv8mwx-fill" data-item-order="0" transform="translate(249, 177)"></g><g id="g-root-tx_volution_meu59g1rv7a4j-fill" data-item-order="0" transform="translate(393, 447)"><g id="tx_volution_meu59g1rv7a4j-fill" stroke="none" fill="#484848"><g><text style="font: 20px Roboto, sans-serif; white-space: pre;" font-size="20px" font-family="Roboto, sans-serif"><tspan x="14.3" y="34" dominant-baseline="ideographic">Évolution facile</tspan></text></g></g></g><g id="g-root-cu_4mb6lg1rv8oi2-fill" data-item-order="0" transform="translate(369, 399)"></g><g id="g-root-cu_hxroys1rv8mwz-fill" data-item-order="0" transform="translate(615, 177)"></g><g id="g-root-cu_924opw1rv8npq-fill" data-item-order="0" transform="translate(615, 177)"></g><g id="g-root-tx_dbogages_meu59g1rv7a4k-fill" data-item-order="0" transform="translate(393, 483)"><g id="tx_dbogages_meu59g1rv7a4k-fill" stroke="none" fill="#484848"><g><text style="font: 20px Roboto, sans-serif; white-space: pre;" font-size="20px" font-family="Roboto, sans-serif"><tspan x="14.67" y="34" dominant-baseline="ideographic">Débogage simplifié</tspan></text></g></g></g><g id="g-root-tx_meilleur_qunndw1rv79c9-fill" data-item-order="0" transform="translate(639, 261)"><g id="tx_meilleur_qunndw1rv79c9-fill" stroke="none" fill="#484848"><g><text style="font: 20px Roboto, sans-serif; white-space: pre;" font-size="20px" font-family="Roboto, sans-serif"><tspan x="16.66" y="34" dominant-baseline="ideographic">Meilleure collaboration</tspan></text></g></g></g><g id="g-root-cu_6hoh01rv8pad-fill" data-item-order="0" transform="translate(369, 399)"></g><g id="g-root-cu_zof8dg1rv8npd-fill" data-item-order="0" transform="translate(441, 309)"></g><g id="g-root-cu_6hoh01rv8paf-fill" data-item-order="0" transform="translate(369, 399)"></g><g id="g-root-cu_4mb6lg1rv8oi0-fill" data-item-order="0" transform="translate(615, 177)"></g><g id="g-root-2_1ha2z381rv5vy9-fill" data-item-order="1000000000" transform="translate(603, 135)"></g><g id="g-root-code_zrjlt01ruxgcn-fill" data-item-order="1000000000" transform="translate(417, 159)"></g><g id="g-root-tx_producti_1lpwh7o1rv5v60-fill" data-item-order="1000000000" transform="translate(639, 138)"><g id="tx_producti_1lpwh7o1rv5v60-fill" stroke="none" fill="#ba5de5"><g><text style="font: 20px Roboto, sans-serif; white-space: pre;" font-size="20px" font-family="Roboto, sans-serif"><tspan x="17.21" y="34" dominant-baseline="ideographic">Productivité Améliorée</tspan></text></g></g></g><g id="g-root-tx_avantage_147d3xg1ruxfke-fill" data-item-order="1000000000" transform="translate(363, 213)"><g id="tx_avantage_147d3xg1ruxfke-fill" stroke="none" fill="#484848"><g><text style="font: 20px Roboto, sans-serif; white-space: pre;" font-size="20px" font-family="Roboto, sans-serif"><tspan x="26.27" y="34" dominant-baseline="ideographic">Avantages du </tspan><tspan x="17.29" y="58" dominant-baseline="ideographic">Développement </tspan><tspan x="52.16" y="82" dominant-baseline="ideographic">Logiciel</tspan></text></g></g></g><g id="g-root-tx_scuritet_1uqja5g1rv8mww-fill" data-item-order="1000000000" transform="translate(63, 138)"><g id="tx_scuritet_1uqja5g1rv8mww-fill" stroke="none" fill="#4e88e7"><g><text style="font: 20px Roboto, sans-serif; white-space: pre;" font-size="20px" font-family="Roboto, sans-serif"><tspan x="15.2" y="34" dominant-baseline="ideographic">Sécurité et Fiabilité</tspan></text></g></g></g><g id="g-root-up_1lwrp5w1rv78ju-fill" data-item-order="1000000000" transform="translate(357, 357)"></g><g id="g-root-1_1luw9wk1rv8npl-fill" data-item-order="1000000000" transform="translate(249, 135)"></g><g id="g-root-tx_maintena_6hoh01rv7abt-fill" data-item-order="1000000000" transform="translate(393, 360)"><g id="tx_maintena_6hoh01rv7abt-fill" stroke="none" fill="#e0cb15"><g><text style="font: 20px Roboto, sans-serif; white-space: pre;" font-size="20px" font-family="Roboto, sans-serif"><tspan x="12.85" y="34" dominant-baseline="ideographic">Maintenabilité</tspan></text></g></g></g><g id="g-root-tf_18lb6sk1rv8p3e-stroke" data-item-order="-521136" transform="translate(-9, -9)"></g><g id="g-root-ro_mgpkis1ruxers-stroke" data-item-order="-35496" transform="translate(339, 135)"><g id="ro_mgpkis1ruxers-stroke" fill="none" stroke-linecap="round" stroke-linejoin="round" stroke-miterlimit="4" stroke="#484848" stroke-width="2"><g><path d="M 34 10L 190 10C 190 10 214 10 214 34L 214 160C 214 160 214 184 190 184L 34 184C 34 184 10 184 10 160L 10 34C 10 34 10 10 34 10"></path></g></g></g><g id="g-root-ro_18f2fxg1rv5tl6-stroke" data-item-order="-14904" transform="translate(591, 123)"><g id="ro_18f2fxg1rv5tl6-stroke" fill="none" stroke-linecap="round" stroke-linejoin="round" stroke-miterlimit="4" stroke="#ba5de5" stroke-width="2"><g><path d="M 22 10L 274 10C 274 10 286 10 286 22L 286 52C 286 52 286 64 274 64L 22 64C 22 64 10 64 10 52L 10 22C 10 22 10 10 22 10"></path></g></g></g><g id="g-root-ro_1hf2rs41rv8ohu-stroke" data-item-order="-12960" transform="translate(51, 123)"><g id="ro_1hf2rs41rv8ohu-stroke" fill="none" stroke-linecap="round" stroke-linejoin="round" stroke-miterlimit="4" stroke="#4e88e7" stroke-width="2"><g><path d="M 22 10L 238 10C 238 10 250 10 250 22L 250 52C 250 52 250 64 238 64L 22 64C 22 64 10 64 10 52L 10 22C 10 22 10 10 22 10"></path></g></g></g><g id="g-root-ro_1lwrp5w1rv78jv-stroke" data-item-order="-10368" transform="translate(345, 345)"><g id="ro_1lwrp5w1rv78jv-stroke" fill="none" stroke-linecap="round" stroke-linejoin="round" stroke-miterlimit="4" stroke="#e0cb15" stroke-width="2"><g><path d="M 22 10L 190 10C 190 10 202 10 202 22L 202 52C 202 52 202 64 190 64L 22 64C 22 64 10 64 10 52L 10 22C 10 22 10 10 22 10"></path></g></g></g><g id="g-root-tx_autocomp_145hoo41rv7ax3-stroke" data-item-order="0" transform="translate(639, 189)"></g><g id="g-root-tx_prventio_18lb6sk1rv7a4t-stroke" data-item-order="0" transform="translate(51, 225)"></g><g id="g-root-cu_18jfrj81rv8paj-stroke" data-item-order="0" transform="translate(291, 150)"><g id="cu_18jfrj81rv8paj-stroke" fill="none" stroke-linecap="round" stroke-linejoin="round" stroke-miterlimit="4" stroke="#969696" stroke-width="2" stroke-dasharray="5.0, 7.0"><g><path d="M 58 53L 55 53L 54.9 53C 43.357252 53.000001 34.000002 43.642752 34.000002 32.1L 34 32L 34 30.9C 33.999998 19.357248 24.64275 10 13.1 10L 13 10L 10 10"></path></g></g></g><g id="g-root-tx_codelisi_qunndw1rv79ca-stroke" data-item-order="0" transform="translate(393, 411)"></g><g id="g-root-tx_avantage_1usepes1rv8mpt-stroke" data-item-order="0" transform="translate(237, 39)"></g><g id="g-root-cu_v8lq901rv8npq-stroke" data-item-order="0" transform="translate(543, 150)"><g id="cu_v8lq901rv8npq-stroke" fill="none" stroke-linecap="round" stroke-linejoin="round" stroke-miterlimit="4" stroke="#969696" stroke-width="2" stroke-dasharray="5.0, 7.0"><g><path d="M 10 53L 13 53L 13.1 53C 24.642753 52.999998 34.000001 43.642749 34 32.099998L 34 32L 34 30.9C 33.999999 19.357249 43.357248 10.000001 54.899999 10.000002L 55 10L 58 10"></path></g></g></g><g id="g-root-tx_refactor_zqanms1rv78jk-stroke" data-item-order="0" transform="translate(639, 225)"></g><g id="g-root-tx_document_145hoo41rv7ax2-stroke" data-item-order="0" transform="translate(15, 261)"></g><g id="g-root-tx_dtection_1hgy71g1rv79c4-stroke" data-item-order="0" transform="translate(39, 189)"></g><g id="g-root-cu_qss84k1rv8oi4-stroke" data-item-order="0" transform="translate(249, 177)"><g id="cu_qss84k1rv8oi4-stroke" fill="none" stroke-linecap="round" stroke-linejoin="round" stroke-miterlimit="4" stroke="#969696" stroke-width="2" stroke-dasharray="5.0, 7.0"><g><path d="M 28 10L 28 22L 28 34L 19 34L 10 34"></path></g></g></g><g id="g-root-cu_dhy6uc1rv8mxb-stroke" data-item-order="0" transform="translate(249, 177)"><g id="cu_dhy6uc1rv8mxb-stroke" fill="none" stroke-linecap="round" stroke-linejoin="round" stroke-miterlimit="4" stroke="#969696" stroke-width="2" stroke-dasharray="5.0, 7.0"><g><path d="M 28 10L 28 40L 28 70L 19 70L 10 70"></path></g></g></g><g id="g-root-cu_hxroys1rv8mwx-stroke" data-item-order="0" transform="translate(249, 177)"><g id="cu_hxroys1rv8mwx-stroke" fill="none" stroke-linecap="round" stroke-linejoin="round" stroke-miterlimit="4" stroke="#969696" stroke-width="2" stroke-dasharray="5.0, 7.0"><g><path d="M 28 10L 28 22L 28 94C 28.000002 100.627415 22.627419 105.999998 16.000002 105.999998L 15.9 106L 10 106"></path></g></g></g><g id="g-root-tx_volution_meu59g1rv7a4j-stroke" data-item-order="0" transform="translate(393, 447)"></g><g id="g-root-cu_4mb6lg1rv8oi2-stroke" data-item-order="0" transform="translate(369, 399)"><g id="cu_4mb6lg1rv8oi2-stroke" fill="none" stroke-linecap="round" stroke-linejoin="round" stroke-miterlimit="4" stroke="#969696" stroke-width="2" stroke-dasharray="5.0, 7.0"><g><path d="M 10 10L 10 22L 10 34L 19 34L 28 34"></path></g></g></g><g id="g-root-cu_hxroys1rv8mwz-stroke" data-item-order="0" transform="translate(615, 177)"><g id="cu_hxroys1rv8mwz-stroke" fill="none" stroke-linecap="round" stroke-linejoin="round" stroke-miterlimit="4" stroke="#969696" stroke-width="2" stroke-dasharray="5.0, 7.0"><g><path d="M 10 10L 10 22L 10 34L 19 34L 28 34"></path></g></g></g><g id="g-root-cu_924opw1rv8npq-stroke" data-item-order="0" transform="translate(615, 177)"><g id="cu_924opw1rv8npq-stroke" fill="none" stroke-linecap="round" stroke-linejoin="round" stroke-miterlimit="4" stroke="#969696" stroke-width="2" stroke-dasharray="5.0, 7.0"><g><path d="M 10 10L 10 40L 10 70L 19 70L 28 70"></path></g></g></g><g id="g-root-tx_dbogages_meu59g1rv7a4k-stroke" data-item-order="0" transform="translate(393, 483)"></g><g id="g-root-tx_meilleur_qunndw1rv79c9-stroke" data-item-order="0" transform="translate(639, 261)"></g><g id="g-root-cu_6hoh01rv8pad-stroke" data-item-order="0" transform="translate(369, 399)"><g id="cu_6hoh01rv8pad-stroke" fill="none" stroke-linecap="round" stroke-linejoin="round" stroke-miterlimit="4" stroke="#969696" stroke-width="2" stroke-dasharray="5.0, 7.0"><g><path d="M 10 10L 10 40L 10 70L 19 70L 28 70"></path></g></g></g><g id="g-root-cu_zof8dg1rv8npd-stroke" data-item-order="0" transform="translate(441, 309)"><g id="cu_zof8dg1rv8npd-stroke" fill="none" stroke-linecap="round" stroke-linejoin="round" stroke-miterlimit="4" stroke="#969696" stroke-width="2" stroke-dasharray="5.0, 7.0"><g><path d="M 10 10L 10 28L 10 46"></path></g></g></g><g id="g-root-cu_6hoh01rv8paf-stroke" data-item-order="0" transform="translate(369, 399)"><g id="cu_6hoh01rv8paf-stroke" fill="none" stroke-linecap="round" stroke-linejoin="round" stroke-miterlimit="4" stroke="#969696" stroke-width="2" stroke-dasharray="5.0, 7.0"><g><path d="M 10 10L 10 22L 10 94C 10.000004 100.627423 15.372587 106.000006 22.000005 106.000005L 22.1 106L 28 106"></path></g></g></g><g id="g-root-cu_4mb6lg1rv8oi0-stroke" data-item-order="0" transform="translate(615, 177)"><g id="cu_4mb6lg1rv8oi0-stroke" fill="none" stroke-linecap="round" stroke-linejoin="round" stroke-miterlimit="4" stroke="#969696" stroke-width="2" stroke-dasharray="5.0, 7.0"><g><path d="M 10 10L 10 22L 10 94C 10.000004 100.627423 15.372587 106.000006 22.000005 106.000005L 22.1 106L 28 106"></path></g></g></g><g id="g-root-2_1ha2z381rv5vy9-stroke" data-item-order="1000000000" transform="translate(603, 135)"><g id="2_1ha2z381rv5vy9-stroke" fill="none" stroke-linecap="round" stroke-linejoin="round" stroke-miterlimit="4" stroke="#ba5de5" stroke-width="2"><g><path d="M 14.375 38.125L 11.8625 35C 11.058648 34.00531 10.61775 32.766388 10.6125 31.487501L 10.6125 25C 10.612489 24.500546 10.811748 24.021729 11.166087 23.669737C 11.520426 23.317743 12.000557 23.12167 12.5 23.125L 12.5 23.125C 13.535534 23.125 14.375 23.964466 14.375 25L 14.375 29.8375M 20 38.125L 20 34.200001C 20.002216 33.090767 19.671257 32.006432 19.049999 31.087498L 17.625 28.9375C 17.375448 28.522594 16.966204 28.228621 16.49334 28.12459C 16.020475 28.020559 15.52564 28.115637 15.125 28.387501L 15.125 28.387501C 14.39384 28.879101 14.142162 29.837616 14.5375 30.625L 16.25 33.4375M 35.625 38.125L 38.125 34.974998C 38.928852 33.980312 39.369751 32.74139 39.375 31.4625L 39.375 25C 39.375 23.964466 38.535534 23.125 37.5 23.125L 37.5 23.125C 36.464466 23.125 35.625 23.964466 35.625 25L 35.625 29.8375M 30 38.125L 30 34.200001C 29.997782 33.090767 30.328743 32.006432 30.950001 31.087498L 32.375 28.9375C 32.624554 28.522594 33.033794 28.228621 33.50666 28.12459C 33.979523 28.020559 34.474358 28.115637 34.875 28.387501L 34.875 28.387501C 35.606159 28.879101 35.857838 29.837616 35.462502 30.625L 33.75 33.4375M 30.625 12.5L 35.625 17.5L 30.625 22.5M 20.625 12.5L 15.625 17.5L 20.625 22.5M 26.875 11.875L 24.375 23.125"></path></g></g></g><g id="g-root-code_zrjlt01ruxgcn-stroke" data-item-order="1000000000" transform="translate(417, 159)"><g id="code_zrjlt01ruxgcn-stroke" fill="none" stroke-linecap="round" stroke-linejoin="round" stroke-miterlimit="4" stroke="#484848" stroke-width="2"><g><path d="M 28.300039 18.17502L 28.300039 13.57502C 28.300039 12.37502 29.10004 11.575012 30.299999 11.575012L 49.5 11.575012C 49.900002 11.575012 50.5 11.775012 50.700001 11.975012L 55.5 15.975019C 55.900002 16.375019 56.299999 16.975019 56.299999 17.57502L 56.299999 42.575001C 56.299999 43.775002 55.5 44.575001 54.299999 44.575001L 39.299999 44.575001M 10 10M 36.299999 19.974979L 33.299999 22.974979L 36.299999 25.974979M 10 10M 48.299999 19.974979L 51.299999 22.974979L 48.299999 25.974979M 10 10M 40.299999 26.97504L 44.299999 17.97504M 37.099998 56.424999C 35.299999 51.224998 30.299999 47.424999 24.49996 47.424999C 18.699959 47.424999 13.49996 51.224998 11.699952 56.424999M 24.299999 29.42498L 24.299999 23.42498M 13.2998 35.224998L 35.299801 35.224998M 16.0998 37.424999C 16.299801 41.825001 19.899799 45.424999 24.299801 45.424999C 28.899799 45.424999 32.499802 41.825001 32.499802 37.224998L 32.499802 33.625C 32.499802 29.024981 28.899799 25.42498 24.299801 25.42498C 19.899799 25.42498 16.299801 29.024981 16.0998 33.424999L 16.0998 37.424999Z"></path></g></g></g><g id="g-root-tx_producti_1lpwh7o1rv5v60-stroke" data-item-order="1000000000" transform="translate(639, 138)"></g><g id="g-root-tx_avantage_147d3xg1ruxfke-stroke" data-item-order="1000000000" transform="translate(363, 213)"></g><g id="g-root-tx_scuritet_1uqja5g1rv8mww-stroke" data-item-order="1000000000" transform="translate(63, 138)"></g><g id="g-root-up_1lwrp5w1rv78ju-stroke" data-item-order="1000000000" transform="translate(357, 357)"><g id="up_1lwrp5w1rv78ju-stroke" fill="none" stroke-linecap="round" stroke-linejoin="round" stroke-miterlimit="4" stroke="#e0cb15" stroke-width="2"><g><path d="M 10.9375 39.0625C 12.8042 39.0625 14.670913 39.0625 16.537613 37.1875C 18.404312 39.0625 20.271013 39.0625 20.768799 39.0625C 21.266588 39.0625 23.133251 39.0625 25 37.1875C 26.866749 39.0625 28.733376 39.0625 29.231251 39.0625C 29.729 39.0625 31.595627 39.0625 33.462376 37.1875C 35.329124 39.0625 37.195747 39.0625 39.0625 39.0625M 35.1875 15.494762C 37.48225 15.494762 39.342625 14.474587 39.342625 13.216138C 39.342625 11.957675 37.48225 10.9375 35.1875 10.9375C 32.892624 10.9375 31.032373 11.957675 31.032373 13.216138C 31.032373 14.474587 32.892624 15.494762 35.1875 15.494762ZM 31.032373 13.216063L 31.032373 19.381775C 31.032373 20.588114 32.908875 21.660412 35.1875 21.660412C 37.466125 21.660412 39.342625 20.588114 39.342625 19.381775L 39.342625 13.216063M 12.870325 34.249874C 12.870325 33.835751 12.732275 33.421627 12.3181 33.007374L 11.489738 32.179001C 10.937504 31.764874 10.79944 30.936501 11.075558 30.384251C 11.351675 29.694 11.903913 29.417875 12.594213 29.417875L 13.698688 29.417875C 14.112863 29.417875 14.665088 29.279875 14.941213 29.00375C 15.217325 28.727625 15.355388 28.320251 15.355388 27.761126L 15.355388 26.65675C 15.355388 25.966375 15.769563 25.276125 16.3218 25.138C 17.012087 24.862 17.702387 25 18.116562 25.55225L 18.944925 26.380625C 19.221037 26.65675 19.635212 26.932875 20.18745 26.932875C 20.739674 26.932875 21.015787 26.79475 21.429962 26.380625L 22.258324 25.55225C 22.672499 25 23.500875 24.862 24.053125 25.138C 24.743374 25.414125 25.019501 25.966375 25.019501 26.65675L 25.019501 27.761126C 25.019501 28.175375 25.157625 28.727625 25.433624 29.00375C 25.709749 29.279875 26.261999 29.556 26.67625 29.417875L 27.780624 29.417875C 28.471001 29.417875 29.161251 29.831999 29.299376 30.384251C 29.5755 31.074623 29.437374 31.764874 28.885124 32.179001L 28.056751 33.007374C 27.780624 33.283501 27.504499 33.69775 27.504499 34.249874M 17.150112 34.249874C 17.150112 32.593124 18.530712 31.074501 20.325474 31.074501C 21.982176 31.074501 23.362749 32.455002 23.362749 34.249874M 35.1875 24.624874L 35.1875 33.749878M 10 10M 32.6875 27.125L 35.1875 24.625L 37.6875 27.125M 39.342625 16.274788C 39.342625 17.559887 37.482376 18.601675 35.1875 18.601675C 32.892624 18.601675 31.032373 17.559887 31.032373 16.274788"></path></g></g></g><g id="g-root-1_1luw9wk1rv8npl-stroke" data-item-order="1000000000" transform="translate(249, 135)"><g id="1_1luw9wk1rv8npl-stroke" fill="none" stroke-linecap="round" stroke-linejoin="round" stroke-miterlimit="4" stroke="#4e88e7" stroke-width="2"><g><path d="M 23.1325 39.375L 11.8825 39.375C 11.192144 39.375 10.6325 38.815353 10.6325 38.125L 10.6325 11.875C 10.6325 11.184644 11.192144 10.625 11.8825 10.625L 28.5 10.625C 28.832319 10.627717 29.149879 10.762657 29.3825 11L 34.016251 15.625C 34.250687 15.859366 34.382431 16.177258 34.3825 16.508749L 34.3825 20.625M 18.1325 18.755001L 14.3825 22.504999L 18.1325 26.254999M 21.8825 18.755001L 25.6325 22.504999M 31.8825 26.879999L 31.8825 34.380001M 35.6325 30.629999L 28.1325 30.629999M 32.55125 39.25L 33.2425 38.987499C 36.530003 37.737499 39.3825 34.5825 39.3825 31.063749L 39.3825 26.825001C 39.382729 26.305101 39.074341 25.834663 38.5975 25.627501C 36.439987 24.821207 34.158161 24.398176 31.855001 24.377501C 29.569609 24.397018 27.305639 24.82019 25.1675 25.627501C 24.690659 25.834663 24.382271 26.305101 24.3825 26.825001L 24.3825 31.064999C 24.3825 34.583748 27.18 37.736248 30.467501 38.98875L 31.158751 39.251247C 31.607273 39.422108 32.103035 39.421661 32.55125 39.25Z"></path></g></g></g><g id="g-root-tx_maintena_6hoh01rv7abt-stroke" data-item-order="1000000000" transform="translate(393, 360)"></g></g></g></svg>