<?xml version="1.0" encoding="utf-8" standalone="yes"?>
<!DOCTYPE svg PUBLIC "-//W3C//DTD SVG 1.1//EN" "http://www.w3.org/Graphics/SVG/1.1/DTD/svg11.dtd">
<svg width="714" height="1074" viewBox="0 0 714 1074" style="fill:none;stroke:none;fill-rule:evenodd;clip-rule:evenodd;stroke-linecap:round;stroke-linejoin:round;stroke-miterlimit:1.5;" version="1.1" xmlns="http://www.w3.org/2000/svg" xmlns:xlink="http://www.w3.org/1999/xlink"><style id="fontImports">@import url("https://fonts.googleapis.com/css2?family=Roboto:wght@400;700&amp;display=block");</style><rect id="" x="0" y="0" width="714" height="1074" style="fill: #ffffff;"></rect><g id="items" style="isolation: isolate"><g id="blend" style="mix-blend-mode:normal"><g id="g-root-ro_6hb0319jzi8a-fill" data-item-order="999963712" data-item-id="ro_6hb0319jzi8a" data-item-class="Shape Stroke Fill" data-item-index="none" data-renderer-id="0" transform="translate(475, 627)"><g id="ro_6hb0319jzi8a-fill" stroke="none" fill="#e6f9ff"><g><path d="M 22 10L 214 10C 214 10 226 10 226 22L 226 166C 226 166 226 178 214 178L 22 178C 22 178 10 178 10 166L 10 22C 10 22 10 10 22 10"></path></g></g></g><g id="g-root-ro_de720j19jefpk-fill" data-item-order="999968896" data-item-id="ro_de720j19jefpk" data-item-class="Shape Stroke Fill" data-item-index="none" data-renderer-id="0" transform="translate(475, 815)"><g id="ro_de720j19jefpk-fill" stroke="none" fill="#e6f9ff"><g><path d="M 22 10L 214 10C 214 10 226 10 226 22L 226 142C 226 142 226 154 214 154L 22 154C 22 154 10 154 10 142L 10 22C 10 22 10 10 22 10"></path></g></g></g><g id="g-root-ro_1qckqnn19jk001-fill" data-item-order="999977536" data-item-id="ro_1qckqnn19jk001" data-item-class="Shape Stroke Fill" data-item-index="none" data-renderer-id="0" transform="translate(3, 407)"><g id="ro_1qckqnn19jk001-fill" stroke="none" fill="#f0f0f0"><g><path d="M 22 10L 154 10C 154 10 166 10 166 22L 166 142C 166 142 166 154 154 154L 22 154C 22 154 10 154 10 142L 10 22C 10 22 10 10 22 10"></path></g></g></g><g id="g-root-ro_mcbvg319jimto-fill" data-item-order="999979264" data-item-id="ro_mcbvg319jimto" data-item-class="Shape Stroke Fill" data-item-index="none" data-renderer-id="0" transform="translate(475, 3)"><g id="ro_mcbvg319jimto-fill" stroke="none" fill="#e6f9ff"><g><path d="M 22 10L 214 10C 214 10 226 10 226 22L 226 94C 226 94 226 106 214 106L 22 106C 22 106 10 106 10 94L 10 22C 10 22 10 10 22 10"></path></g></g></g><g id="g-root-ro_146q9df19jmsxx-fill" data-item-order="999979264" data-item-id="ro_146q9df19jmsxx" data-item-class="Shape Stroke Fill" data-item-index="none" data-renderer-id="0" transform="translate(475, 119)"><g id="ro_146q9df19jmsxx-fill" stroke="none" fill="#e6f9ff"><g><path d="M 22 10L 214 10C 214 10 226 10 226 22L 226 94C 226 94 226 106 214 106L 22 106C 22 106 10 106 10 94L 10 22C 10 22 10 10 22 10"></path></g></g></g><g id="g-root-ro_146q9df19jpm2r-fill" data-item-order="999979264" data-item-id="ro_146q9df19jpm2r" data-item-class="Shape Stroke Fill" data-item-index="none" data-renderer-id="0" transform="translate(475, 235)"><g id="ro_146q9df19jpm2r-fill" stroke="none" fill="#e6f9ff"><g><path d="M 22 10L 214 10C 214 10 226 10 226 22L 226 94C 226 94 226 106 214 106L 22 106C 22 106 10 106 10 94L 10 22C 10 22 10 10 22 10"></path></g></g></g><g id="g-root-ro_18mjunn19jftvy-fill" data-item-order="999984448" data-item-id="ro_18mjunn19jftvy" data-item-class="Shape Stroke Fill" data-item-index="none" data-renderer-id="0" transform="translate(475, 979)"><g id="ro_18mjunn19jftvy-fill" stroke="none" fill="#e6f9ff"><g><path d="M 22 10L 214 10C 214 10 226 10 226 22L 226 70C 226 70 226 82 214 82L 22 82C 22 82 10 82 10 70L 10 22C 10 22 10 10 22 10"></path></g></g></g><g id="g-root-ro_13z8kc319jzh8k-fill" data-item-order="999984448" data-item-id="ro_13z8kc319jzh8k" data-item-class="Shape Stroke Fill" data-item-index="none" data-renderer-id="0" transform="translate(475, 535)"><g id="ro_13z8kc319jzh8k-fill" stroke="none" fill="#e6f9ff"><g><path d="M 22 10L 214 10C 214 10 226 10 226 22L 226 70C 226 70 226 82 214 82L 22 82C 22 82 10 82 10 70L 10 22C 10 22 10 10 22 10"></path></g></g></g><g id="g-root-ro_hsrisz19jy32b-fill" data-item-order="999984448" data-item-id="ro_hsrisz19jy32b" data-item-class="Shape Stroke Fill" data-item-index="none" data-renderer-id="0" transform="translate(475, 443)"><g id="ro_hsrisz19jy32b-fill" stroke="none" fill="#e6f9ff"><g><path d="M 22 10L 214 10C 214 10 226 10 226 22L 226 70C 226 70 226 82 214 82L 22 82C 22 82 10 82 10 70L 10 22C 10 22 10 10 22 10"></path></g></g></g><g id="g-root-ro_8xqzn719jtuyr-fill" data-item-order="999984448" data-item-id="ro_8xqzn719jtuyr" data-item-class="Shape Stroke Fill" data-item-index="none" data-renderer-id="0" transform="translate(475, 351)"><g id="ro_8xqzn719jtuyr-fill" stroke="none" fill="#e6f9ff"><g><path d="M 22 10L 214 10C 214 10 226 10 226 22L 226 70C 226 70 226 82 214 82L 22 82C 22 82 10 82 10 70L 10 22C 10 22 10 10 22 10"></path></g></g></g><g id="g-root-ro_metomr19jzfur-fill" data-item-order="999985312" data-item-id="ro_metomr19jzfur" data-item-class="Shape Stroke Fill" data-item-index="none" data-renderer-id="0" transform="translate(215, 851)"><g id="ro_metomr19jzfur-fill" stroke="none" fill="#e6f9ff"><g><path d="M 22 10L 202 10C 202 10 214 10 214 22L 214 70C 214 70 214 82 202 82L 22 82C 22 82 10 82 10 70L 10 22C 10 22 10 10 22 10"></path></g></g></g><g id="g-root-ro_zqa70319jsg7a-fill" data-item-order="999985312" data-item-id="ro_zqa70319jsg7a" data-item-class="Shape Stroke Fill" data-item-index="none" data-renderer-id="0" transform="translate(215, 131)"><g id="ro_zqa70319jsg7a-fill" stroke="none" fill="#e6f9ff"><g><path d="M 22 10L 202 10C 202 10 214 10 214 22L 214 70C 214 70 214 82 202 82L 22 82C 22 82 10 82 10 70L 10 22C 10 22 10 10 22 10"></path></g></g></g><g id="g-root-ro_13z8h6b19jy0wf-fill" data-item-order="999985312" data-item-id="ro_13z8h6b19jy0wf" data-item-class="Shape Stroke Fill" data-item-index="none" data-renderer-id="0" transform="translate(215, 443)"><g id="ro_13z8h6b19jy0wf-fill" stroke="none" fill="#e6f9ff"><g><path d="M 22 10L 202 10C 202 10 214 10 214 22L 214 70C 214 70 214 82 202 82L 22 82C 22 82 10 82 10 70L 10 22C 10 22 10 10 22 10"></path></g></g></g><g id="g-root-tx_volution_145h81f19jzgnd-fill" data-item-order="1000000000" data-item-id="tx_volution_145h81f19jzgnd" data-item-class="Label Stroke" data-item-index="none" data-renderer-id="0" transform="translate(263, 863)"><g id="tx_volution_145h81f19jzgnd-fill" stroke="none" fill="#17b0e3"><g><text style="font: 20px Roboto, sans-serif; white-space: pre;" font-size="20px" font-family="Roboto, sans-serif"><tspan x="12" y="33.75" dominant-baseline="ideographic">Évolution </tspan><tspan x="12" y="57.75" dominant-baseline="ideographic">indépendante</tspan></text></g></g></g><g id="g-root-add_hu0k4z19jeexb-fill" data-item-order="1000000000" data-item-id="add_hu0k4z19jeexb" data-item-class="Icon Stroke" data-item-index="none" data-renderer-id="0" transform="translate(487, 872)"></g><g id="g-root-tx_mieuxmai_1hhkann19jpnnl-fill" data-item-order="1000000000" data-item-id="tx_mieuxmai_1hhkann19jpnnl" data-item-class="Label Stroke" data-item-index="none" data-renderer-id="0" transform="translate(523, 247)"><g id="tx_mieuxmai_1hhkann19jpnnl-fill" stroke="none" fill="#17b0e3"><g><text style="font: 20px Roboto, sans-serif; white-space: pre;" font-size="20px" font-family="Roboto, sans-serif"><tspan x="12" y="33.75" dominant-baseline="ideographic">Mieux </tspan><tspan x="12" y="57.75" dominant-baseline="ideographic">maintenable </tspan><tspan x="12" y="81.75" dominant-baseline="ideographic">et testable</tspan></text></g></g></g><g id="g-root-scre_18lxaer19jpoga-fill" data-item-order="1000000000" data-item-id="scre_18lxaer19jpoga" data-item-class="Icon Stroke" data-item-index="none" data-renderer-id="0" transform="translate(487, 268)"></g><g id="g-root-rhom_ddkhrn19jtu6i-fill" data-item-order="1000000000" data-item-id="rhom_ddkhrn19jtu6i" data-item-class="Icon Stroke" data-item-index="none" data-renderer-id="0" transform="translate(487, 372)"></g><g id="g-root-tx_approche_13zv1f719jtu6h-fill" data-item-order="1000000000" data-item-id="tx_approche_13zv1f719jtu6h" data-item-class="Label Stroke" data-item-index="none" data-renderer-id="0" transform="translate(523, 363)"><g id="tx_approche_13zv1f719jtu6h-fill" stroke="none" fill="#17b0e3"><g><text style="font: 20px Roboto, sans-serif; white-space: pre;" font-size="20px" font-family="Roboto, sans-serif"><tspan x="12" y="33.75" dominant-baseline="ideographic">Approche </tspan><tspan x="12" y="57.75" dominant-baseline="ideographic">cohérente</tspan></text></g></g></g><g id="g-root-tx_logiquem_znsdtf19jil8q-fill" data-item-order="1000000000" data-item-id="tx_logiquem_znsdtf19jil8q" data-item-class="Label Stroke" data-item-index="none" data-renderer-id="0" transform="translate(523, 15)"><g id="tx_logiquem_znsdtf19jil8q-fill" stroke="none" fill="#17b0e3"><g><text style="font: 20px Roboto, sans-serif; white-space: pre;" font-size="20px" font-family="Roboto, sans-serif"><tspan x="12" y="33.75" dominant-baseline="ideographic">Logique </tspan><tspan x="12" y="57.75" dominant-baseline="ideographic">métier </tspan><tspan x="12" y="81.75" dominant-baseline="ideographic">focalisée</tspan></text></g></g></g><g id="g-root-tx_gestiond_6h7ub19jk1sf-fill" data-item-order="1000000000" data-item-id="tx_gestiond_6h7ub19jk1sf" data-item-class="Label Stroke" data-item-index="none" data-renderer-id="0" transform="translate(51, 419)"><g id="tx_gestiond_6h7ub19jk1sf-fill" stroke="none" fill="#484848"><g><text style="font: 20px Roboto, sans-serif; white-space: pre;" font-size="20px" font-family="Roboto, sans-serif"><tspan x="12" y="33.74" dominant-baseline="ideographic">Gestion </tspan><tspan x="12" y="57.75" dominant-baseline="ideographic">d'erreurs </tspan><tspan x="12" y="81.75" dominant-baseline="ideographic">comme </tspan><tspan x="12" y="105.75" dominant-baseline="ideographic">couche </tspan><tspan x="12" y="129.76" dominant-baseline="ideographic">distincte</tspan></text></g></g></g><g id="g-root-puzz_18lxaer19jmvbg-fill" data-item-order="1000000000" data-item-id="puzz_18lxaer19jmvbg" data-item-class="Icon Stroke" data-item-index="none" data-renderer-id="0" transform="translate(487, 152)"></g><g id="g-root-down_1use8s319jjz7s-fill" data-item-order="1000000000" data-item-id="down_1use8s319jjz7s" data-item-class="Icon Stroke" data-item-index="none" data-renderer-id="0" transform="translate(15, 464)"></g><g id="g-root-chec_1cu90c319jy39i-fill" data-item-order="1000000000" data-item-id="chec_1cu90c319jy39i" data-item-class="Icon Stroke" data-item-index="none" data-renderer-id="0" transform="translate(227, 464)"></g><g id="g-root-tx_applicat_4pf3eb19jwow5-fill" data-item-order="1000000000" data-item-id="tx_applicat_4pf3eb19jwow5" data-item-class="Label Stroke" data-item-index="none" data-renderer-id="0" transform="translate(263, 455)"><g id="tx_applicat_4pf3eb19jwow5-fill" stroke="none" fill="#17b0e3"><g><text style="font: 20px Roboto, sans-serif; white-space: pre;" font-size="20px" font-family="Roboto, sans-serif"><tspan x="12" y="33.75" dominant-baseline="ideographic">Application </tspan><tspan x="12" y="57.75" dominant-baseline="ideographic">systématique</tspan></text></g></g></g><g id="g-root-tx_gestiond_1hhkann19jmuir-fill" data-item-order="1000000000" data-item-id="tx_gestiond_1hhkann19jmuir" data-item-class="Label Stroke" data-item-index="none" data-renderer-id="0" transform="translate(523, 131)"><g id="tx_gestiond_1hhkann19jmuir-fill" stroke="none" fill="#17b0e3"><g><text style="font: 20px Roboto, sans-serif; white-space: pre;" font-size="20px" font-family="Roboto, sans-serif"><tspan x="12" y="33.75" dominant-baseline="ideographic">Gestion des </tspan><tspan x="12" y="57.75" dominant-baseline="ideographic">erreurs </tspan><tspan x="12" y="81.75" dominant-baseline="ideographic">isolée</tspan></text></g></g></g><g id="g-root-bag_hsrisz19jy32a-fill" data-item-order="1000000000" data-item-id="bag_hsrisz19jy32a" data-item-class="Icon Stroke" data-item-index="none" data-renderer-id="0" transform="translate(487, 464)"></g><g id="g-root-tx_patterns_18f22gj19jy329-fill" data-item-order="1000000000" data-item-id="tx_patterns_18f22gj19jy329" data-item-class="Label Stroke" data-item-index="none" data-renderer-id="0" transform="translate(523, 455)"><g id="tx_patterns_18f22gj19jy329-fill" stroke="none" fill="#17b0e3"><g><text style="font: 20px Roboto, sans-serif; white-space: pre;" font-size="20px" font-family="Roboto, sans-serif"><tspan x="12" y="33.75" dominant-baseline="ideographic">Patterns </tspan><tspan x="12" y="57.75" dominant-baseline="ideographic">réutilisables</tspan></text></g></g></g><g id="g-root-sear_mcbvg319jimtn-fill" data-item-order="1000000000" data-item-id="sear_mcbvg319jimtn" data-item-class="Icon Stroke" data-item-index="none" data-renderer-id="0" transform="translate(487, 36)"></g><g id="g-root-tx_sparatio_1hgxqer19jsgzw-fill" data-item-order="1000000000" data-item-id="tx_sparatio_1hgxqer19jsgzw" data-item-class="Label Stroke" data-item-index="none" data-renderer-id="0" transform="translate(263, 143)"><g id="tx_sparatio_1hgxqer19jsgzw-fill" stroke="none" fill="#17b0e3"><g><text style="font: 20px Roboto, sans-serif; white-space: pre;" font-size="20px" font-family="Roboto, sans-serif"><tspan x="12" y="33.75" dominant-baseline="ideographic">Séparation des </tspan><tspan x="12" y="57.75" dominant-baseline="ideographic">préoccupations</tspan></text></g></g></g><g id="g-root-1_13z8kc319jzh8j-fill" data-item-order="1000000000" data-item-id="1_13z8kc319jzh8j" data-item-class="Icon Stroke" data-item-index="none" data-renderer-id="0" transform="translate(487, 556)"></g><g id="g-root-tx_document_1hap2pf19jzfnm-fill" data-item-order="1000000000" data-item-id="tx_document_1hap2pf19jzfnm" data-item-class="Label Stroke" data-item-index="none" data-renderer-id="0" transform="translate(523, 547)"><g id="tx_document_1hap2pf19jzfnm-fill" stroke="none" fill="#17b0e3"><g><text style="font: 20px Roboto, sans-serif; white-space: pre;" font-size="20px" font-family="Roboto, sans-serif"><tspan x="12" y="33.75" dominant-baseline="ideographic">Documentation </tspan><tspan x="12" y="57.75" dominant-baseline="ideographic">implicite</tspan></text></g></g></g><g id="g-root-tx_modifier_dhxtdf19jzgnc-fill" data-item-order="1000000000" data-item-id="tx_modifier_dhxtdf19jzgnc" data-item-class="Label Stroke" data-item-index="none" data-renderer-id="0" transform="translate(523, 639)"><g id="tx_modifier_dhxtdf19jzgnc-fill" stroke="none" fill="#17b0e3"><g><text style="font: 20px Roboto, sans-serif; white-space: pre;" font-size="20px" font-family="Roboto, sans-serif"><tspan x="12" y="33.74" dominant-baseline="ideographic">Modifier les </tspan><tspan x="12" y="57.74" dominant-baseline="ideographic">stratégies </tspan><tspan x="12" y="81.75" dominant-baseline="ideographic">sans </tspan><tspan x="12" y="105.75" dominant-baseline="ideographic">impacter la </tspan><tspan x="12" y="129.76" dominant-baseline="ideographic">logique </tspan><tspan x="12" y="153.76" dominant-baseline="ideographic">métier</tspan></text></g></g></g><g id="g-root-hamm_924b8z19jzhfl-fill" data-item-order="1000000000" data-item-id="hamm_924b8z19jzhfl" data-item-class="Icon Stroke" data-item-index="none" data-renderer-id="0" transform="translate(487, 696)"></g><g id="g-root-stea_18mjunn19jftvx-fill" data-item-order="1000000000" data-item-id="stea_18mjunn19jftvx" data-item-class="Icon Stroke" data-item-index="none" data-renderer-id="0" transform="translate(487, 1000)"></g><g id="g-root-puzz_1463p4j19jsff1-fill" data-item-order="1000000000" data-item-id="puzz_1463p4j19jsff1" data-item-class="Icon Stroke" data-item-index="none" data-renderer-id="0" transform="translate(227, 152)"></g><g id="g-root-tx_facilite_qpnkdv19jee4m-fill" data-item-order="1000000000" data-item-id="tx_facilite_qpnkdv19jee4m" data-item-class="Label Stroke" data-item-index="none" data-renderer-id="0" transform="translate(523, 827)"><g id="tx_facilite_qpnkdv19jee4m-fill" stroke="none" fill="#17b0e3"><g><text style="font: 20px Roboto, sans-serif; white-space: pre;" font-size="20px" font-family="Roboto, sans-serif"><tspan x="12" y="33.74" dominant-baseline="ideographic">Faciliter </tspan><tspan x="12" y="57.75" dominant-baseline="ideographic">l'ajout de </tspan><tspan x="12" y="81.75" dominant-baseline="ideographic">nouveaux </tspan><tspan x="12" y="105.75" dominant-baseline="ideographic">types </tspan><tspan x="12" y="129.76" dominant-baseline="ideographic">d'erreurs</tspan></text></g></g></g><g id="g-root-tx_amliorat_1ly0d0z19jfsb0-fill" data-item-order="1000000000" data-item-id="tx_amliorat_1ly0d0z19jfsb0" data-item-class="Label Stroke" data-item-index="none" data-renderer-id="0" transform="translate(523, 991)"><g id="tx_amliorat_1ly0d0z19jfsb0-fill" stroke="none" fill="#17b0e3"><g><text style="font: 20px Roboto, sans-serif; white-space: pre;" font-size="20px" font-family="Roboto, sans-serif"><tspan x="12" y="33.75" dominant-baseline="ideographic">Amélioration </tspan><tspan x="12" y="57.75" dominant-baseline="ideographic">continue</tspan></text></g></g></g><g id="g-root-buil_qu0po319jzi8a-fill" data-item-order="1000000000" data-item-id="buil_qu0po319jzi8a" data-item-class="Icon Stroke" data-item-index="none" data-renderer-id="0" transform="translate(227, 872)"></g><g id="g-root-cu_1cu96nn19jh7go-fill" data-item-order="1000000002" data-item-id="cu_1cu96nn19jh7go" data-item-class="Curve Stroke" data-item-index="none" data-renderer-id="0" transform="translate(419, 167)"></g><g id="g-root-cu_1ha2os319jh6od-fill" data-item-order="1000000002" data-item-id="cu_1ha2os319jh6od" data-item-class="Curve Stroke" data-item-index="none" data-renderer-id="0" transform="translate(419, 167)"></g><g id="g-root-cu_1ha2os319jh6ob-fill" data-item-order="1000000002" data-item-id="cu_1ha2os319jh6ob" data-item-class="Curve Stroke" data-item-index="none" data-renderer-id="0" transform="translate(419, 387)"></g><g id="g-root-cu_1ha2os319jh7gh-fill" data-item-order="1000000002" data-item-id="cu_1ha2os319jh7gh" data-item-class="Curve Stroke" data-item-index="none" data-renderer-id="0" transform="translate(159, 167)"></g><g id="g-root-cu_1cu96nn19jh7gs-fill" data-item-order="1000000002" data-item-id="cu_1cu96nn19jh7gs" data-item-class="Curve Stroke" data-item-index="none" data-renderer-id="0" transform="translate(159, 479)"></g><g id="g-root-cu_1cu96nn19jh7gv-fill" data-item-order="1000000002" data-item-id="cu_1cu96nn19jh7gv" data-item-class="Curve Stroke" data-item-index="none" data-renderer-id="0" transform="translate(159, 479)"></g><g id="g-root-cu_1ha2os319jh6o6-fill" data-item-order="1000000002" data-item-id="cu_1ha2os319jh6o6" data-item-class="Curve Stroke" data-item-index="none" data-renderer-id="0" transform="translate(419, 479)"></g><g id="g-root-cu_1ha2os319jh6o9-fill" data-item-order="1000000002" data-item-id="cu_1ha2os319jh6o9" data-item-class="Curve Stroke" data-item-index="none" data-renderer-id="0" transform="translate(419, 479)"></g><g id="g-root-cu_1ha2os319jh6o4-fill" data-item-order="1000000002" data-item-id="cu_1ha2os319jh6o4" data-item-class="Curve Stroke" data-item-index="none" data-renderer-id="0" transform="translate(419, 711)"></g><g id="g-root-cu_1cu96nn19jh7gq-fill" data-item-order="1000000002" data-item-id="cu_1cu96nn19jh7gq" data-item-class="Curve Stroke" data-item-index="none" data-renderer-id="0" transform="translate(419, 51)"></g><g id="g-root-cu_1lz9b7719jfuh3-fill" data-item-order="1000000002" data-item-id="cu_1lz9b7719jfuh3" data-item-class="Curve Stroke" data-item-index="none" data-renderer-id="0" transform="translate(419, 887)"></g><g id="g-root-cu_1lz9b7719jfuh6-fill" data-item-order="1000000002" data-item-id="cu_1lz9b7719jfuh6" data-item-class="Curve Stroke" data-item-index="none" data-renderer-id="0" transform="translate(419, 887)"></g><g id="g-root-ro_6hb0319jzi8a-stroke" data-item-order="999963712" data-item-id="ro_6hb0319jzi8a" data-item-class="Shape Stroke Fill" data-item-index="none" data-renderer-id="0" transform="translate(475, 627)"><g id="ro_6hb0319jzi8a-stroke" fill="none" stroke-linecap="round" stroke-linejoin="round" stroke-miterlimit="4" stroke="#17b0e3" stroke-width="2"><g><path d="M 22 10L 214 10C 214 10 226 10 226 22L 226 166C 226 166 226 178 214 178L 22 178C 22 178 10 178 10 166L 10 22C 10 22 10 10 22 10"></path></g></g></g><g id="g-root-ro_de720j19jefpk-stroke" data-item-order="999968896" data-item-id="ro_de720j19jefpk" data-item-class="Shape Stroke Fill" data-item-index="none" data-renderer-id="0" transform="translate(475, 815)"><g id="ro_de720j19jefpk-stroke" fill="none" stroke-linecap="round" stroke-linejoin="round" stroke-miterlimit="4" stroke="#17b0e3" stroke-width="2"><g><path d="M 22 10L 214 10C 214 10 226 10 226 22L 226 142C 226 142 226 154 214 154L 22 154C 22 154 10 154 10 142L 10 22C 10 22 10 10 22 10"></path></g></g></g><g id="g-root-ro_1qckqnn19jk001-stroke" data-item-order="999977536" data-item-id="ro_1qckqnn19jk001" data-item-class="Shape Stroke Fill" data-item-index="none" data-renderer-id="0" transform="translate(3, 407)"><g id="ro_1qckqnn19jk001-stroke" fill="none" stroke-linecap="round" stroke-linejoin="round" stroke-miterlimit="4" stroke="#484848" stroke-width="2"><g><path d="M 22 10L 154 10C 154 10 166 10 166 22L 166 142C 166 142 166 154 154 154L 22 154C 22 154 10 154 10 142L 10 22C 10 22 10 10 22 10"></path></g></g></g><g id="g-root-ro_mcbvg319jimto-stroke" data-item-order="999979264" data-item-id="ro_mcbvg319jimto" data-item-class="Shape Stroke Fill" data-item-index="none" data-renderer-id="0" transform="translate(475, 3)"><g id="ro_mcbvg319jimto-stroke" fill="none" stroke-linecap="round" stroke-linejoin="round" stroke-miterlimit="4" stroke="#17b0e3" stroke-width="2"><g><path d="M 22 10L 214 10C 214 10 226 10 226 22L 226 94C 226 94 226 106 214 106L 22 106C 22 106 10 106 10 94L 10 22C 10 22 10 10 22 10"></path></g></g></g><g id="g-root-ro_146q9df19jmsxx-stroke" data-item-order="999979264" data-item-id="ro_146q9df19jmsxx" data-item-class="Shape Stroke Fill" data-item-index="none" data-renderer-id="0" transform="translate(475, 119)"><g id="ro_146q9df19jmsxx-stroke" fill="none" stroke-linecap="round" stroke-linejoin="round" stroke-miterlimit="4" stroke="#17b0e3" stroke-width="2"><g><path d="M 22 10L 214 10C 214 10 226 10 226 22L 226 94C 226 94 226 106 214 106L 22 106C 22 106 10 106 10 94L 10 22C 10 22 10 10 22 10"></path></g></g></g><g id="g-root-ro_146q9df19jpm2r-stroke" data-item-order="999979264" data-item-id="ro_146q9df19jpm2r" data-item-class="Shape Stroke Fill" data-item-index="none" data-renderer-id="0" transform="translate(475, 235)"><g id="ro_146q9df19jpm2r-stroke" fill="none" stroke-linecap="round" stroke-linejoin="round" stroke-miterlimit="4" stroke="#17b0e3" stroke-width="2"><g><path d="M 22 10L 214 10C 214 10 226 10 226 22L 226 94C 226 94 226 106 214 106L 22 106C 22 106 10 106 10 94L 10 22C 10 22 10 10 22 10"></path></g></g></g><g id="g-root-ro_18mjunn19jftvy-stroke" data-item-order="999984448" data-item-id="ro_18mjunn19jftvy" data-item-class="Shape Stroke Fill" data-item-index="none" data-renderer-id="0" transform="translate(475, 979)"><g id="ro_18mjunn19jftvy-stroke" fill="none" stroke-linecap="round" stroke-linejoin="round" stroke-miterlimit="4" stroke="#17b0e3" stroke-width="2"><g><path d="M 22 10L 214 10C 214 10 226 10 226 22L 226 70C 226 70 226 82 214 82L 22 82C 22 82 10 82 10 70L 10 22C 10 22 10 10 22 10"></path></g></g></g><g id="g-root-ro_13z8kc319jzh8k-stroke" data-item-order="999984448" data-item-id="ro_13z8kc319jzh8k" data-item-class="Shape Stroke Fill" data-item-index="none" data-renderer-id="0" transform="translate(475, 535)"><g id="ro_13z8kc319jzh8k-stroke" fill="none" stroke-linecap="round" stroke-linejoin="round" stroke-miterlimit="4" stroke="#17b0e3" stroke-width="2"><g><path d="M 22 10L 214 10C 214 10 226 10 226 22L 226 70C 226 70 226 82 214 82L 22 82C 22 82 10 82 10 70L 10 22C 10 22 10 10 22 10"></path></g></g></g><g id="g-root-ro_hsrisz19jy32b-stroke" data-item-order="999984448" data-item-id="ro_hsrisz19jy32b" data-item-class="Shape Stroke Fill" data-item-index="none" data-renderer-id="0" transform="translate(475, 443)"><g id="ro_hsrisz19jy32b-stroke" fill="none" stroke-linecap="round" stroke-linejoin="round" stroke-miterlimit="4" stroke="#17b0e3" stroke-width="2"><g><path d="M 22 10L 214 10C 214 10 226 10 226 22L 226 70C 226 70 226 82 214 82L 22 82C 22 82 10 82 10 70L 10 22C 10 22 10 10 22 10"></path></g></g></g><g id="g-root-ro_8xqzn719jtuyr-stroke" data-item-order="999984448" data-item-id="ro_8xqzn719jtuyr" data-item-class="Shape Stroke Fill" data-item-index="none" data-renderer-id="0" transform="translate(475, 351)"><g id="ro_8xqzn719jtuyr-stroke" fill="none" stroke-linecap="round" stroke-linejoin="round" stroke-miterlimit="4" stroke="#17b0e3" stroke-width="2"><g><path d="M 22 10L 214 10C 214 10 226 10 226 22L 226 70C 226 70 226 82 214 82L 22 82C 22 82 10 82 10 70L 10 22C 10 22 10 10 22 10"></path></g></g></g><g id="g-root-ro_metomr19jzfur-stroke" data-item-order="999985312" data-item-id="ro_metomr19jzfur" data-item-class="Shape Stroke Fill" data-item-index="none" data-renderer-id="0" transform="translate(215, 851)"><g id="ro_metomr19jzfur-stroke" fill="none" stroke-linecap="round" stroke-linejoin="round" stroke-miterlimit="4" stroke="#17b0e3" stroke-width="2"><g><path d="M 22 10L 202 10C 202 10 214 10 214 22L 214 70C 214 70 214 82 202 82L 22 82C 22 82 10 82 10 70L 10 22C 10 22 10 10 22 10"></path></g></g></g><g id="g-root-ro_zqa70319jsg7a-stroke" data-item-order="999985312" data-item-id="ro_zqa70319jsg7a" data-item-class="Shape Stroke Fill" data-item-index="none" data-renderer-id="0" transform="translate(215, 131)"><g id="ro_zqa70319jsg7a-stroke" fill="none" stroke-linecap="round" stroke-linejoin="round" stroke-miterlimit="4" stroke="#17b0e3" stroke-width="2"><g><path d="M 22 10L 202 10C 202 10 214 10 214 22L 214 70C 214 70 214 82 202 82L 22 82C 22 82 10 82 10 70L 10 22C 10 22 10 10 22 10"></path></g></g></g><g id="g-root-ro_13z8h6b19jy0wf-stroke" data-item-order="999985312" data-item-id="ro_13z8h6b19jy0wf" data-item-class="Shape Stroke Fill" data-item-index="none" data-renderer-id="0" transform="translate(215, 443)"><g id="ro_13z8h6b19jy0wf-stroke" fill="none" stroke-linecap="round" stroke-linejoin="round" stroke-miterlimit="4" stroke="#17b0e3" stroke-width="2"><g><path d="M 22 10L 202 10C 202 10 214 10 214 22L 214 70C 214 70 214 82 202 82L 22 82C 22 82 10 82 10 70L 10 22C 10 22 10 10 22 10"></path></g></g></g><g id="g-root-tx_volution_145h81f19jzgnd-stroke" data-item-order="1000000000" data-item-id="tx_volution_145h81f19jzgnd" data-item-class="Label Stroke" data-item-index="none" data-renderer-id="0" transform="translate(263, 863)"></g><g id="g-root-add_hu0k4z19jeexb-stroke" data-item-order="1000000000" data-item-id="add_hu0k4z19jeexb" data-item-class="Icon Stroke" data-item-index="none" data-renderer-id="0" transform="translate(487, 872)"><g id="add_hu0k4z19jeexb-stroke" fill="none" stroke-linecap="round" stroke-linejoin="round" stroke-miterlimit="4" stroke="#17b0e3" stroke-width="2"><g><path d="M 15.625 13.122499L 33.125 13.122499M 15.625 19.372499L 33.125 19.372499M 15.625 25.622499L 23.125 25.622499M 15.625 31.872499L 23.125 31.872499M 10.625 13.122499L 11.875 13.122499M 10.625 19.372499L 11.875 19.372499M 10.625 25.622499L 11.875 25.622499M 10.625 31.872499L 11.875 31.872499M 26.875 33.122498C 26.875 36.57428 29.673222 39.372501 33.125 39.372501C 36.576778 39.372501 39.375 36.57428 39.375 33.122501C 39.375 29.670719 36.576778 26.872499 33.125 26.872499C 29.673222 26.872499 26.875 29.670719 26.875 33.122501ZM 36.25 33.122498L 30 33.122498M 33.125 36.247498L 33.125 29.997499"></path></g></g></g><g id="g-root-tx_mieuxmai_1hhkann19jpnnl-stroke" data-item-order="1000000000" data-item-id="tx_mieuxmai_1hhkann19jpnnl" data-item-class="Label Stroke" data-item-index="none" data-renderer-id="0" transform="translate(523, 247)"></g><g id="g-root-scre_18lxaer19jpoga-stroke" data-item-order="1000000000" data-item-id="scre_18lxaer19jpoga" data-item-class="Icon Stroke" data-item-index="none" data-renderer-id="0" transform="translate(487, 268)"><g id="scre_18lxaer19jpoga-stroke" fill="none" stroke-linecap="round" stroke-linejoin="round" stroke-miterlimit="4" stroke="#17b0e3" stroke-width="2"><g><path d="M 13.825 38.825001C 13.086226 39.513401 11.934975 39.493088 11.220944 38.779057C 10.506914 38.065025 10.486602 36.913773 11.175 36.174999L 19.387501 27.9625L 22.0375 30.612499ZM 18.0625 26.637501L 23.362499 31.9375M 33.137501 16.887501L 20.7125 29.2875M 35.887497 17.625C 35.668007 17.911652 35.335297 18.089403 34.974998 18.112499C 34.61277 18.139053 34.256901 18.006744 34 17.75L 32.237503 15.9875C 31.977303 15.727674 31.844704 15.366463 31.875 15C 31.910099 14.631213 32.106968 14.296991 32.412498 14.0875L 37.275002 10.7375C 37.524536 10.565063 37.861862 10.596687 38.074997 10.8125L 39.1875 11.925C 39.394779 12.160941 39.394779 12.514059 39.1875 12.75ZM 26.25 23.75L 20.1875 17.6875C 20.473665 17.037416 20.622604 16.335276 20.625 15.625C 20.625 12.863576 18.386423 10.625 15.625 10.625C 15.280951 10.626054 14.937765 10.659535 14.6 10.725C 14.372754 10.771401 14.189891 10.939828 14.125 11.1625C 14.061834 11.384887 14.124015 11.624043 14.287499 11.7875L 16.0625 13.5625C 16.184574 13.680095 16.252457 13.843018 16.25 14.0125L 16.25 15.625C 16.25 15.970179 15.970179 16.25 15.625 16.25L 14.0125 16.25C 13.843018 16.252457 13.680095 16.184574 13.5625 16.0625L 11.7875 14.2875C 11.624043 14.124015 11.384887 14.061834 11.1625 14.125C 10.942765 14.194568 10.776303 14.375298 10.725 14.599999C 10.659535 14.937765 10.626054 15.280951 10.625 15.625C 10.625 18.386423 12.863576 20.625 15.625 20.625C 16.335276 20.622604 17.037416 20.473665 17.6875 20.1875L 23.75 26.25M 28.200001 25.700001L 32.3125 29.8125C 32.962585 29.526337 33.664726 29.377398 34.375004 29.375002C 37.136425 29.375 39.375 31.613577 39.375 34.375C 39.373947 34.719051 39.340466 35.062233 39.275002 35.400002C 39.2286 35.627247 39.060169 35.810108 38.837502 35.875C 38.615112 35.938164 38.375957 35.875984 38.212502 35.712502L 36.4375 33.9375C 36.319908 33.815426 36.156982 33.747543 35.987503 33.75L 34.375 33.75C 34.029823 33.75 33.75 34.029823 33.75 34.375L 33.75 35.987503C 33.747543 36.156982 33.815426 36.319908 33.9375 36.4375L 35.712502 38.212502C 35.875984 38.375957 35.938164 38.615112 35.875 38.837502C 35.805431 39.057232 35.624699 39.223694 35.399998 39.274998C 35.062233 39.340466 34.719051 39.373947 34.375 39.375C 31.613577 39.375 29.375 37.136425 29.375 34.375C 29.377398 33.664726 29.526337 32.962585 29.8125 32.3125L 25.6875 28.1875"></path></g></g></g><g id="g-root-rhom_ddkhrn19jtu6i-stroke" data-item-order="1000000000" data-item-id="rhom_ddkhrn19jtu6i" data-item-class="Icon Stroke" data-item-index="none" data-renderer-id="0" transform="translate(487, 372)"><g id="rhom_ddkhrn19jtu6i-stroke" fill="none" stroke-linecap="round" stroke-linejoin="round" stroke-miterlimit="4" stroke="#17b0e3" stroke-width="2"><g><path d="M 35.625 16.25C 35.578823 15.463904 35.239895 14.723611 34.674999 14.175L 31.525 11.45C 30.895546 10.95248 30.126383 10.664043 29.324999 10.625L 20.650002 10.625C 19.849796 10.669694 19.082283 10.957511 18.450001 11.45L 15.3125 14.175C 14.753207 14.726276 14.419029 15.465924 14.375 16.25L 14.375 33.75C 14.419029 34.534077 14.753207 35.273724 15.3125 35.825001L 18.450001 38.549999C 19.082283 39.042492 19.849796 39.330307 20.650002 39.375004L 29.325001 39.375C 30.126383 39.335953 30.895546 39.04752 31.525 38.549999L 34.674999 35.825001C 35.239895 35.27639 35.578823 34.536098 35.625 33.75ZM 35.387501 15.2125L 30.574999 19.375L 19.4 19.375L 14.6125 15.2125M 14.6125 34.787498L 19.4 30.625L 30.574999 30.625L 35.387501 34.787498M 19.4 39.100002L 19.4 19.375M 30.574999 39.100002L 30.574999 19.375"></path></g></g></g><g id="g-root-tx_approche_13zv1f719jtu6h-stroke" data-item-order="1000000000" data-item-id="tx_approche_13zv1f719jtu6h" data-item-class="Label Stroke" data-item-index="none" data-renderer-id="0" transform="translate(523, 363)"></g><g id="g-root-tx_logiquem_znsdtf19jil8q-stroke" data-item-order="1000000000" data-item-id="tx_logiquem_znsdtf19jil8q" data-item-class="Label Stroke" data-item-index="none" data-renderer-id="0" transform="translate(523, 15)"></g><g id="g-root-tx_gestiond_6h7ub19jk1sf-stroke" data-item-order="1000000000" data-item-id="tx_gestiond_6h7ub19jk1sf" data-item-class="Label Stroke" data-item-index="none" data-renderer-id="0" transform="translate(51, 419)"></g><g id="g-root-puzz_18lxaer19jmvbg-stroke" data-item-order="1000000000" data-item-id="puzz_18lxaer19jmvbg" data-item-class="Icon Stroke" data-item-index="none" data-renderer-id="0" transform="translate(487, 152)"><g id="puzz_18lxaer19jmvbg-stroke" fill="none" stroke-linecap="round" stroke-linejoin="round" stroke-miterlimit="4" stroke="#17b0e3" stroke-width="2"><g><path d="M 11.25 28.125L 15 28.125C 15 28.125 15.625 28.125 15.625 28.75L 15.625 37.5C 15.625 37.5 15.625 38.125 15 38.125L 11.25 38.125C 11.25 38.125 10.625 38.125 10.625 37.5L 10.625 28.75C 10.625 28.75 10.625 28.125 11.25 28.125M 15.625 36.328751C 28.75 40.703751 24.375 40.703751 39.375 33.203751C 38.511703 32.040684 37.013474 31.541273 35.625 31.953751L 30.22875 33.662498M 15.625 29.375L 19.375 29.375C 22.31625 29.375 24.375 31.875 25 31.875L 29.375 31.875C 30.625 31.875 30.625 34.375 29.375 34.375L 22.5 34.375M 31.963749 24.25C 30.987242 23.273491 30.987242 21.690258 31.963751 20.713751C 32.940258 19.737242 34.523491 19.737242 35.5 20.713751C 35.744263 20.956083 35.935028 21.246918 36.059998 21.567499C 36.136826 21.764254 36.307831 21.908894 36.514603 21.952013C 36.721375 21.995132 36.935936 21.930899 37.084999 21.78125L 39.036251 19.83C 39.524227 19.341875 39.524227 18.550625 39.036251 18.0625L 37.036251 16.0625C 38.206245 15.745746 38.980461 14.635328 38.873116 13.427975C 38.765774 12.220622 37.8078 11.264211 36.600273 11.158836C 35.39275 11.053463 34.283596 11.829489 33.96875 13L 31.96875 11C 31.480625 10.512023 30.689375 10.512023 30.201248 11L 28.38875 12.81125C 28.255905 12.943991 28.189791 13.12943 28.208693 13.316273C 28.227594 13.503116 28.329512 13.671556 28.48625 13.775C 29.330976 14.334877 29.754135 15.349325 29.557665 16.343519C 29.361193 17.337713 28.583963 18.114943 27.589769 18.311415C 26.595575 18.507885 25.581127 18.084724 25.02125 17.24C 24.917807 17.083261 24.749367 16.981346 24.562523 16.962442C 24.375679 16.943541 24.190239 17.009655 24.057501 17.1425L 22.241251 18.946251C 21.753273 19.434374 21.753273 20.225624 22.241251 20.713751L 29.3125 27.785C 29.800625 28.272976 30.591873 28.272976 31.08 27.785L 33.03125 25.8325C 33.180313 25.683414 33.244171 25.469225 33.20108 25.26285C 33.157993 25.056479 33.013767 24.885735 32.817501 24.80875C 32.497181 24.683853 32.206413 24.493555 31.963749 24.25Z"></path></g></g></g><g id="g-root-down_1use8s319jjz7s-stroke" data-item-order="1000000000" data-item-id="down_1use8s319jjz7s" data-item-class="Icon Stroke" data-item-index="none" data-renderer-id="0" transform="translate(15, 464)"><g id="down_1use8s319jjz7s-stroke" fill="none" stroke-linecap="round" stroke-linejoin="round" stroke-miterlimit="4" stroke="#484848" stroke-width="2"><g><path d="M 12.5 39.375C 11.809644 39.375 11.25 38.815353 11.25 38.125M 22.5 39.375C 23.190357 39.375 23.75 38.815353 23.75 38.125M 11.25 35.625L 11.25 34.375M 16.25 39.375L 15 39.375M 16.25 26.875L 15 26.875M 20 39.375L 18.75 39.375M 20 26.875L 18.75 26.875M 22.5 26.875C 23.190357 26.875 23.75 27.434643 23.75 28.125M 23.75 30.625L 23.75 31.875M 12.5 26.875C 11.809644 26.875 11.25 27.434643 11.25 28.125M 11.25 30.625L 11.25 31.875M 23.75 34.375L 23.75 35.625M 12.5 10.625L 22.5 10.625C 22.5 10.625 23.75 10.625 23.75 11.875L 23.75 21.875C 23.75 21.875 23.75 23.125 22.5 23.125L 12.5 23.125C 12.5 23.125 11.25 23.125 11.25 21.875L 11.25 11.875C 11.25 11.875 11.25 10.625 12.5 10.625M 38.75 28.72875L 33.75 33.728748L 28.75 28.72875M 33.75 14.375L 33.75 33.728748"></path></g></g></g><g id="g-root-chec_1cu90c319jy39i-stroke" data-item-order="1000000000" data-item-id="chec_1cu90c319jy39i" data-item-class="Icon Stroke" data-item-index="none" data-renderer-id="0" transform="translate(227, 464)"><g id="chec_1cu90c319jy39i-stroke" fill="none" stroke-linecap="round" stroke-linejoin="round" stroke-miterlimit="4" stroke="#17b0e3" stroke-width="2"><g><path d="M 30.357141 13.214286L 33.571426 13.214286C 34.754894 13.214286 35.714287 14.173676 35.714287 15.357142L 35.714287 36.785713C 35.714287 37.969181 34.754894 38.92857 33.571426 38.92857L 16.428572 38.92857C 15.245104 38.92857 14.285714 37.969181 14.285714 36.785713L 14.285714 15.357142C 14.285714 14.173676 15.245104 13.214286 16.428572 13.214286L 19.642857 13.214286M 21.785713 11.071428L 28.214285 11.071428C 28.214285 11.071428 30.357141 11.071428 30.357141 13.214286L 30.357141 14.285714C 30.357141 14.285714 30.357141 16.428572 28.214285 16.428572L 21.785713 16.428572C 21.785713 16.428572 19.642857 16.428572 19.642857 14.285714L 19.642857 13.214286C 19.642857 13.214286 19.642857 11.071428 21.785713 11.071428M 19.642857 28.214285L 23.928572 31.42857L 29.285713 22.857143"></path></g></g></g><g id="g-root-tx_applicat_4pf3eb19jwow5-stroke" data-item-order="1000000000" data-item-id="tx_applicat_4pf3eb19jwow5" data-item-class="Label Stroke" data-item-index="none" data-renderer-id="0" transform="translate(263, 455)"></g><g id="g-root-tx_gestiond_1hhkann19jmuir-stroke" data-item-order="1000000000" data-item-id="tx_gestiond_1hhkann19jmuir" data-item-class="Label Stroke" data-item-index="none" data-renderer-id="0" transform="translate(523, 131)"></g><g id="g-root-bag_hsrisz19jy32a-stroke" data-item-order="1000000000" data-item-id="bag_hsrisz19jy32a" data-item-class="Icon Stroke" data-item-index="none" data-renderer-id="0" transform="translate(487, 464)"><g id="bag_hsrisz19jy32a-stroke" fill="none" stroke-linecap="round" stroke-linejoin="round" stroke-miterlimit="4" stroke="#17b0e3" stroke-width="2"><g><path d="M 10.9375 25C 10.9375 32.766502 17.233496 39.0625 25 39.0625C 32.766502 39.0625 39.0625 32.766502 39.0625 25C 39.0625 17.233496 32.766502 10.9375 25 10.9375C 17.233496 10.9375 10.9375 17.233496 10.9375 25M 34.790001 14.905L 14.84 34.853748M 30.857502 18.891251L 30.4475 15.465C 30.390106 14.9401 29.946779 14.54256 29.418751 14.5425L 28.401249 14.5425C 28.107031 14.542453 27.826731 14.667778 27.630581 14.887074C 27.434433 15.10637 27.341021 15.398857 27.373751 15.691251L 27.373751 18.977501M 20.54125 34.407497C 24.207962 34.928066 27.939995 34.751644 31.54125 33.887497C 32.047531 33.762135 32.382347 33.280769 32.32375 32.762497L 31.305 23.341251M 16.817499 32.931248L 18.875 15.465C 18.931799 14.940295 19.374729 14.542626 19.9025 14.5425L 20.92 14.5425C 21.21422 14.542453 21.49452 14.667778 21.69067 14.887074C 21.88682 15.10637 21.980232 15.398857 21.9475 15.691251L 21.911251 18.977501M 21.911251 18.977501L 27.3675 18.977501"></path></g></g></g><g id="g-root-tx_patterns_18f22gj19jy329-stroke" data-item-order="1000000000" data-item-id="tx_patterns_18f22gj19jy329" data-item-class="Label Stroke" data-item-index="none" data-renderer-id="0" transform="translate(523, 455)"></g><g id="g-root-sear_mcbvg319jimtn-stroke" data-item-order="1000000000" data-item-id="sear_mcbvg319jimtn" data-item-class="Icon Stroke" data-item-index="none" data-renderer-id="0" transform="translate(487, 36)"><g id="sear_mcbvg319jimtn-stroke" fill="none" stroke-linecap="round" stroke-linejoin="round" stroke-miterlimit="4" stroke="#17b0e3" stroke-width="2"><g><path d="M 31.97875 31.94875L 39.423748 39.393749M 10.625 23.125C 10.625 30.028561 16.221441 35.625 23.125 35.625C 30.028561 35.625 35.625 30.028561 35.625 23.125C 35.625 16.221441 30.028561 10.625 23.125 10.625C 16.221441 10.625 10.625 16.221441 10.625 23.125ZM 26.92375 26.893751C 26.92375 28.964819 25.244818 30.643751 23.17375 30.643751C 21.102682 30.643751 19.42375 28.964819 19.42375 26.893751L 19.42375 20.643751L 26.92375 20.643751ZM 26.92375 20.643751C 26.92375 18.572683 25.244818 16.893751 23.17375 16.893751C 21.102682 16.893751 19.42375 18.572683 19.42375 20.643751ZM 30.04875 27.518751C 28.322861 27.518751 26.92375 26.11964 26.92375 24.393751C 26.92375 22.66786 28.322861 21.268751 30.04875 21.268751M 30.04875 24.393751L 26.92375 24.393751M 16.29875 27.518751C 18.024639 27.518751 19.42375 26.11964 19.42375 24.393751C 19.42375 22.66786 18.024639 21.268751 16.29875 21.268751M 16.29875 24.393751L 19.42375 24.393751M 26.92375 15.01875C 26.924789 16.095308 26.462021 17.120138 25.653751 17.831251M 20.69375 17.831249C 19.885212 17.120337 19.422386 16.095379 19.42375 15.01875"></path></g></g></g><g id="g-root-tx_sparatio_1hgxqer19jsgzw-stroke" data-item-order="1000000000" data-item-id="tx_sparatio_1hgxqer19jsgzw" data-item-class="Label Stroke" data-item-index="none" data-renderer-id="0" transform="translate(263, 143)"></g><g id="g-root-1_13z8kc319jzh8j-stroke" data-item-order="1000000000" data-item-id="1_13z8kc319jzh8j" data-item-class="Icon Stroke" data-item-index="none" data-renderer-id="0" transform="translate(487, 556)"><g id="1_13z8kc319jzh8j-stroke" fill="none" stroke-linecap="round" stroke-linejoin="round" stroke-miterlimit="4" stroke="#17b0e3" stroke-width="2"><g><path d="M 21.9275 39.375L 11.9275 39.375C 11.237144 39.375 10.6775 38.815353 10.6775 38.125L 10.6775 11.875C 10.6775 11.184644 11.237144 10.625 11.9275 10.625L 28.543751 10.625C 28.876505 10.627385 29.194574 10.762351 29.4275 11L 34.061249 15.625C 34.295689 15.859366 34.427429 16.177258 34.427498 16.508749L 34.427498 20.625M 18.1775 18.755001L 14.4275 22.504999L 18.1775 26.254999M 21.9275 18.755001L 25.6775 22.504999L 21.9275 26.254999M 24.4275 31.879999C 24.427502 36.022137 27.785366 39.380001 31.9275 39.380001C 36.069637 39.380001 39.427498 36.022137 39.427498 31.879999C 39.427498 27.737865 36.069637 24.380001 31.9275 24.380001C 27.785366 24.380001 24.427502 27.737865 24.427502 31.879999ZM 29.58375 30.05625C 29.583752 28.761833 30.633085 27.712502 31.927502 27.712502C 33.22192 27.712502 34.271252 28.761833 34.271252 30.05625C 34.271252 31.350668 33.22192 32.400002 31.927502 32.400002L 31.9275 33.650002M 31.9275 36.150002C 32.10009 36.150002 32.239998 36.289909 32.239998 36.462502C 32.239998 36.63509 32.10009 36.775002 31.9275 36.775002C 31.754911 36.775002 31.615 36.63509 31.615 36.462502C 31.615 36.289909 31.754911 36.150002 31.9275 36.150002"></path></g></g></g><g id="g-root-tx_document_1hap2pf19jzfnm-stroke" data-item-order="1000000000" data-item-id="tx_document_1hap2pf19jzfnm" data-item-class="Label Stroke" data-item-index="none" data-renderer-id="0" transform="translate(523, 547)"></g><g id="g-root-tx_modifier_dhxtdf19jzgnc-stroke" data-item-order="1000000000" data-item-id="tx_modifier_dhxtdf19jzgnc" data-item-class="Label Stroke" data-item-index="none" data-renderer-id="0" transform="translate(523, 639)"></g><g id="g-root-hamm_924b8z19jzhfl-stroke" data-item-order="1000000000" data-item-id="hamm_924b8z19jzhfl" data-item-class="Icon Stroke" data-item-index="none" data-renderer-id="0" transform="translate(487, 696)"><g id="hamm_924b8z19jzhfl-stroke" fill="none" stroke-linecap="round" stroke-linejoin="round" stroke-miterlimit="4" stroke="#17b0e3" stroke-width="2"><g><path d="M 18.12178 17.237198L 23.667515 11.691463C 23.667515 11.691463 25.182745 10.176233 26.697973 11.691463L 38.304626 23.298113C 38.304626 23.298113 39.819855 24.813341 38.304626 26.328571L 32.758888 31.874308C 32.758888 31.874308 31.24366 33.389538 29.72843 31.874308L 18.12178 20.267656C 18.12178 20.267656 16.60655 18.752426 18.12178 17.237198M 11.95 33.764286C 10.766907 34.947815 10.767084 36.866291 11.950397 38.049603C 13.133709 39.232914 15.052183 39.233093 16.235714 38.049999L 26.071428 28.214285L 21.785713 23.928572Z"></path></g></g></g><g id="g-root-stea_18mjunn19jftvx-stroke" data-item-order="1000000000" data-item-id="stea_18mjunn19jftvx" data-item-class="Icon Stroke" data-item-index="none" data-renderer-id="0" transform="translate(487, 1000)"><g id="stea_18mjunn19jftvx-stroke" fill="none" stroke-linecap="round" stroke-linejoin="round" stroke-miterlimit="4" stroke="#17b0e3" stroke-width="2"><g><path d="M 10 10M 35.625 18.125L 39.375 14.375L 35.625 10.625M 10.625 39.375L 11.875 39.375M 14.466249 39.375L 17.016251 39.375M 19.60125 39.153751C 20.419565 38.901714 21.159447 38.443756 21.75 37.82375M 22.981251 35.561249C 23.028751 35.138748 23.092501 34.71875 23.125 34.295002L 23.125 33.02M 23.125 30.41625L 23.125 27.866251M 23.125 25.262501L 23.125 22.7125M 23.125 20.106251C 23.059052 19.256025 23.170141 18.401363 23.45125 17.596251M 24.960001 15.5C 25.620977 14.960159 26.409481 14.59905 27.25 14.45125M 29.85375 14.375L 32.4025 14.375M 35 14.375L 36.25 14.375"></path></g></g></g><g id="g-root-puzz_1463p4j19jsff1-stroke" data-item-order="1000000000" data-item-id="puzz_1463p4j19jsff1" data-item-class="Icon Stroke" data-item-index="none" data-renderer-id="0" transform="translate(227, 152)"><g id="puzz_1463p4j19jsff1-stroke" fill="none" stroke-linecap="round" stroke-linejoin="round" stroke-miterlimit="4" stroke="#17b0e3" stroke-width="2"><g><path d="M 35.612499 25C 35.612499 24.9 35.612499 24.7875 35.612499 24.6875C 35.612499 23.134199 34.353302 21.875 32.799999 21.875C 31.2467 21.875 29.987499 23.134199 29.987499 24.6875C 29.987499 24.7875 29.987499 24.9 29.987499 25L 26.5625 25L 26.5625 28.75L 26.875 28.75C 28.428301 28.75 29.6875 30.009197 29.6875 31.5625C 29.6875 33.115803 28.428301 34.375 26.875 34.375L 26.5625 34.375L 26.5625 38.125L 38.125 38.125C 38.815353 38.125 39.375 37.565353 39.375 36.875L 39.375 25ZM 26.875 28.75L 26.5625 28.75L 26.5625 25L 23.424999 25C 23.424999 25.1 23.424999 25.2125 23.424999 25.3125C 23.424999 26.865801 22.165802 28.125 20.612499 28.125C 19.059198 28.125 17.800001 26.865801 17.800001 25.3125C 17.799999 25.2125 17.799999 25.1 17.799999 25L 13.75 25L 13.75 28.75L 13.4375 28.75C 11.884199 28.75 10.625 30.009197 10.625 31.5625C 10.625 33.115803 11.884199 34.375 13.4375 34.375L 13.75 34.375L 13.75 36.875C 13.75 37.565353 14.309644 38.125 15 38.125L 26.5625 38.125L 26.5625 34.375L 26.875 34.375C 28.428301 34.375 29.6875 33.115803 29.6875 31.5625C 29.6875 30.009197 28.428301 28.75 26.875 28.75ZM 26.5625 21.25L 26.25 21.25C 24.696699 21.25 23.4375 19.990801 23.4375 18.4375C 23.4375 16.884199 24.696699 15.625 26.25 15.625L 26.5625 15.625L 26.5625 11.875L 15 11.875C 14.309644 11.875 13.75 12.434644 13.75 13.125L 13.75 15.625L 14.0625 15.625C 15.615801 15.625 16.875 16.884199 16.875 18.4375C 16.875 19.990801 15.615801 21.25 14.0625 21.25L 13.75 21.25L 13.75 25L 17.825001 25C 17.825001 25.1 17.825001 25.2125 17.825001 25.3125C 17.825001 26.865801 19.0842 28.125 20.637501 28.125C 22.190802 28.125 23.450001 26.865801 23.450001 25.3125C 23.450001 25.2125 23.450001 25.1 23.450001 25L 26.587502 25ZM 35.612499 11.875C 35.612499 11.975 35.612499 12.0875 35.612499 12.1875C 35.612499 13.740801 34.353302 15 32.799999 15C 31.2467 15 29.987499 13.740801 29.987499 12.1875C 29.987499 12.0875 29.987499 11.975 29.987499 11.875L 26.5625 11.875L 26.5625 15.625L 26.25 15.625C 24.696699 15.625 23.4375 16.884199 23.4375 18.4375C 23.4375 19.990801 24.696699 21.25 26.25 21.25L 26.5625 21.25L 26.5625 25L 30 25C 30 24.9 30 24.7875 30 24.6875C 30 23.134199 31.259197 21.875 32.8125 21.875C 34.365803 21.875 35.625 23.134199 35.625 24.6875C 35.625 24.7875 35.625 24.9 35.625 25L 39.375 25L 39.375 13.125C 39.375 12.434644 38.815353 11.875 38.125 11.875Z"></path></g></g></g><g id="g-root-tx_facilite_qpnkdv19jee4m-stroke" data-item-order="1000000000" data-item-id="tx_facilite_qpnkdv19jee4m" data-item-class="Label Stroke" data-item-index="none" data-renderer-id="0" transform="translate(523, 827)"></g><g id="g-root-tx_amliorat_1ly0d0z19jfsb0-stroke" data-item-order="1000000000" data-item-id="tx_amliorat_1ly0d0z19jfsb0" data-item-class="Label Stroke" data-item-index="none" data-renderer-id="0" transform="translate(523, 991)"></g><g id="g-root-buil_qu0po319jzi8a-stroke" data-item-order="1000000000" data-item-id="buil_qu0po319jzi8a" data-item-class="Icon Stroke" data-item-index="none" data-renderer-id="0" transform="translate(227, 872)"><g id="buil_qu0po319jzi8a-stroke" fill="none" stroke-linecap="round" stroke-linejoin="round" stroke-miterlimit="4" stroke="#17b0e3" stroke-width="2"><g><path d="M 34.903751 19.014999C 34.618877 19.613777 34.601128 20.305231 34.854889 20.917839C 35.10865 21.530447 35.610157 22.006807 36.235001 22.228748L 37.81625 22.79125C 38.751289 23.123127 39.376045 24.007813 39.376045 25.000002C 39.376045 25.992188 38.751289 26.876877 37.81625 27.208752L 36.235001 27.77125C 35.610157 27.993191 35.10865 28.469551 34.854889 29.082159C 34.601128 29.694765 34.618877 30.386221 34.903748 30.984997L 35.625 32.5C 36.054737 33.396317 35.871998 34.466255 35.169128 35.169128C 34.466255 35.871998 33.396317 36.054737 32.499996 35.624996L 30.983751 34.904999C 30.384972 34.620129 29.693516 34.602375 29.080908 34.85614C 28.468302 35.109901 27.991941 35.611408 27.77 36.236248L 27.2075 37.817501C 26.875626 38.752541 25.99094 39.377296 24.998751 39.377296C 24.006563 39.377296 23.121876 38.752541 22.790001 37.817501L 22.227499 36.236252C 22.005556 35.611408 21.529196 35.109901 20.91659 34.85614C 20.303982 34.602375 19.612526 34.620129 19.01375 34.904999L 17.5 35.625C 16.603683 36.054737 15.533745 35.871998 14.830873 35.169128C 14.127999 34.466255 13.94526 33.396317 14.375 32.499996L 15.095 30.983751C 15.379869 30.384972 15.397624 29.693516 15.14386 29.080908C 14.890097 28.468302 14.38859 27.991941 13.76375 27.77L 12.1825 27.2075C 11.247462 26.875626 10.622706 25.99094 10.622706 24.998751C 10.622706 24.006563 11.247462 23.121876 12.1825 22.790001L 13.76375 22.227499C 14.388481 22.005775 14.890016 21.529734 15.144 20.917406C 15.397984 20.30508 15.380633 19.613813 15.09625 19.014999L 14.375 17.5C 13.94526 16.603683 14.127999 15.533745 14.830873 14.830873C 15.533745 14.127999 16.603683 13.94526 17.5 14.375L 19.016251 15.095C 19.614735 15.379492 20.305714 15.397189 20.91798 15.143707C 21.530245 14.890224 22.006502 14.389281 22.228748 13.764999L 22.79125 12.18375C 23.123127 11.248713 24.007813 10.623956 25.000002 10.623956C 25.992188 10.623956 26.876877 11.248713 27.208752 12.18375L 27.77125 13.765C 27.993191 14.38984 28.469551 14.891346 29.082159 15.14511C 29.694765 15.398873 30.386221 15.381119 30.984997 15.09625L 32.5 14.375C 33.396317 13.94526 34.466255 14.127999 35.169128 14.830873C 35.871998 15.533745 36.054737 16.603683 35.624996 17.5ZM 25.625 30.625L 20 30.625C 19.654821 30.625 19.375 30.345177 19.375 30L 19.375 19.76125C 19.375008 19.544544 19.487268 19.343309 19.671661 19.229465C 19.856052 19.11562 20.086258 19.105415 20.280001 19.202499L 25.625 21.875ZM 25.625 23.125L 31.25 23.125C 31.595177 23.125 31.875 23.404823 31.875 23.75L 31.875 30C 31.875 30.345177 31.595177 30.625 31.25 30.625L 25.625 30.625M 19.375 23.125L 22.5 23.125M 19.375 25.625L 22.5 25.625M 25.625 21.875L 25.625 18.75M 30.625 23.125L 30.625 20M 25.625 25.625L 28.75 25.625M 25.625 28.125L 28.75 28.125"></path></g></g></g><g id="g-root-cu_1cu96nn19jh7go-stroke" data-item-order="1000000002" data-item-id="cu_1cu96nn19jh7go" data-item-class="Curve Stroke" data-item-index="none" data-renderer-id="0" transform="translate(419, 167)"><g id="cu_1cu96nn19jh7go-stroke" fill="none" stroke-linecap="round" stroke-linejoin="round" stroke-miterlimit="4" stroke="#484848" stroke-width="2"><g><path d="M 10 10L 38 10L 64 10"></path><path d="M 58 16.5L 64.5 10L 58 3.5" stroke-dasharray="none"></path></g></g></g><g id="g-root-cu_1ha2os319jh6od-stroke" data-item-order="1000000002" data-item-id="cu_1ha2os319jh6od" data-item-class="Curve Stroke" data-item-index="none" data-renderer-id="0" transform="translate(419, 167)"><g id="cu_1ha2os319jh6od-stroke" fill="none" stroke-linecap="round" stroke-linejoin="round" stroke-miterlimit="4" stroke="#484848" stroke-width="2"><g><path d="M 10 10L 24 10L 38 10L 38 68L 38 126L 52 126L 64 126"></path><path d="M 58 132.5L 64.5 126L 58 119.5" stroke-dasharray="none"></path></g></g></g><g id="g-root-cu_1ha2os319jh6ob-stroke" data-item-order="1000000002" data-item-id="cu_1ha2os319jh6ob" data-item-class="Curve Stroke" data-item-index="none" data-renderer-id="0" transform="translate(419, 387)"><g id="cu_1ha2os319jh6ob-stroke" fill="none" stroke-linecap="round" stroke-linejoin="round" stroke-miterlimit="4" stroke="#484848" stroke-width="2"><g><path d="M 10 102L 24 102L 38 102L 38 56L 38 10L 52 10L 64 10"></path><path d="M 58 16.5L 64.5 10L 58 3.5" stroke-dasharray="none"></path></g></g></g><g id="g-root-cu_1ha2os319jh7gh-stroke" data-item-order="1000000002" data-item-id="cu_1ha2os319jh7gh" data-item-class="Curve Stroke" data-item-index="none" data-renderer-id="0" transform="translate(159, 167)"><g id="cu_1ha2os319jh7gh-stroke" fill="none" stroke-linecap="round" stroke-linejoin="round" stroke-miterlimit="4" stroke="#484848" stroke-width="2"><g><path d="M 10 322L 24 322L 38 322L 38 166L 38 10L 52 10L 64 10"></path><path d="M 58 16.5L 64.5 10L 58 3.5" stroke-dasharray="none"></path></g></g></g><g id="g-root-cu_1cu96nn19jh7gs-stroke" data-item-order="1000000002" data-item-id="cu_1cu96nn19jh7gs" data-item-class="Curve Stroke" data-item-index="none" data-renderer-id="0" transform="translate(159, 479)"><g id="cu_1cu96nn19jh7gs-stroke" fill="none" stroke-linecap="round" stroke-linejoin="round" stroke-miterlimit="4" stroke="#484848" stroke-width="2"><g><path d="M 10 10L 24 10L 38 10L 38 214L 38 418L 52 418L 64 418"></path><path d="M 58 424.5L 64.5 418L 58 411.5" stroke-dasharray="none"></path></g></g></g><g id="g-root-cu_1cu96nn19jh7gv-stroke" data-item-order="1000000002" data-item-id="cu_1cu96nn19jh7gv" data-item-class="Curve Stroke" data-item-index="none" data-renderer-id="0" transform="translate(159, 479)"><g id="cu_1cu96nn19jh7gv-stroke" fill="none" stroke-linecap="round" stroke-linejoin="round" stroke-miterlimit="4" stroke="#484848" stroke-width="2"><g><path d="M 10 10L 38 10L 64 10"></path><path d="M 58 16.5L 64.5 10L 58 3.5" stroke-dasharray="none"></path></g></g></g><g id="g-root-cu_1ha2os319jh6o6-stroke" data-item-order="1000000002" data-item-id="cu_1ha2os319jh6o6" data-item-class="Curve Stroke" data-item-index="none" data-renderer-id="0" transform="translate(419, 479)"><g id="cu_1ha2os319jh6o6-stroke" fill="none" stroke-linecap="round" stroke-linejoin="round" stroke-miterlimit="4" stroke="#484848" stroke-width="2"><g><path d="M 10 10L 24 10L 38 10L 38 56L 38 102L 52 102L 64 102"></path><path d="M 58 108.5L 64.5 102L 58 95.5" stroke-dasharray="none"></path></g></g></g><g id="g-root-cu_1ha2os319jh6o9-stroke" data-item-order="1000000002" data-item-id="cu_1ha2os319jh6o9" data-item-class="Curve Stroke" data-item-index="none" data-renderer-id="0" transform="translate(419, 479)"><g id="cu_1ha2os319jh6o9-stroke" fill="none" stroke-linecap="round" stroke-linejoin="round" stroke-miterlimit="4" stroke="#484848" stroke-width="2"><g><path d="M 10 10L 38 10L 64 10"></path><path d="M 58 16.5L 64.5 10L 58 3.5" stroke-dasharray="none"></path></g></g></g><g id="g-root-cu_1ha2os319jh6o4-stroke" data-item-order="1000000002" data-item-id="cu_1ha2os319jh6o4" data-item-class="Curve Stroke" data-item-index="none" data-renderer-id="0" transform="translate(419, 711)"><g id="cu_1ha2os319jh6o4-stroke" fill="none" stroke-linecap="round" stroke-linejoin="round" stroke-miterlimit="4" stroke="#484848" stroke-width="2"><g><path d="M 10 186L 24 186L 38 186L 38 98L 38 10L 52 10L 64 10"></path><path d="M 58 16.5L 64.5 10L 58 3.5" stroke-dasharray="none"></path></g></g></g><g id="g-root-cu_1cu96nn19jh7gq-stroke" data-item-order="1000000002" data-item-id="cu_1cu96nn19jh7gq" data-item-class="Curve Stroke" data-item-index="none" data-renderer-id="0" transform="translate(419, 51)"><g id="cu_1cu96nn19jh7gq-stroke" fill="none" stroke-linecap="round" stroke-linejoin="round" stroke-miterlimit="4" stroke="#484848" stroke-width="2"><g><path d="M 10 126L 24 126L 38 126L 38 68L 38 10L 52 10L 64 10"></path><path d="M 58 16.5L 64.5 10L 58 3.5" stroke-dasharray="none"></path></g></g></g><g id="g-root-cu_1lz9b7719jfuh3-stroke" data-item-order="1000000002" data-item-id="cu_1lz9b7719jfuh3" data-item-class="Curve Stroke" data-item-index="none" data-renderer-id="0" transform="translate(419, 887)"><g id="cu_1lz9b7719jfuh3-stroke" fill="none" stroke-linecap="round" stroke-linejoin="round" stroke-miterlimit="4" stroke="#484848" stroke-width="2"><g><path d="M 10 10L 24 10L 38 10L 38 74L 38 138L 52 138L 64 138"></path><path d="M 58 144.5L 64.5 138L 58 131.5" stroke-dasharray="none"></path></g></g></g><g id="g-root-cu_1lz9b7719jfuh6-stroke" data-item-order="1000000002" data-item-id="cu_1lz9b7719jfuh6" data-item-class="Curve Stroke" data-item-index="none" data-renderer-id="0" transform="translate(419, 887)"><g id="cu_1lz9b7719jfuh6-stroke" fill="none" stroke-linecap="round" stroke-linejoin="round" stroke-miterlimit="4" stroke="#484848" stroke-width="2"><g><path d="M 10 10L 38 10L 64 10"></path><path d="M 58 16.5L 64.5 10L 58 3.5" stroke-dasharray="none"></path></g></g></g></g></g></svg>