<?xml version="1.0" encoding="utf-8" standalone="yes"?>
<!DOCTYPE svg PUBLIC "-//W3C//DTD SVG 1.1//EN" "http://www.w3.org/Graphics/SVG/1.1/DTD/svg11.dtd">
<svg width="926" height="475" viewBox="0 0 926 475" style="fill:none;stroke:none;fill-rule:evenodd;clip-rule:evenodd;stroke-linecap:round;stroke-linejoin:round;stroke-miterlimit:1.5;" version="1.1" xmlns="http://www.w3.org/2000/svg" xmlns:xlink="http://www.w3.org/1999/xlink"><style id="fontImports">@import url("https://fonts.googleapis.com/css2?family=Roboto:wght@400;700&amp;display=block");</style><rect id="" x="0" y="0" width="926" height="475" style="fill: #ffffff;"></rect><g id="items" style="isolation: isolate"><g id="blend" style="mix-blend-mode:normal"><g id="g-root-ro_1heg6j11f3rdvn-fill" data-item-order="999962704" data-item-id="ro_1heg6j11f3rdvn" data-item-class="Shape Stroke Fill" data-item-index="none" data-renderer-id="0" transform="translate(399, 42)"><g id="ro_1heg6j11f3rdvn-fill" stroke="none" fill="#f0f0f0"><g><path d="M 34 10L 154 10C 154 10 178 10 178 34L 178 208C 178 208 178 232 154 232L 34 232C 34 232 10 232 10 208L 10 34C 10 34 10 10 34 10"></path></g></g></g><g id="g-root-ro_vbq2od1f3okr1-fill" data-item-order="999974944" data-item-id="ro_vbq2od1f3okr1" data-item-class="Shape Stroke Fill" data-item-index="none" data-renderer-id="0" transform="translate(3, 156)"><g id="ro_vbq2od1f3okr1-fill" stroke="none" fill="#f7e6fe"><g><path d="M 22 10L 346 10C 346 10 358 10 358 22L 358 70C 358 70 358 82 346 82L 22 82C 22 82 10 82 10 70L 10 22C 10 22 10 10 22 10"></path></g></g></g><g id="g-root-ro_zp1ogd1f3iy33-fill" data-item-order="999983800" data-item-id="ro_zp1ogd1f3iy33" data-item-class="Shape Stroke Fill" data-item-index="none" data-renderer-id="0" transform="translate(333, 327)"><g id="ro_zp1ogd1f3iy33-fill" stroke="none" fill="#fffce6"><g><path d="M 22 10L 298 10C 298 10 310 10 310 22L 310 52C 310 52 310 64 298 64L 22 64C 22 64 10 64 10 52L 10 22C 10 22 10 10 22 10"></path></g></g></g><g id="g-root-ro_zqamml1f3ahvy-fill" data-item-order="999984448" data-item-id="ro_zqamml1f3ahvy" data-item-class="Shape Stroke Fill" data-item-index="none" data-renderer-id="0" transform="translate(615, 3)"><g id="ro_zqamml1f3ahvy-fill" stroke="none" fill="#e6efff"><g><path d="M 22 10L 286 10C 286 10 298 10 298 22L 298 52C 298 52 298 64 286 64L 22 64C 22 64 10 64 10 52L 10 22C 10 22 10 10 22 10"></path></g></g></g><g id="g-root-ro_v5hbt91f3da18-fill" data-item-order="999984448" data-item-id="ro_v5hbt91f3da18" data-item-class="Shape Stroke Fill" data-item-index="none" data-renderer-id="0" transform="translate(615, 177)"><g id="ro_v5hbt91f3da18-fill" stroke="none" fill="#e6f9ff"><g><path d="M 22 10L 286 10C 286 10 298 10 298 22L 298 52C 298 52 298 64 286 64L 22 64C 22 64 10 64 10 52L 10 22C 10 22 10 10 22 10"></path></g></g></g><g id="g-root-ro_hunaj11f3lqtr-fill" data-item-order="999989632" data-item-id="ro_hunaj11f3lqtr" data-item-class="Shape Stroke Fill" data-item-index="none" data-renderer-id="0" transform="translate(159, 6)"><g id="ro_hunaj11f3lqtr-fill" stroke="none" fill="#e9fbf3"><g><path d="M 22 10L 190 10C 190 10 202 10 202 22L 202 52C 202 52 202 64 190 64L 22 64C 22 64 10 64 10 52L 10 22C 10 22 10 10 22 10"></path></g></g></g><g id="g-root-cu_qwj1n11f3oidi-fill" data-item-order="1000000000" data-item-id="cu_qwj1n11f3oidi" data-item-class="Curve Stroke ColorStrokeGray" data-item-index="none" data-renderer-id="0" transform="translate(351, 33)"></g><g id="g-root-cu_mgpjil1f3oj5t-fill" data-item-order="1000000000" data-item-id="cu_mgpjil1f3oj5t" data-item-class="Curve Stroke ColorStrokeGray" data-item-index="none" data-renderer-id="0" transform="translate(567, 30)"></g><g id="g-root-tx_misesjou_qu15al1f3iwhs-fill" data-item-order="1000000000" data-item-id="tx_misesjou_qu15al1f3iwhs" data-item-class="Label Stroke" data-item-index="none" data-renderer-id="0" transform="translate(87, 72)"><g id="tx_misesjou_qu15al1f3iwhs-fill" stroke="none" fill="#484848"><g><text style="font: 20px Roboto, sans-serif; white-space: pre;" font-size="20px" font-family="Roboto, sans-serif"><tspan x="13.27" y="33.75" dominant-baseline="ideographic">Mises à jour simplifiées</tspan></text></g></g></g><g id="g-root-cu_i0w1e51f3ojyd-fill" data-item-order="1000000000" data-item-id="cu_i0w1e51f3ojyd" data-item-class="Curve Stroke ColorStrokeGray" data-item-index="none" data-renderer-id="0" transform="translate(309, 60)"></g><g id="g-root-cu_dl2j9p1f3okqo-fill" data-item-order="1000000000" data-item-id="cu_dl2j9p1f3okqo" data-item-class="Curve Stroke ColorStrokeGray" data-item-index="none" data-renderer-id="0" transform="translate(309, 60)"></g><g id="g-root-2_1lu9onh1f3rd3e-fill" data-item-order="1000000000" data-item-id="2_1lu9onh1f3rd3e" data-item-class="Icon Stroke" data-item-index="none" data-renderer-id="0" transform="translate(459, 66)"></g><g id="g-root-cu_dl2j9p1f3okqq-fill" data-item-order="1000000000" data-item-id="cu_dl2j9p1f3okqq" data-item-class="Curve Stroke ColorStrokeGray" data-item-index="none" data-renderer-id="0" transform="translate(639, 57)"></g><g id="g-root-cu_4g2eq51f3pwy5-fill" data-item-order="1000000000" data-item-id="cu_4g2eq51f3pwy5" data-item-class="Curve Stroke ColorStrokeGray" data-item-index="none" data-renderer-id="0" transform="translate(639, 57)"></g><g id="g-root-tx_impactlo_dikmx91f3iy2q-fill" data-item-order="1000000000" data-item-id="tx_impactlo_dikmx91f3iy2q" data-item-class="Label Stroke" data-item-index="none" data-renderer-id="0" transform="translate(663, 69)"><g id="tx_impactlo_dikmx91f3iy2q-fill" stroke="none" fill="#484848"><g><text style="font: 20px Roboto, sans-serif; white-space: pre;" font-size="20px" font-family="Roboto, sans-serif"><tspan x="14.37" y="33.75" dominant-baseline="ideographic">Impact localisé</tspan></text></g></g></g><g id="g-root-tx_rduction_hye51p1f3ixah-fill" data-item-order="1000000000" data-item-id="tx_rduction_hye51p1f3ixah" data-item-class="Label Stroke" data-item-index="none" data-renderer-id="0" transform="translate(15, 108)"><g id="tx_rduction_hye51p1f3ixah-fill" stroke="none" fill="#484848"><g><text style="font: 20px Roboto, sans-serif; white-space: pre;" font-size="20px" font-family="Roboto, sans-serif"><tspan x="14.02" y="33.75" dominant-baseline="ideographic">Réduction de la dette technique</tspan></text></g></g></g><g id="g-root-tx_prventio_4nk3rh1f3ivpn-fill" data-item-order="1000000000" data-item-id="tx_prventio_4nk3rh1f3ivpn" data-item-class="Label Stroke" data-item-index="none" data-renderer-id="0" transform="translate(663, 105)"><g id="tx_prventio_4nk3rh1f3ivpn-fill" stroke="none" fill="#484848"><g><text style="font: 20px Roboto, sans-serif; white-space: pre;" font-size="20px" font-family="Roboto, sans-serif"><tspan x="13.3" y="33.75" dominant-baseline="ideographic">Prévention des pannes en </tspan><tspan x="90.08" y="57.75" dominant-baseline="ideographic">cascade</tspan></text></g></g></g><g id="g-root-tx_avantage_4m51p1f3rbpl-fill" data-item-order="1000000000" data-item-id="tx_avantage_4m51p1f3rbpl" data-item-class="Label Stroke" data-item-index="none" data-renderer-id="0" transform="translate(423, 120)"><g id="tx_avantage_4m51p1f3rbpl-fill" stroke="none" fill="#484848"><g><text style="font: 20px Roboto, sans-serif; white-space: pre;" font-size="20px" font-family="Roboto, sans-serif"><tspan x="21.97" y="33.74" dominant-baseline="ideographic">Avantages </tspan><tspan x="12.01" y="57.75" dominant-baseline="ideographic">de la gestion </tspan><tspan x="18.85" y="81.75" dominant-baseline="ideographic">des erreurs </tspan><tspan x="46.99" y="105.75" dominant-baseline="ideographic">dans </tspan><tspan x="11.76" y="129.76" dominant-baseline="ideographic">l'architecture</tspan></text></g></g></g><g id="g-root-tx_isolatio_1lwro5p1f3aio4-fill" data-item-order="1000000000" data-item-id="tx_isolatio_1lwro5p1f3aio4" data-item-class="Label Stroke" data-item-index="none" data-renderer-id="0" transform="translate(663, 18)"><g id="tx_isolatio_1lwro5p1f3aio4-fill" stroke="none" fill="#4682e3"><g><text style="font: 20px Roboto, sans-serif; white-space: pre;" font-size="20px" font-family="Roboto, sans-serif"><tspan x="17.44" y="33.75" dominant-baseline="ideographic">Isolation des problèmes</tspan></text></g></g></g><g id="g-root-tx_consista_18n6l1p1f3oj63-fill" data-item-order="1000000000" data-item-id="tx_consista_18n6l1p1f3oj63" data-item-class="Label Stroke" data-item-index="none" data-renderer-id="0" transform="translate(15, 168)"><g id="tx_consista_18n6l1p1f3oj63-fill" stroke="none" fill="#b65edf"><g><text style="font: 20px Roboto, sans-serif; white-space: pre;" font-size="20px" font-family="Roboto, sans-serif"><tspan x="13.66" y="33.75" dominant-baseline="ideographic">Consistance dans le traitement </tspan><tspan x="101.63" y="57.75" dominant-baseline="ideographic">des erreurs</tspan></text></g></g></g><g id="g-root-404_147d2x91f3ojyc-fill" data-item-order="1000000000" data-item-id="404_147d2x91f3ojyc" data-item-class="Icon Stroke" data-item-index="none" data-renderer-id="0" transform="translate(309, 177)"></g><g id="g-root-tria_18lxmvh1f3ah39-fill" data-item-order="1000000000" data-item-id="tria_18lxmvh1f3ah39" data-item-class="Icon Stroke" data-item-index="none" data-renderer-id="0" transform="translate(627, 15)"></g><g id="g-root-cu_dl2j9p1f3ojyn-fill" data-item-order="1000000000" data-item-id="cu_dl2j9p1f3ojyn" data-item-class="Curve Stroke ColorStrokeGray" data-item-index="none" data-renderer-id="0" transform="translate(351, 190)"></g><g id="g-root-cu_mgpjil1f3oj5w-fill" data-item-order="1000000000" data-item-id="cu_mgpjil1f3oj5w" data-item-class="Curve Stroke ColorStrokeGray" data-item-index="none" data-renderer-id="0" transform="translate(567, 190)"></g><g id="g-root-bug_140huz11f3dceb-fill" data-item-order="1000000000" data-item-id="bug_140huz11f3dceb" data-item-class="Icon Stroke" data-item-index="none" data-renderer-id="0" transform="translate(627, 189)"></g><g id="g-root-tx_dbogagee_1hbydcd1f3date-fill" data-item-order="1000000000" data-item-id="tx_dbogagee_1hbydcd1f3date" data-item-class="Label Stroke" data-item-index="none" data-renderer-id="0" transform="translate(663, 192)"><g id="tx_dbogagee_1hbydcd1f3date-fill" stroke="none" fill="#17b0e3"><g><text style="font: 20px Roboto, sans-serif; white-space: pre;" font-size="20px" font-family="Roboto, sans-serif"><tspan x="12.37" y="33.75" dominant-baseline="ideographic">Débogage et surveillance</tspan></text></g></g></g><g id="g-root-tx_procdure_1lxe58t1f3ixvq-fill" data-item-order="1000000000" data-item-id="tx_procdure_1lxe58t1f3ixvq" data-item-class="Label Stroke" data-item-index="none" data-renderer-id="0" transform="translate(63, 240)"><g id="tx_procdure_1lxe58t1f3ixvq-fill" stroke="none" fill="#484848"><g><text style="font: 20px Roboto, sans-serif; white-space: pre;" font-size="20px" font-family="Roboto, sans-serif"><tspan x="14.07" y="33.75" dominant-baseline="ideographic">Procédures standardisées</tspan></text></g></g></g><g id="g-root-cu_8wlp1f3pxqk-fill" data-item-order="1000000000" data-item-id="cu_8wlp1f3pxqk" data-item-class="Curve Stroke ColorStrokeGray" data-item-index="none" data-renderer-id="0" transform="translate(309, 228)"></g><g id="g-root-cu_8wlp1f3pxqn-fill" data-item-order="1000000000" data-item-id="cu_8wlp1f3pxqn" data-item-class="Curve Stroke ColorStrokeGray" data-item-index="none" data-renderer-id="0" transform="translate(309, 228)"></g><g id="g-root-cu_4g2eq51f3pwy7-fill" data-item-order="1000000000" data-item-id="cu_4g2eq51f3pwy7" data-item-class="Curve Stroke ColorStrokeGray" data-item-index="none" data-renderer-id="0" transform="translate(639, 231)"></g><g id="g-root-cu_8vvwul1f3pwxu-fill" data-item-order="1000000000" data-item-id="cu_8vvwul1f3pwxu" data-item-class="Curve Stroke ColorStrokeGray" data-item-index="none" data-renderer-id="0" transform="translate(639, 231)"></g><g id="g-root-tx_dpannage_7qln11f3iwhw-fill" data-item-order="1000000000" data-item-id="tx_dpannage_7qln11f3iwhw" data-item-class="Label Stroke" data-item-index="none" data-renderer-id="0" transform="translate(663, 243)"><g id="tx_dpannage_7qln11f3iwhw-fill" stroke="none" fill="#484848"><g><text style="font: 20px Roboto, sans-serif; white-space: pre;" font-size="20px" font-family="Roboto, sans-serif"><tspan x="12.2" y="33.75" dominant-baseline="ideographic">Dépannage efficace</tspan></text></g></g></g><g id="g-root-tx_comporte_1d1r4zx1f3iyof-fill" data-item-order="1000000000" data-item-id="tx_comporte_1d1r4zx1f3iyof" data-item-class="Label Stroke" data-item-index="none" data-renderer-id="0" transform="translate(75, 276)"><g id="tx_comporte_1d1r4zx1f3iyof-fill" stroke="none" fill="#484848"><g><text style="font: 20px Roboto, sans-serif; white-space: pre;" font-size="20px" font-family="Roboto, sans-serif"><tspan x="11.87" y="33.75" dominant-baseline="ideographic">Comportement prévisible</tspan></text></g></g></g><g id="g-root-tx_responsa_18mk3yl1f3iwax-fill" data-item-order="1000000000" data-item-id="tx_responsa_18mk3yl1f3iwax" data-item-class="Label Stroke" data-item-index="none" data-renderer-id="0" transform="translate(381, 429)"><g id="tx_responsa_18mk3yl1f3iwax-fill" stroke="none" fill="#484848"><g><text style="font: 20px Roboto, sans-serif; white-space: pre;" font-size="20px" font-family="Roboto, sans-serif"><tspan x="16.5" y="33.75" dominant-baseline="ideographic">Responsabilité</tspan></text></g></g></g><g id="g-root-tx_surveill_1qd7nd91f3ix3h-fill" data-item-order="1000000000" data-item-id="tx_surveill_1qd7nd91f3ix3h" data-item-class="Label Stroke" data-item-index="none" data-renderer-id="0" transform="translate(663, 279)"><g id="tx_surveill_1qd7nd91f3ix3h-fill" stroke="none" fill="#484848"><g><text style="font: 20px Roboto, sans-serif; white-space: pre;" font-size="20px" font-family="Roboto, sans-serif"><tspan x="13.58" y="33.75" dominant-baseline="ideographic">Surveillance en temps réel</tspan></text></g></g></g><g id="g-root-1_qqaarx1f3lq12-fill" data-item-order="1000000000" data-item-id="1_qqaarx1f3lq12" data-item-class="Icon Stroke" data-item-index="none" data-renderer-id="0" transform="translate(309, 18)"></g><g id="g-root-eye_18koop91f3ixae-fill" data-item-order="1000000000" data-item-id="eye_18koop91f3ixae" data-item-class="Icon Stroke" data-item-index="none" data-renderer-id="0" transform="translate(345, 339)"></g><g id="g-root-tx_clartdes_1lw572l1f3ivph-fill" data-item-order="1000000000" data-item-id="tx_clartdes_1lw572l1f3ivph" data-item-class="Label Stroke" data-item-index="none" data-renderer-id="0" transform="translate(381, 342)"><g id="tx_clartdes_1lw572l1f3ivph-fill" stroke="none" fill="#e3cd09"><g><text style="font: 20px Roboto, sans-serif; white-space: pre;" font-size="20px" font-family="Roboto, sans-serif"><tspan x="14.6" y="33.75" dominant-baseline="ideographic">Clarté des responsabilités</tspan></text></g></g></g><g id="g-root-cu_4g2eq51f3pxq9-fill" data-item-order="1000000000" data-item-id="cu_4g2eq51f3pxq9" data-item-class="Curve Stroke ColorStrokeGray" data-item-index="none" data-renderer-id="0" transform="translate(357, 381)"></g><g id="g-root-cu_1uljggd1f3pybw-fill" data-item-order="1000000000" data-item-id="cu_1uljggd1f3pybw" data-item-class="Curve Stroke ColorStrokeGray" data-item-index="none" data-renderer-id="0" transform="translate(357, 381)"></g><g id="g-root-tx_rlesdfin_18mk3yl1f3iwaw-fill" data-item-order="1000000000" data-item-id="tx_rlesdfin_18mk3yl1f3iwaw" data-item-class="Label Stroke" data-item-index="none" data-renderer-id="0" transform="translate(381, 393)"><g id="tx_rlesdfin_18mk3yl1f3iwaw-fill" stroke="none" fill="#484848"><g><text style="font: 20px Roboto, sans-serif; white-space: pre;" font-size="20px" font-family="Roboto, sans-serif"><tspan x="13.2" y="33.75" dominant-baseline="ideographic">Rôles définis</tspan></text></g></g></g><g id="g-root-tx_maintena_1414c251f3lrlx-fill" data-item-order="1000000000" data-item-id="tx_maintena_1414c251f3lrlx" data-item-class="Label Stroke" data-item-index="none" data-renderer-id="0" transform="translate(171, 21)"><g id="tx_maintena_1414c251f3lrlx-fill" stroke="none" fill="#3bc482"><g><text style="font: 20px Roboto, sans-serif; white-space: pre;" font-size="20px" font-family="Roboto, sans-serif"><tspan x="12.9" y="33.75" dominant-baseline="ideographic">Maintenabilité</tspan></text></g></g></g><g id="g-root-cu_i0w1e51f3ojya-fill" data-item-order="1000000000" data-item-id="cu_i0w1e51f3ojya" data-item-class="Curve Stroke ColorStrokeGray" data-item-index="none" data-renderer-id="0" transform="translate(483, 264)"></g><g id="g-root-ro_1heg6j11f3rdvn-stroke" data-item-order="999962704" data-item-id="ro_1heg6j11f3rdvn" data-item-class="Shape Stroke Fill" data-item-index="none" data-renderer-id="0" transform="translate(399, 42)"><g id="ro_1heg6j11f3rdvn-stroke" fill="none" stroke-linecap="round" stroke-linejoin="round" stroke-miterlimit="4" stroke="#484848" stroke-width="2"><g><path d="M 34 10L 154 10C 154 10 178 10 178 34L 178 208C 178 208 178 232 154 232L 34 232C 34 232 10 232 10 208L 10 34C 10 34 10 10 34 10"></path></g></g></g><g id="g-root-ro_vbq2od1f3okr1-stroke" data-item-order="999974944" data-item-id="ro_vbq2od1f3okr1" data-item-class="Shape Stroke Fill" data-item-index="none" data-renderer-id="0" transform="translate(3, 156)"><g id="ro_vbq2od1f3okr1-stroke" fill="none" stroke-linecap="round" stroke-linejoin="round" stroke-miterlimit="4" stroke="#b65edf" stroke-width="2"><g><path d="M 22 10L 346 10C 346 10 358 10 358 22L 358 70C 358 70 358 82 346 82L 22 82C 22 82 10 82 10 70L 10 22C 10 22 10 10 22 10"></path></g></g></g><g id="g-root-ro_zp1ogd1f3iy33-stroke" data-item-order="999983800" data-item-id="ro_zp1ogd1f3iy33" data-item-class="Shape Stroke Fill" data-item-index="none" data-renderer-id="0" transform="translate(333, 327)"><g id="ro_zp1ogd1f3iy33-stroke" fill="none" stroke-linecap="round" stroke-linejoin="round" stroke-miterlimit="4" stroke="#e3cd09" stroke-width="2"><g><path d="M 22 10L 298 10C 298 10 310 10 310 22L 310 52C 310 52 310 64 298 64L 22 64C 22 64 10 64 10 52L 10 22C 10 22 10 10 22 10"></path></g></g></g><g id="g-root-ro_zqamml1f3ahvy-stroke" data-item-order="999984448" data-item-id="ro_zqamml1f3ahvy" data-item-class="Shape Stroke Fill" data-item-index="none" data-renderer-id="0" transform="translate(615, 3)"><g id="ro_zqamml1f3ahvy-stroke" fill="none" stroke-linecap="round" stroke-linejoin="round" stroke-miterlimit="4" stroke="#4682e3" stroke-width="2"><g><path d="M 22 10L 286 10C 286 10 298 10 298 22L 298 52C 298 52 298 64 286 64L 22 64C 22 64 10 64 10 52L 10 22C 10 22 10 10 22 10"></path></g></g></g><g id="g-root-ro_v5hbt91f3da18-stroke" data-item-order="999984448" data-item-id="ro_v5hbt91f3da18" data-item-class="Shape Stroke Fill" data-item-index="none" data-renderer-id="0" transform="translate(615, 177)"><g id="ro_v5hbt91f3da18-stroke" fill="none" stroke-linecap="round" stroke-linejoin="round" stroke-miterlimit="4" stroke="#17b0e3" stroke-width="2"><g><path d="M 22 10L 286 10C 286 10 298 10 298 22L 298 52C 298 52 298 64 286 64L 22 64C 22 64 10 64 10 52L 10 22C 10 22 10 10 22 10"></path></g></g></g><g id="g-root-ro_hunaj11f3lqtr-stroke" data-item-order="999989632" data-item-id="ro_hunaj11f3lqtr" data-item-class="Shape Stroke Fill" data-item-index="none" data-renderer-id="0" transform="translate(159, 6)"><g id="ro_hunaj11f3lqtr-stroke" fill="none" stroke-linecap="round" stroke-linejoin="round" stroke-miterlimit="4" stroke="#3bc482" stroke-width="2"><g><path d="M 22 10L 190 10C 190 10 202 10 202 22L 202 52C 202 52 202 64 190 64L 22 64C 22 64 10 64 10 52L 10 22C 10 22 10 10 22 10"></path></g></g></g><g id="g-root-cu_qwj1n11f3oidi-stroke" data-item-order="1000000000" data-item-id="cu_qwj1n11f3oidi" data-item-class="Curve Stroke ColorStrokeGray" data-item-index="none" data-renderer-id="0" transform="translate(351, 33)"><g id="cu_qwj1n11f3oidi-stroke" fill="none" stroke-linecap="round" stroke-linejoin="round" stroke-miterlimit="4" stroke="#888888" stroke-width="2" stroke-dasharray="5.0, 7.0"><g><path d="M 58 93L 55 93L 54.9 93C 43.357247 93 33.999998 83.642751 33.999998 72.1L 34 72L 34 30.9C 33.999998 19.357248 24.64275 10 13.1 10L 13 10L 10 10"></path></g></g></g><g id="g-root-cu_mgpjil1f3oj5t-stroke" data-item-order="1000000000" data-item-id="cu_mgpjil1f3oj5t" data-item-class="Curve Stroke ColorStrokeGray" data-item-index="none" data-renderer-id="0" transform="translate(567, 30)"><g id="cu_mgpjil1f3oj5t-stroke" fill="none" stroke-linecap="round" stroke-linejoin="round" stroke-miterlimit="4" stroke="#888888" stroke-width="2" stroke-dasharray="5.0, 7.0"><g><path d="M 10 96L 13 96L 13.1 96C 24.642748 96.000003 33.999998 86.642755 33.999998 75.100003L 34 75L 34 30.9C 33.999999 19.357249 43.357248 10.000001 54.899999 10.000002L 55 10L 58 10"></path></g></g></g><g id="g-root-tx_misesjou_qu15al1f3iwhs-stroke" data-item-order="1000000000" data-item-id="tx_misesjou_qu15al1f3iwhs" data-item-class="Label Stroke" data-item-index="none" data-renderer-id="0" transform="translate(87, 72)"></g><g id="g-root-cu_i0w1e51f3ojyd-stroke" data-item-order="1000000000" data-item-id="cu_i0w1e51f3ojyd" data-item-class="Curve Stroke ColorStrokeGray" data-item-index="none" data-renderer-id="0" transform="translate(309, 60)"><g id="cu_i0w1e51f3ojyd-stroke" fill="none" stroke-linecap="round" stroke-linejoin="round" stroke-miterlimit="4" stroke="#888888" stroke-width="2" stroke-dasharray="5.0, 7.0"><g><path d="M 28 10L 28 22L 28 34L 19 34L 10 34"></path></g></g></g><g id="g-root-cu_dl2j9p1f3okqo-stroke" data-item-order="1000000000" data-item-id="cu_dl2j9p1f3okqo" data-item-class="Curve Stroke ColorStrokeGray" data-item-index="none" data-renderer-id="0" transform="translate(309, 60)"><g id="cu_dl2j9p1f3okqo-stroke" fill="none" stroke-linecap="round" stroke-linejoin="round" stroke-miterlimit="4" stroke="#888888" stroke-width="2" stroke-dasharray="5.0, 7.0"><g><path d="M 28 10L 28 17.5L 28 58C 27.999999 64.627415 22.627416 69.999998 16 69.999998L 15.9 70L 10 70"></path></g></g></g><g id="g-root-2_1lu9onh1f3rd3e-stroke" data-item-order="1000000000" data-item-id="2_1lu9onh1f3rd3e" data-item-class="Icon Stroke" data-item-index="none" data-renderer-id="0" transform="translate(459, 66)"><g id="2_1lu9onh1f3rd3e-stroke" fill="none" stroke-linecap="round" stroke-linejoin="round" stroke-miterlimit="4" stroke="#484848" stroke-width="2"><g><path d="M 13 16L 55 16C 55 16 57 16 57 18L 57 50C 57 50 57 52 55 52L 13 52C 13 52 11 52 11 50L 11 18C 11 18 11 16 13 16M 10 10M 42 25.868L 25.736 42.132M 25.736 25.868L 42 42.132"></path></g></g></g><g id="g-root-cu_dl2j9p1f3okqq-stroke" data-item-order="1000000000" data-item-id="cu_dl2j9p1f3okqq" data-item-class="Curve Stroke ColorStrokeGray" data-item-index="none" data-renderer-id="0" transform="translate(639, 57)"><g id="cu_dl2j9p1f3okqq-stroke" fill="none" stroke-linecap="round" stroke-linejoin="round" stroke-miterlimit="4" stroke="#888888" stroke-width="2" stroke-dasharray="5.0, 7.0"><g><path d="M 10 10L 10 22L 10 34L 19 34L 28 34"></path></g></g></g><g id="g-root-cu_4g2eq51f3pwy5-stroke" data-item-order="1000000000" data-item-id="cu_4g2eq51f3pwy5" data-item-class="Curve Stroke ColorStrokeGray" data-item-index="none" data-renderer-id="0" transform="translate(639, 57)"><g id="cu_4g2eq51f3pwy5-stroke" fill="none" stroke-linecap="round" stroke-linejoin="round" stroke-miterlimit="4" stroke="#888888" stroke-width="2" stroke-dasharray="5.0, 7.0"><g><path d="M 10 10L 10 19L 10 70C 10.000001 76.627416 15.372584 81.999998 22.000001 81.999998L 22.1 82L 28 82"></path></g></g></g><g id="g-root-tx_impactlo_dikmx91f3iy2q-stroke" data-item-order="1000000000" data-item-id="tx_impactlo_dikmx91f3iy2q" data-item-class="Label Stroke" data-item-index="none" data-renderer-id="0" transform="translate(663, 69)"></g><g id="g-root-tx_rduction_hye51p1f3ixah-stroke" data-item-order="1000000000" data-item-id="tx_rduction_hye51p1f3ixah" data-item-class="Label Stroke" data-item-index="none" data-renderer-id="0" transform="translate(15, 108)"></g><g id="g-root-tx_prventio_4nk3rh1f3ivpn-stroke" data-item-order="1000000000" data-item-id="tx_prventio_4nk3rh1f3ivpn" data-item-class="Label Stroke" data-item-index="none" data-renderer-id="0" transform="translate(663, 105)"></g><g id="g-root-tx_avantage_4m51p1f3rbpl-stroke" data-item-order="1000000000" data-item-id="tx_avantage_4m51p1f3rbpl" data-item-class="Label Stroke" data-item-index="none" data-renderer-id="0" transform="translate(423, 120)"></g><g id="g-root-tx_isolatio_1lwro5p1f3aio4-stroke" data-item-order="1000000000" data-item-id="tx_isolatio_1lwro5p1f3aio4" data-item-class="Label Stroke" data-item-index="none" data-renderer-id="0" transform="translate(663, 18)"></g><g id="g-root-tx_consista_18n6l1p1f3oj63-stroke" data-item-order="1000000000" data-item-id="tx_consista_18n6l1p1f3oj63" data-item-class="Label Stroke" data-item-index="none" data-renderer-id="0" transform="translate(15, 168)"></g><g id="g-root-404_147d2x91f3ojyc-stroke" data-item-order="1000000000" data-item-id="404_147d2x91f3ojyc" data-item-class="Icon Stroke" data-item-index="none" data-renderer-id="0" transform="translate(309, 177)"><g id="404_147d2x91f3ojyc-stroke" fill="none" stroke-linecap="round" stroke-linejoin="round" stroke-miterlimit="4" stroke="#b65edf" stroke-width="2"><g><path d="M 13.125 13.755L 36.875 13.755C 36.875 13.755 39.375 13.755 39.375 16.254999L 39.375 33.755001C 39.375 33.755001 39.375 36.255001 36.875 36.255001L 13.125 36.255001C 13.125 36.255001 10.625 36.255001 10.625 33.755001L 10.625 16.254999C 10.625 16.254999 10.625 13.755 13.125 13.755M 10.625 20.004999L 39.375 20.004999M 15 16.567501C 15.172588 16.567501 15.3125 16.707411 15.3125 16.880001C 15.3125 17.052589 15.172588 17.192501 15 17.192501C 14.827411 17.192501 14.6875 17.052589 14.6875 16.880001C 14.6875 16.707411 14.827411 16.567501 15 16.567501M 18.75 16.567501C 18.922588 16.567501 19.0625 16.707411 19.0625 16.880001C 19.0625 17.052589 18.922588 17.192501 18.75 17.192501C 18.577412 17.192501 18.4375 17.052589 18.4375 16.880001C 18.4375 16.707411 18.577412 16.567501 18.75 16.567501M 22.5 16.567501C 22.672588 16.567501 22.8125 16.707411 22.8125 16.880001C 22.8125 17.052589 22.672588 17.192501 22.5 17.192501C 22.327412 17.192501 22.1875 17.052589 22.1875 16.880001C 22.1875 16.707411 22.327412 16.567501 22.5 16.567501M 26.25 28.7675C 26.25 29.803034 25.410534 30.6425 24.375 30.6425C 23.339466 30.6425 22.5 29.803034 22.5 28.767502L 22.5 26.2675C 22.5 25.231968 23.339466 24.3925 24.375 24.3925C 25.410534 24.3925 26.25 25.231968 26.25 26.2675ZM 19.983749 30.629999L 19.983749 29.379999M 19.983749 29.375L 19.983749 24.387501C 18.014067 25.358299 16.626637 27.211611 16.25 29.375L 19.983749 29.375M 32.5 30.629999L 32.5 29.379999M 32.5 29.375L 32.5 24.387501C 30.530317 25.358299 29.142887 27.211611 28.766251 29.375L 32.5 29.375"></path></g></g></g><g id="g-root-tria_18lxmvh1f3ah39-stroke" data-item-order="1000000000" data-item-id="tria_18lxmvh1f3ah39" data-item-class="Icon Stroke" data-item-index="none" data-renderer-id="0" transform="translate(627, 15)"><g id="tria_18lxmvh1f3ah39-stroke" fill="none" stroke-linecap="round" stroke-linejoin="round" stroke-miterlimit="4" stroke="#4682e3" stroke-width="2"><g><path d="M 38.19125 38.22625C 38.359222 38.459671 38.370102 38.771278 38.218819 39.015846C 38.067535 39.260414 37.783863 39.389816 37.5 39.34375L 12.5 39.34375C 12.216137 39.389816 11.932465 39.260414 11.781182 39.015846C 11.6299 38.771278 11.640779 38.459671 11.80875 38.22625L 24.44125 12.9625C 24.748749 12.3475 25.251251 12.3475 25.55875 12.9625ZM 25 31.223751L 25 22.473751M 24.98875 33.723751C 24.9063 33.725372 24.827953 33.76004 24.771309 33.819977C 24.714664 33.879913 24.684467 33.960091 24.6875 34.042503C 24.694197 34.213158 24.834211 34.348213 25.004999 34.348751L 25.01125 34.348751C 25.093702 34.34713 25.172047 34.312458 25.228693 34.252525C 25.285337 34.192589 25.315533 34.112411 25.3125 34.030003C 25.305906 33.861252 25.168846 33.726933 25 33.723751L 24.99375 33.723751"></path></g></g></g><g id="g-root-cu_dl2j9p1f3ojyn-stroke" data-item-order="1000000000" data-item-id="cu_dl2j9p1f3ojyn" data-item-class="Curve Stroke ColorStrokeGray" data-item-index="none" data-renderer-id="0" transform="translate(351, 190)"><g id="cu_dl2j9p1f3ojyn-stroke" fill="none" stroke-linecap="round" stroke-linejoin="round" stroke-miterlimit="4" stroke="#888888" stroke-width="2" stroke-dasharray="5.0, 7.0"><g><path d="M 58 10L 55 10L 54.9 10C 51.719405 10.018712 48.203635 10.119162 44.400002 10.3L 34 11L 23.6 11.7C 19.796587 11.880884 16.280795 11.981335 13.1 12L 13 12L 10 12"></path></g></g></g><g id="g-root-cu_mgpjil1f3oj5w-stroke" data-item-order="1000000000" data-item-id="cu_mgpjil1f3oj5w" data-item-class="Curve Stroke ColorStrokeGray" data-item-index="none" data-renderer-id="0" transform="translate(567, 190)"><g id="cu_mgpjil1f3oj5w-stroke" fill="none" stroke-linecap="round" stroke-linejoin="round" stroke-miterlimit="4" stroke="#888888" stroke-width="2" stroke-dasharray="5.0, 7.0"><g><path d="M 10 10L 13 10L 13.1 10C 16.47715 10.00393 20.199416 10.613028 24.1 11.8C 26.434787 12.503612 29.936878 14.343094 34 16.999999C 38.063122 19.656905 41.565214 21.496387 43.900001 22.199999C 47.800584 23.386973 51.52285 23.996071 54.900001 24.000001L 55 24L 58 24"></path></g></g></g><g id="g-root-bug_140huz11f3dceb-stroke" data-item-order="1000000000" data-item-id="bug_140huz11f3dceb" data-item-class="Icon Stroke" data-item-index="none" data-renderer-id="0" transform="translate(627, 189)"><g id="bug_140huz11f3dceb-stroke" fill="none" stroke-linecap="round" stroke-linejoin="round" stroke-miterlimit="4" stroke="#17b0e3" stroke-width="2"><g><path d="M 15.357142 27.142857C 15.357142 32.46846 19.674397 36.785713 25 36.785713C 30.325602 36.785713 34.642857 32.46846 34.642857 27.142857C 34.642857 21.817253 30.325602 17.5 25 17.5C 19.674397 17.5 15.357142 21.817253 15.357142 27.142857M 15.357142 27.142857L 11.071428 27.142857M 11.071428 34.642857C 13.235226 34.649151 15.293799 33.709877 16.707144 32.071426M 16.707144 22.214285C 15.293799 20.575836 13.235226 19.636564 11.071428 19.642857M 34.642857 27.142857L 38.92857 27.142857M 38.92857 34.642857C 36.764774 34.649151 34.7062 33.709877 33.292858 32.071426M 33.292854 22.214285C 34.7062 20.575836 36.764774 19.636564 38.928574 19.642857M 27.657143 17.864286C 29.326178 16.910906 30.356524 15.136422 30.357141 13.214286M 19.642857 13.214286C 19.643476 15.136422 20.673822 16.910906 22.342857 17.864286M 15.592856 25L 34.407143 25"></path></g></g></g><g id="g-root-tx_dbogagee_1hbydcd1f3date-stroke" data-item-order="1000000000" data-item-id="tx_dbogagee_1hbydcd1f3date" data-item-class="Label Stroke" data-item-index="none" data-renderer-id="0" transform="translate(663, 192)"></g><g id="g-root-tx_procdure_1lxe58t1f3ixvq-stroke" data-item-order="1000000000" data-item-id="tx_procdure_1lxe58t1f3ixvq" data-item-class="Label Stroke" data-item-index="none" data-renderer-id="0" transform="translate(63, 240)"></g><g id="g-root-cu_8wlp1f3pxqk-stroke" data-item-order="1000000000" data-item-id="cu_8wlp1f3pxqk" data-item-class="Curve Stroke ColorStrokeGray" data-item-index="none" data-renderer-id="0" transform="translate(309, 228)"><g id="cu_8wlp1f3pxqk-stroke" fill="none" stroke-linecap="round" stroke-linejoin="round" stroke-miterlimit="4" stroke="#888888" stroke-width="2" stroke-dasharray="5.0, 7.0"><g><path d="M 28 10L 28 22L 28 34L 19 34L 10 34"></path></g></g></g><g id="g-root-cu_8wlp1f3pxqn-stroke" data-item-order="1000000000" data-item-id="cu_8wlp1f3pxqn" data-item-class="Curve Stroke ColorStrokeGray" data-item-index="none" data-renderer-id="0" transform="translate(309, 228)"><g id="cu_8wlp1f3pxqn-stroke" fill="none" stroke-linecap="round" stroke-linejoin="round" stroke-miterlimit="4" stroke="#888888" stroke-width="2" stroke-dasharray="5.0, 7.0"><g><path d="M 28 10L 28 17.5L 28 58C 27.999999 64.627415 22.627416 69.999998 16 69.999998L 15.9 70L 10 70"></path></g></g></g><g id="g-root-cu_4g2eq51f3pwy7-stroke" data-item-order="1000000000" data-item-id="cu_4g2eq51f3pwy7" data-item-class="Curve Stroke ColorStrokeGray" data-item-index="none" data-renderer-id="0" transform="translate(639, 231)"><g id="cu_4g2eq51f3pwy7-stroke" fill="none" stroke-linecap="round" stroke-linejoin="round" stroke-miterlimit="4" stroke="#888888" stroke-width="2" stroke-dasharray="5.0, 7.0"><g><path d="M 10 10L 10 22L 10 34L 19 34L 28 34"></path></g></g></g><g id="g-root-cu_8vvwul1f3pwxu-stroke" data-item-order="1000000000" data-item-id="cu_8vvwul1f3pwxu" data-item-class="Curve Stroke ColorStrokeGray" data-item-index="none" data-renderer-id="0" transform="translate(639, 231)"><g id="cu_8vvwul1f3pwxu-stroke" fill="none" stroke-linecap="round" stroke-linejoin="round" stroke-miterlimit="4" stroke="#888888" stroke-width="2" stroke-dasharray="5.0, 7.0"><g><path d="M 10 10L 10 17.5L 10 58C 10.000002 64.627417 15.372585 70 22.000002 69.999999L 22.1 70L 28 70"></path></g></g></g><g id="g-root-tx_dpannage_7qln11f3iwhw-stroke" data-item-order="1000000000" data-item-id="tx_dpannage_7qln11f3iwhw" data-item-class="Label Stroke" data-item-index="none" data-renderer-id="0" transform="translate(663, 243)"></g><g id="g-root-tx_comporte_1d1r4zx1f3iyof-stroke" data-item-order="1000000000" data-item-id="tx_comporte_1d1r4zx1f3iyof" data-item-class="Label Stroke" data-item-index="none" data-renderer-id="0" transform="translate(75, 276)"></g><g id="g-root-tx_responsa_18mk3yl1f3iwax-stroke" data-item-order="1000000000" data-item-id="tx_responsa_18mk3yl1f3iwax" data-item-class="Label Stroke" data-item-index="none" data-renderer-id="0" transform="translate(381, 429)"></g><g id="g-root-tx_surveill_1qd7nd91f3ix3h-stroke" data-item-order="1000000000" data-item-id="tx_surveill_1qd7nd91f3ix3h" data-item-class="Label Stroke" data-item-index="none" data-renderer-id="0" transform="translate(663, 279)"></g><g id="g-root-1_qqaarx1f3lq12-stroke" data-item-order="1000000000" data-item-id="1_qqaarx1f3lq12" data-item-class="Icon Stroke" data-item-index="none" data-renderer-id="0" transform="translate(309, 18)"><g id="1_qqaarx1f3lq12-stroke" fill="none" stroke-linecap="round" stroke-linejoin="round" stroke-miterlimit="4" stroke="#3bc482" stroke-width="2"><g><path d="M 13.125 13.755L 36.875 13.755C 36.875 13.755 39.375 13.755 39.375 16.254999L 39.375 33.755001C 39.375 33.755001 39.375 36.255001 36.875 36.255001L 13.125 36.255001C 13.125 36.255001 10.625 36.255001 10.625 33.755001L 10.625 16.254999C 10.625 16.254999 10.625 13.755 13.125 13.755M 10.625 20.004999L 39.375 20.004999M 15 16.567501C 15.172588 16.567501 15.3125 16.707411 15.3125 16.880001C 15.3125 17.052589 15.172588 17.192501 15 17.192501C 14.827411 17.192501 14.6875 17.052589 14.6875 16.880001C 14.6875 16.707411 14.827411 16.567501 15 16.567501M 18.75 16.567501C 18.922588 16.567501 19.0625 16.707411 19.0625 16.880001C 19.0625 17.052589 18.922588 17.192501 18.75 17.192501C 18.577412 17.192501 18.4375 17.052589 18.4375 16.880001C 18.4375 16.707411 18.577412 16.567501 18.75 16.567501M 22.5 16.567501C 22.672588 16.567501 22.8125 16.707411 22.8125 16.880001C 22.8125 17.052589 22.672588 17.192501 22.5 17.192501C 22.327412 17.192501 22.1875 17.052589 22.1875 16.880001C 22.1875 16.707411 22.327412 16.567501 22.5 16.567501M 15 23.754999L 17.5 23.754999C 17.5 23.754999 18.125 23.754999 18.125 24.379999L 18.125 25.629999C 18.125 25.629999 18.125 26.254999 17.5 26.254999L 15 26.254999C 15 26.254999 14.375 26.254999 14.375 25.629999L 14.375 24.379999C 14.375 24.379999 14.375 23.754999 15 23.754999M 15 30.004999L 17.5 30.004999C 17.5 30.004999 18.125 30.004999 18.125 30.629999L 18.125 31.879999C 18.125 31.879999 18.125 32.505001 17.5 32.505001L 15 32.505001C 15 32.505001 14.375 32.505001 14.375 31.879999L 14.375 30.629999C 14.375 30.629999 14.375 30.004999 15 30.004999M 21.875 25.004999L 35.625 25.004999M 21.875 31.254999L 35.625 31.254999"></path></g></g></g><g id="g-root-eye_18koop91f3ixae-stroke" data-item-order="1000000000" data-item-id="eye_18koop91f3ixae" data-item-class="Icon Stroke" data-item-index="none" data-renderer-id="0" transform="translate(345, 339)"><g id="eye_18koop91f3ixae-stroke" fill="none" stroke-linecap="round" stroke-linejoin="round" stroke-miterlimit="4" stroke="#e3cd09" stroke-width="2"><g><path d="M 12.5 13.75L 37.5 13.75C 37.5 13.75 38.75 13.75 38.75 15L 38.75 35C 38.75 35 38.75 36.25 37.5 36.25L 12.5 36.25C 12.5 36.25 11.25 36.25 11.25 35L 11.25 15C 11.25 15 11.25 13.75 12.5 13.75M 15 21.25L 15 18.75C 15 18.059645 15.559644 17.5 16.25 17.5L 18.75 17.5M 35 21.25L 35 18.75C 35 18.059645 34.440353 17.5 33.75 17.5L 31.25 17.5M 15 28.75L 15 31.25C 15 31.940355 15.559644 32.5 16.25 32.5L 18.75 32.5M 35 28.75L 35 31.25C 35 31.940355 34.440353 32.5 33.75 32.5L 31.25 32.5M 21.875 25C 21.875 26.725891 23.274111 28.125 25 28.125C 26.725891 28.125 28.125 26.725891 28.125 25C 28.125 23.274111 26.725891 21.875 25 21.875C 23.274111 21.875 21.875 23.274111 21.875 25M 32.28125 24.440001C 31.4725 23.557499 28.518749 20.625 25 20.625C 21.481251 20.625 18.5275 23.557499 17.71875 24.440001C 17.424034 24.757095 17.424034 25.247906 17.71875 25.565001C 18.5275 26.442501 21.481251 29.375 25 29.375C 28.518749 29.375 31.4725 26.442501 32.28125 25.559999C 32.575966 25.242905 32.575966 24.752096 32.28125 24.435001Z"></path></g></g></g><g id="g-root-tx_clartdes_1lw572l1f3ivph-stroke" data-item-order="1000000000" data-item-id="tx_clartdes_1lw572l1f3ivph" data-item-class="Label Stroke" data-item-index="none" data-renderer-id="0" transform="translate(381, 342)"></g><g id="g-root-cu_4g2eq51f3pxq9-stroke" data-item-order="1000000000" data-item-id="cu_4g2eq51f3pxq9" data-item-class="Curve Stroke ColorStrokeGray" data-item-index="none" data-renderer-id="0" transform="translate(357, 381)"><g id="cu_4g2eq51f3pxq9-stroke" fill="none" stroke-linecap="round" stroke-linejoin="round" stroke-miterlimit="4" stroke="#888888" stroke-width="2" stroke-dasharray="5.0, 7.0"><g><path d="M 10 10L 10 22L 10 34L 19 34L 28 34"></path></g></g></g><g id="g-root-cu_1uljggd1f3pybw-stroke" data-item-order="1000000000" data-item-id="cu_1uljggd1f3pybw" data-item-class="Curve Stroke ColorStrokeGray" data-item-index="none" data-renderer-id="0" transform="translate(357, 381)"><g id="cu_1uljggd1f3pybw-stroke" fill="none" stroke-linecap="round" stroke-linejoin="round" stroke-miterlimit="4" stroke="#888888" stroke-width="2" stroke-dasharray="5.0, 7.0"><g><path d="M 10 10L 10 17.5L 10 58C 10.000002 64.627417 15.372585 70 22.000002 69.999999L 22.1 70L 28 70"></path></g></g></g><g id="g-root-tx_rlesdfin_18mk3yl1f3iwaw-stroke" data-item-order="1000000000" data-item-id="tx_rlesdfin_18mk3yl1f3iwaw" data-item-class="Label Stroke" data-item-index="none" data-renderer-id="0" transform="translate(381, 393)"></g><g id="g-root-tx_maintena_1414c251f3lrlx-stroke" data-item-order="1000000000" data-item-id="tx_maintena_1414c251f3lrlx" data-item-class="Label Stroke" data-item-index="none" data-renderer-id="0" transform="translate(171, 21)"></g><g id="g-root-cu_i0w1e51f3ojya-stroke" data-item-order="1000000000" data-item-id="cu_i0w1e51f3ojya" data-item-class="Curve Stroke ColorStrokeGray" data-item-index="none" data-renderer-id="0" transform="translate(483, 264)"><g id="cu_i0w1e51f3ojya-stroke" fill="none" stroke-linecap="round" stroke-linejoin="round" stroke-miterlimit="4" stroke="#888888" stroke-width="2" stroke-dasharray="5.0, 7.0"><g><path d="M 10 10L 10 41.5L 10 73"></path></g></g></g></g></g></svg>