<?xml version="1.0" encoding="utf-8" standalone="yes"?>
<!DOCTYPE svg PUBLIC "-//W3C//DTD SVG 1.1//EN" "http://www.w3.org/Graphics/SVG/1.1/DTD/svg11.dtd">
<svg width="960" height="577" viewBox="0 0 960 577" style="fill:none;stroke:none;fill-rule:evenodd;clip-rule:evenodd;stroke-linecap:round;stroke-linejoin:round;stroke-miterlimit:1.5;" version="1.1" xmlns="http://www.w3.org/2000/svg" xmlns:xlink="http://www.w3.org/1999/xlink"><style id="fontImports">@import url("https://fonts.googleapis.com/css2?family=Roboto:wght@400;700&amp;display=block");</style><rect id="" x="0" y="0" width="960" height="577" style="fill: #ffffff;"></rect><g id="items" style="isolation: isolate"><g id="blend" style="mix-blend-mode:normal"><g id="g-root-ro_zn6sc21lh3x8v-fill" data-item-order="999959608" data-item-id="ro_zn6sc21lh3x8v" data-item-class="Shape Stroke Fill" data-item-index="none" data-renderer-id="0" transform="translate(374, 87)"><g id="ro_zn6sc21lh3x8v-fill" stroke="none" fill="#f0f0f0"><g><path d="M 34 10L 190 10C 190 10 214 10 214 34L 214 184C 214 184 214 208 190 208L 34 208C 34 208 10 208 10 184L 10 34C 10 34 10 10 34 10"></path></g></g></g><g id="g-root-ro_1uo1vxu1lhb01u-fill" data-item-order="999978400" data-item-id="ro_1uo1vxu1lhb01u" data-item-class="Shape Stroke Fill" data-item-index="none" data-renderer-id="0" transform="translate(26, 3)"><g id="ro_1uo1vxu1lhb01u-fill" stroke="none" fill="#e6efff"><g><path d="M 22 10L 298 10C 298 10 310 10 310 22L 310 70C 310 70 310 82 298 82L 22 82C 22 82 10 82 10 70L 10 22C 10 22 10 10 22 10"></path></g></g></g><g id="g-root-ro_mccr1u1lhcfls-fill" data-item-order="999983152" data-item-id="ro_mccr1u1lhcfls" data-item-class="Shape Stroke Fill" data-item-index="none" data-renderer-id="0" transform="translate(14, 207)"><g id="ro_mccr1u1lhcfls-fill" stroke="none" fill="#fffce6"><g><path d="M 22 10L 310 10C 310 10 322 10 322 22L 322 52C 322 52 322 64 310 64L 22 64C 22 64 10 64 10 52L 10 22C 10 22 10 10 22 10"></path></g></g></g><g id="g-root-ro_1ly15gy1lh6s5d-fill" data-item-order="999983800" data-item-id="ro_1ly15gy1lh6s5d" data-item-class="Shape Stroke Fill" data-item-index="none" data-renderer-id="0" transform="translate(626, 198)"><g id="ro_1ly15gy1lh6s5d-fill" stroke="none" fill="#e9fbf3"><g><path d="M 22 10L 298 10C 298 10 310 10 310 22L 310 52C 310 52 310 64 298 64L 22 64C 22 64 10 64 10 52L 10 22C 10 22 10 10 22 10"></path></g></g></g><g id="g-root-ro_4o73zm1lh5clf-fill" data-item-order="999987040" data-item-id="ro_4o73zm1lh5clf" data-item-class="Shape Stroke Fill" data-item-index="none" data-renderer-id="0" transform="translate(626, 12)"><g id="ro_4o73zm1lh5clf-fill" stroke="none" fill="#ffe7e6"><g><path d="M 22 10L 238 10C 238 10 250 10 250 22L 250 52C 250 52 250 64 238 64L 22 64C 22 64 10 64 10 52L 10 22C 10 22 10 10 22 10"></path></g></g></g><g id="g-root-ro_8yecc21lh9khx-fill" data-item-order="999988336" data-item-id="ro_8yecc21lh9khx" data-item-class="Shape Stroke Fill" data-item-index="none" data-renderer-id="0" transform="translate(368, 393)"><g id="ro_8yecc21lh9khx-fill" stroke="none" fill="#f7e6fe"><g><path d="M 22 10L 214 10C 214 10 226 10 226 22L 226 52C 226 52 226 64 214 64L 22 64C 22 64 10 64 10 52L 10 22C 10 22 10 10 22 10"></path></g></g></g><g id="g-root-cu_dhc7w21lhcd8s-fill" data-item-order="1000000000" data-item-id="cu_dhc7w21lhcd8s" data-item-class="Curve Stroke ColorStrokeGray" data-item-index="none" data-renderer-id="0" transform="translate(578, 39)"></g><g id="g-root-tx_scuritap_hz159u1lh5e69-fill" data-item-order="1000000000" data-item-id="tx_scuritap_hz159u1lh5e69" data-item-class="Label Stroke" data-item-index="none" data-renderer-id="0" transform="translate(674, 27)"><g id="tx_scuritap_hz159u1lh5e69-fill" stroke="none" fill="#e15e5a"><g><text style="font: 20px Roboto, sans-serif; white-space: pre;" font-size="20px" font-family="Roboto, sans-serif"><tspan x="12.13" y="34" dominant-baseline="ideographic">Sécurité Applicative</tspan></text></g></g></g><g id="g-root-tx_communic_8yecc21lh9khy-fill" data-item-order="1000000000" data-item-id="tx_communic_8yecc21lh9khy" data-item-class="Label Stroke" data-item-index="none" data-renderer-id="0" transform="translate(2, 87)"><g id="tx_communic_8yecc21lh9khy-fill" stroke="none" fill="#484848"><g><text style="font: 20px Roboto, sans-serif; white-space: pre;" font-size="20px" font-family="Roboto, sans-serif"><tspan x="14.91" y="34" dominant-baseline="ideographic">Communication Inter-services</tspan></text></g></g></g><g id="g-root-cu_4lp7n61lhcetk-fill" data-item-order="1000000000" data-item-id="cu_4lp7n61lhcetk" data-item-class="Curve Stroke ColorStrokeGray" data-item-index="none" data-renderer-id="0" transform="translate(284, 75)"></g><g id="g-root-cu_4lp7n61lhcetn-fill" data-item-order="1000000000" data-item-id="cu_4lp7n61lhcetn" data-item-class="Curve Stroke ColorStrokeGray" data-item-index="none" data-renderer-id="0" transform="translate(284, 75)"></g><g id="g-root-cu_5vpiq1lhcflx-fill" data-item-order="1000000000" data-item-id="cu_5vpiq1lhcflx" data-item-class="Curve Stroke ColorStrokeGray" data-item-index="none" data-renderer-id="0" transform="translate(284, 75)"></g><g id="g-root-cu_5vpiq1lhcflz-fill" data-item-order="1000000000" data-item-id="cu_5vpiq1lhcflz" data-item-class="Curve Stroke ColorStrokeGray" data-item-index="none" data-renderer-id="0" transform="translate(650, 66)"></g><g id="g-root-cu_5vpiq1lhcfm2-fill" data-item-order="1000000000" data-item-id="cu_5vpiq1lhcfm2" data-item-class="Curve Stroke ColorStrokeGray" data-item-index="none" data-renderer-id="0" transform="translate(650, 66)"></g><g id="g-root-cu_1ursqgi1lhcd1g-fill" data-item-order="1000000000" data-item-id="cu_1ursqgi1lhcd1g" data-item-class="Curve Stroke ColorStrokeGray" data-item-index="none" data-renderer-id="0" transform="translate(650, 66)"></g><g id="g-root-tx_validati_1q8uuwi1lh9ji9-fill" data-item-order="1000000000" data-item-id="tx_validati_1q8uuwi1lh9ji9" data-item-class="Label Stroke" data-item-index="none" data-renderer-id="0" transform="translate(674, 78)"><g id="tx_validati_1q8uuwi1lh9ji9-fill" stroke="none" fill="#484848"><g><text style="font: 20px Roboto, sans-serif; white-space: pre;" font-size="20px" font-family="Roboto, sans-serif"><tspan x="13.01" y="34" dominant-baseline="ideographic">Validation des Entrées</tspan></text></g></g></g><g id="g-root-tx_rsilienc_2rc361lh9lan-fill" data-item-order="1000000000" data-item-id="tx_rsilienc_2rc361lh9lan" data-item-class="Label Stroke" data-item-index="none" data-renderer-id="0" transform="translate(98, 123)"><g id="tx_rsilienc_2rc361lh9lan-fill" stroke="none" fill="#484848"><g><text style="font: 20px Roboto, sans-serif; white-space: pre;" font-size="20px" font-family="Roboto, sans-serif"><tspan x="13.83" y="34" dominant-baseline="ideographic">Résilience Système</tspan></text></g></g></g><g id="g-root-bin_18i7bhu1lh3zly-fill" data-item-order="1000000000" data-item-id="bin_18i7bhu1lh3zly" data-item-class="Icon Stroke" data-item-index="none" data-renderer-id="0" transform="translate(452, 111)"></g><g id="g-root-tx_gestiond_1cxecj61lh9l36-fill" data-item-order="1000000000" data-item-id="tx_gestiond_1cxecj61lh9l36" data-item-class="Label Stroke" data-item-index="none" data-renderer-id="0" transform="translate(674, 114)"><g id="tx_gestiond_1cxecj61lh9l36-fill" stroke="none" fill="#484848"><g><text style="font: 20px Roboto, sans-serif; white-space: pre;" font-size="20px" font-family="Roboto, sans-serif"><tspan x="17.32" y="34" dominant-baseline="ideographic">Gestion des Accès</tspan></text></g></g></g><g id="g-root-tx_monitori_1uo1vxu1lh9lvs-fill" data-item-order="1000000000" data-item-id="tx_monitori_1uo1vxu1lh9lvs" data-item-class="Label Stroke" data-item-index="none" data-renderer-id="0" transform="translate(86, 159)"><g id="tx_monitori_1uo1vxu1lh9lvs-fill" stroke="none" fill="#484848"><g><text style="font: 20px Roboto, sans-serif; white-space: pre;" font-size="20px" font-family="Roboto, sans-serif"><tspan x="15.69" y="34" dominant-baseline="ideographic">Monitoring Distribué</tspan></text></g></g></g><g id="g-root-tx_auditett_141rcaa1lh9lvv-fill" data-item-order="1000000000" data-item-id="tx_auditett_141rcaa1lh9lvv" data-item-class="Label Stroke" data-item-index="none" data-renderer-id="0" transform="translate(674, 150)"><g id="tx_auditett_141rcaa1lh9lvv-fill" stroke="none" fill="#484848"><g><text style="font: 20px Roboto, sans-serif; white-space: pre;" font-size="20px" font-family="Roboto, sans-serif"><tspan x="17" y="34" dominant-baseline="ideographic">Audit et Traçabilité</tspan></text></g></g></g><g id="g-root-tx_gestiond_1ltntv61lh3y11-fill" data-item-order="1000000000" data-item-id="tx_gestiond_1ltntv61lh3y11" data-item-class="Label Stroke" data-item-index="none" data-renderer-id="0" transform="translate(398, 165)"><g id="tx_gestiond_1ltntv61lh3y11-fill" stroke="none" fill="#484848"><g><text style="font: 20px Roboto, sans-serif; white-space: pre;" font-size="20px" font-family="Roboto, sans-serif"><tspan x="33.94" y="34" dominant-baseline="ideographic">Gestion des </tspan><tspan x="20.54" y="58" dominant-baseline="ideographic">Erreurs dans le </tspan><tspan x="17.31" y="82" dominant-baseline="ideographic">Développement </tspan><tspan x="47.1" y="106" dominant-baseline="ideographic">Moderne</tspan></text></g></g></g><g id="g-root-cu_dhc7w21lhcd8p-fill" data-item-order="1000000000" data-item-id="cu_dhc7w21lhcd8p" data-item-class="Curve Stroke ColorStrokeGray" data-item-index="none" data-renderer-id="0" transform="translate(326, 39)"></g><g id="g-root-fire_940m421lh5bt6-fill" data-item-order="1000000000" data-item-id="fire_940m421lh5bt6" data-item-class="Icon Stroke" data-item-index="none" data-renderer-id="0" transform="translate(638, 24)"></g><g id="g-root-tx_exprienc_v7zraq1lhce1a-fill" data-item-order="1000000000" data-item-id="tx_exprienc_v7zraq1lhce1a" data-item-class="Label Stroke" data-item-index="none" data-renderer-id="0" transform="translate(26, 222)"><g id="tx_exprienc_v7zraq1lhce1a-fill" stroke="none" fill="#e3cd09"><g><text style="font: 20px Roboto, sans-serif; white-space: pre;" font-size="20px" font-family="Roboto, sans-serif"><tspan x="17.6" y="34" dominant-baseline="ideographic">Expérience Utilisateur (UX)</tspan></text></g></g></g><g id="g-root-add_qs696a1lhcetj-fill" data-item-order="1000000000" data-item-id="add_qs696a1lhcetj" data-item-class="Icon Stroke" data-item-index="none" data-renderer-id="0" transform="translate(284, 219)"></g><g id="g-root-cu_91iprm1lhce16-fill" data-item-order="1000000000" data-item-id="cu_91iprm1lhce16" data-item-class="Curve Stroke ColorStrokeGray" data-item-index="none" data-renderer-id="0" transform="translate(326, 219)"></g><g id="g-root-cu_91iprm1lhce13-fill" data-item-order="1000000000" data-item-id="cu_91iprm1lhce13" data-item-class="Curve Stroke ColorStrokeGray" data-item-index="none" data-renderer-id="0" transform="translate(578, 219)"></g><g id="g-root-calc_1qdunle1lh6rd4-fill" data-item-order="1000000000" data-item-id="calc_1qdunle1lh6rd4" data-item-class="Icon Stroke" data-item-index="none" data-renderer-id="0" transform="translate(638, 210)"></g><g id="g-root-tx_performa_1uto5pu1lh6qkv-fill" data-item-order="1000000000" data-item-id="tx_performa_1uto5pu1lh6qkv" data-item-class="Label Stroke" data-item-index="none" data-renderer-id="0" transform="translate(674, 213)"><g id="tx_performa_1uto5pu1lh6qkv-fill" stroke="none" fill="#3bc482"><g><text style="font: 20px Roboto, sans-serif; white-space: pre;" font-size="20px" font-family="Roboto, sans-serif"><tspan x="12.74" y="34" dominant-baseline="ideographic">Performance et Scalabilité</tspan></text></g></g></g><g id="g-root-tx_feedback_mb3svm1lh9l3b-fill" data-item-order="1000000000" data-item-id="tx_feedback_mb3svm1lh9l3b" data-item-class="Label Stroke" data-item-index="none" data-renderer-id="0" transform="translate(86, 273)"><g id="tx_feedback_mb3svm1lh9l3b-fill" stroke="none" fill="#484848"><g><text style="font: 20px Roboto, sans-serif; white-space: pre;" font-size="20px" font-family="Roboto, sans-serif"><tspan x="15.42" y="34" dominant-baseline="ideographic">Feedback Utilisateur</tspan></text></g></g></g><g id="g-root-cu_1qbz8c21lhcdtx-fill" data-item-order="1000000000" data-item-id="cu_1qbz8c21lhcdtx" data-item-class="Curve Stroke ColorStrokeGray" data-item-index="none" data-renderer-id="0" transform="translate(284, 261)"></g><g id="g-root-cu_1qbz8c21lhcdu0-fill" data-item-order="1000000000" data-item-id="cu_1qbz8c21lhcdu0" data-item-class="Curve Stroke ColorStrokeGray" data-item-index="none" data-renderer-id="0" transform="translate(284, 261)"></g><g id="g-root-cu_1lw5q7m1lhcema-fill" data-item-order="1000000000" data-item-id="cu_1lw5q7m1lhcema" data-item-class="Curve Stroke ColorStrokeGray" data-item-index="none" data-renderer-id="0" transform="translate(284, 261)"></g><g id="g-root-cu_1ursqgi1lhcd1i-fill" data-item-order="1000000000" data-item-id="cu_1ursqgi1lhcd1i" data-item-class="Curve Stroke ColorStrokeGray" data-item-index="none" data-renderer-id="0" transform="translate(650, 252)"></g><g id="g-root-cu_1ursqgi1lhcd1l-fill" data-item-order="1000000000" data-item-id="cu_1ursqgi1lhcd1l" data-item-class="Curve Stroke ColorStrokeGray" data-item-index="none" data-renderer-id="0" transform="translate(650, 252)"></g><g id="g-root-cu_1qbz8c21lhcdtv-fill" data-item-order="1000000000" data-item-id="cu_1qbz8c21lhcdtv" data-item-class="Curve Stroke ColorStrokeGray" data-item-index="none" data-renderer-id="0" transform="translate(650, 252)"></g><g id="g-root-tx_optimisa_zmkb8y1lh9jic-fill" data-item-order="1000000000" data-item-id="tx_optimisa_zmkb8y1lh9jic" data-item-class="Label Stroke" data-item-index="none" data-renderer-id="0" transform="translate(674, 264)"><g id="tx_optimisa_zmkb8y1lh9jic-fill" stroke="none" fill="#484848"><g><text style="font: 20px Roboto, sans-serif; white-space: pre;" font-size="20px" font-family="Roboto, sans-serif"><tspan x="12.1" y="34" dominant-baseline="ideographic">Optimisation des Ressources</tspan></text></g></g></g><g id="g-root-cu_91iprm1lhce19-fill" data-item-order="1000000000" data-item-id="cu_91iprm1lhce19" data-item-class="Curve Stroke ColorStrokeGray" data-item-index="none" data-renderer-id="0" transform="translate(476, 285)"></g><g id="g-root-tx_accessib_hvaar61lh9lvk-fill" data-item-order="1000000000" data-item-id="tx_accessib_hvaar61lh9lvk" data-item-class="Label Stroke" data-item-index="none" data-renderer-id="0" transform="translate(158, 309)"><g id="tx_accessib_hvaar61lh9lvk-fill" stroke="none" fill="#484848"><g><text style="font: 20px Roboto, sans-serif; white-space: pre;" font-size="20px" font-family="Roboto, sans-serif"><tspan x="13.51" y="34" dominant-baseline="ideographic">Accessibilité</tspan></text></g></g></g><g id="g-root-tx_gestiond_qqxb021lh9kb1-fill" data-item-order="1000000000" data-item-id="tx_gestiond_qqxb021lh9kb1" data-item-class="Label Stroke" data-item-index="none" data-renderer-id="0" transform="translate(674, 300)"><g id="tx_gestiond_qqxb021lh9kb1-fill" stroke="none" fill="#484848"><g><text style="font: 20px Roboto, sans-serif; white-space: pre;" font-size="20px" font-family="Roboto, sans-serif"><tspan x="13.93" y="34" dominant-baseline="ideographic">Gestion de la Charge</tspan></text></g></g></g><g id="g-root-tx_infrastr_1qa3t2q1lh9lok-fill" data-item-order="1000000000" data-item-id="tx_infrastr_1qa3t2q1lh9lok" data-item-class="Label Stroke" data-item-index="none" data-renderer-id="0" transform="translate(416, 531)"><g id="tx_infrastr_1qa3t2q1lh9lok-fill" stroke="none" fill="#484848"><g><text style="font: 20px Roboto, sans-serif; white-space: pre;" font-size="20px" font-family="Roboto, sans-serif"><tspan x="13.04" y="34" dominant-baseline="ideographic">Infrastructure as Code</tspan></text></g></g></g><g id="g-root-tx_supporth_909rle1lh9jih-fill" data-item-order="1000000000" data-item-id="tx_supporth_909rle1lh9jih" data-item-class="Label Stroke" data-item-index="none" data-renderer-id="0" transform="translate(98, 345)"><g id="tx_supporth_909rle1lh9jih-fill" stroke="none" fill="#484848"><g><text style="font: 20px Roboto, sans-serif; white-space: pre;" font-size="20px" font-family="Roboto, sans-serif"><tspan x="14.18" y="34" dominant-baseline="ideographic">Support Hors Ligne</tspan></text></g></g></g><g id="g-root-tx_monitori_mb3svm1lh9l3a-fill" data-item-order="1000000000" data-item-id="tx_monitori_mb3svm1lh9l3a" data-item-class="Label Stroke" data-item-index="none" data-renderer-id="0" transform="translate(674, 336)"><g id="tx_monitori_mb3svm1lh9l3a-fill" stroke="none" fill="#484848"><g><text style="font: 20px Roboto, sans-serif; white-space: pre;" font-size="20px" font-family="Roboto, sans-serif"><tspan x="15.52" y="34" dominant-baseline="ideographic">Monitoring Performance</tspan></text></g></g></g><g id="g-root-serv_2rc361lhazgp-fill" data-item-order="1000000000" data-item-id="serv_2rc361lhazgp" data-item-class="Icon Stroke" data-item-index="none" data-renderer-id="0" transform="translate(284, 24)"></g><g id="g-root-4_de7ugi1lh9jpo-fill" data-item-order="1000000000" data-item-id="4_de7ugi1lh9jpo" data-item-class="Icon Stroke" data-item-index="none" data-renderer-id="0" transform="translate(380, 405)"></g><g id="g-root-tx_devopset_m98dma1lh9m2r-fill" data-item-order="1000000000" data-item-id="tx_devopset_m98dma1lh9m2r" data-item-class="Label Stroke" data-item-index="none" data-renderer-id="0" transform="translate(416, 408)"><g id="tx_devopset_m98dma1lh9m2r-fill" stroke="none" fill="#b65edf"><g><text style="font: 20px Roboto, sans-serif; white-space: pre;" font-size="20px" font-family="Roboto, sans-serif"><tspan x="13.78" y="34" dominant-baseline="ideographic">DevOps et CI/CD</tspan></text></g></g></g><g id="g-root-cu_1lw5q7m1lhcemc-fill" data-item-order="1000000000" data-item-id="cu_1lw5q7m1lhcemc" data-item-class="Curve Stroke ColorStrokeGray" data-item-index="none" data-renderer-id="0" transform="translate(392, 447)"></g><g id="g-root-cu_1lw5q7m1lhcemf-fill" data-item-order="1000000000" data-item-id="cu_1lw5q7m1lhcemf" data-item-class="Curve Stroke ColorStrokeGray" data-item-index="none" data-renderer-id="0" transform="translate(392, 447)"></g><g id="g-root-cu_1hgc8361lhcfep-fill" data-item-order="1000000000" data-item-id="cu_1hgc8361lhcfep" data-item-class="Curve Stroke ColorStrokeGray" data-item-index="none" data-renderer-id="0" transform="translate(392, 447)"></g><g id="g-root-tx_pipeline_4kg9gy1lh9kaq-fill" data-item-order="1000000000" data-item-id="tx_pipeline_4kg9gy1lh9kaq" data-item-class="Label Stroke" data-item-index="none" data-renderer-id="0" transform="translate(416, 459)"><g id="tx_pipeline_4kg9gy1lh9kaq-fill" stroke="none" fill="#484848"><g><text style="font: 20px Roboto, sans-serif; white-space: pre;" font-size="20px" font-family="Roboto, sans-serif"><tspan x="16.63" y="34" dominant-baseline="ideographic">Pipeline de Déploiement</tspan></text></g></g></g><g id="g-root-tx_monitori_4kg9gy1lh9kar-fill" data-item-order="1000000000" data-item-id="tx_monitori_4kg9gy1lh9kar" data-item-class="Label Stroke" data-item-index="none" data-renderer-id="0" transform="translate(416, 495)"><g id="tx_monitori_4kg9gy1lh9kar-fill" stroke="none" fill="#484848"><g><text style="font: 20px Roboto, sans-serif; white-space: pre;" font-size="20px" font-family="Roboto, sans-serif"><tspan x="12.73" y="34" dominant-baseline="ideographic">Monitoring Production</tspan></text></g></g></g><g id="g-root-tx_architec_ddldde1lhb11k-fill" data-item-order="1000000000" data-item-id="tx_architec_ddldde1lhb11k" data-item-class="Label Stroke" data-item-index="none" data-renderer-id="0" transform="translate(38, 15)"><g id="tx_architec_ddldde1lhb11k-fill" stroke="none" fill="#4682e3"><g><text style="font: 20px Roboto, sans-serif; white-space: pre;" font-size="20px" font-family="Roboto, sans-serif"><tspan x="14.92" y="34" dominant-baseline="ideographic">Architecture Distribuée et </tspan><tspan x="65.25" y="58" dominant-baseline="ideographic">Microservices</tspan></text></g></g></g><g id="g-root-ro_zn6sc21lh3x8v-stroke" data-item-order="999959608" data-item-id="ro_zn6sc21lh3x8v" data-item-class="Shape Stroke Fill" data-item-index="none" data-renderer-id="0" transform="translate(374, 87)"><g id="ro_zn6sc21lh3x8v-stroke" fill="none" stroke-linecap="round" stroke-linejoin="round" stroke-miterlimit="4" stroke="#484848" stroke-width="2"><g><path d="M 34 10L 190 10C 190 10 214 10 214 34L 214 184C 214 184 214 208 190 208L 34 208C 34 208 10 208 10 184L 10 34C 10 34 10 10 34 10"></path></g></g></g><g id="g-root-ro_1uo1vxu1lhb01u-stroke" data-item-order="999978400" data-item-id="ro_1uo1vxu1lhb01u" data-item-class="Shape Stroke Fill" data-item-index="none" data-renderer-id="0" transform="translate(26, 3)"><g id="ro_1uo1vxu1lhb01u-stroke" fill="none" stroke-linecap="round" stroke-linejoin="round" stroke-miterlimit="4" stroke="#4682e3" stroke-width="2"><g><path d="M 22 10L 298 10C 298 10 310 10 310 22L 310 70C 310 70 310 82 298 82L 22 82C 22 82 10 82 10 70L 10 22C 10 22 10 10 22 10"></path></g></g></g><g id="g-root-ro_mccr1u1lhcfls-stroke" data-item-order="999983152" data-item-id="ro_mccr1u1lhcfls" data-item-class="Shape Stroke Fill" data-item-index="none" data-renderer-id="0" transform="translate(14, 207)"><g id="ro_mccr1u1lhcfls-stroke" fill="none" stroke-linecap="round" stroke-linejoin="round" stroke-miterlimit="4" stroke="#e3cd09" stroke-width="2"><g><path d="M 22 10L 310 10C 310 10 322 10 322 22L 322 52C 322 52 322 64 310 64L 22 64C 22 64 10 64 10 52L 10 22C 10 22 10 10 22 10"></path></g></g></g><g id="g-root-ro_1ly15gy1lh6s5d-stroke" data-item-order="999983800" data-item-id="ro_1ly15gy1lh6s5d" data-item-class="Shape Stroke Fill" data-item-index="none" data-renderer-id="0" transform="translate(626, 198)"><g id="ro_1ly15gy1lh6s5d-stroke" fill="none" stroke-linecap="round" stroke-linejoin="round" stroke-miterlimit="4" stroke="#3bc482" stroke-width="2"><g><path d="M 22 10L 298 10C 298 10 310 10 310 22L 310 52C 310 52 310 64 298 64L 22 64C 22 64 10 64 10 52L 10 22C 10 22 10 10 22 10"></path></g></g></g><g id="g-root-ro_4o73zm1lh5clf-stroke" data-item-order="999987040" data-item-id="ro_4o73zm1lh5clf" data-item-class="Shape Stroke Fill" data-item-index="none" data-renderer-id="0" transform="translate(626, 12)"><g id="ro_4o73zm1lh5clf-stroke" fill="none" stroke-linecap="round" stroke-linejoin="round" stroke-miterlimit="4" stroke="#e15e5a" stroke-width="2"><g><path d="M 22 10L 238 10C 238 10 250 10 250 22L 250 52C 250 52 250 64 238 64L 22 64C 22 64 10 64 10 52L 10 22C 10 22 10 10 22 10"></path></g></g></g><g id="g-root-ro_8yecc21lh9khx-stroke" data-item-order="999988336" data-item-id="ro_8yecc21lh9khx" data-item-class="Shape Stroke Fill" data-item-index="none" data-renderer-id="0" transform="translate(368, 393)"><g id="ro_8yecc21lh9khx-stroke" fill="none" stroke-linecap="round" stroke-linejoin="round" stroke-miterlimit="4" stroke="#b65edf" stroke-width="2"><g><path d="M 22 10L 214 10C 214 10 226 10 226 22L 226 52C 226 52 226 64 214 64L 22 64C 22 64 10 64 10 52L 10 22C 10 22 10 10 22 10"></path></g></g></g><g id="g-root-cu_dhc7w21lhcd8s-stroke" data-item-order="1000000000" data-item-id="cu_dhc7w21lhcd8s" data-item-class="Curve Stroke ColorStrokeGray" data-item-index="none" data-renderer-id="0" transform="translate(578, 39)"><g id="cu_dhc7w21lhcd8s-stroke" fill="none" stroke-linecap="round" stroke-linejoin="round" stroke-miterlimit="4" stroke="#888888" stroke-width="2" stroke-dasharray="5.0, 7.0"><g><path d="M 10 124L 13 124L 13.1 124C 24.64275 123.999991 33.999998 114.642743 33.999998 103.099993L 34 103L 34 30.9C 33.999999 19.357249 43.357248 10.000001 54.899999 10.000002L 55 10L 58 10"></path></g></g></g><g id="g-root-tx_scuritap_hz159u1lh5e69-stroke" data-item-order="1000000000" data-item-id="tx_scuritap_hz159u1lh5e69" data-item-class="Label Stroke" data-item-index="none" data-renderer-id="0" transform="translate(674, 27)"></g><g id="g-root-tx_communic_8yecc21lh9khy-stroke" data-item-order="1000000000" data-item-id="tx_communic_8yecc21lh9khy" data-item-class="Label Stroke" data-item-index="none" data-renderer-id="0" transform="translate(2, 87)"></g><g id="g-root-cu_4lp7n61lhcetk-stroke" data-item-order="1000000000" data-item-id="cu_4lp7n61lhcetk" data-item-class="Curve Stroke ColorStrokeGray" data-item-index="none" data-renderer-id="0" transform="translate(284, 75)"><g id="cu_4lp7n61lhcetk-stroke" fill="none" stroke-linecap="round" stroke-linejoin="round" stroke-miterlimit="4" stroke="#888888" stroke-width="2" stroke-dasharray="5.0, 7.0"><g><path d="M 28 10L 28 22L 28 34L 19 34L 10 34"></path></g></g></g><g id="g-root-cu_4lp7n61lhcetn-stroke" data-item-order="1000000000" data-item-id="cu_4lp7n61lhcetn" data-item-class="Curve Stroke ColorStrokeGray" data-item-index="none" data-renderer-id="0" transform="translate(284, 75)"><g id="cu_4lp7n61lhcetn-stroke" fill="none" stroke-linecap="round" stroke-linejoin="round" stroke-miterlimit="4" stroke="#888888" stroke-width="2" stroke-dasharray="5.0, 7.0"><g><path d="M 28 10L 28 40L 28 70L 19 70L 10 70"></path></g></g></g><g id="g-root-cu_5vpiq1lhcflx-stroke" data-item-order="1000000000" data-item-id="cu_5vpiq1lhcflx" data-item-class="Curve Stroke ColorStrokeGray" data-item-index="none" data-renderer-id="0" transform="translate(284, 75)"><g id="cu_5vpiq1lhcflx-stroke" fill="none" stroke-linecap="round" stroke-linejoin="round" stroke-miterlimit="4" stroke="#888888" stroke-width="2" stroke-dasharray="5.0, 7.0"><g><path d="M 28 10L 28 22L 28 94C 28.000002 100.627415 22.627419 105.999998 16.000002 105.999998L 15.9 106L 10 106"></path></g></g></g><g id="g-root-cu_5vpiq1lhcflz-stroke" data-item-order="1000000000" data-item-id="cu_5vpiq1lhcflz" data-item-class="Curve Stroke ColorStrokeGray" data-item-index="none" data-renderer-id="0" transform="translate(650, 66)"><g id="cu_5vpiq1lhcflz-stroke" fill="none" stroke-linecap="round" stroke-linejoin="round" stroke-miterlimit="4" stroke="#888888" stroke-width="2" stroke-dasharray="5.0, 7.0"><g><path d="M 10 10L 10 22L 10 34L 19 34L 28 34"></path></g></g></g><g id="g-root-cu_5vpiq1lhcfm2-stroke" data-item-order="1000000000" data-item-id="cu_5vpiq1lhcfm2" data-item-class="Curve Stroke ColorStrokeGray" data-item-index="none" data-renderer-id="0" transform="translate(650, 66)"><g id="cu_5vpiq1lhcfm2-stroke" fill="none" stroke-linecap="round" stroke-linejoin="round" stroke-miterlimit="4" stroke="#888888" stroke-width="2" stroke-dasharray="5.0, 7.0"><g><path d="M 10 10L 10 40L 10 70L 19 70L 28 70"></path></g></g></g><g id="g-root-cu_1ursqgi1lhcd1g-stroke" data-item-order="1000000000" data-item-id="cu_1ursqgi1lhcd1g" data-item-class="Curve Stroke ColorStrokeGray" data-item-index="none" data-renderer-id="0" transform="translate(650, 66)"><g id="cu_1ursqgi1lhcd1g-stroke" fill="none" stroke-linecap="round" stroke-linejoin="round" stroke-miterlimit="4" stroke="#888888" stroke-width="2" stroke-dasharray="5.0, 7.0"><g><path d="M 10 10L 10 22L 10 94C 10.000004 100.627423 15.372587 106.000006 22.000005 106.000005L 22.1 106L 28 106"></path></g></g></g><g id="g-root-tx_validati_1q8uuwi1lh9ji9-stroke" data-item-order="1000000000" data-item-id="tx_validati_1q8uuwi1lh9ji9" data-item-class="Label Stroke" data-item-index="none" data-renderer-id="0" transform="translate(674, 78)"></g><g id="g-root-tx_rsilienc_2rc361lh9lan-stroke" data-item-order="1000000000" data-item-id="tx_rsilienc_2rc361lh9lan" data-item-class="Label Stroke" data-item-index="none" data-renderer-id="0" transform="translate(98, 123)"></g><g id="g-root-bin_18i7bhu1lh3zly-stroke" data-item-order="1000000000" data-item-id="bin_18i7bhu1lh3zly" data-item-class="Icon Stroke" data-item-index="none" data-renderer-id="0" transform="translate(452, 111)"><g id="bin_18i7bhu1lh3zly-stroke" fill="none" stroke-linecap="round" stroke-linejoin="round" stroke-miterlimit="4" stroke="#484848" stroke-width="2"><g><path d="M 51 57C 52.104568 57 53 56.104568 53 55L 53 22.956001C 53.003315 16.353855 47.652145 10.999999 41.049999 11L 17 11C 15.895431 11 15 11.895431 15 13L 15 55C 15 56.104568 15.895431 57 17 57ZM 43 11.168L 43 19C 43 20.104568 43.895432 21 45 21L 52.84 21M 35 35.007999L 35 47.007999M 33 47.007999L 37 47.007999M 33 35.007999L 37 35.007999M 29 38C 29 39.656853 27.656855 41 26 41L 23 41L 23 35L 26 35C 27.656855 35 29 36.343147 29 38ZM 29 44C 29 45.656857 27.656855 47 26 47L 23 47L 23 41L 26 41C 27.656855 41 29 42.343147 29 44ZM 41 47.007999L 41 35.007999L 47 47.007999L 47 35.007999"></path></g></g></g><g id="g-root-tx_gestiond_1cxecj61lh9l36-stroke" data-item-order="1000000000" data-item-id="tx_gestiond_1cxecj61lh9l36" data-item-class="Label Stroke" data-item-index="none" data-renderer-id="0" transform="translate(674, 114)"></g><g id="g-root-tx_monitori_1uo1vxu1lh9lvs-stroke" data-item-order="1000000000" data-item-id="tx_monitori_1uo1vxu1lh9lvs" data-item-class="Label Stroke" data-item-index="none" data-renderer-id="0" transform="translate(86, 159)"></g><g id="g-root-tx_auditett_141rcaa1lh9lvv-stroke" data-item-order="1000000000" data-item-id="tx_auditett_141rcaa1lh9lvv" data-item-class="Label Stroke" data-item-index="none" data-renderer-id="0" transform="translate(674, 150)"></g><g id="g-root-tx_gestiond_1ltntv61lh3y11-stroke" data-item-order="1000000000" data-item-id="tx_gestiond_1ltntv61lh3y11" data-item-class="Label Stroke" data-item-index="none" data-renderer-id="0" transform="translate(398, 165)"></g><g id="g-root-cu_dhc7w21lhcd8p-stroke" data-item-order="1000000000" data-item-id="cu_dhc7w21lhcd8p" data-item-class="Curve Stroke ColorStrokeGray" data-item-index="none" data-renderer-id="0" transform="translate(326, 39)"><g id="cu_dhc7w21lhcd8p-stroke" fill="none" stroke-linecap="round" stroke-linejoin="round" stroke-miterlimit="4" stroke="#888888" stroke-width="2" stroke-dasharray="5.0, 7.0"><g><path d="M 58 124L 55 124L 54.9 124C 43.357245 123.999994 33.999996 114.642746 33.999997 103.099995L 34 103L 34 30.9C 33.999998 19.357248 24.64275 10 13.1 10L 13 10L 10 10"></path></g></g></g><g id="g-root-fire_940m421lh5bt6-stroke" data-item-order="1000000000" data-item-id="fire_940m421lh5bt6" data-item-class="Icon Stroke" data-item-index="none" data-renderer-id="0" transform="translate(638, 24)"><g id="fire_940m421lh5bt6-stroke" fill="none" stroke-linecap="round" stroke-linejoin="round" stroke-miterlimit="4" stroke="#e15e5a" stroke-width="2"><g><path d="M 11.875 26.825001L 38.125 26.825001C 38.125 26.825001 39.375 26.825001 39.375 28.075001L 39.375 38.074997C 39.375 38.074997 39.375 39.324997 38.125 39.324997L 11.875 39.324997C 11.875 39.324997 10.625 39.324997 10.625 38.074997L 10.625 28.075001C 10.625 28.075001 10.625 26.825001 11.875 26.825001M 20.200001 24.3375C 20.483402 22.254694 21.734856 20.428503 23.575001 19.4125C 23.784157 19.262285 24.065842 19.262285 24.275 19.4125C 24.475676 19.573921 24.559515 19.840233 24.487499 20.0875C 24.113785 21.340677 24.257854 22.691349 24.887501 23.8375C 25.515139 23.909052 26.123404 23.592556 26.425001 23.0375C 26.519056 22.877501 26.679358 22.76758 26.862499 22.737499C 27.048935 22.713455 27.236479 22.772921 27.375 22.9C 27.781481 23.269117 28.090614 23.732819 28.275002 24.25M 33.1875 24.325001C 34.179199 21.499052 33.751263 18.368607 32.037498 15.912499L 31.712502 15.9125L 29.362499 18.8375C 28.593718 16.447809 28.593718 13.877192 29.362499 11.4875C 29.427233 11.285271 29.384863 11.064009 29.25 10.9C 29.115314 10.73103 28.901562 10.645529 28.6875 10.675C 24.927868 11.183286 21.63591 13.453763 19.825001 16.7875L 18.174999 15.1625C 18.047157 15.042953 17.874279 14.98381 17.700001 15C 17.529539 15.012036 17.371441 15.093344 17.262501 15.224999C 15.112144 17.742376 14.464467 21.214115 15.5625 24.3375M 10.625 30.574999L 39.375 30.574999M 10.625 34.949997L 39.375 34.949997M 18.125 26.825001L 18.125 30.574999M 25 30.574999L 25 34.949997M 31.875 26.825001L 31.875 30.574999M 18.125 34.949997L 18.125 39.324997M 31.875 34.949997L 31.875 39.324997"></path></g></g></g><g id="g-root-tx_exprienc_v7zraq1lhce1a-stroke" data-item-order="1000000000" data-item-id="tx_exprienc_v7zraq1lhce1a" data-item-class="Label Stroke" data-item-index="none" data-renderer-id="0" transform="translate(26, 222)"></g><g id="g-root-add_qs696a1lhcetj-stroke" data-item-order="1000000000" data-item-id="add_qs696a1lhcetj" data-item-class="Icon Stroke" data-item-index="none" data-renderer-id="0" transform="translate(284, 219)"><g id="add_qs696a1lhcetj-stroke" fill="none" stroke-linecap="round" stroke-linejoin="round" stroke-miterlimit="4" stroke="#e3cd09" stroke-width="2"><g><path d="M 25 11.25L 25 38.75M 38.75 25L 11.25 25"></path></g></g></g><g id="g-root-cu_91iprm1lhce16-stroke" data-item-order="1000000000" data-item-id="cu_91iprm1lhce16" data-item-class="Curve Stroke ColorStrokeGray" data-item-index="none" data-renderer-id="0" transform="translate(326, 219)"><g id="cu_91iprm1lhce16-stroke" fill="none" stroke-linecap="round" stroke-linejoin="round" stroke-miterlimit="4" stroke="#888888" stroke-width="2" stroke-dasharray="5.0, 7.0"><g><path d="M 58 10L 55 10L 54.9 10C 51.485019 9.988671 47.723085 10.632606 43.799999 11.900001C 41.447171 12.686834 37.979347 14.668448 33.999998 17.500001C 30.020649 20.331555 26.552825 22.313169 24.199999 23.100001C 20.276914 24.367396 16.51498 25.01133 13.1 25L 13 25L 10 25"></path></g></g></g><g id="g-root-cu_91iprm1lhce13-stroke" data-item-order="1000000000" data-item-id="cu_91iprm1lhce13" data-item-class="Curve Stroke ColorStrokeGray" data-item-index="none" data-renderer-id="0" transform="translate(578, 219)"><g id="cu_91iprm1lhce13-stroke" fill="none" stroke-linecap="round" stroke-linejoin="round" stroke-miterlimit="4" stroke="#888888" stroke-width="2" stroke-dasharray="5.0, 7.0"><g><path d="M 10 10L 13 10L 13.1 10C 16.311297 10.016369 19.867515 10.284763 23.700001 10.800001C 25.868292 11.054283 29.498118 11.829585 33.999999 13C 38.50188 14.170414 42.131706 14.945717 44.299999 15.2C 48.132487 15.71524 51.688705 15.983634 54.900002 16.000002L 55 16L 58 16"></path></g></g></g><g id="g-root-calc_1qdunle1lh6rd4-stroke" data-item-order="1000000000" data-item-id="calc_1qdunle1lh6rd4" data-item-class="Icon Stroke" data-item-index="none" data-renderer-id="0" transform="translate(638, 210)"><g id="calc_1qdunle1lh6rd4-stroke" fill="none" stroke-linecap="round" stroke-linejoin="round" stroke-miterlimit="4" stroke="#3bc482" stroke-width="2"><g><path d="M 23.125 30.625L 11.875 30.625C 11.184644 30.625 10.625 30.065355 10.625 29.375L 10.625 11.875C 10.625 11.184644 11.184644 10.625 11.875 10.625L 33.125 10.625C 33.815353 10.625 34.375 11.184644 34.375 11.875L 34.375 20.625M 15.475 23.412498L 19.4625 19.4625C 19.697676 19.221985 20.019863 19.086405 20.356251 19.086405C 20.692636 19.086405 21.014824 19.221985 21.25 19.4625L 22.5 20.7125C 22.742886 20.96052 23.077972 21.096365 23.424999 21.0875C 23.772833 21.073353 24.099009 20.914795 24.325001 20.650002L 29.375 15M 25.625 15L 29.375 15L 29.375 18.75M 29.375 32.1875C 29.547588 32.1875 29.6875 32.327412 29.6875 32.5C 29.6875 32.672588 29.547588 32.8125 29.375 32.8125C 29.202412 32.8125 29.0625 32.672588 29.0625 32.5C 29.0625 32.327412 29.202412 32.1875 29.375 32.1875M 29.375 35.325001C 29.547588 35.325001 29.6875 35.464912 29.6875 35.637501C 29.6875 35.810089 29.547588 35.950001 29.375 35.950001C 29.202412 35.950001 29.0625 35.810089 29.0625 35.637501C 29.0625 35.464912 29.202412 35.325001 29.375 35.325001M 32.5 32.174999C 32.672588 32.174999 32.8125 32.314911 32.8125 32.487499C 32.8125 32.660088 32.672588 32.799999 32.5 32.799999C 32.327412 32.799999 32.1875 32.660088 32.1875 32.487499C 32.1875 32.314911 32.327412 32.174999 32.5 32.174999M 35.625 32.174999C 35.797588 32.174999 35.9375 32.314911 35.9375 32.487499C 35.9375 32.660088 35.797588 32.799999 35.625 32.799999C 35.452412 32.799999 35.3125 32.660088 35.3125 32.487499C 35.3125 32.314911 35.452412 32.174999 35.625 32.174999M 32.5 35.3125C 32.672588 35.3125 32.8125 35.452412 32.8125 35.625C 32.8125 35.797588 32.672588 35.9375 32.5 35.9375C 32.327412 35.9375 32.1875 35.797588 32.1875 35.625C 32.1875 35.452412 32.327412 35.3125 32.5 35.3125M 35.625 35.3125C 35.797588 35.3125 35.9375 35.452412 35.9375 35.625C 35.9375 35.797588 35.797588 35.9375 35.625 35.9375C 35.452412 35.9375 35.3125 35.797588 35.3125 35.625C 35.3125 35.452412 35.452412 35.3125 35.625 35.3125M 36.875 28.75C 36.886177 28.918938 36.823925 29.084488 36.704208 29.204206C 36.584488 29.323925 36.418938 29.386175 36.25 29.375L 28.75 29.375C 28.577517 29.382809 28.410032 29.315935 28.290359 29.191479C 28.170689 29.06702 28.110434 28.897041 28.124998 28.724998L 28.125 26.25C 28.113825 26.08106 28.176075 25.915512 28.295794 25.795794C 28.415512 25.676075 28.58106 25.613825 28.75 25.625L 36.25 25.625C 36.418938 25.613825 36.584488 25.676075 36.704208 25.795794C 36.823925 25.915512 36.886177 26.08106 36.875 26.25ZM 26.875 23.125L 38.125 23.125C 38.125 23.125 39.375 23.125 39.375 24.375L 39.375 38.125C 39.375 38.125 39.375 39.375 38.125 39.375L 26.875 39.375C 26.875 39.375 25.625 39.375 25.625 38.125L 25.625 24.375C 25.625 24.375 25.625 23.125 26.875 23.125"></path></g></g></g><g id="g-root-tx_performa_1uto5pu1lh6qkv-stroke" data-item-order="1000000000" data-item-id="tx_performa_1uto5pu1lh6qkv" data-item-class="Label Stroke" data-item-index="none" data-renderer-id="0" transform="translate(674, 213)"></g><g id="g-root-tx_feedback_mb3svm1lh9l3b-stroke" data-item-order="1000000000" data-item-id="tx_feedback_mb3svm1lh9l3b" data-item-class="Label Stroke" data-item-index="none" data-renderer-id="0" transform="translate(86, 273)"></g><g id="g-root-cu_1qbz8c21lhcdtx-stroke" data-item-order="1000000000" data-item-id="cu_1qbz8c21lhcdtx" data-item-class="Curve Stroke ColorStrokeGray" data-item-index="none" data-renderer-id="0" transform="translate(284, 261)"><g id="cu_1qbz8c21lhcdtx-stroke" fill="none" stroke-linecap="round" stroke-linejoin="round" stroke-miterlimit="4" stroke="#888888" stroke-width="2" stroke-dasharray="5.0, 7.0"><g><path d="M 28 10L 28 22L 28 34L 19 34L 10 34"></path></g></g></g><g id="g-root-cu_1qbz8c21lhcdu0-stroke" data-item-order="1000000000" data-item-id="cu_1qbz8c21lhcdu0" data-item-class="Curve Stroke ColorStrokeGray" data-item-index="none" data-renderer-id="0" transform="translate(284, 261)"><g id="cu_1qbz8c21lhcdu0-stroke" fill="none" stroke-linecap="round" stroke-linejoin="round" stroke-miterlimit="4" stroke="#888888" stroke-width="2" stroke-dasharray="5.0, 7.0"><g><path d="M 28 10L 28 40L 28 70L 19 70L 10 70"></path></g></g></g><g id="g-root-cu_1lw5q7m1lhcema-stroke" data-item-order="1000000000" data-item-id="cu_1lw5q7m1lhcema" data-item-class="Curve Stroke ColorStrokeGray" data-item-index="none" data-renderer-id="0" transform="translate(284, 261)"><g id="cu_1lw5q7m1lhcema-stroke" fill="none" stroke-linecap="round" stroke-linejoin="round" stroke-miterlimit="4" stroke="#888888" stroke-width="2" stroke-dasharray="5.0, 7.0"><g><path d="M 28 10L 28 22L 28 94C 28.000002 100.627415 22.627419 105.999998 16.000002 105.999998L 15.9 106L 10 106"></path></g></g></g><g id="g-root-cu_1ursqgi1lhcd1i-stroke" data-item-order="1000000000" data-item-id="cu_1ursqgi1lhcd1i" data-item-class="Curve Stroke ColorStrokeGray" data-item-index="none" data-renderer-id="0" transform="translate(650, 252)"><g id="cu_1ursqgi1lhcd1i-stroke" fill="none" stroke-linecap="round" stroke-linejoin="round" stroke-miterlimit="4" stroke="#888888" stroke-width="2" stroke-dasharray="5.0, 7.0"><g><path d="M 10 10L 10 22L 10 34L 19 34L 28 34"></path></g></g></g><g id="g-root-cu_1ursqgi1lhcd1l-stroke" data-item-order="1000000000" data-item-id="cu_1ursqgi1lhcd1l" data-item-class="Curve Stroke ColorStrokeGray" data-item-index="none" data-renderer-id="0" transform="translate(650, 252)"><g id="cu_1ursqgi1lhcd1l-stroke" fill="none" stroke-linecap="round" stroke-linejoin="round" stroke-miterlimit="4" stroke="#888888" stroke-width="2" stroke-dasharray="5.0, 7.0"><g><path d="M 10 10L 10 40L 10 70L 19 70L 28 70"></path></g></g></g><g id="g-root-cu_1qbz8c21lhcdtv-stroke" data-item-order="1000000000" data-item-id="cu_1qbz8c21lhcdtv" data-item-class="Curve Stroke ColorStrokeGray" data-item-index="none" data-renderer-id="0" transform="translate(650, 252)"><g id="cu_1qbz8c21lhcdtv-stroke" fill="none" stroke-linecap="round" stroke-linejoin="round" stroke-miterlimit="4" stroke="#888888" stroke-width="2" stroke-dasharray="5.0, 7.0"><g><path d="M 10 10L 10 22L 10 94C 10.000004 100.627423 15.372587 106.000006 22.000005 106.000005L 22.1 106L 28 106"></path></g></g></g><g id="g-root-tx_optimisa_zmkb8y1lh9jic-stroke" data-item-order="1000000000" data-item-id="tx_optimisa_zmkb8y1lh9jic" data-item-class="Label Stroke" data-item-index="none" data-renderer-id="0" transform="translate(674, 264)"></g><g id="g-root-cu_91iprm1lhce19-stroke" data-item-order="1000000000" data-item-id="cu_91iprm1lhce19" data-item-class="Curve Stroke ColorStrokeGray" data-item-index="none" data-renderer-id="0" transform="translate(476, 285)"><g id="cu_91iprm1lhce19-stroke" fill="none" stroke-linecap="round" stroke-linejoin="round" stroke-miterlimit="4" stroke="#888888" stroke-width="2" stroke-dasharray="5.0, 7.0"><g><path d="M 10 10L 10 64L 10 118"></path></g></g></g><g id="g-root-tx_accessib_hvaar61lh9lvk-stroke" data-item-order="1000000000" data-item-id="tx_accessib_hvaar61lh9lvk" data-item-class="Label Stroke" data-item-index="none" data-renderer-id="0" transform="translate(158, 309)"></g><g id="g-root-tx_gestiond_qqxb021lh9kb1-stroke" data-item-order="1000000000" data-item-id="tx_gestiond_qqxb021lh9kb1" data-item-class="Label Stroke" data-item-index="none" data-renderer-id="0" transform="translate(674, 300)"></g><g id="g-root-tx_infrastr_1qa3t2q1lh9lok-stroke" data-item-order="1000000000" data-item-id="tx_infrastr_1qa3t2q1lh9lok" data-item-class="Label Stroke" data-item-index="none" data-renderer-id="0" transform="translate(416, 531)"></g><g id="g-root-tx_supporth_909rle1lh9jih-stroke" data-item-order="1000000000" data-item-id="tx_supporth_909rle1lh9jih" data-item-class="Label Stroke" data-item-index="none" data-renderer-id="0" transform="translate(98, 345)"></g><g id="g-root-tx_monitori_mb3svm1lh9l3a-stroke" data-item-order="1000000000" data-item-id="tx_monitori_mb3svm1lh9l3a" data-item-class="Label Stroke" data-item-index="none" data-renderer-id="0" transform="translate(674, 336)"></g><g id="g-root-serv_2rc361lhazgp-stroke" data-item-order="1000000000" data-item-id="serv_2rc361lhazgp" data-item-class="Icon Stroke" data-item-index="none" data-renderer-id="0" transform="translate(284, 24)"><g id="serv_2rc361lhazgp-stroke" fill="none" stroke-linecap="round" stroke-linejoin="round" stroke-miterlimit="4" stroke="#4682e3" stroke-width="2"><g><path d="M 35.625 18.658751C 35.604069 17.425695 35.082287 16.254242 34.179691 15.413896C 33.277096 14.573548 32.071404 14.136663 30.839998 14.20375C 29.734344 11.995436 27.46958 10.607589 25 10.625C 21.637741 10.576427 18.815884 13.14772 18.5525 16.5C 17.549095 16.278038 16.499016 16.516819 15.690258 17.150854C 14.8815 17.784889 14.398968 18.747618 14.375 19.775C 14.375 23.1775 18.07 23.125 18.07 23.125L 31.467499 23.125C 31.467499 23.125 35.625 22.598751 35.625 18.658751ZM 18.4375 35.936249C 18.265074 35.936249 18.125233 36.075909 18.125004 36.248337C 18.124773 36.420761 18.264244 36.560791 18.43667 36.561249C 18.609095 36.561707 18.74931 36.422424 18.75 36.25C 18.750334 36.167015 18.717516 36.087337 18.65884 36.02866C 18.600163 35.969982 18.520481 35.937164 18.4375 35.9375L 18.4375 35.9375M 21.5625 35.936249C 21.390074 35.936249 21.250231 36.075909 21.250002 36.248337C 21.249773 36.420761 21.389244 36.560791 21.56167 36.561249C 21.734097 36.561707 21.87431 36.422424 21.875 36.25C 21.875334 36.167015 21.842516 36.087337 21.78384 36.02866C 21.725161 35.969982 21.645481 35.937164 21.5625 35.9375L 21.5625 35.9375M 35.625 37.5C 35.625 38.535534 34.785534 39.375 33.75 39.375L 16.25 39.375C 15.214466 39.375 14.375 38.535534 14.375 37.5L 14.375 35C 14.375 33.964466 15.214466 33.125 16.25 33.125L 33.75 33.125C 34.785534 33.125 35.625 33.964466 35.625 35ZM 18.4375 29.686249C 18.265074 29.686253 18.125233 29.825909 18.125004 29.998335C 18.124773 30.170761 18.264244 30.310791 18.43667 30.311249C 18.609095 30.311708 18.74931 30.172424 18.75 30C 18.750334 29.917017 18.717516 29.837337 18.65884 29.77866C 18.600163 29.719982 18.520481 29.687164 18.4375 29.687498L 18.4375 29.6875M 21.5625 29.686249C 21.390074 29.686253 21.250231 29.825909 21.250002 29.998335C 21.249773 30.170761 21.389244 30.310791 21.56167 30.311249C 21.734097 30.311708 21.87431 30.172424 21.875 30C 21.875334 29.917017 21.842516 29.837337 21.78384 29.77866C 21.725161 29.719982 21.645481 29.687164 21.5625 29.687498L 21.5625 29.6875M 35.625 31.25C 35.625 32.285534 34.785534 33.125 33.75 33.125L 16.25 33.125C 15.214466 33.125 14.375 32.285534 14.375 31.25L 14.375 28.75C 14.375 27.714466 15.214466 26.875 16.25 26.875L 33.75 26.875C 34.785534 26.875 35.625 27.714466 35.625 28.75Z"></path></g></g></g><g id="g-root-4_de7ugi1lh9jpo-stroke" data-item-order="1000000000" data-item-id="4_de7ugi1lh9jpo" data-item-class="Icon Stroke" data-item-index="none" data-renderer-id="0" transform="translate(380, 405)"><g id="4_de7ugi1lh9jpo-stroke" fill="none" stroke-linecap="round" stroke-linejoin="round" stroke-miterlimit="4" stroke="#b65edf" stroke-width="2"><g><path d="M 16.7675 16.875L 22.6 24.116251C 23.087976 24.604376 23.087976 25.395624 22.6 25.883749L 16.7675 33.125M 39.008751 24.116251C 39.496727 24.604376 39.496727 25.395624 39.008751 25.883749L 32.758751 32.758751C 32.524384 32.993187 32.206493 33.124928 31.875 33.125L 24.897501 33.125L 32.138752 25.883749C 32.626728 25.395624 32.626728 24.604376 32.138752 24.116251L 24.897501 16.875L 31.875 16.875C 32.206493 16.875071 32.524384 17.006813 32.758751 17.241251ZM 21.875 16.875L 16.7675 16.875M 21.875 33.125L 16.7675 33.125M 13.75 16.875L 10.625 16.875M 13.75 33.125L 10.625 33.125"></path></g></g></g><g id="g-root-tx_devopset_m98dma1lh9m2r-stroke" data-item-order="1000000000" data-item-id="tx_devopset_m98dma1lh9m2r" data-item-class="Label Stroke" data-item-index="none" data-renderer-id="0" transform="translate(416, 408)"></g><g id="g-root-cu_1lw5q7m1lhcemc-stroke" data-item-order="1000000000" data-item-id="cu_1lw5q7m1lhcemc" data-item-class="Curve Stroke ColorStrokeGray" data-item-index="none" data-renderer-id="0" transform="translate(392, 447)"><g id="cu_1lw5q7m1lhcemc-stroke" fill="none" stroke-linecap="round" stroke-linejoin="round" stroke-miterlimit="4" stroke="#888888" stroke-width="2" stroke-dasharray="5.0, 7.0"><g><path d="M 10 10L 10 22L 10 34L 19 34L 28 34"></path></g></g></g><g id="g-root-cu_1lw5q7m1lhcemf-stroke" data-item-order="1000000000" data-item-id="cu_1lw5q7m1lhcemf" data-item-class="Curve Stroke ColorStrokeGray" data-item-index="none" data-renderer-id="0" transform="translate(392, 447)"><g id="cu_1lw5q7m1lhcemf-stroke" fill="none" stroke-linecap="round" stroke-linejoin="round" stroke-miterlimit="4" stroke="#888888" stroke-width="2" stroke-dasharray="5.0, 7.0"><g><path d="M 10 10L 10 40L 10 70L 19 70L 28 70"></path></g></g></g><g id="g-root-cu_1hgc8361lhcfep-stroke" data-item-order="1000000000" data-item-id="cu_1hgc8361lhcfep" data-item-class="Curve Stroke ColorStrokeGray" data-item-index="none" data-renderer-id="0" transform="translate(392, 447)"><g id="cu_1hgc8361lhcfep-stroke" fill="none" stroke-linecap="round" stroke-linejoin="round" stroke-miterlimit="4" stroke="#888888" stroke-width="2" stroke-dasharray="5.0, 7.0"><g><path d="M 10 10L 10 22L 10 94C 10.000004 100.627423 15.372587 106.000006 22.000005 106.000005L 22.1 106L 28 106"></path></g></g></g><g id="g-root-tx_pipeline_4kg9gy1lh9kaq-stroke" data-item-order="1000000000" data-item-id="tx_pipeline_4kg9gy1lh9kaq" data-item-class="Label Stroke" data-item-index="none" data-renderer-id="0" transform="translate(416, 459)"></g><g id="g-root-tx_monitori_4kg9gy1lh9kar-stroke" data-item-order="1000000000" data-item-id="tx_monitori_4kg9gy1lh9kar" data-item-class="Label Stroke" data-item-index="none" data-renderer-id="0" transform="translate(416, 495)"></g><g id="g-root-tx_architec_ddldde1lhb11k-stroke" data-item-order="1000000000" data-item-id="tx_architec_ddldde1lhb11k" data-item-class="Label Stroke" data-item-index="none" data-renderer-id="0" transform="translate(38, 15)"></g></g></g></svg>