<?xml version="1.0" encoding="utf-8" standalone="yes"?>
<!DOCTYPE svg PUBLIC "-//W3C//DTD SVG 1.1//EN" "http://www.w3.org/Graphics/SVG/1.1/DTD/svg11.dtd">
<svg width="613" height="421" viewBox="0 0 613 421" style="fill:none;stroke:none;fill-rule:evenodd;clip-rule:evenodd;stroke-linecap:round;stroke-linejoin:round;stroke-miterlimit:1.5;" version="1.1" xmlns="http://www.w3.org/2000/svg" xmlns:xlink="http://www.w3.org/1999/xlink"><style id="fontImports">@import url("https://fonts.googleapis.com/css2?family=Roboto:wght@400;700&amp;display=block");</style><rect id="" x="0" y="0" width="613" height="421" style="fill: #ffffff;"></rect><g id="items" style="isolation: isolate"><g id="blend" style="mix-blend-mode:normal"><g id="g-root-1.Vector_sy_hu0gxf1brw9hi-fill" data-item-order="999893286" data-item-id="1.Vector_sy_hu0gxf1brw9hi" data-item-class="Part Indexed Indexed_1 Fill Stroke ColorFillGray ColorStrokeGray" data-item-index="1" data-renderer-id="0" transform="translate(224, 326)"><g id="1.Vector_sy_hu0gxf1brw9hi-fill" stroke="none" fill="#f6f6f6"><g><path d="M 143.5 10L 106 10L 73 10C 71.343 10 70 11.343 70 13C 70 14.657 71.343 16 73 16L 76 16L 76 34L 43 34C 41.343 34 40 35.343 40 37C 40 38.657 41.343 40 43 40L 46 40L 46 58L 13 58C 11.343 58 10 59.343 10 61C 10 62.657 11.343 64 13 64L 16 64L 16 82L 53.5 82L 143.5 10Z"></path></g></g></g><g id="g-root-2.Vector_sy_8yzxrn1brw74f-fill" data-item-order="999893290" data-item-id="2.Vector_sy_8yzxrn1brw74f" data-item-class="Part Indexed Fill Stroke" data-item-index="2" data-renderer-id="0" transform="translate(314, 254)"><g id="2.Vector_sy_8yzxrn1brw74f-fill" stroke="none" fill="#e6efff"><g><path d="M 143.5 10L 106 10L 73 10C 71.343 10 70 11.343 70 13C 70 14.657 71.343 16 73 16L 76 16L 76 34L 43 34C 41.343 34 40 35.343 40 37C 40 38.657 41.343 40 43 40L 46 40L 46 58L 13 58C 11.343 58 10 59.343 10 61C 10 62.657 11.343 64 13 64L 16 64L 16 82L 53.5 82L 143.5 10Z"></path></g></g></g><g id="g-root-3.Vector_sy_4j6fn71brw7wo-fill" data-item-order="999893294" data-item-id="3.Vector_sy_4j6fn71brw7wo" data-item-class="Part Indexed Fill Stroke" data-item-index="3" data-renderer-id="0" transform="translate(404, 182)"><g id="3.Vector_sy_4j6fn71brw7wo-fill" stroke="none" fill="#e6f9ff"><g><path d="M 143.5 10L 106 10L 73 10C 71.343 10 70 11.343 70 13C 70 14.657 71.343 16 73 16L 76 16L 76 34L 43 34C 41.343 34 40 35.343 40 37C 40 38.657 41.343 40 43 40L 46 40L 46 58L 13 58C 11.343 58 10 59.343 10 61C 10 62.657 11.343 64 13 64L 16 64L 16 82L 53.5 82L 143.5 10Z"></path></g></g></g><g id="g-root-4.Vector_sy_3cxir1brw8ox-fill" data-item-order="999893298" data-item-id="4.Vector_sy_3cxir1brw8ox" data-item-class="Part Indexed Fill Stroke" data-item-index="4" data-renderer-id="0" transform="translate(494, 110)"><g id="4.Vector_sy_3cxir1brw8ox-fill" stroke="none" fill="#e9fbf3"><g><path d="M 46 58L 13 58C 11.343 58 10 59.343 10 61C 10 62.657 11.343 64 13 64L 16 64L 16 82L 53.5 82L 106 40L 106 10L 73 10C 71.343 10 70 11.343 70 13C 70 14.657 71.343 16 73 16L 76 16L 76 34L 43 34C 41.343 34 40 35.343 40 37C 40 38.657 41.343 40 43 40L 46 40L 46 58Z"></path></g></g></g><g id="g-root--1.bt-cc-remove-start_sy_qv9u431brus5p-fill" data-item-order="999893328" data-item-id="-1.bt-cc-remove-start_sy_qv9u431brus5p" data-item-class="Part Fill" data-item-index="-1" data-renderer-id="0" transform="translate(188, 350)"><g id="-1.bt-cc-remove-start_sy_qv9u431brus5p-fill" stroke="none" fill="#e6f9ff"><g><path d="M 10 10L 34 10L 34 34L 10 34Z"></path></g></g></g><g id="g-root-tx_atteindr_mfgbzn1brusxy-fill" data-item-order="1000000000" data-item-id="tx_atteindr_mfgbzn1brusxy" data-item-class="Label Stroke Title" data-item-index="none" data-renderer-id="0" transform="translate(2, 2)"><g id="tx_atteindr_mfgbzn1brusxy-fill" stroke="none" fill="#484848"><g><text style="font: 20px Roboto, sans-serif; white-space: pre;" font-size="20px" font-family="Roboto, sans-serif"><tspan x="13.38" y="33.75" dominant-baseline="ideographic">Atteindre la qualité du code grâce à la gestion des erreurs</tspan></text></g></g></g><g id="g-root-tx_atteindr_1hhkdrn1brus5l-fill" data-item-order="1000000000" data-item-id="tx_atteindr_1hhkdrn1brus5l" data-item-class="Label Stroke Indexed" data-item-index="4" data-renderer-id="0" transform="translate(296, 50)"><g id="tx_atteindr_1hhkdrn1brus5l-fill" stroke="none" fill="#484848"><g><text style="font: 20px Roboto, sans-serif; white-space: pre;" font-size="20px" font-family="Roboto, sans-serif"><tspan x="18.11" y="33.75" dominant-baseline="ideographic">Atteindre la qualité du </tspan><tspan x="168.25" y="57.75" dominant-baseline="ideographic">code</tspan></text></g></g></g><g id="g-root-10_mg2t2r1brjlzj-fill" data-item-order="1000000000" data-item-id="10_mg2t2r1brjlzj" data-item-class="Icon Stroke Indexed" data-item-index="4" data-renderer-id="0" transform="translate(512, 50)"></g><g id="g-root-tx_applique_1463veb1brutqi-fill" data-item-order="1000000000" data-item-id="tx_applique_1463veb1brutqi" data-item-class="Label Stroke Indexed" data-item-index="3" data-renderer-id="0" transform="translate(206, 122)"><g id="tx_applique_1463veb1brutqi-fill" stroke="none" fill="#484848"><g><text style="font: 20px Roboto, sans-serif; white-space: pre;" font-size="20px" font-family="Roboto, sans-serif"><tspan x="96.34" y="33.75" dominant-baseline="ideographic">Appliquer les </tspan><tspan x="15.42" y="57.75" dominant-baseline="ideographic">techniques TypeScript</tspan></text></g></g></g><g id="g-root-nati_de71yr1brp5vm-fill" data-item-order="1000000000" data-item-id="nati_de71yr1brp5vm" data-item-class="Icon Stroke Indexed" data-item-index="3" data-renderer-id="0" transform="translate(422, 122)"></g><g id="g-root-tx_comprend_zqad9v1bruuir-fill" data-item-order="1000000000" data-item-id="tx_comprend_zqad9v1bruuir" data-item-class="Label Stroke Indexed" data-item-index="2" data-renderer-id="0" transform="translate(104, 194)"><g id="tx_comprend_zqad9v1bruuir-fill" stroke="none" fill="#484848"><g><text style="font: 20px Roboto, sans-serif; white-space: pre;" font-size="20px" font-family="Roboto, sans-serif"><tspan x="22.55" y="33.75" dominant-baseline="ideographic">Comprendre la gestion </tspan><tspan x="124.21" y="57.75" dominant-baseline="ideographic">des erreurs</tspan></text></g></g></g><g id="g-root-book_18it0371brs0zk-fill" data-item-order="1000000000" data-item-id="book_18it0371brs0zk" data-item-class="Icon Stroke Indexed" data-item-index="2" data-renderer-id="0" transform="translate(332, 194)"></g><g id="g-root-tx_reconnat_zqad9v1bruuis-fill" data-item-order="1000000000" data-item-id="tx_reconnat_zqad9v1bruuis" data-item-class="Label Stroke Indexed Indexed_1" data-item-index="1" data-renderer-id="0" transform="translate(50, 266)"><g id="tx_reconnat_zqad9v1bruuis-fill" stroke="none" fill="#484848"><g><text style="font: 20px Roboto, sans-serif; white-space: pre;" font-size="20px" font-family="Roboto, sans-serif"><tspan x="50.89" y="33.75" dominant-baseline="ideographic">Reconnaître les </tspan><tspan x="17.98" y="57.75" dominant-baseline="ideographic">contraintes du TDD</tspan></text></g></g></g><g id="g-root-puzz_1hhkdrn1brus5k-fill" data-item-order="1000000000" data-item-id="puzz_1hhkdrn1brus5k" data-item-class="Icon Stroke Indexed Indexed_1 ColorFillGray ColorStrokeGray" data-item-index="1" data-renderer-id="0" transform="translate(242, 266)"></g><g id="g-root-1.Vector_sy_hu0gxf1brw9hi-stroke" data-item-order="999893286" data-item-id="1.Vector_sy_hu0gxf1brw9hi" data-item-class="Part Indexed Indexed_1 Fill Stroke ColorFillGray ColorStrokeGray" data-item-index="1" data-renderer-id="0" transform="translate(224, 326)"><g id="1.Vector_sy_hu0gxf1brw9hi-stroke" fill="none" stroke-linecap="round" stroke-linejoin="round" stroke-miterlimit="4" stroke="#888888" stroke-width="2"><g><path d="M 143.5 10L 106 10L 73 10C 71.343 10 70 11.343 70 13C 70 14.657 71.343 16 73 16L 76 16L 76 34L 43 34C 41.343 34 40 35.343 40 37C 40 38.657 41.343 40 43 40L 46 40L 46 58L 13 58C 11.343 58 10 59.343 10 61C 10 62.657 11.343 64 13 64L 16 64L 16 82L 53.5 82L 143.5 10Z"></path></g></g></g><g id="g-root-2.Vector_sy_8yzxrn1brw74f-stroke" data-item-order="999893290" data-item-id="2.Vector_sy_8yzxrn1brw74f" data-item-class="Part Indexed Fill Stroke" data-item-index="2" data-renderer-id="0" transform="translate(314, 254)"><g id="2.Vector_sy_8yzxrn1brw74f-stroke" fill="none" stroke-linecap="round" stroke-linejoin="round" stroke-miterlimit="4" stroke="#4682e3" stroke-width="2"><g><path d="M 143.5 10L 106 10L 73 10C 71.343 10 70 11.343 70 13C 70 14.657 71.343 16 73 16L 76 16L 76 34L 43 34C 41.343 34 40 35.343 40 37C 40 38.657 41.343 40 43 40L 46 40L 46 58L 13 58C 11.343 58 10 59.343 10 61C 10 62.657 11.343 64 13 64L 16 64L 16 82L 53.5 82L 143.5 10Z"></path></g></g></g><g id="g-root-3.Vector_sy_4j6fn71brw7wo-stroke" data-item-order="999893294" data-item-id="3.Vector_sy_4j6fn71brw7wo" data-item-class="Part Indexed Fill Stroke" data-item-index="3" data-renderer-id="0" transform="translate(404, 182)"><g id="3.Vector_sy_4j6fn71brw7wo-stroke" fill="none" stroke-linecap="round" stroke-linejoin="round" stroke-miterlimit="4" stroke="#17b0e3" stroke-width="2"><g><path d="M 143.5 10L 106 10L 73 10C 71.343 10 70 11.343 70 13C 70 14.657 71.343 16 73 16L 76 16L 76 34L 43 34C 41.343 34 40 35.343 40 37C 40 38.657 41.343 40 43 40L 46 40L 46 58L 13 58C 11.343 58 10 59.343 10 61C 10 62.657 11.343 64 13 64L 16 64L 16 82L 53.5 82L 143.5 10Z"></path></g></g></g><g id="g-root-4.Vector_sy_3cxir1brw8ox-stroke" data-item-order="999893298" data-item-id="4.Vector_sy_3cxir1brw8ox" data-item-class="Part Indexed Fill Stroke" data-item-index="4" data-renderer-id="0" transform="translate(494, 110)"><g id="4.Vector_sy_3cxir1brw8ox-stroke" fill="none" stroke-linecap="round" stroke-linejoin="round" stroke-miterlimit="4" stroke="#3bc482" stroke-width="2"><g><path d="M 46 58L 13 58C 11.343 58 10 59.343 10 61C 10 62.657 11.343 64 13 64L 16 64L 16 82L 53.5 82L 106 40L 106 10L 73 10C 71.343 10 70 11.343 70 13C 70 14.657 71.343 16 73 16L 76 16L 76 34L 43 34C 41.343 34 40 35.343 40 37C 40 38.657 41.343 40 43 40L 46 40L 46 58Z"></path></g></g></g><g id="g-root--1.bt-cc-remove-start_sy_qv9u431brus5p-stroke" data-item-order="999893328" data-item-id="-1.bt-cc-remove-start_sy_qv9u431brus5p" data-item-class="Part Fill" data-item-index="-1" data-renderer-id="0" transform="translate(188, 350)"></g><g id="g-root-tx_atteindr_mfgbzn1brusxy-stroke" data-item-order="1000000000" data-item-id="tx_atteindr_mfgbzn1brusxy" data-item-class="Label Stroke Title" data-item-index="none" data-renderer-id="0" transform="translate(2, 2)"></g><g id="g-root-tx_atteindr_1hhkdrn1brus5l-stroke" data-item-order="1000000000" data-item-id="tx_atteindr_1hhkdrn1brus5l" data-item-class="Label Stroke Indexed" data-item-index="4" data-renderer-id="0" transform="translate(296, 50)"></g><g id="g-root-10_mg2t2r1brjlzj-stroke" data-item-order="1000000000" data-item-id="10_mg2t2r1brjlzj" data-item-class="Icon Stroke Indexed" data-item-index="4" data-renderer-id="0" transform="translate(512, 50)"><g id="10_mg2t2r1brjlzj-stroke" fill="none" stroke-linecap="round" stroke-linejoin="round" stroke-miterlimit="4" stroke="#3bc482" stroke-width="2"><g><path d="M 30 31.528L 30 22.528C 30 22.149227 29.785997 21.802965 29.447214 21.633572C 29.108429 21.46418 28.703018 21.500736 28.4 21.728001L 26 23.528M 28 31.528L 32 31.528M 41 28.528C 41 30.184855 39.656853 31.528 38 31.528C 36.343147 31.528 35 30.184855 35 28.528L 35 24.528C 35 22.871147 36.343147 21.528 38 21.528C 39.656853 21.528 41 22.871147 41 24.528ZM 49.922001 39.799999L 55.678001 49.768002C 56.226002 50.720001 55.790001 51.349998 54.706001 51.167999L 48.976002 50.200001L 47 55.646C 46.624001 56.68 45.855999 56.751999 45.296001 55.804001L 39.795998 46.52M 18.077999 39.799999L 12.322001 49.757999C 11.774 50.709999 12.21 51.34 13.294 51.158001L 19.024 50.189999L 21.012001 55.647999C 21.388 56.681999 22.156 56.751999 22.716 55.806L 28.209999 46.532001M 49.678001 27.528C 49.677795 25.246729 48.286053 23.196365 46.166 22.354C 47.067688 20.259699 46.601345 17.827288 44.989029 16.21497C 43.376713 14.602654 40.944302 14.136312 38.849998 15.038C 38.007233 12.918447 35.956955 11.527267 33.676003 11.527267C 31.395042 11.527267 29.344769 12.918447 28.502001 15.038C 26.4077 14.136312 23.975288 14.602654 22.36297 16.21497C 20.750652 17.827288 20.284313 20.259699 21.186001 22.354C 19.066067 23.195894 17.674368 25.246014 17.674368 27.526999C 17.674368 29.807985 19.066067 31.858105 21.186001 32.699997C 20.284313 34.7943 20.750652 37.226711 22.36297 38.839027C 23.975288 40.451347 26.4077 40.917686 28.502001 40.015999C 29.344769 42.135555 31.395042 43.526733 33.676003 43.526733C 35.956955 43.526733 38.007233 42.135555 38.849998 40.015999C 40.944302 40.917686 43.376713 40.451347 44.989029 38.839027C 46.601345 37.226711 47.067688 34.7943 46.166 32.700001C 48.286102 31.85881 49.678085 29.808884 49.678001 27.528Z"></path></g></g></g><g id="g-root-tx_applique_1463veb1brutqi-stroke" data-item-order="1000000000" data-item-id="tx_applique_1463veb1brutqi" data-item-class="Label Stroke Indexed" data-item-index="3" data-renderer-id="0" transform="translate(206, 122)"></g><g id="g-root-nati_de71yr1brp5vm-stroke" data-item-order="1000000000" data-item-id="nati_de71yr1brp5vm" data-item-class="Icon Stroke Indexed" data-item-index="3" data-renderer-id="0" transform="translate(422, 122)"><g id="nati_de71yr1brp5vm-stroke" fill="none" stroke-linecap="round" stroke-linejoin="round" stroke-miterlimit="4" stroke="#17b0e3" stroke-width="2"><g><path d="M 23 11L 45 11C 45 11 57 11 57 23L 57 45C 57 45 57 57 45 57L 23 57C 23 57 11 57 11 45L 11 23C 11 23 11 11 23 11M 26 19L 42 38L 42 19L 45 19C 47.209141 19 49 20.790861 49 23L 49 31C 49 32.656853 50.343147 34 52 34C 50.343147 34 49 35.343147 49 37L 49 45C 49 47.209141 47.209141 49 45 49L 42 49L 26 30L 26 49L 23 49C 20.790861 49 19 47.209141 19 45L 19 37C 19 35.343147 17.656855 34 16 34C 17.656855 34 19 32.656853 19 31L 19 23C 19 20.790861 20.790861 19 23 19Z"></path></g></g></g><g id="g-root-tx_comprend_zqad9v1bruuir-stroke" data-item-order="1000000000" data-item-id="tx_comprend_zqad9v1bruuir" data-item-class="Label Stroke Indexed" data-item-index="2" data-renderer-id="0" transform="translate(104, 194)"></g><g id="g-root-book_18it0371brs0zk-stroke" data-item-order="1000000000" data-item-id="book_18it0371brs0zk" data-item-class="Icon Stroke Indexed" data-item-index="2" data-renderer-id="0" transform="translate(332, 194)"><g id="book_18it0371brs0zk-stroke" fill="none" stroke-linecap="round" stroke-linejoin="round" stroke-miterlimit="4" stroke="#4682e3" stroke-width="2"><g><path d="M 38.669998 14.889999L 38.669998 38.77C 38.669998 38.77 42.091999 35.028 53.633999 34.879997C 54.024101 34.875618 54.338028 34.558125 54.338001 34.167999L 54.338001 11.712C 54.337479 11.521588 54.260921 11.339272 54.125343 11.205572C 53.989765 11.071873 53.8064 10.997866 53.616001 11C 51.472683 11.022204 49.333775 11.199332 47.216 11.53C 44.144642 11.967229 41.218445 13.117981 38.672001 14.889999M 38.669998 14.889999L 38.669998 38.77C 38.669998 38.77 35.246002 35.028 23.704 34.879997C 23.313902 34.875618 22.999977 34.558125 23 34.167999L 23 11.712C 23.000523 11.521588 23.07708 11.339272 23.212656 11.205572C 23.348234 11.071873 23.531599 10.997866 23.722 11C 25.865322 11.022114 28.004238 11.199243 30.122 11.53C 33.194038 11.966999 36.120937 13.117758 38.667999 14.89M 13.662 55L 25.397999 56.894001C 27.840635 57.233692 30.32616 56.732212 32.445999 55.472L 44.731998 48.167999C 45.559669 47.678009 46.158455 46.878933 46.396324 45.946972C 46.63419 45.015015 46.491604 44.026714 46 43.200001L 46 43.200001C 44.978401 41.481113 42.756676 40.916054 41.037998 41.937996L 31.438 47.644001M 13.662 45.580002L 18.646 42.618C 20.490156 41.519958 22.618637 40.993755 24.762001 41.106003L 29.724001 41.363998C 30.648096 41.368271 31.530199 41.750488 32.165257 42.421814C 32.800316 43.09314 33.133007 43.99509 33.085999 44.917999L 33.085999 44.917999C 32.999668 46.621685 31.65736 47.994015 29.956001 48.118004L 23.619999 48.084"></path></g></g></g><g id="g-root-tx_reconnat_zqad9v1bruuis-stroke" data-item-order="1000000000" data-item-id="tx_reconnat_zqad9v1bruuis" data-item-class="Label Stroke Indexed Indexed_1" data-item-index="1" data-renderer-id="0" transform="translate(50, 266)"></g><g id="g-root-puzz_1hhkdrn1brus5k-stroke" data-item-order="1000000000" data-item-id="puzz_1hhkdrn1brus5k" data-item-class="Icon Stroke Indexed Indexed_1 ColorFillGray ColorStrokeGray" data-item-index="1" data-renderer-id="0" transform="translate(242, 266)"><g id="puzz_1hhkdrn1brus5k-stroke" fill="none" stroke-linecap="round" stroke-linejoin="round" stroke-miterlimit="4" stroke="#888888" stroke-width="2"><g><path d="M 17 57L 12.98 52C 11.693836 50.408497 10.9884 48.426224 10.98 46.380001L 10.98 36C 10.979982 35.200874 11.298797 34.434765 11.865739 33.871578C 12.432681 33.308388 13.200891 32.994675 14 33L 14 33C 15.656855 33 17 34.343147 17 36L 17 43.740002M 26 57L 26 50.720001C 26.003548 48.945229 25.47401 47.210293 24.48 45.739998L 22.200001 42.299999C 21.800718 41.636154 21.145927 41.165794 20.389343 40.999344C 19.632763 40.832893 18.841024 40.98502 18.200001 41.419998L 18.200001 41.419998C 17.030144 42.206562 16.62746 43.740185 17.26 45L 20 49.5M 51 57L 55 51.959999C 56.286163 50.3685 56.9916 48.386223 57 46.34L 57 36C 57 34.343147 55.656857 33 54 33L 54 33C 52.343147 33 51 34.343147 51 36L 51 43.740002M 42 57L 42 50.720001C 41.996452 48.945229 42.52599 47.210293 43.52 45.739998L 45.799999 42.299999C 46.199284 41.636154 46.854073 41.165794 47.610657 40.999344C 48.367237 40.832893 49.158974 40.98502 49.799999 41.419998L 49.799999 41.419998C 50.969856 42.206562 51.37254 43.740185 50.740002 45L 48 49.5M 37.099998 32.799999C 35.536415 31.237141 35.536118 28.702564 37.099342 27.139341C 38.662567 25.576118 41.19714 25.576414 42.759998 27.139999C 43.145176 27.530823 43.450829 27.992699 43.659996 28.499998C 43.770195 28.82168 44.045528 29.058769 44.380001 29.119999C 44.710808 29.191315 45.05545 29.093916 45.299999 28.860001L 48.419998 25.720001C 49.195446 24.939926 49.195446 23.680075 48.419998 22.9L 45.200001 19.700001C 47.074497 19.197004 48.317451 17.420975 48.148067 15.487568C 47.97868 13.554163 46.445839 12.021319 44.512432 11.851933C 42.579025 11.682549 40.802994 12.925502 40.299999 14.8L 37.099998 11.58C 36.319923 10.804553 35.060074 10.804553 34.279999 11.58L 31.379999 14.48C 31.166838 14.69754 31.05755 14.99626 31.079998 15.299999C 31.115868 15.592258 31.276283 15.854759 31.52 16.02C 31.746761 16.176117 31.960768 16.349998 32.16 16.540001C 33.722343 18.103073 33.722054 20.636633 32.15934 22.199341C 30.596634 23.762051 28.063072 23.762344 26.5 22.200001C 26.316902 22.000027 26.149727 21.786041 26 21.559999C 25.836662 21.30575 25.565163 21.141075 25.264208 21.113714C 24.963253 21.086355 24.666508 21.199371 24.459999 21.42L 21.540001 24.32C 20.764553 25.100075 20.764553 26.359924 21.540001 27.139999L 32.860001 38.459999C 33.640076 39.235447 34.899925 39.235447 35.68 38.459999L 38.799999 35.34C 39.039536 35.101784 39.142601 34.758736 39.074024 34.427948C 39.005447 34.09716 38.774494 33.823357 38.459999 33.700001C 37.949673 33.496578 37.486717 33.190208 37.099998 32.799999Z"></path></g></g></g></g></g></svg>