<?xml version="1.0" encoding="utf-8" standalone="yes"?>
<!DOCTYPE svg PUBLIC "-//W3C//DTD SVG 1.1//EN" "http://www.w3.org/Graphics/SVG/1.1/DTD/svg11.dtd">
<svg width="960" height="349" viewBox="0 0 960 349" style="fill:none;stroke:none;fill-rule:evenodd;clip-rule:evenodd;stroke-linecap:round;stroke-linejoin:round;stroke-miterlimit:1.5;" version="1.1" xmlns="http://www.w3.org/2000/svg" xmlns:xlink="http://www.w3.org/1999/xlink"><style id="fontImports">@import url("https://fonts.googleapis.com/css2?family=Roboto:wght@400;700&amp;display=block");</style><rect id="" x="0" y="0" width="960" height="349" style="fill: #ffffff;"></rect><g id="items" style="isolation: isolate"><g id="blend" style="mix-blend-mode:normal"><g id="g-root-ro_1q5pltf19tw8p9-fill" data-item-order="999966736" data-item-id="ro_1q5pltf19tw8p9" data-item-class="Shape Stroke Fill" data-item-index="none" data-renderer-id="0" transform="translate(350, 66)"><g id="ro_1q5pltf19tw8p9-fill" stroke="none" fill="#f0f0f0"><g><path d="M 34 10L 154 10C 154 10 178 10 178 34L 178 184C 178 184 178 208 154 208L 34 208C 34 208 10 208 10 184L 10 34C 10 34 10 10 34 10"></path></g></g></g><g id="g-root-ro_144ux8319tgsuh-fill" data-item-order="999980560" data-item-id="ro_144ux8319tgsuh" data-item-class="Shape Stroke Fill" data-item-index="none" data-renderer-id="0" transform="translate(566, 177)"><g id="ro_144ux8319tgsuh-fill" stroke="none" fill="#e9fbf3"><g><path d="M 22 10L 358 10C 358 10 370 10 370 22L 370 52C 370 52 370 64 358 64L 22 64C 22 64 10 64 10 52L 10 22C 10 22 10 10 22 10"></path></g></g></g><g id="g-root-ro_1ulj73n19tnsaz-fill" data-item-order="999984448" data-item-id="ro_1ulj73n19tnsaz" data-item-class="Shape Stroke Fill" data-item-index="none" data-renderer-id="0" transform="translate(14, 201)"><g id="ro_1ulj73n19tnsaz-fill" stroke="none" fill="#fffce6"><g><path d="M 22 10L 286 10C 286 10 298 10 298 22L 298 52C 298 52 298 64 286 64L 22 64C 22 64 10 64 10 52L 10 22C 10 22 10 10 22 10"></path></g></g></g><g id="g-root-ro_1utnd8319tl1cd-fill" data-item-order="999985744" data-item-id="ro_1utnd8319tl1cd" data-item-class="Shape Stroke Fill" data-item-index="none" data-renderer-id="0" transform="translate(38, 3)"><g id="ro_1utnd8319tl1cd-fill" stroke="none" fill="#ffe7e6"><g><path d="M 22 10L 262 10C 262 10 274 10 274 22L 274 52C 274 52 274 64 262 64L 22 64C 22 64 10 64 10 52L 10 22C 10 22 10 10 22 10"></path></g></g></g><g id="g-root-ro_1qa30kz19tdzwm-fill" data-item-order="999987688" data-item-id="ro_1qa30kz19tdzwm" data-item-class="Shape Stroke Fill" data-item-index="none" data-renderer-id="0" transform="translate(566, 3)"><g id="ro_1qa30kz19tdzwm-fill" stroke="none" fill="#e6efff"><g><path d="M 22 10L 226 10C 226 10 238 10 238 22L 238 52C 238 52 238 64 226 64L 22 64C 22 64 10 64 10 52L 10 22C 10 22 10 10 22 10"></path></g></g></g><g id="g-root-cu_1q5poz719tnt3b-fill" data-item-order="1000000000" data-item-id="cu_1q5poz719tnt3b" data-item-class="Curve Stroke ColorStrokeGray" data-item-index="none" data-renderer-id="0" transform="translate(518, 30)"></g><g id="g-root-tx_typagedi_4kfgz719tdyis-fill" data-item-order="1000000000" data-item-id="tx_typagedi_4kfgz719tdyis" data-item-class="Label Stroke" data-item-index="none" data-renderer-id="0" transform="translate(614, 18)"><g id="tx_typagedi_4kfgz719tdyis-fill" stroke="none" fill="#4682e3"><g><text style="font: 20px Roboto, sans-serif; white-space: pre;" font-size="20px" font-family="Roboto, sans-serif"><tspan x="12.03" y="33.75" dominant-baseline="ideographic">Typage Discriminé</tspan></text></g></g></g><g id="g-root-tx_dtection_8zagj19ti6tk-fill" data-item-order="1000000000" data-item-id="tx_dtection_8zagj19ti6tk" data-item-class="Label Stroke" data-item-index="none" data-renderer-id="0" transform="translate(14, 69)"><g id="tx_dtection_8zagj19ti6tk-fill" stroke="none" fill="#484848"><g><text style="font: 20px Roboto, sans-serif; white-space: pre;" font-size="20px" font-family="Roboto, sans-serif"><tspan x="13.94" y="33.75" dominant-baseline="ideographic">Détection des Erreurs à la </tspan><tspan x="73.72" y="57.75" dominant-baseline="ideographic">Compilation</tspan></text></g></g></g><g id="g-root-cu_1lpw6ur19tntvs-fill" data-item-order="1000000000" data-item-id="cu_1lpw6ur19tntvs" data-item-class="Curve Stroke ColorStrokeGray" data-item-index="none" data-renderer-id="0" transform="translate(260, 57)"></g><g id="g-root-cu_1ha2oqb19tnuo3-fill" data-item-order="1000000000" data-item-id="cu_1ha2oqb19tnuo3" data-item-class="Curve Stroke ColorStrokeGray" data-item-index="none" data-renderer-id="0" transform="translate(260, 57)"></g><g id="g-root-cu_1q5poz719tnt38-fill" data-item-order="1000000000" data-item-id="cu_1q5poz719tnt38" data-item-class="Curve Stroke ColorStrokeGray" data-item-index="none" data-renderer-id="0" transform="translate(302, 30)"></g><g id="g-root-cu_1ha2oqb19tnuo5-fill" data-item-order="1000000000" data-item-id="cu_1ha2oqb19tnuo5" data-item-class="Curve Stroke ColorStrokeGray" data-item-index="none" data-renderer-id="0" transform="translate(590, 57)"></g><g id="g-root-cu_1cuvnoz19tnsao-fill" data-item-order="1000000000" data-item-id="cu_1cuvnoz19tnsao" data-item-class="Curve Stroke ColorStrokeGray" data-item-index="none" data-renderer-id="0" transform="translate(590, 57)"></g><g id="g-root-tx_differen_1lymu2b19ti87e-fill" data-item-order="1000000000" data-item-id="tx_differen_1lymu2b19ti87e" data-item-class="Label Stroke" data-item-index="none" data-renderer-id="0" transform="translate(614, 69)"><g id="tx_differen_1lymu2b19ti87e-fill" stroke="none" fill="#484848"><g><text style="font: 20px Roboto, sans-serif; white-space: pre;" font-size="20px" font-family="Roboto, sans-serif"><tspan x="14.91" y="33.75" dominant-baseline="ideographic">Differenciation des États</tspan></text></g></g></g><g id="g-root-type_8k3719tw83o-fill" data-item-order="1000000000" data-item-id="type_8k3719tw83o" data-item-class="Icon Stroke" data-item-index="none" data-renderer-id="0" transform="translate(410, 90)"></g><g id="g-root-tx_amliorat_1lymu2b19ti87f-fill" data-item-order="1000000000" data-item-id="tx_amliorat_1lymu2b19ti87f" data-item-class="Label Stroke" data-item-index="none" data-renderer-id="0" transform="translate(614, 105)"><g id="tx_amliorat_1lymu2b19ti87f-fill" stroke="none" fill="#484848"><g><text style="font: 20px Roboto, sans-serif; white-space: pre;" font-size="20px" font-family="Roboto, sans-serif"><tspan x="13.87" y="33.75" dominant-baseline="ideographic">Amélioration de la Sécurité des </tspan><tspan x="125.3" y="57.75" dominant-baseline="ideographic">Types</tspan></text></g></g></g><g id="g-root-tx_rduction_1uu9ub719ti7ep-fill" data-item-order="1000000000" data-item-id="tx_rduction_1uu9ub719ti7ep" data-item-class="Label Stroke" data-item-index="none" data-renderer-id="0" transform="translate(26, 129)"><g id="tx_rduction_1uu9ub719ti7ep-fill" stroke="none" fill="#484848"><g><text style="font: 20px Roboto, sans-serif; white-space: pre;" font-size="20px" font-family="Roboto, sans-serif"><tspan x="16.09" y="33.75" dominant-baseline="ideographic">Réduction des Erreurs à </tspan><tspan x="73.84" y="57.75" dominant-baseline="ideographic">l'Exécution</tspan></text></g></g></g><g id="g-root-tx_importan_4pf6ib19tuvwr-fill" data-item-order="1000000000" data-item-id="tx_importan_4pf6ib19tuvwr" data-item-class="Label Stroke" data-item-index="none" data-renderer-id="0" transform="translate(374, 144)"><g id="tx_importan_4pf6ib19tuvwr-fill" stroke="none" fill="#484848"><g><text style="font: 20px Roboto, sans-serif; white-space: pre;" font-size="20px" font-family="Roboto, sans-serif"><tspan x="16.34" y="33.74" dominant-baseline="ideographic">Importance </tspan><tspan x="21.77" y="57.75" dominant-baseline="ideographic">du Typage </tspan><tspan x="36.2" y="81.75" dominant-baseline="ideographic">Fort en </tspan><tspan x="20.4" y="105.76" dominant-baseline="ideographic">TypeScript</tspan></text></g></g></g><g id="g-root-type_1upwipf19tdz4d-fill" data-item-order="1000000000" data-item-id="type_1upwipf19tdz4d" data-item-class="Icon Stroke" data-item-index="none" data-renderer-id="0" transform="translate(578, 15)"></g><g id="g-root-500_4o6bhv19tl0qs-fill" data-item-order="1000000000" data-item-id="500_4o6bhv19tl0qs" data-item-class="Icon Stroke" data-item-index="none" data-renderer-id="0" transform="translate(260, 15)"></g><g id="g-root-cu_1lpw6ur19tntvp-fill" data-item-order="1000000000" data-item-id="cu_1lpw6ur19tntvp" data-item-class="Curve Stroke ColorStrokeGray" data-item-index="none" data-renderer-id="0" transform="translate(302, 198)"></g><g id="g-root-cu_1lpw6ur19tntvm-fill" data-item-order="1000000000" data-item-id="cu_1lpw6ur19tntvm" data-item-class="Curve Stroke ColorStrokeGray" data-item-index="none" data-renderer-id="0" transform="translate(518, 198)"></g><g id="g-root-pin_1d0hxgz19tgs1s-fill" data-item-order="1000000000" data-item-id="pin_1d0hxgz19tgs1s" data-item-class="Icon Stroke" data-item-index="none" data-renderer-id="0" transform="translate(578, 189)"></g><g id="g-root-tx_patterns_1lvigmr19tgtn3-fill" data-item-order="1000000000" data-item-id="tx_patterns_1lvigmr19tgtn3" data-item-class="Label Stroke" data-item-index="none" data-renderer-id="0" transform="translate(614, 192)"><g id="tx_patterns_1lvigmr19tgtn3-fill" stroke="none" fill="#3bc482"><g><text style="font: 20px Roboto, sans-serif; white-space: pre;" font-size="20px" font-family="Roboto, sans-serif"><tspan x="16.43" y="33.75" dominant-baseline="ideographic">Patterns Fonctionnels Type-Safe</tspan></text></g></g></g><g id="g-root-tx_document_958rsj19tmfih-fill" data-item-order="1000000000" data-item-id="tx_document_958rsj19tmfih" data-item-class="Label Stroke" data-item-index="none" data-renderer-id="0" transform="translate(26, 216)"><g id="tx_document_958rsj19tmfih-fill" stroke="none" fill="#e3cd09"><g><text style="font: 20px Roboto, sans-serif; white-space: pre;" font-size="20px" font-family="Roboto, sans-serif"><tspan x="16.54" y="33.75" dominant-baseline="ideographic">Documentation du Code</tspan></text></g></g></g><g id="g-root-1_4pf9o319tmgaq-fill" data-item-order="1000000000" data-item-id="1_4pf9o319tmgaq" data-item-class="Icon Stroke" data-item-index="none" data-renderer-id="0" transform="translate(260, 213)"></g><g id="g-root-cu_1cuvnoz19tnsaq-fill" data-item-order="1000000000" data-item-id="cu_1cuvnoz19tnsaq" data-item-class="Curve Stroke ColorStrokeGray" data-item-index="none" data-renderer-id="0" transform="translate(590, 231)"></g><g id="g-root-cu_13z8ng319tnt3h-fill" data-item-order="1000000000" data-item-id="cu_13z8ng319tnt3h" data-item-class="Curve Stroke ColorStrokeGray" data-item-index="none" data-renderer-id="0" transform="translate(590, 231)"></g><g id="g-root-cu_13z8ng319tnt3j-fill" data-item-order="1000000000" data-item-id="cu_13z8ng319tnt3j" data-item-class="Curve Stroke ColorStrokeGray" data-item-index="none" data-renderer-id="0" transform="translate(260, 255)"></g><g id="g-root-tx_appelsde_1hitbxv19ti8zo-fill" data-item-order="1000000000" data-item-id="tx_appelsde_1hitbxv19ti8zo" data-item-class="Label Stroke" data-item-index="none" data-renderer-id="0" transform="translate(614, 243)"><g id="tx_appelsde_1hitbxv19ti8zo-fill" stroke="none" fill="#484848"><g><text style="font: 20px Roboto, sans-serif; white-space: pre;" font-size="20px" font-family="Roboto, sans-serif"><tspan x="16.23" y="33.75" dominant-baseline="ideographic">Appels de Fonction Sûrs</tspan></text></g></g></g><g id="g-root-tx_mieuxcom_147zann19ti7eu-fill" data-item-order="1000000000" data-item-id="tx_mieuxcom_147zann19ti7eu" data-item-class="Label Stroke" data-item-index="none" data-renderer-id="0" transform="translate(2, 267)"><g id="tx_mieuxcom_147zann19ti7eu-fill" stroke="none" fill="#484848"><g><text style="font: 20px Roboto, sans-serif; white-space: pre;" font-size="20px" font-family="Roboto, sans-serif"><tspan x="15.85" y="33.75" dominant-baseline="ideographic">Mieux Comprendre le Code</tspan></text></g></g></g><g id="g-root-tx_prventio_18nsss319ti6ml-fill" data-item-order="1000000000" data-item-id="tx_prventio_18nsss319ti6ml" data-item-class="Label Stroke" data-item-index="none" data-renderer-id="0" transform="translate(614, 279)"><g id="tx_prventio_18nsss319ti6ml-fill" stroke="none" fill="#484848"><g><text style="font: 20px Roboto, sans-serif; white-space: pre;" font-size="20px" font-family="Roboto, sans-serif"><tspan x="17.7" y="33.75" dominant-baseline="ideographic">Prévention des Incompatibilités de </tspan><tspan x="144.38" y="57.75" dominant-baseline="ideographic">Types</tspan></text></g></g></g><g id="g-root-tx_maintena_vccaer19ti87j-fill" data-item-order="1000000000" data-item-id="tx_maintena_vccaer19ti87j" data-item-class="Label Stroke" data-item-index="none" data-renderer-id="0" transform="translate(26, 303)"><g id="tx_maintena_vccaer19ti87j-fill" stroke="none" fill="#484848"><g><text style="font: 20px Roboto, sans-serif; white-space: pre;" font-size="20px" font-family="Roboto, sans-serif"><tspan x="15.77" y="33.75" dominant-baseline="ideographic">Maintenance Plus Facile</tspan></text></g></g></g><g id="g-root-tx_dtection_93ztmb19tkzyj-fill" data-item-order="1000000000" data-item-id="tx_dtection_93ztmb19tkzyj" data-item-class="Label Stroke" data-item-index="none" data-renderer-id="0" transform="translate(50, 18)"><g id="tx_dtection_93ztmb19tkzyj-fill" stroke="none" fill="#e15e5a"><g><text style="font: 20px Roboto, sans-serif; white-space: pre;" font-size="20px" font-family="Roboto, sans-serif"><tspan x="16.68" y="33.75" dominant-baseline="ideographic">Détection des Erreurs</tspan></text></g></g></g><g id="g-root-cu_18f25kj19tnt36-fill" data-item-order="1000000000" data-item-id="cu_18f25kj19tnt36" data-item-class="Curve Stroke ColorStrokeGray" data-item-index="none" data-renderer-id="0" transform="translate(260, 255)"></g><g id="g-root-ro_1q5pltf19tw8p9-stroke" data-item-order="999966736" data-item-id="ro_1q5pltf19tw8p9" data-item-class="Shape Stroke Fill" data-item-index="none" data-renderer-id="0" transform="translate(350, 66)"><g id="ro_1q5pltf19tw8p9-stroke" fill="none" stroke-linecap="round" stroke-linejoin="round" stroke-miterlimit="4" stroke="#484848" stroke-width="2"><g><path d="M 34 10L 154 10C 154 10 178 10 178 34L 178 184C 178 184 178 208 154 208L 34 208C 34 208 10 208 10 184L 10 34C 10 34 10 10 34 10"></path></g></g></g><g id="g-root-ro_144ux8319tgsuh-stroke" data-item-order="999980560" data-item-id="ro_144ux8319tgsuh" data-item-class="Shape Stroke Fill" data-item-index="none" data-renderer-id="0" transform="translate(566, 177)"><g id="ro_144ux8319tgsuh-stroke" fill="none" stroke-linecap="round" stroke-linejoin="round" stroke-miterlimit="4" stroke="#3bc482" stroke-width="2"><g><path d="M 22 10L 358 10C 358 10 370 10 370 22L 370 52C 370 52 370 64 358 64L 22 64C 22 64 10 64 10 52L 10 22C 10 22 10 10 22 10"></path></g></g></g><g id="g-root-ro_1ulj73n19tnsaz-stroke" data-item-order="999984448" data-item-id="ro_1ulj73n19tnsaz" data-item-class="Shape Stroke Fill" data-item-index="none" data-renderer-id="0" transform="translate(14, 201)"><g id="ro_1ulj73n19tnsaz-stroke" fill="none" stroke-linecap="round" stroke-linejoin="round" stroke-miterlimit="4" stroke="#e3cd09" stroke-width="2"><g><path d="M 22 10L 286 10C 286 10 298 10 298 22L 298 52C 298 52 298 64 286 64L 22 64C 22 64 10 64 10 52L 10 22C 10 22 10 10 22 10"></path></g></g></g><g id="g-root-ro_1utnd8319tl1cd-stroke" data-item-order="999985744" data-item-id="ro_1utnd8319tl1cd" data-item-class="Shape Stroke Fill" data-item-index="none" data-renderer-id="0" transform="translate(38, 3)"><g id="ro_1utnd8319tl1cd-stroke" fill="none" stroke-linecap="round" stroke-linejoin="round" stroke-miterlimit="4" stroke="#e15e5a" stroke-width="2"><g><path d="M 22 10L 262 10C 262 10 274 10 274 22L 274 52C 274 52 274 64 262 64L 22 64C 22 64 10 64 10 52L 10 22C 10 22 10 10 22 10"></path></g></g></g><g id="g-root-ro_1qa30kz19tdzwm-stroke" data-item-order="999987688" data-item-id="ro_1qa30kz19tdzwm" data-item-class="Shape Stroke Fill" data-item-index="none" data-renderer-id="0" transform="translate(566, 3)"><g id="ro_1qa30kz19tdzwm-stroke" fill="none" stroke-linecap="round" stroke-linejoin="round" stroke-miterlimit="4" stroke="#4682e3" stroke-width="2"><g><path d="M 22 10L 226 10C 226 10 238 10 238 22L 238 52C 238 52 238 64 226 64L 22 64C 22 64 10 64 10 52L 10 22C 10 22 10 10 22 10"></path></g></g></g><g id="g-root-cu_1q5poz719tnt3b-stroke" data-item-order="1000000000" data-item-id="cu_1q5poz719tnt3b" data-item-class="Curve Stroke ColorStrokeGray" data-item-index="none" data-renderer-id="0" transform="translate(518, 30)"><g id="cu_1q5poz719tnt3b-stroke" fill="none" stroke-linecap="round" stroke-linejoin="round" stroke-miterlimit="4" stroke="#888888" stroke-width="2" stroke-dasharray="5.0, 7.0"><g><path d="M 10 112L 13 112L 13.1 112C 24.642747 112.000004 33.999997 102.642755 33.999997 91.100004L 34 91L 34 30.9C 33.999999 19.357249 43.357248 10.000001 54.899999 10.000002L 55 10L 58 10"></path></g></g></g><g id="g-root-tx_typagedi_4kfgz719tdyis-stroke" data-item-order="1000000000" data-item-id="tx_typagedi_4kfgz719tdyis" data-item-class="Label Stroke" data-item-index="none" data-renderer-id="0" transform="translate(614, 18)"></g><g id="g-root-tx_dtection_8zagj19ti6tk-stroke" data-item-order="1000000000" data-item-id="tx_dtection_8zagj19ti6tk" data-item-class="Label Stroke" data-item-index="none" data-renderer-id="0" transform="translate(14, 69)"></g><g id="g-root-cu_1lpw6ur19tntvs-stroke" data-item-order="1000000000" data-item-id="cu_1lpw6ur19tntvs" data-item-class="Curve Stroke ColorStrokeGray" data-item-index="none" data-renderer-id="0" transform="translate(260, 57)"><g id="cu_1lpw6ur19tntvs-stroke" fill="none" stroke-linecap="round" stroke-linejoin="round" stroke-miterlimit="4" stroke="#888888" stroke-width="2" stroke-dasharray="5.0, 7.0"><g><path d="M 28 10L 28 28L 28 46L 19 46L 10 46"></path></g></g></g><g id="g-root-cu_1ha2oqb19tnuo3-stroke" data-item-order="1000000000" data-item-id="cu_1ha2oqb19tnuo3" data-item-class="Curve Stroke ColorStrokeGray" data-item-index="none" data-renderer-id="0" transform="translate(260, 57)"><g id="cu_1ha2oqb19tnuo3-stroke" fill="none" stroke-linecap="round" stroke-linejoin="round" stroke-miterlimit="4" stroke="#888888" stroke-width="2" stroke-dasharray="5.0, 7.0"><g><path d="M 28 10L 28 22L 28 94C 28.000002 100.627415 22.627419 105.999998 16.000002 105.999998L 15.9 106L 10 106"></path></g></g></g><g id="g-root-cu_1q5poz719tnt38-stroke" data-item-order="1000000000" data-item-id="cu_1q5poz719tnt38" data-item-class="Curve Stroke ColorStrokeGray" data-item-index="none" data-renderer-id="0" transform="translate(302, 30)"><g id="cu_1q5poz719tnt38-stroke" fill="none" stroke-linecap="round" stroke-linejoin="round" stroke-miterlimit="4" stroke="#888888" stroke-width="2" stroke-dasharray="5.0, 7.0"><g><path d="M 58 112L 55 112L 54.9 112C 43.357245 111.999995 33.999997 102.642746 33.999997 91.099996L 34 91L 34 30.9C 33.999998 19.357248 24.64275 10 13.1 10L 13 10L 10 10"></path></g></g></g><g id="g-root-cu_1ha2oqb19tnuo5-stroke" data-item-order="1000000000" data-item-id="cu_1ha2oqb19tnuo5" data-item-class="Curve Stroke ColorStrokeGray" data-item-index="none" data-renderer-id="0" transform="translate(590, 57)"><g id="cu_1ha2oqb19tnuo5-stroke" fill="none" stroke-linecap="round" stroke-linejoin="round" stroke-miterlimit="4" stroke="#888888" stroke-width="2" stroke-dasharray="5.0, 7.0"><g><path d="M 10 10L 10 22L 10 34L 19 34L 28 34"></path></g></g></g><g id="g-root-cu_1cuvnoz19tnsao-stroke" data-item-order="1000000000" data-item-id="cu_1cuvnoz19tnsao" data-item-class="Curve Stroke ColorStrokeGray" data-item-index="none" data-renderer-id="0" transform="translate(590, 57)"><g id="cu_1cuvnoz19tnsao-stroke" fill="none" stroke-linecap="round" stroke-linejoin="round" stroke-miterlimit="4" stroke="#888888" stroke-width="2" stroke-dasharray="5.0, 7.0"><g><path d="M 10 10L 10 19L 10 70C 10.000001 76.627416 15.372584 81.999998 22.000001 81.999998L 22.1 82L 28 82"></path></g></g></g><g id="g-root-tx_differen_1lymu2b19ti87e-stroke" data-item-order="1000000000" data-item-id="tx_differen_1lymu2b19ti87e" data-item-class="Label Stroke" data-item-index="none" data-renderer-id="0" transform="translate(614, 69)"></g><g id="g-root-type_8k3719tw83o-stroke" data-item-order="1000000000" data-item-id="type_8k3719tw83o" data-item-class="Icon Stroke" data-item-index="none" data-renderer-id="0" transform="translate(410, 90)"><g id="type_8k3719tw83o-stroke" fill="none" stroke-linecap="round" stroke-linejoin="round" stroke-miterlimit="4" stroke="#484848" stroke-width="2"><g><path d="M 26.690001 41.917999L 27.254 39.954002C 27.487066 39.139381 27.015621 38.290066 26.201 38.056999C 25.386381 37.823936 24.537066 38.29538 24.304001 39.110001L 23.743999 41.077999M 22.057999 46.978001L 23.743999 41.077999C 23.91781 40.286766 23.446413 39.496773 22.667542 39.27401C 21.888672 39.051247 21.070847 39.472519 20.799999 40.236L 19.959999 43.183998M 27.200001 57C 29.354 54.886002 31.6 52.360001 31.6 52.360001C 32.085701 51.9729 32.2052 51.283749 31.878183 50.755726C 31.551165 50.227699 30.880951 50.027637 30.317999 50.289997L 26.834 52.599998L 29.634001 42.771999C 29.867065 41.957382 29.395622 41.108067 28.581001 40.875C 27.766382 40.641937 26.917065 41.11338 26.684002 41.928001L 25 47.818001M 18.689999 47.599998L 19.952 43.175999C 20.184151 42.361862 19.712263 41.513702 18.898083 41.281708C 18.0839 41.049717 17.235832 41.521774 17.004 42.335999L 14.2 52.172001C 13.728152 53.807381 14.103254 55.570362 15.2 56.872002M 41.419998 41.917999L 40.858002 39.954002C 40.655586 39.15097 41.127098 38.332245 41.923256 38.104309C 42.719418 37.876373 43.552773 38.321518 43.806 39.110001L 44.366001 41.077999M 46.051998 46.978001L 44.366001 41.077999C 44.133488 40.262825 44.605827 39.413513 45.420998 39.181C 46.236172 38.948486 47.085487 39.42083 47.318001 40.236L 48.158001 43.183998M 40.902 57C 38.748001 54.886002 36.514 52.360001 36.514 52.360001C 36.03072 51.972549 35.912354 51.285488 36.238121 50.758659C 36.563889 50.231831 37.231445 50.03075 37.793999 50.289997L 41.278 52.599998L 38.478001 42.771999C 38.244938 41.957382 38.716385 41.108067 39.531002 40.875C 40.345623 40.641937 41.194939 41.11338 41.428001 41.928001L 43.112 47.827999M 49.419998 47.599998L 48.158001 43.175999C 47.947216 42.368973 48.419899 41.54142 49.222111 41.312992C 50.024319 41.084564 50.862041 41.53899 51.107998 42.335999L 53.908001 52.164001C 54.379848 53.799381 54.004745 55.562363 52.908001 56.863998M 23.056 11L 45.056 11C 46.160568 11 47.056 11.895431 47.056 13L 47.056 26L 47.056 26L 21.056 26L 21.056 26L 21.056 13C 21.056 11.895431 21.951431 11 23.056 11ZM 21.056 26L 18.562 32.648003C 18.446493 32.955143 18.489025 33.299412 18.675808 33.56921C 18.862591 33.839008 19.169855 34 19.498001 34L 48.612 34C 48.940144 34 49.24741 33.839008 49.434193 33.56921C 49.620975 33.299412 49.663506 32.955143 49.548 32.648003L 47.056 26M 32.556 30L 35.556 30"></path></g></g></g><g id="g-root-tx_amliorat_1lymu2b19ti87f-stroke" data-item-order="1000000000" data-item-id="tx_amliorat_1lymu2b19ti87f" data-item-class="Label Stroke" data-item-index="none" data-renderer-id="0" transform="translate(614, 105)"></g><g id="g-root-tx_rduction_1uu9ub719ti7ep-stroke" data-item-order="1000000000" data-item-id="tx_rduction_1uu9ub719ti7ep" data-item-class="Label Stroke" data-item-index="none" data-renderer-id="0" transform="translate(26, 129)"></g><g id="g-root-tx_importan_4pf6ib19tuvwr-stroke" data-item-order="1000000000" data-item-id="tx_importan_4pf6ib19tuvwr" data-item-class="Label Stroke" data-item-index="none" data-renderer-id="0" transform="translate(374, 144)"></g><g id="g-root-type_1upwipf19tdz4d-stroke" data-item-order="1000000000" data-item-id="type_1upwipf19tdz4d" data-item-class="Icon Stroke" data-item-index="none" data-renderer-id="0" transform="translate(578, 15)"><g id="type_1upwipf19tdz4d-stroke" fill="none" stroke-linecap="round" stroke-linejoin="round" stroke-miterlimit="4" stroke="#4682e3" stroke-width="2"><g><path d="M 20.43125 29.952499L 20.783751 28.723751C 20.929417 28.214615 20.634764 27.68379 20.125626 27.538126C 19.616488 27.392462 19.085667 27.687113 18.940001 28.196251L 18.59 29.4275M 17.536249 33.11375L 18.59 29.4275C 18.716297 29.08938 18.642267 28.708994 18.398382 28.442919C 18.154499 28.176842 17.781982 28.070047 17.434168 28.166492C 17.086355 28.262938 16.822031 28.546324 16.75 28.900002L 16.225 30.7425M 20.75 39.375C 22.096251 38.053749 23.5 36.474998 23.5 36.474998C 23.803562 36.233063 23.87825 35.802341 23.673864 35.472328C 23.469479 35.142311 23.050594 35.017273 22.69875 35.181248L 20.52125 36.625L 22.27125 30.481251C 22.369637 30.150507 22.2827 29.792408 22.043613 29.543594C 21.804527 29.294783 21.450178 29.193642 21.115778 29.27877C 20.781376 29.363895 20.518517 29.622154 20.4275 29.955L 19.375 33.638748M 15.43125 33.5075L 16.219999 30.7425C 16.364799 30.232956 16.069029 29.702528 15.559447 29.557869C 15.049866 29.413212 14.519517 29.709127 14.375 30.21875L 12.625 36.361252C 12.330325 37.383373 12.564741 38.48513 13.25 39.298752M 29.637501 29.952499L 29.286249 28.723751C 29.15974 28.221857 29.454435 27.710154 29.952036 27.567694C 30.449636 27.425232 30.970482 27.703449 31.12875 28.196251L 31.47875 29.4275M 32.532497 33.11375L 31.47875 29.4275C 31.353153 28.925264 31.648417 28.4139 32.146175 28.271587C 32.643932 28.129274 33.164879 28.407276 33.32375 28.900002L 33.848751 30.7425M 29.313751 39.375C 27.967499 38.053749 26.571251 36.474998 26.571251 36.474998C 26.269199 36.232841 26.195221 35.803429 26.398827 35.474163C 26.602432 35.144894 27.019655 35.019218 27.37125 35.181248L 29.54875 36.625L 27.79875 30.481251C 27.700363 30.150507 27.7873 29.792408 28.026386 29.543594C 28.265472 29.294783 28.619822 29.193642 28.954222 29.27877C 29.288624 29.363895 29.551483 29.622154 29.6425 29.955L 30.695 33.641251M 34.637497 33.5075L 33.848751 30.7425C 33.743664 30.409544 33.827888 30.045784 34.068619 29.792898C 34.309349 29.54001 34.668522 29.437983 35.006248 29.526546C 35.343971 29.615114 35.60685 29.880272 35.692497 30.21875L 37.442501 36.361252C 37.737175 37.383373 37.502762 38.48513 36.817505 39.298752M 18.16 10.6275L 31.91 10.6275C 31.91 10.6275 33.16 10.6275 33.16 11.8775L 33.16 21.877501C 33.16 21.877501 33.16 23.127501 31.91 23.127501L 18.16 23.127501C 18.16 23.127501 16.91 23.127501 16.91 21.877501L 16.91 11.8775C 16.91 11.8775 16.91 10.6275 18.16 10.6275M 25.035 23.127501L 25.035 25.627501M 16.91 20.627501L 33.16 20.627501M 21.91 25.627501L 28.16 25.627501"></path></g></g></g><g id="g-root-500_4o6bhv19tl0qs-stroke" data-item-order="1000000000" data-item-id="500_4o6bhv19tl0qs" data-item-class="Icon Stroke" data-item-index="none" data-renderer-id="0" transform="translate(260, 15)"><g id="500_4o6bhv19tl0qs-stroke" fill="none" stroke-linecap="round" stroke-linejoin="round" stroke-miterlimit="4" stroke="#e15e5a" stroke-width="2"><g><path d="M 13.12625 28.125L 13.12625 14.375C 13.12625 12.994288 14.245538 11.875 15.62625 11.875L 34.376251 11.875C 35.756962 11.875 36.876251 12.994288 36.876251 14.375L 36.876251 28.125M 13.12375 18.119999L 36.873749 18.119999M 21.251251 15.3075C 21.078661 15.3075 20.938751 15.167589 20.938751 14.995C 20.938751 14.822411 21.078661 14.6825 21.251251 14.6825M 21.251251 15.3075C 21.42384 15.3075 21.563751 15.167589 21.563751 14.995C 21.563751 14.822411 21.42384 14.6825 21.251251 14.6825M 17.501249 15.3075C 17.328661 15.3075 17.188749 15.167589 17.188749 14.995C 17.188749 14.822411 17.328661 14.6825 17.501249 14.6825M 17.501249 15.3075C 17.67384 15.3075 17.813749 15.167589 17.813749 14.995C 17.813749 14.822411 17.67384 14.6825 17.501249 14.6825M 24.997499 15.3075C 24.824911 15.3075 24.684999 15.167589 24.684999 14.995C 24.684999 14.822411 24.824911 14.6825 24.997499 14.6825M 24.997499 15.3075C 25.17009 15.3075 25.309999 15.167589 25.309999 14.995C 25.309999 14.822411 25.17009 14.6825 24.997499 14.6825M 20.362499 22.65625L 17.04125 22.65625L 16.709999 26.30625L 17.47625 25.92375C 17.844999 25.73875 18.251249 25.6425 18.66375 25.6425L 18.70125 25.6425C 19.80125 25.6425 20.692499 26.533751 20.692499 27.633751L 20.692499 28.630001C 20.692499 29.73 19.80125 30.62125 18.70125 30.62125C 17.83375 30.62125 16.983749 30.06625 16.709999 29.293751M 23.1625 24.647501L 23.1625 28.630001C 23.1625 29.729738 24.054014 30.621252 25.153751 30.621252C 26.253489 30.621252 27.145 29.729738 27.145 28.630001L 27.145 24.647501C 27.163122 23.924427 26.787724 23.248388 26.164368 22.881517C 25.541014 22.514648 24.767738 22.514648 24.144384 22.881517C 23.521029 23.248388 23.14563 23.924427 23.16375 24.647501ZM 29.615 24.647501L 29.615 28.630001C 29.615002 29.729738 30.506514 30.621252 31.606253 30.621252C 32.70599 30.621252 33.5975 29.729738 33.5975 28.630001L 33.5975 24.647501C 33.5975 23.547764 32.70599 22.656252 31.606253 22.656252C 30.506514 22.656252 29.615002 23.547764 29.615002 24.647501ZM 28.428749 35.071251L 28.428749 37.627499C 28.428638 38.333469 29.000908 38.905827 29.706875 38.905827C 30.412844 38.905827 30.985111 38.333469 30.985001 37.627502L 30.985001 35.071251C 30.963409 34.380917 30.397547 33.832478 29.706875 33.832478C 29.016205 33.832478 28.45034 34.380917 28.428749 35.071251ZM 16.790001 33.793751L 14.23375 33.793751L 14.23375 38.90625L 16.790001 38.90625M 14.23375 36.137501L 16.362499 36.137501M 19.11125 38.90625L 19.11125 36.775002M 19.11125 36.775002L 19.11125 33.7925L 20.17625 33.7925C 21 33.7925 21.6675 34.459999 21.6675 35.283749L 21.6675 35.283749C 21.6675 36.106251 21 36.77375 20.17625 36.77375L 19.11125 36.77375ZM 20.815001 36.775002L 21.879999 38.904999M 23.81875 38.90625L 23.81875 36.775002M 23.81875 36.775002L 23.81875 33.7925L 24.883749 33.7925C 25.7075 33.7925 26.375 34.459999 26.375 35.283749L 26.375 35.283749C 26.375 36.106251 25.7075 36.77375 24.883749 36.77375L 23.81875 36.77375ZM 25.522501 36.775002L 26.587502 38.904999M 33.306252 38.90625L 33.306252 36.775002M 33.306252 36.775002L 33.306252 33.7925L 34.37125 33.7925C 35.195 33.7925 35.862499 34.459999 35.862499 35.283749L 35.862499 35.283749C 35.862499 36.106251 35.195 36.77375 34.37125 36.77375L 33.306252 36.77375ZM 35.009998 36.775002L 36.075001 38.904999"></path></g></g></g><g id="g-root-cu_1lpw6ur19tntvp-stroke" data-item-order="1000000000" data-item-id="cu_1lpw6ur19tntvp" data-item-class="Curve Stroke ColorStrokeGray" data-item-index="none" data-renderer-id="0" transform="translate(302, 198)"><g id="cu_1lpw6ur19tntvp-stroke" fill="none" stroke-linecap="round" stroke-linejoin="round" stroke-miterlimit="4" stroke="#888888" stroke-width="2" stroke-dasharray="5.0, 7.0"><g><path d="M 58 10L 55 10L 54.9 10C 50.745807 9.978983 46.252158 11.407196 42 14.100003C 39.468594 15.756296 36.579161 19.693149 33.999997 25C 31.420833 30.306851 28.5314 34.243704 25.999997 35.9C 21.747842 38.592808 17.254193 40.021022 13.099999 39.999999L 13 40L 10 40"></path></g></g></g><g id="g-root-cu_1lpw6ur19tntvm-stroke" data-item-order="1000000000" data-item-id="cu_1lpw6ur19tntvm" data-item-class="Curve Stroke ColorStrokeGray" data-item-index="none" data-renderer-id="0" transform="translate(518, 198)"><g id="cu_1lpw6ur19tntvm-stroke" fill="none" stroke-linecap="round" stroke-linejoin="round" stroke-miterlimit="4" stroke="#888888" stroke-width="2" stroke-dasharray="5.0, 7.0"><g><path d="M 10 10L 13 10L 13.1 10C 16.311297 10.016369 19.867515 10.284763 23.700001 10.800001C 25.868292 11.054283 29.498118 11.829585 33.999999 13C 38.50188 14.170414 42.131706 14.945717 44.299999 15.2C 48.132487 15.71524 51.688705 15.983634 54.900002 16.000002L 55 16L 58 16"></path></g></g></g><g id="g-root-pin_1d0hxgz19tgs1s-stroke" data-item-order="1000000000" data-item-id="pin_1d0hxgz19tgs1s" data-item-class="Icon Stroke" data-item-index="none" data-renderer-id="0" transform="translate(578, 189)"><g id="pin_1d0hxgz19tgs1s-stroke" fill="none" stroke-linecap="round" stroke-linejoin="round" stroke-miterlimit="4" stroke="#3bc482" stroke-width="2"><g><path d="M 28.123749 35.611252C 28.123751 37.68232 29.802683 39.361252 31.873751 39.361252C 33.94482 39.361252 35.623749 37.68232 35.623749 35.611252C 35.623749 33.540184 33.94482 31.86125 31.873751 31.86125C 29.802683 31.86125 28.123751 33.540184 28.123751 35.611252ZM 30 10.61125C 26.203043 10.61125 23.125 13.689292 23.125 17.48625L 23.125 19.98625C 23.125 20.331429 23.404823 20.61125 23.75 20.61125L 26.25 20.61125C 26.595177 20.61125 26.875 20.331429 26.875 19.98625L 26.875 17.48625C 26.875 15.760361 28.274111 14.36125 30 14.36125C 31.725891 14.36125 33.125 15.760361 33.125 17.48625L 33.125 19.98625C 33.125 20.331429 33.404823 20.61125 33.75 20.61125L 36.25 20.61125C 36.595177 20.61125 36.875 20.331429 36.875 19.98625L 36.875 17.48625C 36.875 13.689292 33.796959 10.61125 30 10.61125ZM 35.623749 35.611252L 35.623749 20.61125M 29.102499 38.137501L 13.12375 20.61125"></path></g></g></g><g id="g-root-tx_patterns_1lvigmr19tgtn3-stroke" data-item-order="1000000000" data-item-id="tx_patterns_1lvigmr19tgtn3" data-item-class="Label Stroke" data-item-index="none" data-renderer-id="0" transform="translate(614, 192)"></g><g id="g-root-tx_document_958rsj19tmfih-stroke" data-item-order="1000000000" data-item-id="tx_document_958rsj19tmfih" data-item-class="Label Stroke" data-item-index="none" data-renderer-id="0" transform="translate(26, 216)"></g><g id="g-root-1_4pf9o319tmgaq-stroke" data-item-order="1000000000" data-item-id="1_4pf9o319tmgaq" data-item-class="Icon Stroke" data-item-index="none" data-renderer-id="0" transform="translate(260, 213)"><g id="1_4pf9o319tmgaq-stroke" fill="none" stroke-linecap="round" stroke-linejoin="round" stroke-miterlimit="4" stroke="#e3cd09" stroke-width="2"><g><path d="M 21.9275 39.375L 11.9275 39.375C 11.237144 39.375 10.6775 38.815353 10.6775 38.125L 10.6775 11.875C 10.6775 11.184644 11.237144 10.625 11.9275 10.625L 28.543751 10.625C 28.876505 10.627385 29.194574 10.762351 29.4275 11L 34.061249 15.625C 34.295689 15.859366 34.427429 16.177258 34.427498 16.508749L 34.427498 20.625M 18.1775 18.755001L 14.4275 22.504999L 18.1775 26.254999M 21.9275 18.755001L 25.6775 22.504999L 21.9275 26.254999M 24.4275 31.879999C 24.427502 36.022137 27.785366 39.380001 31.9275 39.380001C 36.069637 39.380001 39.427498 36.022137 39.427498 31.879999C 39.427498 27.737865 36.069637 24.380001 31.9275 24.380001C 27.785366 24.380001 24.427502 27.737865 24.427502 31.879999ZM 29.58375 30.05625C 29.583752 28.761833 30.633085 27.712502 31.927502 27.712502C 33.22192 27.712502 34.271252 28.761833 34.271252 30.05625C 34.271252 31.350668 33.22192 32.400002 31.927502 32.400002L 31.9275 33.650002M 31.9275 36.150002C 32.10009 36.150002 32.239998 36.289909 32.239998 36.462502C 32.239998 36.63509 32.10009 36.775002 31.9275 36.775002C 31.754911 36.775002 31.615 36.63509 31.615 36.462502C 31.615 36.289909 31.754911 36.150002 31.9275 36.150002"></path></g></g></g><g id="g-root-cu_1cuvnoz19tnsaq-stroke" data-item-order="1000000000" data-item-id="cu_1cuvnoz19tnsaq" data-item-class="Curve Stroke ColorStrokeGray" data-item-index="none" data-renderer-id="0" transform="translate(590, 231)"><g id="cu_1cuvnoz19tnsaq-stroke" fill="none" stroke-linecap="round" stroke-linejoin="round" stroke-miterlimit="4" stroke="#888888" stroke-width="2" stroke-dasharray="5.0, 7.0"><g><path d="M 10 10L 10 22L 10 34L 19 34L 28 34"></path></g></g></g><g id="g-root-cu_13z8ng319tnt3h-stroke" data-item-order="1000000000" data-item-id="cu_13z8ng319tnt3h" data-item-class="Curve Stroke ColorStrokeGray" data-item-index="none" data-renderer-id="0" transform="translate(590, 231)"><g id="cu_13z8ng319tnt3h-stroke" fill="none" stroke-linecap="round" stroke-linejoin="round" stroke-miterlimit="4" stroke="#888888" stroke-width="2" stroke-dasharray="5.0, 7.0"><g><path d="M 10 10L 10 19L 10 70C 10.000001 76.627416 15.372584 81.999998 22.000001 81.999998L 22.1 82L 28 82"></path></g></g></g><g id="g-root-cu_13z8ng319tnt3j-stroke" data-item-order="1000000000" data-item-id="cu_13z8ng319tnt3j" data-item-class="Curve Stroke ColorStrokeGray" data-item-index="none" data-renderer-id="0" transform="translate(260, 255)"><g id="cu_13z8ng319tnt3j-stroke" fill="none" stroke-linecap="round" stroke-linejoin="round" stroke-miterlimit="4" stroke="#888888" stroke-width="2" stroke-dasharray="5.0, 7.0"><g><path d="M 28 10L 28 22L 28 34L 19 34L 10 34"></path></g></g></g><g id="g-root-tx_appelsde_1hitbxv19ti8zo-stroke" data-item-order="1000000000" data-item-id="tx_appelsde_1hitbxv19ti8zo" data-item-class="Label Stroke" data-item-index="none" data-renderer-id="0" transform="translate(614, 243)"></g><g id="g-root-tx_mieuxcom_147zann19ti7eu-stroke" data-item-order="1000000000" data-item-id="tx_mieuxcom_147zann19ti7eu" data-item-class="Label Stroke" data-item-index="none" data-renderer-id="0" transform="translate(2, 267)"></g><g id="g-root-tx_prventio_18nsss319ti6ml-stroke" data-item-order="1000000000" data-item-id="tx_prventio_18nsss319ti6ml" data-item-class="Label Stroke" data-item-index="none" data-renderer-id="0" transform="translate(614, 279)"></g><g id="g-root-tx_maintena_vccaer19ti87j-stroke" data-item-order="1000000000" data-item-id="tx_maintena_vccaer19ti87j" data-item-class="Label Stroke" data-item-index="none" data-renderer-id="0" transform="translate(26, 303)"></g><g id="g-root-tx_dtection_93ztmb19tkzyj-stroke" data-item-order="1000000000" data-item-id="tx_dtection_93ztmb19tkzyj" data-item-class="Label Stroke" data-item-index="none" data-renderer-id="0" transform="translate(50, 18)"></g><g id="g-root-cu_18f25kj19tnt36-stroke" data-item-order="1000000000" data-item-id="cu_18f25kj19tnt36" data-item-class="Curve Stroke ColorStrokeGray" data-item-index="none" data-renderer-id="0" transform="translate(260, 255)"><g id="cu_18f25kj19tnt36-stroke" fill="none" stroke-linecap="round" stroke-linejoin="round" stroke-miterlimit="4" stroke="#888888" stroke-width="2" stroke-dasharray="5.0, 7.0"><g><path d="M 28 10L 28 17.5L 28 58C 27.999999 64.627415 22.627416 69.999998 16 69.999998L 15.9 70L 10 70"></path></g></g></g></g></g></svg>