<?xml version="1.0" encoding="utf-8" standalone="yes"?>
<!DOCTYPE svg PUBLIC "-//W3C//DTD SVG 1.1//EN" "http://www.w3.org/Graphics/SVG/1.1/DTD/svg11.dtd">
<svg width="672" height="780" viewBox="0 0 672 780" style="fill:none;stroke:none;fill-rule:evenodd;clip-rule:evenodd;stroke-linecap:round;stroke-linejoin:round;stroke-miterlimit:1.5;" version="1.1" xmlns="http://www.w3.org/2000/svg" xmlns:xlink="http://www.w3.org/1999/xlink"><style id="fontImports">@import url("https://fonts.googleapis.com/css2?family=Roboto:wght@400;700&amp;display=block");</style><rect id="" x="0" y="0" width="672" height="780" style="fill: #ffffff;"></rect><g id="items" style="isolation: isolate"><g id="blend" style="mix-blend-mode: normal"><g id="g-root-tf_1umslml10o40ln-fill" data-item-order="-521260" transform="translate(-9, -9)"><g id="tf_1umslml10o40ln-fill" stroke="none" fill="#ffffff"><g><path d="M 10 10L 680 10L 680 788L 10 788Z"></path></g></g></g><g id="g-root-ro_dhbvr110nreh5-fill" data-item-order="-18432" transform="translate(227, 387)"><g id="ro_dhbvr110nreh5-fill" stroke="none" fill="#e8f9ff"><g><path d="M 22 10L 190 10C 190 10 202 10 202 22L 202 94C 202 94 202 106 190 106L 22 106C 22 106 10 106 10 94L 10 22C 10 22 10 10 22 10"></path></g></g></g><g id="g-root-ro_v3m0e510ocgej-fill" data-item-order="-16128" transform="translate(39, 387)"><g id="ro_v3m0e510ocgej-fill" stroke="none" fill="#e8f9ff"><g><path d="M 22 10L 166 10C 166 10 178 10 178 22L 178 94C 178 94 178 106 166 106L 22 106C 22 106 10 106 10 94L 10 22C 10 22 10 10 22 10"></path></g></g></g><g id="g-root-ro_dg2xkt10nztvt-fill" data-item-order="-15552" transform="translate(215, 649)"><g id="ro_dg2xkt10nztvt-fill" stroke="none" fill="#e8f9ff"><g><path d="M 22 10L 214 10C 214 10 226 10 226 22L 226 70C 226 70 226 82 214 82L 22 82C 22 82 10 82 10 70L 10 22C 10 22 10 10 22 10"></path></g></g></g><g id="g-root-ro_1hhkqyl10o5f65-fill" data-item-order="-15552" transform="translate(421, 149)"><g id="ro_1hhkqyl10o5f65-fill" stroke="none" fill="#e8f9ff"><g><path d="M 22 10L 214 10C 214 10 226 10 226 22L 226 70C 226 70 226 82 214 82L 22 82C 22 82 10 82 10 70L 10 22C 10 22 10 10 22 10"></path></g></g></g><g id="g-root-ro_1hbc39910nu6fb-fill" data-item-order="-13824" transform="translate(439, 387)"><g id="ro_1hbc39910nu6fb-fill" stroke="none" fill="#e8f9ff"><g><path d="M 22 10L 142 10C 142 10 154 10 154 22L 154 94C 154 94 154 106 142 106L 22 106C 22 106 10 106 10 94L 10 22C 10 22 10 10 22 10"></path></g></g></g><g id="g-root-ro_dbplz110nydxf-fill" data-item-order="-12960" transform="translate(15, 649)"><g id="ro_dbplz110nydxf-fill" stroke="none" fill="#e8f9ff"><g><path d="M 22 10L 178 10C 178 10 190 10 190 22L 190 70C 190 70 190 82 178 82L 22 82C 22 82 10 82 10 70L 10 22C 10 22 10 10 22 10"></path></g></g></g><g id="g-root-ro_zpo9dp10nwzyd-fill" data-item-order="-12960" transform="translate(45, 149)"><g id="ro_zpo9dp10nwzyd-fill" stroke="none" fill="#e8f9ff"><g><path d="M 22 10L 178 10C 178 10 190 10 190 22L 190 70C 190 70 190 82 178 82L 22 82C 22 82 10 82 10 70L 10 22C 10 22 10 10 22 10"></path></g></g></g><g id="g-root-ro_1hjg9dp10o2nt3-fill" data-item-order="-11232" transform="translate(451, 649)"><g id="ro_1hjg9dp10o2nt3-fill" stroke="none" fill="#e8f9ff"><g><path d="M 22 10L 154 10C 154 10 166 10 166 22L 166 70C 166 70 166 82 154 82L 22 82C 22 82 10 82 10 70L 10 22C 10 22 10 10 22 10"></path></g></g></g><g id="g-root-ro_ddky2l10o2nm4-fill" data-item-order="-11232" transform="translate(245, 149)"><g id="ro_ddky2l10o2nm4-fill" stroke="none" fill="#e8f9ff"><g><path d="M 22 10L 154 10C 154 10 166 10 166 22L 166 70C 166 70 166 82 154 82L 22 82C 22 82 10 82 10 70L 10 22C 10 22 10 10 22 10"></path></g></g></g><g id="g-root-ro_1utnqf110o8ahb-fill" data-item-order="-11016" transform="translate(221, 277)"><g id="ro_1utnqf110o8ahb-fill" stroke="none" fill="#e8f9ff"><g><path d="M 22 10L 202 10C 202 10 214 10 214 22L 214 52C 214 52 214 64 202 64L 22 64C 22 64 10 64 10 52L 10 22C 10 22 10 10 22 10"></path></g></g></g><g id="g-root-ro_1ur5x8d10nvkst-fill" data-item-order="-9720" transform="translate(233, 539)"><g id="ro_1ur5x8d10nvkst-fill" stroke="none" fill="#e8f9ff"><g><path d="M 22 10L 178 10C 178 10 190 10 190 22L 190 52C 190 52 190 64 178 64L 22 64C 22 64 10 64 10 52L 10 22C 10 22 10 10 22 10"></path></g></g></g><g id="g-root-ro_1utnqf110nsrns-fill" data-item-order="-9072" transform="translate(239, 39)"><g id="ro_1utnqf110nsrns-fill" stroke="none" fill="#f5f5f5"><g><path d="M 22 10L 166 10C 166 10 178 10 178 22L 178 52C 178 52 178 64 166 64L 22 64C 22 64 10 64 10 52L 10 22C 10 22 10 10 22 10"></path></g></g></g><g id="g-root-cu_1umslml10o40lj-fill" data-item-order="2" transform="translate(323, 593)"></g><g id="g-root-cu_1umslml10o40ll-fill" data-item-order="2" transform="translate(323, 593)"></g><g id="g-root-cu_1umslml10o40lg-fill" data-item-order="2" transform="translate(105, 593)"></g><g id="g-root-cu_1i1rx10o400a-fill" data-item-order="2" transform="translate(323, 483)"></g><g id="g-root-cu_1i1rx10o4008-fill" data-item-order="2" transform="translate(323, 483)"></g><g id="g-root-cu_1i1rx10o4005-fill" data-item-order="2" transform="translate(123, 483)"></g><g id="g-root-cu_vkot10o42dp-fill" data-item-order="2" transform="translate(323, 93)"></g><g id="g-root-cu_vkot10o42dn-fill" data-item-order="2" transform="translate(323, 93)"></g><g id="g-root-cu_8wikxp10o41kw-fill" data-item-order="2" transform="translate(135, 93)"></g><g id="g-root-cu_vkot10o42dr-fill" data-item-order="2" transform="translate(135, 221)"></g><g id="g-root-cu_1i1rx10o4003-fill" data-item-order="2" transform="translate(323, 331)"></g><g id="g-root-cu_4gp2t910o42de-fill" data-item-order="2" transform="translate(323, 221)"></g><g id="g-root-cu_4gp2t910o42dg-fill" data-item-order="2" transform="translate(323, 221)"></g><g id="g-root-cu_1i1rx10o4001-fill" data-item-order="2" transform="translate(323, 331)"></g><g id="g-root-cu_4gp2t910o42di-fill" data-item-order="2" transform="translate(123, 331)"></g><g id="g-root-tx_implment_9406t910o893h-fill" data-item-order="1000000000" transform="translate(269, 292)"><g id="tx_implment_9406t910o893h-fill" stroke="none" fill="#1eabda"><g><text style="font: 20px Roboto, sans-serif; white-space: pre;" font-size="20px" font-family="Roboto, sans-serif"><tspan x="12" y="34" dominant-baseline="ideographic">Implémentation</tspan></text></g></g></g><g id="g-root-1_1utnqf110o8aha-fill" data-item-order="1000000000" transform="translate(233, 289)"></g><g id="g-root-tx_interfac_1uljkal10ocflt-fill" data-item-order="1000000000" transform="translate(87, 399)"><g id="tx_interfac_1uljkal10ocflt-fill" stroke="none" fill="#1eabda"><g><text style="font: 20px Roboto, sans-serif; white-space: pre;" font-size="20px" font-family="Roboto, sans-serif"><tspan x="12" y="34" dominant-baseline="ideographic">Interfaces </tspan><tspan x="12" y="58" dominant-baseline="ideographic">avant </tspan><tspan x="12" y="82" dominant-baseline="ideographic">Classes</tspan></text></g></g></g><g id="g-root-tx_sparatio_92r8n110o5fd7-fill" data-item-order="1000000000" transform="translate(469, 161)"><g id="tx_sparatio_92r8n110o5fd7-fill" stroke="none" fill="#1eabda"><g><text style="font: 20px Roboto, sans-serif; white-space: pre;" font-size="20px" font-family="Roboto, sans-serif"><tspan x="12" y="34" dominant-baseline="ideographic">Séparation des </tspan><tspan x="12" y="58" dominant-baseline="ideographic">Responsabilités</tspan></text></g></g></g><g id="g-root-tx_testscom_1um64jh10nu805-fill" data-item-order="1000000000" transform="translate(487, 399)"><g id="tx_testscom_1um64jh10nu805-fill" stroke="none" fill="#1eabda"><g><text style="font: 20px Roboto, sans-serif; white-space: pre;" font-size="20px" font-family="Roboto, sans-serif"><tspan x="12" y="34" dominant-baseline="ideographic">Tests </tspan><tspan x="12" y="58" dominant-baseline="ideographic">comme </tspan><tspan x="12" y="82" dominant-baseline="ideographic">Guide</tspan></text></g></g></g><g id="g-root-vert_13z90n110ocflu-fill" data-item-order="1000000000" transform="translate(51, 420)"></g><g id="g-root-1_mcyvzx10nrdog-fill" data-item-order="1000000000" transform="translate(239, 420)"></g><g id="g-root-tx_composit_qsse4d10nrcw7-fill" data-item-order="1000000000" transform="translate(275, 411)"><g id="tx_composit_qsse4d10nrcw7-fill" stroke="none" fill="#1eabda"><g><text style="font: 20px Roboto, sans-serif; white-space: pre;" font-size="20px" font-family="Roboto, sans-serif"><tspan x="12" y="34" dominant-baseline="ideographic">Composition </tspan><tspan x="12" y="58" dominant-baseline="ideographic">sur Héritage</tspan></text></g></g></g><g id="g-root-chec_1lqj4al10nu8su-fill" data-item-order="1000000000" transform="translate(451, 420)"></g><g id="g-root-puzz_1qd7r7h10o5edg-fill" data-item-order="1000000000" transform="translate(433, 170)"></g><g id="g-root-tx_extensio_qp1gfx10o2m16-fill" data-item-order="1000000000" transform="translate(293, 161)"><g id="tx_extensio_qp1gfx10o2m16-fill" stroke="none" fill="#1eabda"><g><text style="font: 20px Roboto, sans-serif; white-space: pre;" font-size="20px" font-family="Roboto, sans-serif"><tspan x="12" y="34" dominant-baseline="ideographic">Extension </tspan><tspan x="12" y="58" dominant-baseline="ideographic">Future</tspan></text></g></g></g><g id="g-root-star_m97ybh10o2mtf-fill" data-item-order="1000000000" transform="translate(257, 170)"></g><g id="g-root-tx_abstract_1d0ianx10nx1j7-fill" data-item-order="1000000000" transform="translate(93, 173)"><g id="tx_abstract_1d0ianx10nx1j7-fill" stroke="none" fill="#1eabda"><g><text style="font: 20px Roboto, sans-serif; white-space: pre;" font-size="20px" font-family="Roboto, sans-serif"><tspan x="12" y="34" dominant-baseline="ideographic">Abstractions</tspan></text></g></g></g><g id="g-root-scre_1ur5x8d10nvkss-fill" data-item-order="1000000000" transform="translate(245, 551)"></g><g id="g-root-tx_maintena_4l2ef110nvncz-fill" data-item-order="1000000000" transform="translate(281, 554)"><g id="tx_maintena_4l2ef110nvncz-fill" stroke="none" fill="#1eabda"><g><text style="font: 20px Roboto, sans-serif; white-space: pre;" font-size="20px" font-family="Roboto, sans-serif"><tspan x="12" y="34" dominant-baseline="ideographic">Maintenance</tspan></text></g></g></g><g id="g-root-ques_145hri510nwz64-fill" data-item-order="1000000000" transform="translate(57, 170)"></g><g id="g-root-shie_1lz9ri510o2n0u-fill" data-item-order="1000000000" transform="translate(463, 670)"></g><g id="g-root-tx_refactor_qwj8n110nx0xt-fill" data-item-order="1000000000" transform="translate(63, 661)"><g id="tx_refactor_qwj8n110nx0xt-fill" stroke="none" fill="#1eabda"><g><text style="font: 20px Roboto, sans-serif; white-space: pre;" font-size="20px" font-family="Roboto, sans-serif"><tspan x="12" y="34" dominant-baseline="ideographic">Refactoring </tspan><tspan x="12" y="58" dominant-baseline="ideographic">Progressif</tspan></text></g></g></g><g id="g-root-edit_mbpxtp10nzt34-fill" data-item-order="1000000000" transform="translate(227, 670)"></g><g id="g-root-tx_document_v6qgzh10nzuof-fill" data-item-order="1000000000" transform="translate(263, 661)"><g id="tx_document_v6qgzh10nzuof-fill" stroke="none" fill="#1eabda"><g><text style="font: 20px Roboto, sans-serif; white-space: pre;" font-size="20px" font-family="Roboto, sans-serif"><tspan x="12" y="34" dominant-baseline="ideographic">Documentation </tspan><tspan x="12" y="58" dominant-baseline="ideographic">Claire</tspan></text></g></g></g><g id="g-root-tx_concepti_93dpq510nstfq-fill" data-item-order="1000000000" transform="translate(287, 54)"><g id="tx_concepti_93dpq510nstfq-fill" stroke="none" fill="#484848"><g><text style="font: 20px Roboto, sans-serif; white-space: pre;" font-size="20px" font-family="Roboto, sans-serif"><tspan x="12" y="34" dominant-baseline="ideographic">Conception</tspan></text></g></g></g><g id="g-root-tx_testsrob_1uuwrr110o2m85-fill" data-item-order="1000000000" transform="translate(499, 661)"><g id="tx_testsrob_1uuwrr110o2m85-fill" stroke="none" fill="#1eabda"><g><text style="font: 20px Roboto, sans-serif; white-space: pre;" font-size="20px" font-family="Roboto, sans-serif"><tspan x="12" y="34" dominant-baseline="ideographic">Tests </tspan><tspan x="12" y="58" dominant-baseline="ideographic">Robustes</tspan></text></g></g></g><g id="g-root-2_i0w8e510nx1qi-fill" data-item-order="1000000000" transform="translate(27, 670)"></g><g id="g-root-draw_7qph910nsu8f-fill" data-item-order="1000000000" transform="translate(251, 51)"></g><g id="g-root-tf_1umslml10o40ln-stroke" data-item-order="-521260" transform="translate(-9, -9)"></g><g id="g-root-ro_dhbvr110nreh5-stroke" data-item-order="-18432" transform="translate(227, 387)"><g id="ro_dhbvr110nreh5-stroke" fill="none" stroke-linecap="round" stroke-linejoin="round" stroke-miterlimit="4" stroke="#1eabda" stroke-width="2"><g><path d="M 22 10L 190 10C 190 10 202 10 202 22L 202 94C 202 94 202 106 190 106L 22 106C 22 106 10 106 10 94L 10 22C 10 22 10 10 22 10"></path></g></g></g><g id="g-root-ro_v3m0e510ocgej-stroke" data-item-order="-16128" transform="translate(39, 387)"><g id="ro_v3m0e510ocgej-stroke" fill="none" stroke-linecap="round" stroke-linejoin="round" stroke-miterlimit="4" stroke="#1eabda" stroke-width="2"><g><path d="M 22 10L 166 10C 166 10 178 10 178 22L 178 94C 178 94 178 106 166 106L 22 106C 22 106 10 106 10 94L 10 22C 10 22 10 10 22 10"></path></g></g></g><g id="g-root-ro_dg2xkt10nztvt-stroke" data-item-order="-15552" transform="translate(215, 649)"><g id="ro_dg2xkt10nztvt-stroke" fill="none" stroke-linecap="round" stroke-linejoin="round" stroke-miterlimit="4" stroke="#1eabda" stroke-width="2"><g><path d="M 22 10L 214 10C 214 10 226 10 226 22L 226 70C 226 70 226 82 214 82L 22 82C 22 82 10 82 10 70L 10 22C 10 22 10 10 22 10"></path></g></g></g><g id="g-root-ro_1hhkqyl10o5f65-stroke" data-item-order="-15552" transform="translate(421, 149)"><g id="ro_1hhkqyl10o5f65-stroke" fill="none" stroke-linecap="round" stroke-linejoin="round" stroke-miterlimit="4" stroke="#1eabda" stroke-width="2"><g><path d="M 22 10L 214 10C 214 10 226 10 226 22L 226 70C 226 70 226 82 214 82L 22 82C 22 82 10 82 10 70L 10 22C 10 22 10 10 22 10"></path></g></g></g><g id="g-root-ro_1hbc39910nu6fb-stroke" data-item-order="-13824" transform="translate(439, 387)"><g id="ro_1hbc39910nu6fb-stroke" fill="none" stroke-linecap="round" stroke-linejoin="round" stroke-miterlimit="4" stroke="#1eabda" stroke-width="2"><g><path d="M 22 10L 142 10C 142 10 154 10 154 22L 154 94C 154 94 154 106 142 106L 22 106C 22 106 10 106 10 94L 10 22C 10 22 10 10 22 10"></path></g></g></g><g id="g-root-ro_dbplz110nydxf-stroke" data-item-order="-12960" transform="translate(15, 649)"><g id="ro_dbplz110nydxf-stroke" fill="none" stroke-linecap="round" stroke-linejoin="round" stroke-miterlimit="4" stroke="#1eabda" stroke-width="2"><g><path d="M 22 10L 178 10C 178 10 190 10 190 22L 190 70C 190 70 190 82 178 82L 22 82C 22 82 10 82 10 70L 10 22C 10 22 10 10 22 10"></path></g></g></g><g id="g-root-ro_zpo9dp10nwzyd-stroke" data-item-order="-12960" transform="translate(45, 149)"><g id="ro_zpo9dp10nwzyd-stroke" fill="none" stroke-linecap="round" stroke-linejoin="round" stroke-miterlimit="4" stroke="#1eabda" stroke-width="2"><g><path d="M 22 10L 178 10C 178 10 190 10 190 22L 190 70C 190 70 190 82 178 82L 22 82C 22 82 10 82 10 70L 10 22C 10 22 10 10 22 10"></path></g></g></g><g id="g-root-ro_1hjg9dp10o2nt3-stroke" data-item-order="-11232" transform="translate(451, 649)"><g id="ro_1hjg9dp10o2nt3-stroke" fill="none" stroke-linecap="round" stroke-linejoin="round" stroke-miterlimit="4" stroke="#1eabda" stroke-width="2"><g><path d="M 22 10L 154 10C 154 10 166 10 166 22L 166 70C 166 70 166 82 154 82L 22 82C 22 82 10 82 10 70L 10 22C 10 22 10 10 22 10"></path></g></g></g><g id="g-root-ro_ddky2l10o2nm4-stroke" data-item-order="-11232" transform="translate(245, 149)"><g id="ro_ddky2l10o2nm4-stroke" fill="none" stroke-linecap="round" stroke-linejoin="round" stroke-miterlimit="4" stroke="#1eabda" stroke-width="2"><g><path d="M 22 10L 154 10C 154 10 166 10 166 22L 166 70C 166 70 166 82 154 82L 22 82C 22 82 10 82 10 70L 10 22C 10 22 10 10 22 10"></path></g></g></g><g id="g-root-ro_1utnqf110o8ahb-stroke" data-item-order="-11016" transform="translate(221, 277)"><g id="ro_1utnqf110o8ahb-stroke" fill="none" stroke-linecap="round" stroke-linejoin="round" stroke-miterlimit="4" stroke="#1eabda" stroke-width="2"><g><path d="M 22 10L 202 10C 202 10 214 10 214 22L 214 52C 214 52 214 64 202 64L 22 64C 22 64 10 64 10 52L 10 22C 10 22 10 10 22 10"></path></g></g></g><g id="g-root-ro_1ur5x8d10nvkst-stroke" data-item-order="-9720" transform="translate(233, 539)"><g id="ro_1ur5x8d10nvkst-stroke" fill="none" stroke-linecap="round" stroke-linejoin="round" stroke-miterlimit="4" stroke="#1eabda" stroke-width="2"><g><path d="M 22 10L 178 10C 178 10 190 10 190 22L 190 52C 190 52 190 64 178 64L 22 64C 22 64 10 64 10 52L 10 22C 10 22 10 10 22 10"></path></g></g></g><g id="g-root-ro_1utnqf110nsrns-stroke" data-item-order="-9072" transform="translate(239, 39)"><g id="ro_1utnqf110nsrns-stroke" fill="none" stroke-linecap="round" stroke-linejoin="round" stroke-miterlimit="4" stroke="#484848" stroke-width="2"><g><path d="M 22 10L 166 10C 166 10 178 10 178 22L 178 52C 178 52 178 64 166 64L 22 64C 22 64 10 64 10 52L 10 22C 10 22 10 10 22 10"></path></g></g></g><g id="g-root-cu_1umslml10o40lj-stroke" data-item-order="2" transform="translate(323, 593)"><g id="cu_1umslml10o40lj-stroke" fill="none" stroke-linecap="round" stroke-linejoin="round" stroke-miterlimit="4" stroke="#484848" stroke-width="2"><g><path d="M 10 10L 10 38L 10 64"></path><path d="M 3.5 58L 10 64.5L 16.5 58" stroke-dasharray="none"></path></g></g></g><g id="g-root-cu_1umslml10o40ll-stroke" data-item-order="2" transform="translate(323, 593)"><g id="cu_1umslml10o40ll-stroke" fill="none" stroke-linecap="round" stroke-linejoin="round" stroke-miterlimit="4" stroke="#484848" stroke-width="2"><g><path d="M 10 10L 10 24L 10 38L 113 38L 216 38L 216 52L 216 64"></path><path d="M 209.5 58L 216 64.5L 222.5 58" stroke-dasharray="none"></path></g></g></g><g id="g-root-cu_1umslml10o40lg-stroke" data-item-order="2" transform="translate(105, 593)"><g id="cu_1umslml10o40lg-stroke" fill="none" stroke-linecap="round" stroke-linejoin="round" stroke-miterlimit="4" stroke="#484848" stroke-width="2"><g><path d="M 228 10L 228 24L 228 38L 119 38L 10 38L 10 52L 10 64"></path><path d="M 3.5 58L 10 64.5L 16.5 58" stroke-dasharray="none"></path></g></g></g><g id="g-root-cu_1i1rx10o400a-stroke" data-item-order="2" transform="translate(323, 483)"><g id="cu_1i1rx10o400a-stroke" fill="none" stroke-linecap="round" stroke-linejoin="round" stroke-miterlimit="4" stroke="#484848" stroke-width="2"><g><path d="M 198 10L 198 24L 198 38L 104 38L 10 38L 10 52L 10 64"></path><path d="M 3.5 58L 10 64.5L 16.5 58" stroke-dasharray="none"></path></g></g></g><g id="g-root-cu_1i1rx10o4008-stroke" data-item-order="2" transform="translate(323, 483)"><g id="cu_1i1rx10o4008-stroke" fill="none" stroke-linecap="round" stroke-linejoin="round" stroke-miterlimit="4" stroke="#484848" stroke-width="2"><g><path d="M 10 10L 10 38L 10 64"></path><path d="M 3.5 58L 10 64.5L 16.5 58" stroke-dasharray="none"></path></g></g></g><g id="g-root-cu_1i1rx10o4005-stroke" data-item-order="2" transform="translate(123, 483)"><g id="cu_1i1rx10o4005-stroke" fill="none" stroke-linecap="round" stroke-linejoin="round" stroke-miterlimit="4" stroke="#484848" stroke-width="2"><g><path d="M 10 10L 10 24L 10 38L 110 38L 210 38L 210 52L 210 64"></path><path d="M 203.5 58L 210 64.5L 216.5 58" stroke-dasharray="none"></path></g></g></g><g id="g-root-cu_vkot10o42dp-stroke" data-item-order="2" transform="translate(323, 93)"><g id="cu_vkot10o42dp-stroke" fill="none" stroke-linecap="round" stroke-linejoin="round" stroke-miterlimit="4" stroke="#484848" stroke-width="2"><g><path d="M 10 10L 10 24L 10 38L 113 38L 216 38L 216 52L 216 64"></path><path d="M 209.5 58L 216 64.5L 222.5 58" stroke-dasharray="none"></path></g></g></g><g id="g-root-cu_vkot10o42dn-stroke" data-item-order="2" transform="translate(323, 93)"><g id="cu_vkot10o42dn-stroke" fill="none" stroke-linecap="round" stroke-linejoin="round" stroke-miterlimit="4" stroke="#484848" stroke-width="2"><g><path d="M 10 10L 10 38L 10 64"></path><path d="M 3.5 58L 10 64.5L 16.5 58" stroke-dasharray="none"></path></g></g></g><g id="g-root-cu_8wikxp10o41kw-stroke" data-item-order="2" transform="translate(135, 93)"><g id="cu_8wikxp10o41kw-stroke" fill="none" stroke-linecap="round" stroke-linejoin="round" stroke-miterlimit="4" stroke="#484848" stroke-width="2"><g><path d="M 198 10L 198 24L 198 38L 104 38L 10 38L 10 52L 10 64"></path><path d="M 3.5 58L 10 64.5L 16.5 58" stroke-dasharray="none"></path></g></g></g><g id="g-root-cu_vkot10o42dr-stroke" data-item-order="2" transform="translate(135, 221)"><g id="cu_vkot10o42dr-stroke" fill="none" stroke-linecap="round" stroke-linejoin="round" stroke-miterlimit="4" stroke="#484848" stroke-width="2"><g><path d="M 10 10L 10 24L 10 38L 104 38L 198 38L 198 52L 198 64"></path><path d="M 191.5 58L 198 64.5L 204.5 58" stroke-dasharray="none"></path></g></g></g><g id="g-root-cu_1i1rx10o4003-stroke" data-item-order="2" transform="translate(323, 331)"><g id="cu_1i1rx10o4003-stroke" fill="none" stroke-linecap="round" stroke-linejoin="round" stroke-miterlimit="4" stroke="#484848" stroke-width="2"><g><path d="M 10 10L 10 24L 10 38L 104 38L 198 38L 198 52L 198 64"></path><path d="M 191.5 58L 198 64.5L 204.5 58" stroke-dasharray="none"></path></g></g></g><g id="g-root-cu_4gp2t910o42de-stroke" data-item-order="2" transform="translate(323, 221)"><g id="cu_4gp2t910o42de-stroke" fill="none" stroke-linecap="round" stroke-linejoin="round" stroke-miterlimit="4" stroke="#484848" stroke-width="2"><g><path d="M 10 10L 10 38L 10 64"></path><path d="M 3.5 58L 10 64.5L 16.5 58" stroke-dasharray="none"></path></g></g></g><g id="g-root-cu_4gp2t910o42dg-stroke" data-item-order="2" transform="translate(323, 221)"><g id="cu_4gp2t910o42dg-stroke" fill="none" stroke-linecap="round" stroke-linejoin="round" stroke-miterlimit="4" stroke="#484848" stroke-width="2"><g><path d="M 216 10L 216 24L 216 38L 113 38L 10 38L 10 52L 10 64"></path><path d="M 3.5 58L 10 64.5L 16.5 58" stroke-dasharray="none"></path></g></g></g><g id="g-root-cu_1i1rx10o4001-stroke" data-item-order="2" transform="translate(323, 331)"><g id="cu_1i1rx10o4001-stroke" fill="none" stroke-linecap="round" stroke-linejoin="round" stroke-miterlimit="4" stroke="#484848" stroke-width="2"><g><path d="M 10 10L 10 38L 10 64"></path><path d="M 3.5 58L 10 64.5L 16.5 58" stroke-dasharray="none"></path></g></g></g><g id="g-root-cu_4gp2t910o42di-stroke" data-item-order="2" transform="translate(123, 331)"><g id="cu_4gp2t910o42di-stroke" fill="none" stroke-linecap="round" stroke-linejoin="round" stroke-miterlimit="4" stroke="#484848" stroke-width="2"><g><path d="M 210 10L 210 24L 210 38L 110 38L 10 38L 10 52L 10 64"></path><path d="M 3.5 58L 10 64.5L 16.5 58" stroke-dasharray="none"></path></g></g></g><g id="g-root-tx_implment_9406t910o893h-stroke" data-item-order="1000000000" transform="translate(269, 292)"></g><g id="g-root-1_1utnqf110o8aha-stroke" data-item-order="1000000000" transform="translate(233, 289)"><g id="1_1utnqf110o8aha-stroke" fill="none" stroke-linecap="round" stroke-linejoin="round" stroke-miterlimit="4" stroke="#1eabda" stroke-width="2"><g><path d="M 35 26.328751L 38.75 26.328751C 38.75 26.328751 39.375 26.328751 39.375 26.953751L 39.375 35.703751C 39.375 35.703751 39.375 36.328751 38.75 36.328751L 35 36.328751C 35 36.328751 34.375 36.328751 34.375 35.703751L 34.375 26.953751C 34.375 26.953751 34.375 26.328751 35 26.328751M 34.375 34.53125C 21.25 38.90625 25.625 38.90625 10.625 31.40625C 11.489196 30.244434 12.986552 29.745314 14.375 30.156252L 19.77125 31.865002M 34.375 27.578751L 30.625 27.578751C 27.68375 27.578751 25.625 30.078751 25 30.078751L 20.625 30.078751C 19.375 30.078751 19.375 32.578751 20.625 32.578751L 27.5 32.578751M 12.5 21.328751C 12.5 22.709461 13.619288 23.828751 15 23.828751L 27.5 23.828751C 28.880713 23.828751 30 22.709461 30 21.328751L 12.5 21.328751ZM 28.125 21.328751L 28.125 13.82875C 28.125 13.138394 27.565357 12.57875 26.875 12.57875L 15.625 12.57875C 14.934644 12.57875 14.375 13.138394 14.375 13.82875L 14.375 21.328751"></path></g></g></g><g id="g-root-tx_interfac_1uljkal10ocflt-stroke" data-item-order="1000000000" transform="translate(87, 399)"></g><g id="g-root-tx_sparatio_92r8n110o5fd7-stroke" data-item-order="1000000000" transform="translate(469, 161)"></g><g id="g-root-tx_testscom_1um64jh10nu805-stroke" data-item-order="1000000000" transform="translate(487, 399)"></g><g id="g-root-vert_13z90n110ocflu-stroke" data-item-order="1000000000" transform="translate(51, 420)"><g id="vert_13z90n110ocflu-stroke" fill="none" stroke-linecap="round" stroke-linejoin="round" stroke-miterlimit="4" stroke="#1eabda" stroke-width="2"><g><path d="M 31.42857 17.5L 25 11.071428L 18.571428 17.5M 33.571426 38.92857C 28.837559 38.92857 25 35.091011 25 30.357141C 25 35.091011 21.162439 38.92857 16.428572 38.92857M 25 30.357141L 25 11.071428"></path></g></g></g><g id="g-root-1_mcyvzx10nrdog-stroke" data-item-order="1000000000" transform="translate(239, 420)"><g id="1_mcyvzx10nrdog-stroke" fill="none" stroke-linecap="round" stroke-linejoin="round" stroke-miterlimit="4" stroke="#1eabda" stroke-width="2"><g><path d="M 18.764286 12.55C 19.536459 13.304196 19.995615 14.321989 20.049999 15.4L 23.971428 11.5C 24.243834 11.1946 24.633621 11.019961 25.042856 11.019961C 25.452093 11.019961 25.841879 11.1946 26.114285 11.5L 29.285713 14.8C 28.835274 15.018423 28.422873 15.307828 28.064285 15.657143C 26.478891 17.400633 26.542528 20.081978 28.208845 21.748295C 29.875162 23.414612 32.556507 23.478249 34.299999 21.892857C 34.649315 21.534271 34.938721 21.121868 35.157143 20.671429L 38.5 23.971428C 38.805401 24.243834 38.980038 24.633621 38.980038 25.042856C 38.980038 25.452093 38.805401 25.841879 38.5 26.114285L 34.599998 29.950001C 36.953018 30.092287 38.774269 32.066437 38.726814 34.423279C 38.679359 36.780117 36.780117 38.679359 34.423279 38.726814C 32.066437 38.774269 30.092287 36.953018 29.950001 34.599998L 26.02857 38.5C 25.756165 38.805401 25.366379 38.980038 24.957142 38.980038C 24.547907 38.980038 24.158119 38.805401 23.885714 38.5L 20.714285 35.200001C 21.164724 34.981579 21.577127 34.692173 21.935715 34.342857C 23.65766 32.609077 23.648066 29.807661 21.914286 28.085714C 20.180506 26.36377 17.379087 26.373363 15.657144 28.107143C 15.307828 28.465729 15.018423 28.87813 14.8 29.328571L 11.5 26.02857C 11.1946 25.756165 11.019961 25.366379 11.019961 24.957142C 11.019961 24.547907 11.1946 24.158119 11.5 23.885714L 15.4 20.049999C 14.321989 19.995615 13.304196 19.536459 12.55 18.764286C 10.834479 17.04817 10.834721 14.266356 12.550538 12.550538C 14.266356 10.834721 17.04817 10.834479 18.764284 12.55Z"></path></g></g></g><g id="g-root-tx_composit_qsse4d10nrcw7-stroke" data-item-order="1000000000" transform="translate(275, 411)"></g><g id="g-root-chec_1lqj4al10nu8su-stroke" data-item-order="1000000000" transform="translate(451, 420)"><g id="chec_1lqj4al10nu8su-stroke" fill="none" stroke-linecap="round" stroke-linejoin="round" stroke-miterlimit="4" stroke="#1eabda" stroke-width="2"><g><path d="M 30.357141 13.214286L 33.571426 13.214286C 34.754894 13.214286 35.714287 14.173676 35.714287 15.357142L 35.714287 36.785713C 35.714287 37.969181 34.754894 38.92857 33.571426 38.92857L 16.428572 38.92857C 15.245104 38.92857 14.285714 37.969181 14.285714 36.785713L 14.285714 15.357142C 14.285714 14.173676 15.245104 13.214286 16.428572 13.214286L 19.642857 13.214286M 21.785713 11.071428L 28.214285 11.071428C 28.214285 11.071428 30.357141 11.071428 30.357141 13.214286L 30.357141 14.285714C 30.357141 14.285714 30.357141 16.428572 28.214285 16.428572L 21.785713 16.428572C 21.785713 16.428572 19.642857 16.428572 19.642857 14.285714L 19.642857 13.214286C 19.642857 13.214286 19.642857 11.071428 21.785713 11.071428M 19.642857 28.214285L 23.928572 31.42857L 29.285713 22.857143"></path></g></g></g><g id="g-root-puzz_1qd7r7h10o5edg-stroke" data-item-order="1000000000" transform="translate(433, 170)"><g id="puzz_1qd7r7h10o5edg-stroke" fill="none" stroke-linecap="round" stroke-linejoin="round" stroke-miterlimit="4" stroke="#1eabda" stroke-width="2"><g><path d="M 35.612499 25C 35.612499 24.9 35.612499 24.7875 35.612499 24.6875C 35.612499 23.134199 34.353302 21.875 32.799999 21.875C 31.2467 21.875 29.987499 23.134199 29.987499 24.6875C 29.987499 24.7875 29.987499 24.9 29.987499 25L 26.5625 25L 26.5625 28.75L 26.875 28.75C 28.428301 28.75 29.6875 30.009197 29.6875 31.5625C 29.6875 33.115803 28.428301 34.375 26.875 34.375L 26.5625 34.375L 26.5625 38.125L 38.125 38.125C 38.815353 38.125 39.375 37.565353 39.375 36.875L 39.375 25ZM 26.875 28.75L 26.5625 28.75L 26.5625 25L 23.424999 25C 23.424999 25.1 23.424999 25.2125 23.424999 25.3125C 23.424999 26.865801 22.165802 28.125 20.612499 28.125C 19.059198 28.125 17.800001 26.865801 17.800001 25.3125C 17.799999 25.2125 17.799999 25.1 17.799999 25L 13.75 25L 13.75 28.75L 13.4375 28.75C 11.884199 28.75 10.625 30.009197 10.625 31.5625C 10.625 33.115803 11.884199 34.375 13.4375 34.375L 13.75 34.375L 13.75 36.875C 13.75 37.565353 14.309644 38.125 15 38.125L 26.5625 38.125L 26.5625 34.375L 26.875 34.375C 28.428301 34.375 29.6875 33.115803 29.6875 31.5625C 29.6875 30.009197 28.428301 28.75 26.875 28.75ZM 26.5625 21.25L 26.25 21.25C 24.696699 21.25 23.4375 19.990801 23.4375 18.4375C 23.4375 16.884199 24.696699 15.625 26.25 15.625L 26.5625 15.625L 26.5625 11.875L 15 11.875C 14.309644 11.875 13.75 12.434644 13.75 13.125L 13.75 15.625L 14.0625 15.625C 15.615801 15.625 16.875 16.884199 16.875 18.4375C 16.875 19.990801 15.615801 21.25 14.0625 21.25L 13.75 21.25L 13.75 25L 17.825001 25C 17.825001 25.1 17.825001 25.2125 17.825001 25.3125C 17.825001 26.865801 19.0842 28.125 20.637501 28.125C 22.190802 28.125 23.450001 26.865801 23.450001 25.3125C 23.450001 25.2125 23.450001 25.1 23.450001 25L 26.587502 25ZM 35.612499 11.875C 35.612499 11.975 35.612499 12.0875 35.612499 12.1875C 35.612499 13.740801 34.353302 15 32.799999 15C 31.2467 15 29.987499 13.740801 29.987499 12.1875C 29.987499 12.0875 29.987499 11.975 29.987499 11.875L 26.5625 11.875L 26.5625 15.625L 26.25 15.625C 24.696699 15.625 23.4375 16.884199 23.4375 18.4375C 23.4375 19.990801 24.696699 21.25 26.25 21.25L 26.5625 21.25L 26.5625 25L 30 25C 30 24.9 30 24.7875 30 24.6875C 30 23.134199 31.259197 21.875 32.8125 21.875C 34.365803 21.875 35.625 23.134199 35.625 24.6875C 35.625 24.7875 35.625 24.9 35.625 25L 39.375 25L 39.375 13.125C 39.375 12.434644 38.815353 11.875 38.125 11.875Z"></path></g></g></g><g id="g-root-tx_extensio_qp1gfx10o2m16-stroke" data-item-order="1000000000" transform="translate(293, 161)"></g><g id="g-root-star_m97ybh10o2mtf-stroke" data-item-order="1000000000" transform="translate(257, 170)"><g id="star_m97ybh10o2mtf-stroke" fill="none" stroke-linecap="round" stroke-linejoin="round" stroke-miterlimit="4" stroke="#1eabda" stroke-width="2"><g><path d="M 21.875 39.375L 21.875 28.125M 15.625 39.375L 21.875 28.125L 28.125 39.375M 17.101723 21.892763L 18.398558 25.411388L 18.398558 25.411388L 14.879932 26.708221C 14.23217 26.946962 13.51352 26.615387 13.274778 25.967625L 12.842501 24.79475C 12.603762 24.146988 12.935336 23.428337 13.583098 23.189598L 17.101723 21.892763L 17.101723 21.892763ZM 22.533453 18.558004L 24.694843 24.422379L 24.694843 24.422379L 20.003342 26.151489C 19.355583 26.39023 18.63693 26.058653 18.39819 25.410892L 17.101357 21.892267C 16.862617 21.244507 17.194193 20.525854 17.841953 20.287115L 22.533453 18.558004L 22.533453 18.558004ZM 26.24 25.280001C 25.611748 25.458138 24.952242 25.122667 24.72625 24.51L 22.5 18.471251C 22.27467 17.858858 22.558306 17.176172 23.151249 16.903749L 28.276251 14.5525C 28.59271 14.407408 28.955343 14.400862 29.276833 14.534441C 29.598322 14.668019 29.849541 14.929618 29.969999 15.25625L 32.5 22.106251C 32.620438 22.433056 32.59906 22.795292 32.441029 23.105667C 32.28299 23.41604 32.002632 23.646406 31.6675 23.741249ZM 36.09375 33.5L 39.27375 32.30875C 39.334663 32.285843 39.375 32.227577 39.375 32.162498C 39.375 32.09742 39.334663 32.039158 39.27375 32.016251L 36.09375 30.822502C 36.051422 30.806938 36.018063 30.773579 36.002499 30.731251L 34.809998 27.5525C 34.787094 27.491587 34.728828 27.45125 34.66375 27.45125C 34.598671 27.45125 34.540409 27.491587 34.517502 27.5525L 33.325001 30.731249C 33.309891 30.773865 33.276363 30.80739 33.233749 30.822498L 30.053749 32.016251C 29.992836 32.039158 29.952499 32.09742 29.952499 32.162498C 29.952499 32.227577 29.992836 32.285843 30.053749 32.30875L 33.233749 33.5C 33.276077 33.515564 33.309437 33.548923 33.325001 33.591251L 34.517502 36.772499C 34.540409 36.833412 34.598671 36.873749 34.66375 36.873749C 34.728828 36.873749 34.787094 36.833412 34.809998 36.772499L 36.002499 33.591248C 36.018349 33.549107 36.051605 33.51585 36.09375 33.5ZM 14.375 10.625L 13.389999 13.25C 13.366311 13.313627 13.316128 13.363811 13.252501 13.387501L 10.625 14.375L 13.25 15.35875C 13.313627 15.382441 13.363811 15.432623 13.387501 15.49625L 14.375 18.125L 15.360001 15.5C 15.38369 15.436374 15.433873 15.386189 15.4975 15.3625L 18.125 14.375L 15.5 13.38875C 15.436374 13.365061 15.386189 13.314878 15.3625 13.25125L 14.375 10.625"></path></g></g></g><g id="g-root-tx_abstract_1d0ianx10nx1j7-stroke" data-item-order="1000000000" transform="translate(93, 173)"></g><g id="g-root-scre_1ur5x8d10nvkss-stroke" data-item-order="1000000000" transform="translate(245, 551)"><g id="scre_1ur5x8d10nvkss-stroke" fill="none" stroke-linecap="round" stroke-linejoin="round" stroke-miterlimit="4" stroke="#1eabda" stroke-width="2"><g><path d="M 13.825 38.825001C 13.086226 39.513401 11.934975 39.493088 11.220944 38.779057C 10.506914 38.065025 10.486602 36.913773 11.175 36.174999L 19.387501 27.9625L 22.0375 30.612499ZM 18.0625 26.637501L 23.362499 31.9375M 33.137501 16.887501L 20.7125 29.2875M 35.887497 17.625C 35.668007 17.911652 35.335297 18.089403 34.974998 18.112499C 34.61277 18.139053 34.256901 18.006744 34 17.75L 32.237503 15.9875C 31.977303 15.727674 31.844704 15.366463 31.875 15C 31.910099 14.631213 32.106968 14.296991 32.412498 14.0875L 37.275002 10.7375C 37.524536 10.565063 37.861862 10.596687 38.074997 10.8125L 39.1875 11.925C 39.394779 12.160941 39.394779 12.514059 39.1875 12.75ZM 26.25 23.75L 20.1875 17.6875C 20.473665 17.037416 20.622604 16.335276 20.625 15.625C 20.625 12.863576 18.386423 10.625 15.625 10.625C 15.280951 10.626054 14.937765 10.659535 14.6 10.725C 14.372754 10.771401 14.189891 10.939828 14.125 11.1625C 14.061834 11.384887 14.124015 11.624043 14.287499 11.7875L 16.0625 13.5625C 16.184574 13.680095 16.252457 13.843018 16.25 14.0125L 16.25 15.625C 16.25 15.970179 15.970179 16.25 15.625 16.25L 14.0125 16.25C 13.843018 16.252457 13.680095 16.184574 13.5625 16.0625L 11.7875 14.2875C 11.624043 14.124015 11.384887 14.061834 11.1625 14.125C 10.942765 14.194568 10.776303 14.375298 10.725 14.599999C 10.659535 14.937765 10.626054 15.280951 10.625 15.625C 10.625 18.386423 12.863576 20.625 15.625 20.625C 16.335276 20.622604 17.037416 20.473665 17.6875 20.1875L 23.75 26.25M 28.200001 25.700001L 32.3125 29.8125C 32.962585 29.526337 33.664726 29.377398 34.375004 29.375002C 37.136425 29.375 39.375 31.613577 39.375 34.375C 39.373947 34.719051 39.340466 35.062233 39.275002 35.400002C 39.2286 35.627247 39.060169 35.810108 38.837502 35.875C 38.615112 35.938164 38.375957 35.875984 38.212502 35.712502L 36.4375 33.9375C 36.319908 33.815426 36.156982 33.747543 35.987503 33.75L 34.375 33.75C 34.029823 33.75 33.75 34.029823 33.75 34.375L 33.75 35.987503C 33.747543 36.156982 33.815426 36.319908 33.9375 36.4375L 35.712502 38.212502C 35.875984 38.375957 35.938164 38.615112 35.875 38.837502C 35.805431 39.057232 35.624699 39.223694 35.399998 39.274998C 35.062233 39.340466 34.719051 39.373947 34.375 39.375C 31.613577 39.375 29.375 37.136425 29.375 34.375C 29.377398 33.664726 29.526337 32.962585 29.8125 32.3125L 25.6875 28.1875"></path></g></g></g><g id="g-root-tx_maintena_4l2ef110nvncz-stroke" data-item-order="1000000000" transform="translate(281, 554)"></g><g id="g-root-ques_145hri510nwz64-stroke" data-item-order="1000000000" transform="translate(57, 170)"><g id="ques_145hri510nwz64-stroke" fill="none" stroke-linecap="round" stroke-linejoin="round" stroke-miterlimit="4" stroke="#1eabda" stroke-width="2"><g><path d="M 35.625 27.3825C 37.58778 26.475201 38.818138 24.482513 38.749996 22.321249C 38.726334 20.72193 38.053116 19.20104 36.885117 18.108257C 35.717125 17.015472 34.154858 16.44482 32.557499 16.5275C 31.133242 13.660934 28.200834 11.855703 25 11.875C 20.638153 11.816482 16.983438 15.161299 16.65625 19.51125C 15.35405 19.224945 13.992082 19.537447 12.944951 20.362804C 11.89782 21.18816 11.275809 22.439445 11.25 23.772499C 11.146051 25.720881 12.469007 27.457655 14.375 27.875002M 17.5 30.625C 17.5 34.767136 20.857864 38.125 25 38.125C 29.142136 38.125 32.5 34.767136 32.5 30.625C 32.5 26.482864 29.142136 23.125002 25 23.125002C 20.857864 23.125002 17.5 26.482864 17.5 30.625ZM 22.65625 28.8025C 22.656252 27.508083 23.705584 26.458752 25.000002 26.458752C 26.294418 26.458752 27.343752 27.508083 27.343752 28.802502C 27.343752 30.09692 26.294418 31.146252 25.000002 31.146252L 25 32.396248M 25 34.896248C 24.827412 34.896248 24.6875 35.03616 24.6875 35.208748C 24.6875 35.38134 24.827412 35.521248 25 35.521248C 25.172588 35.521248 25.3125 35.38134 25.3125 35.208748C 25.3125 35.03616 25.172588 34.896248 25 34.896248L 25 34.896248"></path></g></g></g><g id="g-root-shie_1lz9ri510o2n0u-stroke" data-item-order="1000000000" transform="translate(463, 670)"><g id="shie_1lz9ri510o2n0u-stroke" fill="none" stroke-linecap="round" stroke-linejoin="round" stroke-miterlimit="4" stroke="#1eabda" stroke-width="2"><g><path d="M 31.875 18.75L 23.387501 26.674999C 22.903004 27.143318 22.134497 27.143318 21.65 26.674999L 19.375 24.375M 13.125 11.875C 13.125 11.184644 13.684644 10.625 14.375 10.625L 35.625 10.625C 36.315353 10.625 36.875 11.184644 36.875 11.875L 36.875 19.700001C 36.877621 27.95471 32.304981 35.530849 25 39.375C 17.695021 35.530849 13.12238 27.95471 13.125 19.700001Z"></path></g></g></g><g id="g-root-tx_refactor_qwj8n110nx0xt-stroke" data-item-order="1000000000" transform="translate(63, 661)"></g><g id="g-root-edit_mbpxtp10nzt34-stroke" data-item-order="1000000000" transform="translate(227, 670)"><g id="edit_mbpxtp10nzt34-stroke" fill="none" stroke-linecap="round" stroke-linejoin="round" stroke-miterlimit="4" stroke="#1eabda" stroke-width="2"><g><path d="M 19.375 39.375L 14.375 39.375C 12.994288 39.375 11.875 38.255714 11.875 36.875L 11.875 13.125M 35.625 10.625L 14.375 10.625C 12.994288 10.625 11.875 11.744288 11.875 13.125C 11.875 14.505712 12.994288 15.625 14.375 15.625L 34.375 15.625C 35.065353 15.625 35.625 16.184645 35.625 16.875L 35.625 21.25M 14.377501 13.125L 34.377502 13.125M 28.375 37.875L 23.125 39.375L 24.625 34.125L 33.598751 25.151251C 34.634281 24.115715 36.313213 24.115715 37.348751 25.151249C 38.384281 26.186783 38.384281 27.865715 37.348751 28.901249ZM 32.473751 26.276249L 36.223751 30.026249M 24.625 34.125L 28.375 37.875"></path></g></g></g><g id="g-root-tx_document_v6qgzh10nzuof-stroke" data-item-order="1000000000" transform="translate(263, 661)"></g><g id="g-root-tx_concepti_93dpq510nstfq-stroke" data-item-order="1000000000" transform="translate(287, 54)"></g><g id="g-root-tx_testsrob_1uuwrr110o2m85-stroke" data-item-order="1000000000" transform="translate(499, 661)"></g><g id="g-root-2_i0w8e510nx1qi-stroke" data-item-order="1000000000" transform="translate(27, 670)"><g id="2_i0w8e510nx1qi-stroke" fill="none" stroke-linecap="round" stroke-linejoin="round" stroke-miterlimit="4" stroke="#1eabda" stroke-width="2"><g><path d="M 38.92857 29.285713C 38.927002 27.755362 38.109528 26.341969 36.783813 25.577471C 35.458096 24.812975 33.825325 24.813393 32.5 25.578571L 32.5 19.642857C 32.5 18.459389 31.540611 17.5 30.357141 17.5L 24.421429 17.5C 25.466135 15.699037 25.06535 13.407779 23.471329 12.068382C 21.877308 10.728986 19.551262 10.728986 17.957241 12.068382C 16.363222 13.407779 15.962435 15.699037 17.007143 17.5L 13.214286 17.5C 12.030818 17.5 11.071428 18.459389 11.071428 19.642857L 11.071428 24.057142C 11.422008 23.97084 11.781813 23.927664 12.142857 23.928572C 14.509791 23.928572 16.428572 25.847351 16.428572 28.214285C 16.428572 30.581219 14.509791 32.5 12.142857 32.5C 11.781813 32.500908 11.422008 32.457729 11.071428 32.371426L 11.071428 36.785713C 11.071428 37.969181 12.030818 38.92857 13.214286 38.92857L 18.699999 38.92857C 18.613697 38.577991 18.57052 38.218185 18.571428 37.857143C 18.571428 35.490208 20.490208 33.571426 22.857143 33.571426C 25.224077 33.571426 27.142857 35.490208 27.142857 37.857143C 27.143764 38.218185 27.100588 38.577991 27.014286 38.92857L 30.357141 38.92857C 31.540611 38.92857 32.5 37.969181 32.5 36.785713L 32.5 32.992855C 33.825325 33.758034 35.458096 33.758453 36.783813 32.993958C 38.109528 32.229458 38.927002 30.816067 38.92857 29.285713Z"></path></g></g></g><g id="g-root-draw_7qph910nsu8f-stroke" data-item-order="1000000000" transform="translate(251, 51)"><g id="draw_7qph910nsu8f-stroke" fill="none" stroke-linecap="round" stroke-linejoin="round" stroke-miterlimit="4" stroke="#484848" stroke-width="2"><g><path d="M 31.800001 17.5L 31.800001 11.875C 31.800001 11.184644 31.240356 10.625 30.550001 10.625L 13.05 10.625C 12.359644 10.625 11.8 11.184644 11.8 11.875L 11.8 38.125C 11.8 38.815353 12.359644 39.375 13.05 39.375L 29.924999 39.375C 30.615356 39.375 31.175001 38.815353 31.175001 38.125M 10.55 16.875L 13.675 16.875M 10.55 21.875L 13.675 21.875M 10.55 26.875L 13.675 26.875M 10.55 31.875L 13.675 31.875M 10.55 36.875L 13.675 36.875M 19.475 21.875C 18.312773 21.546419 17.329502 20.76804 16.742952 19.71225C 16.156401 18.656458 16.014977 17.410387 16.35 16.25C 16.614622 15.321357 17.237623 14.536036 18.081718 14.067094C 18.925816 13.598151 19.92173 13.484075 20.85 13.75C 22.391613 14.19784 23.284195 15.804488 22.85 17.35C 22.487146 18.564812 21.226067 19.272787 20 18.950001C 19.023975 18.654779 18.466803 17.629583 18.75 16.65M 34.012497 21.525C 32.118439 19.862965 29.466888 19.370314 27.102238 20.241089C 24.737587 21.111864 23.038803 23.206514 22.675001 25.700001L 22.575001 26.325001C 22.426291 27.360678 23.145468 28.320761 24.181183 28.469213C 25.216898 28.617666 26.176804 27.898251 26.324999 26.862499L 26.425001 26.237499C 26.571064 25.212025 27.217709 24.326405 28.150002 23.875M 32.8125 27.1L 33.612499 28.1875C 34.020782 28.73103 34.060066 29.467419 33.711929 30.051304C 33.363792 30.635185 32.697289 30.950752 32.024998 30.85L 32.025002 30.85L 27.700001 30.225C 26.66461 30.076855 25.705114 30.795963 25.556713 31.831314C 25.408314 32.866669 26.127184 33.82634 27.162498 33.974998L 31.487501 34.599998C 33.099998 37.25 35.787498 37.012501 38.325001 36.125M 36.474998 24.362499L 39.450001 28.362499M 26.125 27.4L 36.25 19.8125C 37.081879 19.194632 38.257133 19.368122 38.875004 20.200001C 39.49287 21.031879 39.319382 22.207132 38.487503 22.825001L 28.412498 30.325001M 25.012501 32.912498L 19.887501 34.400002L 22.775 29.9L 24.725 28.450001M 34.9375 20.825001L 37.1875 23.825001M 22.775 29.9L 25.012501 32.912498M 25.599998 32.474998L 25.012501 32.912498"></path></g></g></g></g></g></svg>