<?xml version="1.0" encoding="utf-8" standalone="yes"?>
<!DOCTYPE svg PUBLIC "-//W3C//DTD SVG 1.1//EN" "http://www.w3.org/Graphics/SVG/1.1/DTD/svg11.dtd">
<svg width="660" height="736" viewBox="0 0 660 736" style="fill:none;stroke:none;fill-rule:evenodd;clip-rule:evenodd;stroke-linecap:round;stroke-linejoin:round;stroke-miterlimit:1.5;" version="1.1" xmlns="http://www.w3.org/2000/svg" xmlns:xlink="http://www.w3.org/1999/xlink"><style id="fontImports">@import url("https://fonts.googleapis.com/css2?family=Roboto:wght@400;700&amp;display=block");</style><rect id="" x="0" y="0" width="660" height="736" style="fill: #ffffff;"></rect><g id="items" style="isolation: isolate"><g id="blend" style="mix-blend-mode: normal"><g id="g-root-tf_90g3111hq4uh-fill" data-item-order="-482972" transform="translate(-9, -9)"><g id="tf_90g3111hq4uh-fill" stroke="none" fill="#ffffff"><g><path d="M 10 10L 668 10L 668 744L 10 744Z"></path></g></g></g><g id="g-root-ro_1qbd17x11i8flt-fill" data-item-order="-19584" transform="translate(227, 581)"><g id="ro_1qbd17x11i8flt-fill" stroke="none" fill="#e8f9ff"><g><path d="M 22 10L 202 10C 202 10 214 10 214 22L 214 94C 214 94 214 106 202 106L 22 106C 22 106 10 106 10 94L 10 22C 10 22 10 10 22 10"></path></g></g></g><g id="g-root-ro_m7d8bx11i8flv-fill" data-item-order="-18432" transform="translate(233, 429)"><g id="ro_m7d8bx11i8flv-fill" stroke="none" fill="#e8f9ff"><g><path d="M 22 10L 190 10C 190 10 202 10 202 22L 202 94C 202 94 202 106 190 106L 22 106C 22 106 10 106 10 94L 10 22C 10 22 10 10 22 10"></path></g></g></g><g id="g-root-ro_1qf3vql11i47wp-fill" data-item-order="-18432" transform="translate(15, 581)"><g id="ro_1qf3vql11i47wp-fill" stroke="none" fill="#e8f9ff"><g><path d="M 22 10L 190 10C 190 10 202 10 202 22L 202 94C 202 94 202 106 190 106L 22 106C 22 106 10 106 10 94L 10 22C 10 22 10 10 22 10"></path></g></g></g><g id="g-root-ro_dkgval11i01kx-fill" data-item-order="-17280" transform="translate(21, 277)"><g id="ro_dkgval11i01kx-fill" stroke="none" fill="#e8f9ff"><g><path d="M 22 10L 178 10C 178 10 190 10 190 22L 190 94C 190 94 190 106 178 106L 22 106C 22 106 10 106 10 94L 10 22C 10 22 10 10 22 10"></path></g></g></g><g id="g-root-ro_dfh2lp11i7099-fill" data-item-order="-17280" transform="translate(239, 277)"><g id="ro_dfh2lp11i7099-fill" stroke="none" fill="#e8f9ff"><g><path d="M 22 10L 178 10C 178 10 190 10 190 22L 190 94C 190 94 190 106 178 106L 22 106C 22 106 10 106 10 94L 10 22C 10 22 10 10 22 10"></path></g></g></g><g id="g-root-ro_1uuawrx11ib7k7-fill" data-item-order="-17280" transform="translate(445, 429)"><g id="ro_1uuawrx11ib7k7-fill" stroke="none" fill="#e8f9ff"><g><path d="M 22 10L 178 10C 178 10 190 10 190 22L 190 94C 190 94 190 106 178 106L 22 106C 22 106 10 106 10 94L 10 22C 10 22 10 10 22 10"></path></g></g></g><g id="g-root-ro_750tp11hq51i-fill" data-item-order="-16128" transform="translate(451, 581)"><g id="ro_750tp11hq51i-fill" stroke="none" fill="#e8f9ff"><g><path d="M 22 10L 166 10C 166 10 178 10 178 22L 178 94C 178 94 178 106 166 106L 22 106C 22 106 10 106 10 94L 10 22C 10 22 10 10 22 10"></path></g></g></g><g id="g-root-ro_qvawkt11i9sst-fill" data-item-order="-16128" transform="translate(451, 277)"><g id="ro_qvawkt11i9sst-fill" stroke="none" fill="#e8f9ff"><g><path d="M 22 10L 166 10C 166 10 178 10 178 22L 178 94C 178 94 178 106 166 106L 22 106C 22 106 10 106 10 94L 10 22C 10 22 10 10 22 10"></path></g></g></g><g id="g-root-ro_7rer111i5lov-fill" data-item-order="-13824" transform="translate(233, 149)"><g id="ro_7rer111i5lov-fill" stroke="none" fill="#e8f9ff"><g><path d="M 22 10L 190 10C 190 10 202 10 202 22L 202 70C 202 70 202 82 190 82L 22 82C 22 82 10 82 10 70L 10 22C 10 22 10 10 22 10"></path></g></g></g><g id="g-root-ro_145igrx11i2sjq-fill" data-item-order="-13824" transform="translate(39, 429)"><g id="ro_145igrx11i2sjq-fill" stroke="none" fill="#e8f9ff"><g><path d="M 22 10L 142 10C 142 10 154 10 154 22L 154 94C 154 94 154 106 142 106L 22 106C 22 106 10 106 10 94L 10 22C 10 22 10 10 22 10"></path></g></g></g><g id="g-root-ro_1hgci2511hx7uz-fill" data-item-order="-11232" transform="translate(33, 149)"><g id="ro_1hgci2511hx7uz-fill" stroke="none" fill="#e8f9ff"><g><path d="M 22 10L 154 10C 154 10 166 10 166 22L 166 70C 166 70 166 82 154 82L 22 82C 22 82 10 82 10 70L 10 22C 10 22 10 10 22 10"></path></g></g></g><g id="g-root-ro_254z111i9udr-fill" data-item-order="-8640" transform="translate(475, 149)"><g id="ro_254z111i9udr-fill" stroke="none" fill="#e8f9ff"><g><path d="M 22 10L 118 10C 118 10 130 10 130 22L 130 70C 130 70 130 82 118 82L 22 82C 22 82 10 82 10 70L 10 22C 10 22 10 10 22 10"></path></g></g></g><g id="g-root-ro_140io3111hudqc-fill" data-item-order="-7776" transform="translate(257, 39)"><g id="ro_140io3111hudqc-fill" stroke="none" fill="#f5f5f5"><g><path d="M 22 10L 142 10C 142 10 154 10 154 22L 154 52C 154 52 154 64 142 64L 22 64C 22 64 10 64 10 52L 10 22C 10 22 10 10 22 10"></path></g></g></g><g id="g-root-cu_4o7h4d11hq77y-fill" data-item-order="2" transform="translate(535, 525)"></g><g id="g-root-cu_940z8t11hq6ff-fill" data-item-order="2" transform="translate(329, 525)"></g><g id="g-root-cu_940z8t11hq6f4-fill" data-item-order="2" transform="translate(111, 525)"></g><g id="g-root-cu_4o7h4d11hq77q-fill" data-item-order="2" transform="translate(329, 93)"></g><g id="g-root-cu_940z8t11hq6f7-fill" data-item-order="2" transform="translate(329, 93)"></g><g id="g-root-cu_4o7h4d11hq77v-fill" data-item-order="2" transform="translate(535, 373)"></g><g id="g-root-cu_940z8t11hq6fc-fill" data-item-order="2" transform="translate(329, 373)"></g><g id="g-root-cu_djuhd911hq5mt-fill" data-item-order="2" transform="translate(111, 373)"></g><g id="g-root-cu_4o7h4d11hq77s-fill" data-item-order="2" transform="translate(535, 221)"></g><g id="g-root-cu_djuhd911hq5mq-fill" data-item-order="2" transform="translate(111, 221)"></g><g id="g-root-cu_940z8t11hq5n3-fill" data-item-order="2" transform="translate(111, 93)"></g><g id="g-root-cu_940z8t11hq6f9-fill" data-item-order="2" transform="translate(329, 221)"></g><g id="g-root-tx_explorer_qqb3vx11i71u3-fill" data-item-order="1000000000" transform="translate(287, 289)"><g id="tx_explorer_qqb3vx11i71u3-fill" stroke="none" fill="#1eabda"><g><text style="font: 20px Roboto, sans-serif; white-space: pre;" font-size="20px" font-family="Roboto, sans-serif"><tspan x="12" y="34" dominant-baseline="ideographic">Explorer les </tspan><tspan x="12" y="58" dominant-baseline="ideographic">design </tspan><tspan x="12" y="82" dominant-baseline="ideographic">patterns</tspan></text></g></g></g><g id="g-root-baby_i0adf111i00so-fill" data-item-order="1000000000" transform="translate(33, 310)"></g><g id="g-root-tx_commence_vbqvsd11hzz7r-fill" data-item-order="1000000000" transform="translate(69, 301)"><g id="tx_commence_vbqvsd11hzz7r-fill" stroke="none" fill="#1eabda"><g><text style="font: 20px Roboto, sans-serif; white-space: pre;" font-size="20px" font-family="Roboto, sans-serif"><tspan x="12" y="34" dominant-baseline="ideographic">Commencer </tspan><tspan x="12" y="58" dominant-baseline="ideographic">petit</tspan></text></g></g></g><g id="g-root-text_dfh2lp11i7098-fill" data-item-order="1000000000" transform="translate(251, 310)"></g><g id="g-root-ital_zqbfql11i9v5w-fill" data-item-order="1000000000" transform="translate(463, 310)"></g><g id="g-root-tx_utiliser_1464xv111i9udn-fill" data-item-order="1000000000" transform="translate(499, 301)"><g id="tx_utiliser_1464xv111i9udn-fill" stroke="none" fill="#1eabda"><g><text style="font: 20px Roboto, sans-serif; white-space: pre;" font-size="20px" font-family="Roboto, sans-serif"><tspan x="12" y="34" dominant-baseline="ideographic">Utiliser des </tspan><tspan x="12" y="58" dominant-baseline="ideographic">linters</tspan></text></g></g></g><g id="g-root-tx_outils_ddlncd11i9sst-fill" data-item-order="1000000000" transform="translate(523, 173)"><g id="tx_outils_ddlncd11i9sst-fill" stroke="none" fill="#1eabda"><g><text style="font: 20px Roboto, sans-serif; white-space: pre;" font-size="20px" font-family="Roboto, sans-serif"><tspan x="12" y="34" dominant-baseline="ideographic">Outils</tspan></text></g></g></g><g id="g-root-open_8xs57x11i9tl2-fill" data-item-order="1000000000" transform="translate(487, 170)"></g><g id="g-root-tx_apprenti_dilg1911i5n9p-fill" data-item-order="1000000000" transform="translate(281, 173)"><g id="tx_apprenti_dilg1911i5n9p-fill" stroke="none" fill="#1eabda"><g><text style="font: 20px Roboto, sans-serif; white-space: pre;" font-size="20px" font-family="Roboto, sans-serif"><tspan x="12" y="34" dominant-baseline="ideographic">Apprentissage</tspan></text></g></g></g><g id="g-root-boxe_92rxwt11i5o1y-fill" data-item-order="1000000000" transform="translate(245, 170)"></g><g id="g-root-tx_tudierle_zs6uzx11i72m9-fill" data-item-order="1000000000" transform="translate(281, 441)"><g id="tx_tudierle_zs6uzx11i72m9-fill" stroke="none" fill="#1eabda"><g><text style="font: 20px Roboto, sans-serif; white-space: pre;" font-size="20px" font-family="Roboto, sans-serif"><tspan x="12" y="34" dominant-baseline="ideographic">Étudier les </tspan><tspan x="12" y="58" dominant-baseline="ideographic">architectures </tspan><tspan x="12" y="82" dominant-baseline="ideographic">propres</tspan></text></g></g></g><g id="g-root-draw_1qbzib111hx72a-fill" data-item-order="1000000000" transform="translate(45, 170)"></g><g id="g-root-alar_1hgci2511i2u4l-fill" data-item-order="1000000000" transform="translate(51, 462)"></g><g id="g-root-tx_itrersou_1lw606l11i2tcc-fill" data-item-order="1000000000" transform="translate(87, 453)"><g id="tx_itrersou_1lw606l11i2tcc-fill" stroke="none" fill="#1eabda"><g><text style="font: 20px Roboto, sans-serif; white-space: pre;" font-size="20px" font-family="Roboto, sans-serif"><tspan x="12" y="34" dominant-baseline="ideographic">Itérer </tspan><tspan x="12" y="58" dominant-baseline="ideographic">souvent</tspan></text></g></g></g><g id="g-root-hous_qn6qgd11i8etm-fill" data-item-order="1000000000" transform="translate(245, 462)"></g><g id="g-root-mult_8dvu511iba4u-fill" data-item-order="1000000000" transform="translate(457, 462)"></g><g id="g-root-tx_automati_940w3111ib9c5-fill" data-item-order="1000000000" transform="translate(493, 453)"><g id="tx_automati_940w3111ib9c5-fill" stroke="none" fill="#1eabda"><g><text style="font: 20px Roboto, sans-serif; white-space: pre;" font-size="20px" font-family="Roboto, sans-serif"><tspan x="12" y="34" dominant-baseline="ideographic">Automatiser </tspan><tspan x="12" y="58" dominant-baseline="ideographic">les tests</tspan></text></g></g></g><g id="g-root-tx_applique_4mbyp911hx5oh-fill" data-item-order="1000000000" transform="translate(81, 161)"><g id="tx_applique_4mbyp911hx5oh-fill" stroke="none" fill="#1eabda"><g><text style="font: 20px Roboto, sans-serif; white-space: pre;" font-size="20px" font-family="Roboto, sans-serif"><tspan x="12" y="34" dominant-baseline="ideographic">Appliquer </tspan><tspan x="12" y="58" dominant-baseline="ideographic">SOLID</tspan></text></g></g></g><g id="g-root-type_4mc1v111hq7f1-fill" data-item-order="1000000000" transform="translate(463, 614)"></g><g id="g-root-tx_pratique_18gc67h11hucy2-fill" data-item-order="1000000000" transform="translate(305, 54)"><g id="tx_pratique_18gc67h11hucy2-fill" stroke="none" fill="#484848"><g><text style="font: 20px Roboto, sans-serif; white-space: pre;" font-size="20px" font-family="Roboto, sans-serif"><tspan x="12" y="34" dominant-baseline="ideographic">Pratique</tspan></text></g></g></g><g id="g-root-tx_mesurerl_dhz23x11hq6mc-fill" data-item-order="1000000000" transform="translate(499, 593)"><g id="tx_mesurerl_dhz23x11hq6mc-fill" stroke="none" fill="#1eabda"><g><text style="font: 20px Roboto, sans-serif; white-space: pre;" font-size="20px" font-family="Roboto, sans-serif"><tspan x="12" y="34" dominant-baseline="ideographic">Mesurer la </tspan><tspan x="12" y="58" dominant-baseline="ideographic">qualité du </tspan><tspan x="12" y="82" dominant-baseline="ideographic">code</tspan></text></g></g></g><g id="g-root-incr_9mu0d11i47b4-fill" data-item-order="1000000000" transform="translate(27, 614)"></g><g id="g-root-tx_mesurerl_4pgc4t11i46iv-fill" data-item-order="1000000000" transform="translate(63, 605)"><g id="tx_mesurerl_4pgc4t11i46iv-fill" stroke="none" fill="#1eabda"><g><text style="font: 20px Roboto, sans-serif; white-space: pre;" font-size="20px" font-family="Roboto, sans-serif"><tspan x="12" y="34" dominant-baseline="ideographic">Mesurer les </tspan><tspan x="12" y="58" dominant-baseline="ideographic">améliorations</tspan></text></g></g></g><g id="g-root-book_1qbd17x11i8fls-fill" data-item-order="1000000000" transform="translate(239, 614)"></g><g id="g-root-tx_partager_5vzhp11i8e8f-fill" data-item-order="1000000000" transform="translate(275, 605)"><g id="tx_partager_5vzhp11i8e8f-fill" stroke="none" fill="#1eabda"><g><text style="font: 20px Roboto, sans-serif; white-space: pre;" font-size="20px" font-family="Roboto, sans-serif"><tspan x="12" y="34" dominant-baseline="ideographic">Partager les </tspan><tspan x="12" y="58" dominant-baseline="ideographic">connaissances</tspan></text></g></g></g><g id="g-root-3_140io3111hudqb-fill" data-item-order="1000000000" transform="translate(269, 51)"></g><g id="g-root-tf_90g3111hq4uh-stroke" data-item-order="-482972" transform="translate(-9, -9)"></g><g id="g-root-ro_1qbd17x11i8flt-stroke" data-item-order="-19584" transform="translate(227, 581)"><g id="ro_1qbd17x11i8flt-stroke" fill="none" stroke-linecap="round" stroke-linejoin="round" stroke-miterlimit="4" stroke="#1eabda" stroke-width="2"><g><path d="M 22 10L 202 10C 202 10 214 10 214 22L 214 94C 214 94 214 106 202 106L 22 106C 22 106 10 106 10 94L 10 22C 10 22 10 10 22 10"></path></g></g></g><g id="g-root-ro_m7d8bx11i8flv-stroke" data-item-order="-18432" transform="translate(233, 429)"><g id="ro_m7d8bx11i8flv-stroke" fill="none" stroke-linecap="round" stroke-linejoin="round" stroke-miterlimit="4" stroke="#1eabda" stroke-width="2"><g><path d="M 22 10L 190 10C 190 10 202 10 202 22L 202 94C 202 94 202 106 190 106L 22 106C 22 106 10 106 10 94L 10 22C 10 22 10 10 22 10"></path></g></g></g><g id="g-root-ro_1qf3vql11i47wp-stroke" data-item-order="-18432" transform="translate(15, 581)"><g id="ro_1qf3vql11i47wp-stroke" fill="none" stroke-linecap="round" stroke-linejoin="round" stroke-miterlimit="4" stroke="#1eabda" stroke-width="2"><g><path d="M 22 10L 190 10C 190 10 202 10 202 22L 202 94C 202 94 202 106 190 106L 22 106C 22 106 10 106 10 94L 10 22C 10 22 10 10 22 10"></path></g></g></g><g id="g-root-ro_dkgval11i01kx-stroke" data-item-order="-17280" transform="translate(21, 277)"><g id="ro_dkgval11i01kx-stroke" fill="none" stroke-linecap="round" stroke-linejoin="round" stroke-miterlimit="4" stroke="#1eabda" stroke-width="2"><g><path d="M 22 10L 178 10C 178 10 190 10 190 22L 190 94C 190 94 190 106 178 106L 22 106C 22 106 10 106 10 94L 10 22C 10 22 10 10 22 10"></path></g></g></g><g id="g-root-ro_dfh2lp11i7099-stroke" data-item-order="-17280" transform="translate(239, 277)"><g id="ro_dfh2lp11i7099-stroke" fill="none" stroke-linecap="round" stroke-linejoin="round" stroke-miterlimit="4" stroke="#1eabda" stroke-width="2"><g><path d="M 22 10L 178 10C 178 10 190 10 190 22L 190 94C 190 94 190 106 178 106L 22 106C 22 106 10 106 10 94L 10 22C 10 22 10 10 22 10"></path></g></g></g><g id="g-root-ro_1uuawrx11ib7k7-stroke" data-item-order="-17280" transform="translate(445, 429)"><g id="ro_1uuawrx11ib7k7-stroke" fill="none" stroke-linecap="round" stroke-linejoin="round" stroke-miterlimit="4" stroke="#1eabda" stroke-width="2"><g><path d="M 22 10L 178 10C 178 10 190 10 190 22L 190 94C 190 94 190 106 178 106L 22 106C 22 106 10 106 10 94L 10 22C 10 22 10 10 22 10"></path></g></g></g><g id="g-root-ro_750tp11hq51i-stroke" data-item-order="-16128" transform="translate(451, 581)"><g id="ro_750tp11hq51i-stroke" fill="none" stroke-linecap="round" stroke-linejoin="round" stroke-miterlimit="4" stroke="#1eabda" stroke-width="2"><g><path d="M 22 10L 166 10C 166 10 178 10 178 22L 178 94C 178 94 178 106 166 106L 22 106C 22 106 10 106 10 94L 10 22C 10 22 10 10 22 10"></path></g></g></g><g id="g-root-ro_qvawkt11i9sst-stroke" data-item-order="-16128" transform="translate(451, 277)"><g id="ro_qvawkt11i9sst-stroke" fill="none" stroke-linecap="round" stroke-linejoin="round" stroke-miterlimit="4" stroke="#1eabda" stroke-width="2"><g><path d="M 22 10L 166 10C 166 10 178 10 178 22L 178 94C 178 94 178 106 166 106L 22 106C 22 106 10 106 10 94L 10 22C 10 22 10 10 22 10"></path></g></g></g><g id="g-root-ro_7rer111i5lov-stroke" data-item-order="-13824" transform="translate(233, 149)"><g id="ro_7rer111i5lov-stroke" fill="none" stroke-linecap="round" stroke-linejoin="round" stroke-miterlimit="4" stroke="#1eabda" stroke-width="2"><g><path d="M 22 10L 190 10C 190 10 202 10 202 22L 202 70C 202 70 202 82 190 82L 22 82C 22 82 10 82 10 70L 10 22C 10 22 10 10 22 10"></path></g></g></g><g id="g-root-ro_145igrx11i2sjq-stroke" data-item-order="-13824" transform="translate(39, 429)"><g id="ro_145igrx11i2sjq-stroke" fill="none" stroke-linecap="round" stroke-linejoin="round" stroke-miterlimit="4" stroke="#1eabda" stroke-width="2"><g><path d="M 22 10L 142 10C 142 10 154 10 154 22L 154 94C 154 94 154 106 142 106L 22 106C 22 106 10 106 10 94L 10 22C 10 22 10 10 22 10"></path></g></g></g><g id="g-root-ro_1hgci2511hx7uz-stroke" data-item-order="-11232" transform="translate(33, 149)"><g id="ro_1hgci2511hx7uz-stroke" fill="none" stroke-linecap="round" stroke-linejoin="round" stroke-miterlimit="4" stroke="#1eabda" stroke-width="2"><g><path d="M 22 10L 154 10C 154 10 166 10 166 22L 166 70C 166 70 166 82 154 82L 22 82C 22 82 10 82 10 70L 10 22C 10 22 10 10 22 10"></path></g></g></g><g id="g-root-ro_254z111i9udr-stroke" data-item-order="-8640" transform="translate(475, 149)"><g id="ro_254z111i9udr-stroke" fill="none" stroke-linecap="round" stroke-linejoin="round" stroke-miterlimit="4" stroke="#1eabda" stroke-width="2"><g><path d="M 22 10L 118 10C 118 10 130 10 130 22L 130 70C 130 70 130 82 118 82L 22 82C 22 82 10 82 10 70L 10 22C 10 22 10 10 22 10"></path></g></g></g><g id="g-root-ro_140io3111hudqc-stroke" data-item-order="-7776" transform="translate(257, 39)"><g id="ro_140io3111hudqc-stroke" fill="none" stroke-linecap="round" stroke-linejoin="round" stroke-miterlimit="4" stroke="#484848" stroke-width="2"><g><path d="M 22 10L 142 10C 142 10 154 10 154 22L 154 52C 154 52 154 64 142 64L 22 64C 22 64 10 64 10 52L 10 22C 10 22 10 10 22 10"></path></g></g></g><g id="g-root-cu_4o7h4d11hq77y-stroke" data-item-order="2" transform="translate(535, 525)"><g id="cu_4o7h4d11hq77y-stroke" fill="none" stroke-linecap="round" stroke-linejoin="round" stroke-miterlimit="4" stroke="#484848" stroke-width="2"><g><path d="M 10 10L 10 38L 10 64"></path><path d="M 3.5 58L 10 64.5L 16.5 58" stroke-dasharray="none"></path></g></g></g><g id="g-root-cu_940z8t11hq6ff-stroke" data-item-order="2" transform="translate(329, 525)"><g id="cu_940z8t11hq6ff-stroke" fill="none" stroke-linecap="round" stroke-linejoin="round" stroke-miterlimit="4" stroke="#484848" stroke-width="2"><g><path d="M 10 10L 10 38L 10 64"></path><path d="M 3.5 58L 10 64.5L 16.5 58" stroke-dasharray="none"></path></g></g></g><g id="g-root-cu_940z8t11hq6f4-stroke" data-item-order="2" transform="translate(111, 525)"><g id="cu_940z8t11hq6f4-stroke" fill="none" stroke-linecap="round" stroke-linejoin="round" stroke-miterlimit="4" stroke="#484848" stroke-width="2"><g><path d="M 10 10L 10 38L 10 64"></path><path d="M 3.5 58L 10 64.5L 16.5 58" stroke-dasharray="none"></path></g></g></g><g id="g-root-cu_4o7h4d11hq77q-stroke" data-item-order="2" transform="translate(329, 93)"><g id="cu_4o7h4d11hq77q-stroke" fill="none" stroke-linecap="round" stroke-linejoin="round" stroke-miterlimit="4" stroke="#484848" stroke-width="2"><g><path d="M 10 10L 10 24L 10 38L 113 38L 216 38L 216 52L 216 64"></path><path d="M 209.5 58L 216 64.5L 222.5 58" stroke-dasharray="none"></path></g></g></g><g id="g-root-cu_940z8t11hq6f7-stroke" data-item-order="2" transform="translate(329, 93)"><g id="cu_940z8t11hq6f7-stroke" fill="none" stroke-linecap="round" stroke-linejoin="round" stroke-miterlimit="4" stroke="#484848" stroke-width="2"><g><path d="M 10 10L 10 38L 10 64"></path><path d="M 3.5 58L 10 64.5L 16.5 58" stroke-dasharray="none"></path></g></g></g><g id="g-root-cu_4o7h4d11hq77v-stroke" data-item-order="2" transform="translate(535, 373)"><g id="cu_4o7h4d11hq77v-stroke" fill="none" stroke-linecap="round" stroke-linejoin="round" stroke-miterlimit="4" stroke="#484848" stroke-width="2"><g><path d="M 10 10L 10 38L 10 64"></path><path d="M 3.5 58L 10 64.5L 16.5 58" stroke-dasharray="none"></path></g></g></g><g id="g-root-cu_940z8t11hq6fc-stroke" data-item-order="2" transform="translate(329, 373)"><g id="cu_940z8t11hq6fc-stroke" fill="none" stroke-linecap="round" stroke-linejoin="round" stroke-miterlimit="4" stroke="#484848" stroke-width="2"><g><path d="M 10 10L 10 38L 10 64"></path><path d="M 3.5 58L 10 64.5L 16.5 58" stroke-dasharray="none"></path></g></g></g><g id="g-root-cu_djuhd911hq5mt-stroke" data-item-order="2" transform="translate(111, 373)"><g id="cu_djuhd911hq5mt-stroke" fill="none" stroke-linecap="round" stroke-linejoin="round" stroke-miterlimit="4" stroke="#484848" stroke-width="2"><g><path d="M 10 10L 10 38L 10 64"></path><path d="M 3.5 58L 10 64.5L 16.5 58" stroke-dasharray="none"></path></g></g></g><g id="g-root-cu_4o7h4d11hq77s-stroke" data-item-order="2" transform="translate(535, 221)"><g id="cu_4o7h4d11hq77s-stroke" fill="none" stroke-linecap="round" stroke-linejoin="round" stroke-miterlimit="4" stroke="#484848" stroke-width="2"><g><path d="M 10 10L 10 38L 10 64"></path><path d="M 3.5 58L 10 64.5L 16.5 58" stroke-dasharray="none"></path></g></g></g><g id="g-root-cu_djuhd911hq5mq-stroke" data-item-order="2" transform="translate(111, 221)"><g id="cu_djuhd911hq5mq-stroke" fill="none" stroke-linecap="round" stroke-linejoin="round" stroke-miterlimit="4" stroke="#484848" stroke-width="2"><g><path d="M 10 10L 10 38L 10 64"></path><path d="M 3.5 58L 10 64.5L 16.5 58" stroke-dasharray="none"></path></g></g></g><g id="g-root-cu_940z8t11hq5n3-stroke" data-item-order="2" transform="translate(111, 93)"><g id="cu_940z8t11hq5n3-stroke" fill="none" stroke-linecap="round" stroke-linejoin="round" stroke-miterlimit="4" stroke="#484848" stroke-width="2"><g><path d="M 228 10L 228 24L 228 38L 119 38L 10 38L 10 52L 10 64"></path><path d="M 3.5 58L 10 64.5L 16.5 58" stroke-dasharray="none"></path></g></g></g><g id="g-root-cu_940z8t11hq6f9-stroke" data-item-order="2" transform="translate(329, 221)"><g id="cu_940z8t11hq6f9-stroke" fill="none" stroke-linecap="round" stroke-linejoin="round" stroke-miterlimit="4" stroke="#484848" stroke-width="2"><g><path d="M 10 10L 10 38L 10 64"></path><path d="M 3.5 58L 10 64.5L 16.5 58" stroke-dasharray="none"></path></g></g></g><g id="g-root-tx_explorer_qqb3vx11i71u3-stroke" data-item-order="1000000000" transform="translate(287, 289)"></g><g id="g-root-baby_i0adf111i00so-stroke" data-item-order="1000000000" transform="translate(33, 310)"><g id="baby_i0adf111i00so-stroke" fill="none" stroke-linecap="round" stroke-linejoin="round" stroke-miterlimit="4" stroke="#1eabda" stroke-width="2"><g><path d="M 25 12.1875C 26.613678 12.217911 27.95019 13.449219 28.112501 15.055C 28.252804 16.455814 27.231895 17.705519 25.831249 17.8475C 24.710304 17.960884 23.709906 17.143545 23.5975 16.022501C 23.577658 15.848013 23.586952 15.67144 23.625 15.5M 21.875 24.6875C 21.875 25.463751 21.035 26.09375 20 26.09375C 18.965 26.09375 18.125 25.46875 18.125 24.6875M 28.125 24.6875C 28.125 25.463751 28.965 26.09375 30 26.09375C 31.035 26.09375 31.875 25.46875 31.875 24.6875M 22.06625 31.5625C 22.778715 32.436779 23.875923 32.904274 25 32.8125C 26.124077 32.904274 27.221285 32.436779 27.93375 31.5625M 39.375 25.9375C 39.374889 24.503944 38.399406 23.254316 37.008751 22.90625C 36.193829 16.86241 31.097233 12.313299 24.999998 12.1875C 18.902763 12.313299 13.80617 16.86241 12.99125 22.90625C 11.516904 23.276281 10.522676 24.653532 10.635603 26.169403C 10.74853 27.685276 11.93585 28.900009 13.44875 29.047501C 14.970806 34.178993 19.648205 37.728165 25.000002 37.812504C 30.351799 37.728165 35.029194 34.178993 36.55125 29.047501C 38.15279 28.892389 39.374771 27.546535 39.375 25.9375Z"></path></g></g></g><g id="g-root-tx_commence_vbqvsd11hzz7r-stroke" data-item-order="1000000000" transform="translate(69, 301)"></g><g id="g-root-text_dfh2lp11i7098-stroke" data-item-order="1000000000" transform="translate(251, 310)"><g id="text_dfh2lp11i7098-stroke" fill="none" stroke-linecap="round" stroke-linejoin="round" stroke-miterlimit="4" stroke="#1eabda" stroke-width="2"><g><path d="M 36.508751 15.625C 36.743187 15.859366 36.874928 16.177258 36.875 16.508749L 36.875 38.125C 36.875 38.815353 36.315353 39.375 35.625 39.375L 14.375 39.375C 13.684644 39.375 13.125 38.815353 13.125 38.125L 13.125 11.875C 13.125 11.184644 13.684644 10.625 14.375 10.625L 30.991249 10.625C 31.322744 10.625071 31.640635 10.756813 31.875 10.99125ZM 19.375 24.375L 19.375 22.5C 19.375 22.154823 19.654821 21.875 20 21.875L 28.75 21.875C 29.095177 21.875 29.375 22.154823 29.375 22.5L 29.375 24.375M 24.375 21.875L 24.375 34.375M 21.875 34.375L 26.875 34.375"></path></g></g></g><g id="g-root-ital_zqbfql11i9v5w-stroke" data-item-order="1000000000" transform="translate(463, 310)"><g id="ital_zqbfql11i9v5w-stroke" fill="none" stroke-linecap="round" stroke-linejoin="round" stroke-miterlimit="4" stroke="#1eabda" stroke-width="2"><g><path d="M 19.642857 38.92857L 30.357141 11.071428M 21.785713 11.071428L 37.857143 11.071428M 12.142857 38.92857L 28.214285 38.92857"></path></g></g></g><g id="g-root-tx_utiliser_1464xv111i9udn-stroke" data-item-order="1000000000" transform="translate(499, 301)"></g><g id="g-root-tx_outils_ddlncd11i9sst-stroke" data-item-order="1000000000" transform="translate(523, 173)"></g><g id="g-root-open_8xs57x11i9tl2-stroke" data-item-order="1000000000" transform="translate(487, 170)"><g id="open_8xs57x11i9tl2-stroke" fill="none" stroke-linecap="round" stroke-linejoin="round" stroke-miterlimit="4" stroke="#1eabda" stroke-width="2"><g><path d="M 22.80125 35.443748C 22.38777 35.443436 21.991554 35.277931 21.700708 34.984032C 21.409863 34.690136 21.248499 34.292213 21.252501 33.87875L 21.252501 33.87875C 21.261408 33.029064 21.952765 32.344955 22.802502 32.345001L 27.264999 32.345001C 28.120064 32.346378 28.812502 33.039936 28.8125 33.895L 28.8125 33.895C 28.811811 34.750065 28.118816 35.443062 27.26375 35.443748L 22.80125 35.443748ZM 39.0625 29.2925L 39.0625 37.514999C 39.0625 38.189999 38.516251 38.736252 37.841251 38.736252L 12.20875 38.736252C 11.534272 38.736252 10.9875 38.189476 10.9875 37.514999L 10.9875 29.2925M 39.0625 29.2925L 10.9875 29.2925M 10.9375 16.7575L 10.9375 12.485C 10.9375 11.809999 11.48375 11.26375 12.15875 11.26375L 37.791248 11.26375C 38.466251 11.26375 39.012497 11.809999 39.012497 12.485L 39.012497 16.7575M 20.940001 22.80875C 20.421259 23.55356 19.687845 24.122589 18.8375 24.440001L 18.8225 29.2925L 15.6625 29.2925L 15.67875 24.43C 13.942716 23.768337 12.797587 22.101076 12.803146 20.243235C 12.808704 18.385391 13.963788 16.725012 15.703751 16.07375L 15.695001 19.46125L 17.27 21.046249L 18.852499 19.471251L 18.862499 16.08375C 20.146893 16.573273 21.134344 17.626934 21.539598 18.940351C 21.944855 20.253769 21.722771 21.680632 20.9375 22.80875ZM 23.672501 29.2925L 23.688751 24.705L 27.58625 24.7075L 27.58625 29.2925L 23.67375 29.2925ZM 23.967499 16.075001L 27.311251 16.075001L 27.311251 17.725C 27.311251 18.648352 26.562725 19.396875 25.639374 19.396875C 24.716022 19.396875 23.967499 18.648352 23.967499 17.725L 23.967499 16.075001ZM 25.629999 19.39875L 25.629999 24.705M 35.076252 22.87125C 36.704334 22.076376 37.561134 20.256706 37.13665 18.495373C 36.712166 16.734037 35.120491 15.504454 33.309048 15.538513C 31.497604 15.572574 29.953276 16.861124 29.595303 18.637169C 29.237331 20.413216 30.161932 22.199392 31.818748 22.932499L 31.809999 29.2925L 35.076252 29.2925L 35.076252 22.87125ZM 31.928749 19.39875C 31.92865 20.201706 32.579544 20.852682 33.3825 20.852682C 34.185455 20.852682 34.836349 20.201706 34.83625 19.39875C 34.836349 18.595795 34.185455 17.944817 33.3825 17.944817C 32.579544 17.944817 31.92865 18.595795 31.928749 19.39875"></path></g></g></g><g id="g-root-tx_apprenti_dilg1911i5n9p-stroke" data-item-order="1000000000" transform="translate(281, 173)"></g><g id="g-root-boxe_92rxwt11i5o1y-stroke" data-item-order="1000000000" transform="translate(245, 170)"><g id="boxe_92rxwt11i5o1y-stroke" fill="none" stroke-linecap="round" stroke-linejoin="round" stroke-miterlimit="4" stroke="#1eabda" stroke-width="2"><g><path d="M 22.813751 13.75C 22.813751 15.47589 24.21286 16.875 25.938751 16.875C 27.66464 16.875 29.063751 15.47589 29.063751 13.75C 29.063751 12.02411 27.66464 10.625 25.938751 10.625C 24.21286 10.625 22.813751 12.02411 22.813751 13.75ZM 29.6875 23.125L 29.6875 19.375L 33.016251 19.375C 34.974789 19.375 36.5625 20.962711 36.5625 22.921249C 36.565063 24.177452 35.702076 25.269943 34.479416 25.55831C 33.25676 25.846678 31.996546 25.254953 31.437502 24.130001L 30.9375 23.129999ZM 30.9375 23.125L 33.4375 23.125M 29.6875 19.375L 22.1875 19.375C 21.433889 19.374823 20.753407 19.825851 20.459999 20.52L 13.585 36.77C 13.181832 37.724072 13.628428 38.824333 14.5825 39.227501C 15.536572 39.630669 16.636833 39.184071 17.040001 38.230003L 19.512501 32.38625L 22.205 33.366249C 22.944141 33.635849 23.436354 34.33823 23.4375 35.125L 23.4375 37.5C 23.4375 38.535534 24.276966 39.375 25.3125 39.375C 26.348034 39.375 27.1875 38.535534 27.1875 37.5L 27.1875 35.125C 27.183458 32.761009 25.705257 30.650503 23.485001 29.838751L 20.975 28.9275L 23.43 23.125L 29.6875 23.125"></path></g></g></g><g id="g-root-tx_tudierle_zs6uzx11i72m9-stroke" data-item-order="1000000000" transform="translate(281, 441)"></g><g id="g-root-draw_1qbzib111hx72a-stroke" data-item-order="1000000000" transform="translate(45, 170)"><g id="draw_1qbzib111hx72a-stroke" fill="none" stroke-linecap="round" stroke-linejoin="round" stroke-miterlimit="4" stroke="#1eabda" stroke-width="2"><g><path d="M 31.800001 17.5L 31.800001 11.875C 31.800001 11.184644 31.240356 10.625 30.550001 10.625L 13.05 10.625C 12.359644 10.625 11.8 11.184644 11.8 11.875L 11.8 38.125C 11.8 38.815353 12.359644 39.375 13.05 39.375L 29.924999 39.375C 30.615356 39.375 31.175001 38.815353 31.175001 38.125M 10.55 16.875L 13.675 16.875M 10.55 21.875L 13.675 21.875M 10.55 26.875L 13.675 26.875M 10.55 31.875L 13.675 31.875M 10.55 36.875L 13.675 36.875M 19.475 21.875C 18.312773 21.546419 17.329502 20.76804 16.742952 19.71225C 16.156401 18.656458 16.014977 17.410387 16.35 16.25C 16.614622 15.321357 17.237623 14.536036 18.081718 14.067094C 18.925816 13.598151 19.92173 13.484075 20.85 13.75C 22.391613 14.19784 23.284195 15.804488 22.85 17.35C 22.487146 18.564812 21.226067 19.272787 20 18.950001C 19.023975 18.654779 18.466803 17.629583 18.75 16.65M 34.012497 21.525C 32.118439 19.862965 29.466888 19.370314 27.102238 20.241089C 24.737587 21.111864 23.038803 23.206514 22.675001 25.700001L 22.575001 26.325001C 22.426291 27.360678 23.145468 28.320761 24.181183 28.469213C 25.216898 28.617666 26.176804 27.898251 26.324999 26.862499L 26.425001 26.237499C 26.571064 25.212025 27.217709 24.326405 28.150002 23.875M 32.8125 27.1L 33.612499 28.1875C 34.020782 28.73103 34.060066 29.467419 33.711929 30.051304C 33.363792 30.635185 32.697289 30.950752 32.024998 30.85L 32.025002 30.85L 27.700001 30.225C 26.66461 30.076855 25.705114 30.795963 25.556713 31.831314C 25.408314 32.866669 26.127184 33.82634 27.162498 33.974998L 31.487501 34.599998C 33.099998 37.25 35.787498 37.012501 38.325001 36.125M 36.474998 24.362499L 39.450001 28.362499M 26.125 27.4L 36.25 19.8125C 37.081879 19.194632 38.257133 19.368122 38.875004 20.200001C 39.49287 21.031879 39.319382 22.207132 38.487503 22.825001L 28.412498 30.325001M 25.012501 32.912498L 19.887501 34.400002L 22.775 29.9L 24.725 28.450001M 34.9375 20.825001L 37.1875 23.825001M 22.775 29.9L 25.012501 32.912498M 25.599998 32.474998L 25.012501 32.912498"></path></g></g></g><g id="g-root-alar_1hgci2511i2u4l-stroke" data-item-order="1000000000" transform="translate(51, 462)"><g id="alar_1hgci2511i2u4l-stroke" fill="none" stroke-linecap="round" stroke-linejoin="round" stroke-miterlimit="4" stroke="#1eabda" stroke-width="2"><g><path d="M 13.214286 27.142857C 13.214286 33.651928 18.490931 38.92857 25 38.92857C 31.509069 38.92857 36.785713 33.651928 36.785713 27.142857C 36.785713 20.633787 31.509069 15.357143 25 15.357143C 18.490931 15.357143 13.214286 20.633787 13.214286 27.142857M 21.785713 11.071428L 28.214285 11.071428M 25 11.071428L 25 15.357142M 21.785713 22.857143L 25 27.142857L 30.357141 27.142857M 35.714287 14.285714L 37.857143 16.428572M 14.285714 14.285714L 12.142857 16.428572"></path></g></g></g><g id="g-root-tx_itrersou_1lw606l11i2tcc-stroke" data-item-order="1000000000" transform="translate(87, 453)"></g><g id="g-root-hous_qn6qgd11i8etm-stroke" data-item-order="1000000000" transform="translate(245, 462)"><g id="hous_qn6qgd11i8etm-stroke" fill="none" stroke-linecap="round" stroke-linejoin="round" stroke-miterlimit="4" stroke="#1eabda" stroke-width="2"><g><path d="M 23.125 33.125L 23.125 30C 23.125 28.964466 23.964466 28.125 25 28.125C 26.035534 28.125 26.875 28.964466 26.875 30L 26.875 33.125M 20.625 25.852501L 20.625 32.5C 20.625 32.845177 20.904823 33.125 21.25 33.125L 28.75 33.125C 29.095177 33.125 29.375 32.845177 29.375 32.5L 29.375 25.852501M 18.125 28.125L 24.58 22.2575C 24.818264 22.041292 25.181736 22.041292 25.42 22.2575L 31.875 28.125M 33.125 13.125L 34.375 13.125C 35.065353 13.125 35.625 13.684644 35.625 14.375L 35.625 38.125C 35.625 38.815353 35.065353 39.375 34.375 39.375L 15.625 39.375C 14.934644 39.375 14.375 38.815353 14.375 38.125L 14.375 14.375C 14.375 13.684644 14.934644 13.125 15.625 13.125L 16.875 13.125M 27.5 13.125C 27.5 11.744288 26.380713 10.625 25 10.625C 23.619287 10.625 22.5 11.744288 22.5 13.125L 20 13.125C 19.654821 13.125 19.375 13.404822 19.375 13.75L 19.375 16.25C 19.375 16.595179 19.654821 16.875 20 16.875L 30 16.875C 30.345177 16.875 30.625 16.595179 30.625 16.25L 30.625 13.75C 30.625 13.404822 30.345177 13.125 30 13.125Z"></path></g></g></g><g id="g-root-mult_8dvu511iba4u-stroke" data-item-order="1000000000" transform="translate(457, 462)"><g id="mult_8dvu511iba4u-stroke" fill="none" stroke-linecap="round" stroke-linejoin="round" stroke-miterlimit="4" stroke="#1eabda" stroke-width="2"><g><path d="M 16.875 31.25L 14.375 31.25C 13.684644 31.25 13.125 30.690355 13.125 30L 13.125 12.5C 13.125 11.809644 13.684644 11.25 14.375 11.25L 28.125 11.25C 28.815357 11.25 29.375 11.809644 29.375 12.5L 29.375 15M 20.625 35L 18.125 35C 17.434645 35 16.875 34.440353 16.875 33.75L 16.875 16.25C 16.875 15.559644 17.434645 15 18.125 15L 31.875 15C 32.565353 15 33.125 15.559644 33.125 16.25L 33.125 18.75M 21.875 18.75L 35.625 18.75C 35.625 18.75 36.875 18.75 36.875 20L 36.875 37.5C 36.875 37.5 36.875 38.75 35.625 38.75L 21.875 38.75C 21.875 38.75 20.625 38.75 20.625 37.5L 20.625 20C 20.625 20 20.625 18.75 21.875 18.75M 23.125 23.75L 23.5825 24.665001C 23.669333 24.839382 23.834822 24.961285 24.027107 24.992506C 24.219397 25.023729 24.414953 24.960449 24.5525 24.8225L 26.875 22.5M 29.375 23.75L 34.375 23.75M 23.125 30L 23.5825 30.915001C 23.669333 31.089382 23.834822 31.211283 24.027107 31.242506C 24.219397 31.273727 24.414953 31.210449 24.5525 31.0725L 26.875 28.75M 29.375 30L 34.375 30M 29.375 33.75L 31.875 33.75"></path></g></g></g><g id="g-root-tx_automati_940w3111ib9c5-stroke" data-item-order="1000000000" transform="translate(493, 453)"></g><g id="g-root-tx_applique_4mbyp911hx5oh-stroke" data-item-order="1000000000" transform="translate(81, 161)"></g><g id="g-root-type_4mc1v111hq7f1-stroke" data-item-order="1000000000" transform="translate(463, 614)"><g id="type_4mc1v111hq7f1-stroke" fill="none" stroke-linecap="round" stroke-linejoin="round" stroke-miterlimit="4" stroke="#1eabda" stroke-width="2"><g><path d="M 20.43125 29.952499L 20.783751 28.723751C 20.929417 28.214615 20.634764 27.68379 20.125626 27.538126C 19.616488 27.392462 19.085667 27.687113 18.940001 28.196251L 18.59 29.4275M 17.536249 33.11375L 18.59 29.4275C 18.716297 29.08938 18.642267 28.708994 18.398382 28.442919C 18.154499 28.176842 17.781982 28.070047 17.434168 28.166492C 17.086355 28.262938 16.822031 28.546324 16.75 28.900002L 16.225 30.7425M 20.75 39.375C 22.096251 38.053749 23.5 36.474998 23.5 36.474998C 23.803562 36.233063 23.87825 35.802341 23.673864 35.472328C 23.469479 35.142311 23.050594 35.017273 22.69875 35.181248L 20.52125 36.625L 22.27125 30.481251C 22.369637 30.150507 22.2827 29.792408 22.043613 29.543594C 21.804527 29.294783 21.450178 29.193642 21.115778 29.27877C 20.781376 29.363895 20.518517 29.622154 20.4275 29.955L 19.375 33.638748M 15.43125 33.5075L 16.219999 30.7425C 16.364799 30.232956 16.069029 29.702528 15.559447 29.557869C 15.049866 29.413212 14.519517 29.709127 14.375 30.21875L 12.625 36.361252C 12.330325 37.383373 12.564741 38.48513 13.25 39.298752M 29.637501 29.952499L 29.286249 28.723751C 29.15974 28.221857 29.454435 27.710154 29.952036 27.567694C 30.449636 27.425232 30.970482 27.703449 31.12875 28.196251L 31.47875 29.4275M 32.532497 33.11375L 31.47875 29.4275C 31.353153 28.925264 31.648417 28.4139 32.146175 28.271587C 32.643932 28.129274 33.164879 28.407276 33.32375 28.900002L 33.848751 30.7425M 29.313751 39.375C 27.967499 38.053749 26.571251 36.474998 26.571251 36.474998C 26.269199 36.232841 26.195221 35.803429 26.398827 35.474163C 26.602432 35.144894 27.019655 35.019218 27.37125 35.181248L 29.54875 36.625L 27.79875 30.481251C 27.700363 30.150507 27.7873 29.792408 28.026386 29.543594C 28.265472 29.294783 28.619822 29.193642 28.954222 29.27877C 29.288624 29.363895 29.551483 29.622154 29.6425 29.955L 30.695 33.641251M 34.637497 33.5075L 33.848751 30.7425C 33.743664 30.409544 33.827888 30.045784 34.068619 29.792898C 34.309349 29.54001 34.668522 29.437983 35.006248 29.526546C 35.343971 29.615114 35.60685 29.880272 35.692497 30.21875L 37.442501 36.361252C 37.737175 37.383373 37.502762 38.48513 36.817505 39.298752M 18.16 10.6275L 31.91 10.6275C 31.91 10.6275 33.16 10.6275 33.16 11.8775L 33.16 21.877501C 33.16 21.877501 33.16 23.127501 31.91 23.127501L 18.16 23.127501C 18.16 23.127501 16.91 23.127501 16.91 21.877501L 16.91 11.8775C 16.91 11.8775 16.91 10.6275 18.16 10.6275M 25.035 23.127501L 25.035 25.627501M 16.91 20.627501L 33.16 20.627501M 21.91 25.627501L 28.16 25.627501"></path></g></g></g><g id="g-root-tx_pratique_18gc67h11hucy2-stroke" data-item-order="1000000000" transform="translate(305, 54)"></g><g id="g-root-tx_mesurerl_dhz23x11hq6mc-stroke" data-item-order="1000000000" transform="translate(499, 593)"></g><g id="g-root-incr_9mu0d11i47b4-stroke" data-item-order="1000000000" transform="translate(27, 614)"><g id="incr_9mu0d11i47b4-stroke" fill="none" stroke-linecap="round" stroke-linejoin="round" stroke-miterlimit="4" stroke="#1eabda" stroke-width="2"><g><path d="M 10.63 39.0625L 39.380001 39.0625M 15.625 39.0625L 15.625 35.9375C 15.625 35.592323 15.345179 35.3125 15 35.3125L 12.5 35.3125C 12.154822 35.3125 11.875 35.592323 11.875 35.9375L 11.875 39.0625M 23.125 39.0625L 23.125 30.9375C 23.125 30.592323 22.845177 30.3125 22.5 30.3125L 20 30.3125C 19.654821 30.3125 19.375 30.592323 19.375 30.9375L 19.375 39.0625M 30.625 39.0625L 30.625 25.9375C 30.625 25.592323 30.345177 25.3125 30 25.3125L 27.5 25.3125C 27.154823 25.3125 26.875 25.592323 26.875 25.9375L 26.875 39.0625M 38.125 39.0625L 38.125 20.9375C 38.125 20.592323 37.845177 20.3125 37.5 20.3125L 35 20.3125C 34.654823 20.3125 34.375 20.592323 34.375 20.9375L 34.375 39.0625M 13.755 26.5625L 36.255001 11.5625M 35.630001 16.5625L 36.255001 11.5625L 31.254999 10.9375"></path></g></g></g><g id="g-root-tx_mesurerl_4pgc4t11i46iv-stroke" data-item-order="1000000000" transform="translate(63, 605)"></g><g id="g-root-book_1qbd17x11i8fls-stroke" data-item-order="1000000000" transform="translate(239, 614)"><g id="book_1qbd17x11i8fls-stroke" fill="none" stroke-linecap="round" stroke-linejoin="round" stroke-miterlimit="4" stroke="#1eabda" stroke-width="2"><g><path d="M 27.918751 13.05625L 27.918751 27.981251C 27.918751 27.981251 30.057499 25.6425 37.271248 25.549999C 37.515064 25.54726 37.711266 25.348827 37.71125 25.105001L 37.71125 11.07C 37.710922 10.950993 37.663074 10.837046 37.578339 10.753483C 37.493603 10.66992 37.379002 10.623666 37.260002 10.625C 35.920425 10.638878 34.583611 10.749583 33.259998 10.95625C 31.340401 11.229518 29.511526 11.948738 27.92 13.05625M 27.918751 13.05625L 27.918751 27.981251C 27.918751 27.981251 25.778749 25.6425 18.565001 25.549999C 18.321188 25.54726 18.124985 25.348827 18.125 25.105001L 18.125 11.07C 18.125326 10.950993 18.173174 10.837046 18.25791 10.753483C 18.342646 10.66992 18.457249 10.623666 18.57625 10.625C 19.915827 10.638821 21.252649 10.749527 22.57625 10.95625C 24.496273 11.229375 26.325586 11.948599 27.917501 13.056251M 12.28875 38.125L 19.623751 39.30875C 21.150396 39.521057 22.70385 39.207634 24.028749 38.419998L 31.707499 33.855C 32.224792 33.548756 32.599033 33.049332 32.747704 32.466858C 32.89637 31.884384 32.807251 31.266697 32.5 30.75L 32.5 30.75C 31.8615 29.675695 30.472923 29.322535 29.398748 29.961248L 23.39875 33.5275M 12.28875 32.237503L 15.403749 30.38625C 16.556347 29.699974 17.886648 29.371098 19.22625 29.44125L 22.327501 29.602501C 22.90506 29.605167 23.456375 29.844057 23.853285 30.263634C 24.250196 30.683212 24.45813 31.246931 24.428751 31.82375L 24.428751 31.82375C 24.374792 32.888554 23.535851 33.746258 22.4725 33.823753L 18.512501 33.802498"></path></g></g></g><g id="g-root-tx_partager_5vzhp11i8e8f-stroke" data-item-order="1000000000" transform="translate(275, 605)"></g><g id="g-root-3_140io3111hudqb-stroke" data-item-order="1000000000" transform="translate(269, 51)"><g id="3_140io3111hudqb-stroke" fill="none" stroke-linecap="round" stroke-linejoin="round" stroke-miterlimit="4" stroke="#484848" stroke-width="2"><g><path d="M 38.827499 26.945C 39.142109 26.905693 39.377445 26.637047 39.375 26.32L 39.375 23.6775C 39.377445 23.360455 39.142109 23.091805 38.827499 23.0525L 36.013752 22.70125C 35.726933 21.323126 35.181931 20.011724 34.407497 18.83625L 36.151249 16.58625C 36.344418 16.337601 36.322456 15.984081 36.099998 15.76125L 34.224998 13.88625C 34.002167 13.663795 33.648651 13.641833 33.399998 13.835L 31.16 15.59375C 29.98432 14.819439 28.673023 14.274054 27.295 13.98625L 26.94375 11.17375C 26.904446 10.859139 26.635798 10.623804 26.31875 10.62625L 23.67625 10.62625C 23.359203 10.623804 23.090555 10.859139 23.05125 11.17375L 22.700001 13.98625C 21.323717 14.274652 20.014166 14.820015 18.84 15.59375L 16.596251 13.85C 16.347601 13.656834 15.994081 13.678795 15.77125 13.90125L 13.89625 15.77625C 13.673795 15.999081 13.651834 16.3526 13.845 16.60125L 15.594999 18.85125C 14.820569 20.026724 14.275565 21.338127 13.98875 22.716249L 11.175 23.067501C 10.86039 23.106806 10.625054 23.375454 10.6275 23.692501L 10.6275 26.325001C 10.625054 26.642046 10.86039 26.910694 11.175 26.950001L 13.98875 27.30125C 14.275565 28.679373 14.820569 29.990774 15.594999 31.166248L 13.85125 33.416248C 13.658083 33.664898 13.680044 34.018417 13.9025 34.241249L 15.7775 36.116249C 16.000332 36.338707 16.353849 36.360668 16.602501 36.1675L 18.852499 34.423748C 20.028179 35.198063 21.339476 35.743446 22.717499 36.03125L 23.06875 38.84375C 23.108055 39.15836 23.376703 39.393696 23.69375 39.391251L 26.341249 39.391251C 26.658297 39.393696 26.926945 39.15836 26.966249 38.84375L 27.317501 36.03125C 28.695522 35.743446 30.006821 35.198063 31.182499 34.423748L 33.42625 36.1675C 33.6749 36.360668 34.028419 36.338707 34.251247 36.116249L 36.126247 34.241249C 36.348705 34.018417 36.370667 33.664898 36.177498 33.416248L 34.43375 31.16625C 35.208179 29.990774 35.753181 28.679373 36.039997 27.30125ZM 16.875 25.001251C 16.875 29.488565 20.512688 33.126251 25 33.126251C 29.487314 33.126251 33.125 29.488565 33.125 25.001251C 33.125 20.513937 29.487314 16.876251 25 16.876251C 20.512688 16.876251 16.875 20.513937 16.875 25.001251ZM 25 16.876249L 25 23.126251M 23.125 25.001251C 23.125 26.036785 23.964466 26.876251 25 26.876251C 26.035534 26.876251 26.875 26.036785 26.875 25.001251C 26.875 23.965717 26.035534 23.126251 25 23.126251C 23.964466 23.126251 23.125 23.965717 23.125 25.001251ZM 26.475 26.16L 31.38875 30.02125M 23.525 26.16L 18.61125 30.02125"></path></g></g></g></g></g></svg>